v -0.00105172122 -0.000569557408 0.0503699851
v 5.60421797e-10 5.50897329e-11 -2.01898734e-09
v 0.012360681 3.12980103e-10 0.00195773707
v 0.0235114116 -1.28905389e-10 0.00763931577
v 0.0342911792 -0.000412849913 0.0132578892
v 0.0402682181 -0.000457533438 0.0231977124
v 0.0420805792 -0.000430779378 0.0344152803
v 0.0395890662 -0.000367591567 0.0460644973
v 0.0333066187 -0.000390297714 0.0560835953
v 0.024505565 -0.000487599115 0.0631154793
v 0.0127835754 -0.000920944852 0.0637704023
v 2.96499208e-05 -0.0134361175 0.0647602317
v 0.0361069419 0.0112745384 0.0176216394
v 0.027479448 0.0115423134 0.0594970169
v 0.039838799 0.0109716193 0.039889901
v 0.0398970527 -0.0118120576 0.0405207681
v 0.0287366292 -0.0116746588 0.00986777509
v 0.00602530301 -0.0107926894 0.00195773778
v 0.0276535415 -0.0117262653 0.0589249805
v 0.00588156246 0.00923692998 0.0560788246
v 0.0119888799 -0.01308991 0.0657280341
v 0.0352554047 0.0116221163 0.0511638955
v 0.0277279247 0.0223357197 0.0534687145
v 0.0187372641 0.0217045368 0.0604272548
v 0.0401448872 0.0114071087 0.0286475679
v 0.0339765455 0.0219471278 0.0241808702
v 0.00602530256 0.0107926878 0.00195773787
v 0.0283927735 0.021613681 0.0144520857
v 0.0187412144 0.0108997767 0.00638509202
v 0.0121311422 0.0203429026 0.00776644447
v 0.0248130621 0.0309391109 0.021214727
v 0.0292241792 0.0299654131 0.0327431648
v 0.0173400192 0.0288921707 0.012283812
v 0.0171129706 -0.0105219486 0.005410477
v 0.0109998939 -0.0214982312 0.00811224805
v 0.0396838182 -0.0118779425 0.0289785781
v 0.0357039504 -0.0223999793 0.0341269227
v 0.0338474256 -0.0220085963 0.0450231987
v 0.0278341383 -0.0312625757 0.0392552852
v 0.0286409448 -0.0302483745 0.0277226424
v 0.0190856666 -0.0374338227 0.0331496148
v 0.0130434667 0.0369909356 0.0199556594
v -0.000191616169 0.022289037 0.00678611065
v -0.00644031649 0.0107092029 0.00200216468
v -0.00163131787 -0.0200015146 0.00539828644
v 0.00296701989 -0.0301593465 0.00906376271
v 0.0174783696 0.0306658885 0.0535823132
v 0.0172225083 -0.0368017727 0.0447296126
v 0.00770449751 -0.0418298457 0.0377654791
v -0.00990571763 -0.0295505046 0.00944448516
v 0.00503991677 -0.0385867387 0.048363367
v -0.00494392346 -0.0415267257 0.0413811743
v -0.00716520262 -0.0363821923 0.0521528966
v -0.0139237081 -0.0172534869 0.00670663817
v 0.00757242087 0.0296919941 0.0593644978
v 0.00607094606 0.0363536304 0.0511764123
v -0.0166995621 -0.0370570341 0.0442632907
v -0.0129863377 0.0211766741 0.00864870236
v -0.0186047392 -0.0306443443 0.0544927657
v -0.0046873552 0.0332282351 0.0559660327
v -0.0273089412 -0.0299629435 0.0461749577
v -0.0279965782 -0.0215838191 0.0547659153
v -0.0357579569 -0.0195774301 0.0461444314
v -0.0349366552 -0.0106747715 0.0538237104
v -0.0407287101 -0.00612548627 0.0424328906
v -0.00620847003 0.038678977 0.0470450664
v -0.0164804569 0.0329553983 0.051484886
v -0.0177275566 0.0375212612 0.0408892494
v -0.0218076936 -0.0237658071 0.0102475021
v -0.0160836951 0.0268082421 0.0589098923
v -0.0265984917 -0.0117941653 0.00764080875
v -0.0269829517 0.0299995821 0.0453608768
v -0.0265936832 0.032645739 0.0335942668
v -0.0325534019 -0.0176753671 0.0153902863
v -0.034398021 -0.00529014786 0.0127015142
v -0.0347645128 0.0238097272 0.0371449257
v -0.0331950409 0.0248815014 0.0259501753
v -0.0185780968 -0.0337734419 0.0185194331
v -0.0148402862 0.0388695601 0.0294864959
v -0.0346034264 0.0192780115 0.0472552766
v -0.0396246214 0.0148433613 0.0299450638
v -0.0257942766 -0.0113542135 0.0615607167
v -0.00636930201 0.031754777 0.0117206207
v -0.00821961299 -0.0282169869 0.0604663197
v -0.0334636378 -0.0262586032 0.0359384676
v -0.030567696 0.000477582625 0.0592725269
v -0.0203798569 -0.00073112622 0.065192436
v 0.00474289408 0.0411005268 0.0408551806
v 0.0144101609 -0.031768237 0.0548212482
v -0.0397202031 -0.00808202742 0.0216906354
v -0.0183134789 0.00920714495 0.0056511224
v -0.0249130618 0.0185737838 0.0100142215
v -0.0354414107 0.0148982299 0.0174056007
v -0.00160002703 -0.0417984922 0.0283005747
v 0.0152792237 -0.0303986663 0.0127354562
v -0.0303725472 0.00654056365 0.00885622309
v -0.0116733881 -0.000655211865 0.00174685816
v -0.014325482 -0.012766338 0.0650022925
v 0.00639961702 -0.0375367245 0.018131538
v -0.0248048273 0.010806313 0.0621057428
v -0.0132175266 0.0103403259 0.0650953038
v 0.0251223441 0.0310872697 0.0446429659
v -0.00403185438 0.0160397398 0.0646649637
v -0.0407363455 0.00435812146 0.0242779029
v -0.0422783711 0.00470408319 0.0353616657
v 0.0358218029 -0.0117725084 0.0503282373
v 0.0219046028 -0.0208696357 0.00912332082
v 0.0272372787 -0.0256328072 0.0166556589
v 0.0361485738 -0.011348931 0.0178118537
v 0.0185180247 -0.035516228 0.0224096314
v 0.0194136537 0.00866369439 0.06374438
v -0.0354394238 -0.0215137399 0.0251271602
v -0.0401688067 -0.0140489089 0.0334409546
v -0.039652771 0.00634787039 0.04616157
v -0.0278022146 -0.0312237177 0.02701391
v 0.028161125 0.0106001544 0.00968276298
v 0.0340998729 0.0211828334 0.0440763886
v 0.0187751769 0.0373437839 0.0368157773
v 0.00600436504 0.0328700653 0.012396512
v -0.000752137326 0.0394305874 0.0208824654
v -0.0129864825 0.0359152939 0.0188678985
v -0.00282538344 0.0414464778 0.031789699
v 0.00904627985 0.0401177072 0.0298998653
v -0.0234378359 0.0327125745 0.0228718608
v -0.0184869998 0.0291457089 0.0138349877
v -0.00515090221 -0.0371867883 0.0171633632
v 0.024647676 -0.0291313511 0.0499236058
v 0.0213234917 -0.021305072 0.0591527076
v 0.00906909327 -0.0246218397 0.0622051517
v 0.00320030196 -0.0339388029 0.0560738031
v -0.0010022937 -0.0211285829 0.0636474978
v -0.0042789665 0.0260524713 0.0618508131
v 0.0103457623 -0.0402833586 0.0277641891
v -0.0263155199 0.0245213611 0.0536208708
v -0.0139549476 -0.0403908862 0.0337864889
v -0.0204415105 -0.0219526464 0.0605516101
v -0.0130733186 7.51243968e-06 0.0629450993
v 0.0369018085 0.0198807822 0.0340214557
v 0.0351441225 -0.0212410832 0.0248915944
v -0.0242248422 -0.0348667075 0.0357253941
v -0.00635163963 -0.00907876706 0.00156521193
v -0.0327694956 0.0113811677 0.0556836794
v -0.020749979 -0.000433769922 0.00580569481
v -0.0118949395 -0.039452464 0.0241590906
v -0.0284667367 0.0250744435 0.0173963144
v 0.0298494749 -0.0203566173 0.0531257658
v -0.0392643393 0.0140495174 0.0392954133
v 0.0151526036 0.0365829732 0.046017091
v -0.0276365666 -0.0265310445 0.0182376181
v 0.0193731553 0.0363654259 0.0275674296
v 0.00840527166 0.0217668069 0.0628833259
v -0.0370948711 0.00409190951 0.0153917745
v 0.0217067721 0.0187111888 0.00888763259
v -0.0371263219 -0.000308287817 0.0528104003
v 0.021205436 -0.00905630609 0.0641257499
v -0.0422042711 -0.00442749432 0.0307938213
v -0.0289972576 -0.00211490181 0.00801839848
v -0.00812761698 0.0408279197 0.0392413903
v -0.0168965518 -0.00861181014 0.00478149012
v -0.0198301191 -0.0370172105 0.0276802987
v -0.01701461 0.0180118794 0.063396603
v -0.0234939711 0.0188589791 0.0597075332
f 39 127 48
f 64 86 154
f 66 158 68
f 80 142 134
f 97 159 143
f 64 154 65
f 115 160 140
f 134 142 162
f 71 157 143
f 66 68 67
f 24 151 111
f 68 158 79
f 71 143 159
f 5 116 13
f 38 127 39
f 63 64 65
f 86 142 154
f 28 153 33
f 74 90 75
f 27 30 29
f 102 118 148
f 114 154 142
f 38 146 127
f 103 151 132
f 70 162 161
f 61 85 140
f 135 140 160
f 71 75 157
f 19 146 106
f 70 134 162
f 78 144 160
f 80 114 142
f 80 147 114
f 61 62 63
f 135 160 144
f 17 108 107
f 29 30 153
f 4 116 5
f 49 52 94
f 70 161 132
f 65 105 156
f 12 98 131
f 30 33 153
f 48 127 89
f 75 96 157
f 65 154 114
f 60 66 67
f 81 105 147
f 16 106 38
f 71 74 75
f 67 134 70
f 76 81 147
f 34 107 35
f 103 132 161
f 13 116 28
f 38 106 146
f 28 116 153
f 95 110 99
f 43 44 58
f 66 88 158
f 94 135 144
f 48 51 49
f 29 153 116
f 2 18 141
f 88 148 118
f 62 64 63
f 77 124 145
f 52 135 94
f 54 71 159
f 5 13 6
f 62 82 64
f 57 140 135
f 79 121 124
f 58 125 83
f 14 23 24
f 23 102 47
f 105 114 147
f 67 72 134
f 59 136 62
f 60 67 70
f 85 115 140
f 7 16 36
f 49 51 52
f 56 88 66
f 121 125 124
f 60 70 132
f 6 25 7
f 16 38 37
f 65 114 105
f 95 107 108
f 35 107 95
f 18 35 45
f 2 141 97
f 18 34 35
f 67 68 72
f 97 141 159
f 79 158 122
f 108 109 139
f 124 125 145
f 9 19 106
f 16 37 36
f 17 109 108
f 73 79 124
f 100 162 142
f 84 98 136
f 74 112 90
f 84 131 98
f 54 69 71
f 79 120 121
f 94 99 133
f 59 62 61
f 82 87 86
f 22 117 23
f 20 111 151
f 62 136 82
f 65 156 113
f 73 124 77
f 56 66 60
f 61 63 85
f 76 147 80
f 76 77 81
f 32 102 117
f 82 98 87
f 57 61 140
f 48 89 51
f 10 11 155
f 2 3 18
f 112 149 115
f 20 151 103
f 28 33 31
f 82 136 98
f 101 137 103
f 127 146 128
f 27 43 30
f 1 20 137
f 2 27 3
f 27 44 43
f 89 127 128
f 104 156 105
f 79 122 120
f 77 145 93
f 23 47 24
f 84 130 129
f 10 111 11
f 32 118 102
f 14 24 111
f 14 22 23
f 88 122 158
f 5 109 17
f 32 117 138
f 4 5 17
f 3 27 29
f 75 152 96
f 49 94 133
f 55 132 151
f 88 118 123
f 6 13 25
f 51 53 52
f 26 28 31
f 23 117 102
f 101 103 161
f 41 48 49
f 44 97 91
f 8 9 106
f 74 149 112
f 94 144 126
f 78 160 115
f 68 79 73
f 4 29 116
f 83 121 120
f 13 28 26
f 90 156 104
f 33 119 42
f 51 130 53
f 8 106 16
f 15 138 117
f 86 100 142
f 2 97 44
f 1 21 11
f 90 113 156
f 56 148 88
f 40 110 108
f 50 69 54
f 17 107 34
f 7 25 15
f 42 120 123
f 58 92 125
f 75 90 152
f 84 129 131
f 40 41 110
f 47 102 148
f 99 110 133
f 63 65 113
f 78 126 144
f 69 74 71
f 46 95 99
f 91 97 143
f 55 60 132
f 89 129 130
f 6 7 36
f 52 57 135
f 12 137 98
f 96 143 157
f 1 137 12
f 118 150 123
f 39 41 40
f 72 80 134
f 11 111 20
f 51 89 130
f 42 119 120
f 92 96 93
f 81 104 105
f 45 46 50
f 15 117 22
f 88 123 122
f 2 44 27
f 37 38 39
f 43 58 83
f 18 45 141
f 10 155 19
f 85 112 115
f 86 87 100
f 59 84 136
f 100 161 162
f 53 130 84
f 90 112 113
f 31 33 42
f 42 123 150
f 36 37 139
f 54 159 141
f 94 126 99
f 120 122 123
f 5 6 109
f 41 49 133
f 8 22 9
f 44 91 58
f 77 93 81
f 7 8 16
f 9 10 19
f 87 101 100
f 20 103 137
f 1 12 21
f 68 73 72
f 78 115 149
f 63 113 85
f 90 104 152
f 30 119 33
f 72 76 80
f 15 25 138
f 24 55 151
f 50 126 78
f 41 133 110
f 12 131 21
f 45 50 54
f 73 77 76
f 3 29 4
f 100 101 161
f 21 131 129
f 55 56 60
f 89 128 129
f 1 11 20
f 83 120 119
f 57 59 61
f 19 128 146
f 11 21 155
f 3 34 18
f 40 108 139
f 26 31 32
f 69 149 74
f 13 26 25
f 9 22 14
f 26 32 138
f 8 15 22
f 45 54 141
f 6 36 109
f 24 47 55
f 30 43 119
f 87 98 137
f 50 78 69
f 4 17 34
f 91 143 96
f 93 96 152
f 85 113 112
f 7 15 8
f 72 73 76
f 32 150 118
f 52 53 57
f 10 14 111
f 37 39 40
f 9 14 10
f 31 42 150
f 3 4 34
f 43 83 119
f 46 99 126
f 81 93 104
f 58 91 92
f 47 148 56
f 46 126 50
f 25 26 138
f 69 78 149
f 53 59 57
f 53 84 59
f 91 96 92
f 47 56 55
f 31 150 32
f 37 40 139
f 87 137 101
f 93 152 104
f 19 155 128
f 21 128 155
f 21 129 128
f 39 48 41
f 64 82 86
f 95 108 110
f 35 95 46
f 83 125 121
f 36 139 109
f 92 145 125
f 35 46 45
f 92 93 145
