v -0.000617076067 -0.000691592527 0.0589906796
v 3.91402002e-10 7.38198567e-11 -1.60477339e-09
v 0.0123606807 2.34260789e-10 0.00195773763
v 0.0235114113 -1.58605299e-10 0.00763931705
v 0.0337014618 -0.000408001485 0.0143436876
v 0.0394739701 -0.000554758249 0.0247146839
v 0.0411633353 -0.000625267437 0.0363561328
v 0.0387213528 -0.000711339815 0.0482374209
v 0.0325068229 -0.000848923598 0.058646137
v 0.0237533592 -0.000857159534 0.0664861743
v 0.0123857699 -0.000910323644 0.070404503
v -9.39253279e-05 -0.0141295466 0.0701756223
v 0.0353704734 0.0109867261 0.0190986373
v 0.0264593236 0.0108332452 0.0625384007
v 0.0389597558 0.0105012154 0.0420350655
v 0.0390019631 -0.0118610511 0.0422880119
v 0.0283284215 -0.0114734049 0.0107577085
v 0.00602530279 -0.0107926894 0.00195773806
v 0.0271118457 -0.0119136283 0.0618407972
v 0.00569780678 0.00961271857 0.0652815372
v 0.0118370428 -0.0134607984 0.0697412562
v 0.034276327 0.0109408299 0.0535902018
v 0.0270025477 0.0214791698 0.0558321286
v 0.0180811412 0.0208996932 0.0630777459
v 0.0392859858 0.0109414897 0.0305155193
v 0.0333379578 0.021356567 0.0259183522
v 0.00602530254 0.0107926882 0.00195773819
v 0.0278907651 0.0210951147 0.0158147491
v 0.018741214 0.0108997768 0.00638509299
v 0.0121311423 0.0203429015 0.00776644544
v 0.0243195969 0.0301766273 0.0229116668
v 0.0286008868 0.0292053785 0.0346959117
v 0.0170862675 0.0283257224 0.0135177744
v 0.0171129706 -0.0105219484 0.00541047785
v 0.0109998937 -0.021498231 0.00811224903
v 0.0390287212 -0.011785184 0.0305254534
v 0.0350313684 -0.0221751022 0.0358026352
v 0.0331280094 -0.0218939987 0.0469144228
v 0.02727792 -0.0308939913 0.0410181533
v 0.0281510674 -0.0298496949 0.0293021185
v 0.0188207643 -0.0370539246 0.0346106883
v 0.0127866315 0.0361739483 0.0216117344
v -0.000191616179 0.0222890366 0.00678611149
v -0.00644031672 0.0107092026 0.00200216528
v -0.00163131783 -0.0200015142 0.00539828738
v 0.00295729461 -0.0299776253 0.00995294222
v 0.0169438279 0.0297623434 0.055928738
v 0.0168938281 -0.0363976285 0.0463920143
v 0.00755485861 -0.0412768806 0.039250927
v -0.00980565747 -0.0291783892 0.0102045607
v 0.00501590092 -0.0382903933 0.0503406838
v -0.00476207277 -0.0410898516 0.0430458137
v -0.00702258474 -0.0361823953 0.0541114636
v -0.0139237078 -0.0172534864 0.00670663906
v 0.00708348162 0.0287192059 0.0618087303
v 0.00568215739 0.0354419847 0.0534075229
v -0.0164430836 -0.0368856998 0.0459853331
v -0.0129863374 0.0211766736 0.00864870306
v -0.0182969264 -0.0305642764 0.0564035383
v -0.00493376104 0.032225543 0.0583916045
v -0.0269349495 -0.0298108506 0.047736388
v -0.0275827856 -0.0216873822 0.0567650784
v -0.0351654169 -0.0196375882 0.0476251594
v -0.0343879235 -0.0109708175 0.055597625
v -0.040242804 -0.00642729486 0.0440622889
v -0.0062729192 0.0377651265 0.0490797853
v -0.0164483888 0.032000768 0.0536659443
v -0.0174740564 0.0365315743 0.0428213442
v -0.0215875969 -0.0236518146 0.0112776143
v -0.0160532119 0.025820771 0.0612787861
v -0.0261403147 -0.0117675692 0.00840447556
v -0.0266866045 0.0291402303 0.0471510424
v -0.0262256704 0.0318818831 0.0353197885
v -0.0320357631 -0.0175723665 0.0165451618
v -0.0338752775 -0.00539029578 0.0137214663
v -0.0342990041 0.0230825406 0.0388844337
v -0.0326780542 0.0243274808 0.0276360481
v -0.0182221411 -0.0335396451 0.0196512744
v -0.014803728 0.038066697 0.0311191994
v -0.0341895955 0.0185131346 0.0491232347
v -0.0390666921 0.0143022948 0.0314904154
v -0.0253316575 -0.0118366991 0.0639798429
v -0.00631610555 0.0313160531 0.0126228525
v -0.00812937059 -0.0281863778 0.063068531
v -0.0329058116 -0.026229343 0.0372755524
v -0.0303615138 -0.000187246484 0.0615566178
v -0.0206119578 -0.00138718278 0.0681218693
v 0.00453266115 0.0401059828 0.0427271294
v 0.014040192 -0.0315991309 0.0569695431
v -0.0390625964 -0.00822890645 0.023025819
v -0.0183134784 0.00920714457 0.00565112343
v -0.0245930633 0.0183084165 0.0108599749
v -0.0349605754 0.0145376577 0.0189501529
v -0.00152304146 -0.0414114737 0.0295047277
v 0.0151740282 -0.0299887804 0.0137026801
v -0.0300135232 0.00636359037 0.00991360497
v -0.0116733883 -0.000655211854 0.00174685863
v -0.0140995709 -0.0130802912 0.0687268741
v 0.00648095506 -0.0371264887 0.019270838
v -0.0245171936 0.0101030367 0.064645494
v -0.0131619119 0.00944782224 0.0687427076
v 0.0244990628 0.0302547747 0.0468161372
v -0.00428754943 0.0151058475 0.0685271083
v -0.0402002816 0.00401502469 0.0256726489
v -0.0416590162 0.00432447185 0.0369224654
v 0.0350497956 -0.0119153811 0.0524798747
v 0.0215762217 -0.0205512755 0.00993742128
v 0.0268320023 -0.0252382773 0.0179353092
v 0.0354982854 -0.0112089664 0.0191243162
v 0.0183397354 -0.0350426686 0.0236726739
v 0.0183133984 0.00812673397 0.0675345414
v -0.034859239 -0.0214805552 0.0264537185
v -0.0395756412 -0.0141268925 0.0348516772
v -0.0391620891 0.00584048577 0.0479405473
v -0.0272865583 -0.031070949 0.0282491432
v 0.0276654889 0.0103514325 0.0104362968
v 0.0333391862 0.020485356 0.0462526964
v 0.0183624741 0.0364562882 0.0387452535
v 0.00592250383 0.0323442072 0.0134951866
v -0.000776701004 0.0386827895 0.0225383434
v -0.0128062158 0.0352974017 0.0201795955
v -0.00289164437 0.0406639643 0.0335202462
v 0.00887004473 0.0394241043 0.0316443017
v -0.0231232779 0.0320327207 0.0243066121
v -0.0182793948 0.0287061723 0.0148375766
v -0.00501006002 -0.0368198304 0.018179255
v 0.0240629334 -0.0288374851 0.0519895755
v 0.02077278 -0.0213796486 0.0619010497
v 0.00876257297 -0.0246572319 0.0651783976
v 0.00306111199 -0.0336940536 0.058339742
v -0.0011552697 -0.0214185867 0.0677628357
v -0.00455425216 0.0250358843 0.0647589294
v 0.0102768925 -0.0398403221 0.0290993115
v -0.0261381938 0.0236710195 0.0555604021
v -0.0136088899 -0.0399863081 0.035314193
v -0.0200036068 -0.0220451551 0.0628577162
v -0.0133504586 -0.000772092551 0.0680732136
v 0.0361233968 0.0192731984 0.0359727763
v 0.0344716251 -0.0209555833 0.0264421041
v -0.0237553468 -0.0346829034 0.0371989111
v -0.00635163938 -0.00907876694 0.00156521273
v -0.0323112834 0.0106314238 0.0577519481
v -0.0207499784 -0.00043376994 0.00580569532
v -0.0116207047 -0.0390448357 0.0254290401
v -0.0280764185 0.024568578 0.0187347645
v 0.0290913012 -0.0202273065 0.0553853636
v -0.0388279407 0.0135090567 0.0410137583
v 0.0146542598 0.0356494686 0.0481819116
v -0.027252926 -0.0264038936 0.0194021333
v 0.0190152336 0.0355764776 0.0293622828
v 0.00793989525 0.0208519311 0.0659537276
v -0.0365370739 0.00384907259 0.0167190467
v 0.0213966406 0.018525469 0.00964763057
v -0.0366057859 -0.000801164379 0.0546115274
v 0.0206175796 -0.00920102035 0.0673491095
v -0.041582398 -0.00460283819 0.0322312417
v -0.0286324256 -0.00219586205 0.00877429597
v -0.00816456053 0.0398730035 0.0409925077
v -0.0168965517 -0.00861181005 0.00478149051
v -0.0194339849 -0.0367311208 0.029007408
v -0.0169201182 0.0170806448 0.0661219474
v -0.0232941069 0.0181128374 0.0620793353
f 39 127 48
f 64 86 154
f 66 158 68
f 80 142 134
f 97 159 143
f 64 154 65
f 115 160 140
f 134 142 162
f 71 157 143
f 66 68 67
f 24 151 111
f 68 158 79
f 71 143 159
f 5 116 13
f 38 127 39
f 63 64 65
f 86 142 154
f 28 153 33
f 74 90 75
f 27 30 29
f 102 118 148
f 114 154 142
f 38 146 127
f 103 151 132
f 70 162 161
f 61 85 140
f 135 140 160
f 71 75 157
f 19 146 106
f 70 134 162
f 78 144 160
f 80 114 142
f 80 147 114
f 61 62 63
f 135 160 144
f 17 108 107
f 29 30 153
f 4 116 5
f 49 52 94
f 70 161 132
f 65 105 156
f 12 98 131
f 30 33 153
f 48 127 89
f 75 96 157
f 65 154 114
f 60 66 67
f 81 105 147
f 16 106 38
f 71 74 75
f 67 134 70
f 76 81 147
f 34 107 35
f 103 132 161
f 13 116 28
f 38 106 146
f 28 116 153
f 95 110 99
f 43 44 58
f 66 88 158
f 94 135 144
f 48 51 49
f 29 153 116
f 2 18 141
f 88 148 118
f 62 64 63
f 77 124 145
f 52 135 94
f 54 71 159
f 5 13 6
f 62 82 64
f 57 140 135
f 79 121 124
f 58 125 83
f 14 23 24
f 23 102 47
f 105 114 147
f 67 72 134
f 59 136 62
f 60 67 70
f 85 115 140
f 7 16 36
f 49 51 52
f 56 88 66
f 121 125 124
f 60 70 132
f 6 25 7
f 16 38 37
f 65 114 105
f 95 107 108
f 35 107 95
f 18 35 45
f 2 141 97
f 18 34 35
f 67 68 72
f 97 141 159
f 79 158 122
f 108 109 139
f 124 125 145
f 9 19 106
f 16 37 36
f 17 109 108
f 73 79 124
f 100 162 142
f 84 98 136
f 74 112 90
f 84 131 98
f 54 69 71
f 79 120 121
f 94 99 133
f 59 62 61
f 82 87 86
f 22 117 23
f 20 111 151
f 62 136 82
f 65 156 113
f 73 124 77
f 56 66 60
f 61 63 85
f 76 147 80
f 76 77 81
f 32 102 117
f 82 98 87
f 57 61 140
f 48 89 51
f 10 11 155
f 2 3 18
f 112 149 115
f 20 151 103
f 28 33 31
f 82 136 98
f 101 137 103
f 127 146 128
f 27 43 30
f 1 20 137
f 2 27 3
f 27 44 43
f 89 127 128
f 104 156 105
f 79 122 120
f 77 145 93
f 23 47 24
f 84 130 129
f 10 111 11
f 32 118 102
f 14 24 111
f 14 22 23
f 88 122 158
f 5 109 17
f 32 117 138
f 4 5 17
f 3 27 29
f 75 152 96
f 49 94 133
f 55 132 151
f 88 118 123
f 6 13 25
f 51 53 52
f 26 28 31
f 23 117 102
f 101 103 161
f 41 48 49
f 44 97 91
f 8 9 106
f 74 149 112
f 94 144 126
f 78 160 115
f 68 79 73
f 4 29 116
f 83 121 120
f 13 28 26
f 90 156 104
f 33 119 42
f 51 130 53
f 8 106 16
f 15 138 117
f 86 100 142
f 2 97 44
f 1 21 11
f 90 113 156
f 56 148 88
f 40 110 108
f 50 69 54
f 17 107 34
f 7 25 15
f 42 120 123
f 58 92 125
f 75 90 152
f 84 129 131
f 40 41 110
f 47 102 148
f 99 110 133
f 63 65 113
f 78 126 144
f 69 74 71
f 46 95 99
f 91 97 143
f 55 60 132
f 89 129 130
f 6 7 36
f 52 57 135
f 12 137 98
f 96 143 157
f 1 137 12
f 118 150 123
f 39 41 40
f 72 80 134
f 11 111 20
f 51 89 130
f 42 119 120
f 92 96 93
f 81 104 105
f 45 46 50
f 15 117 22
f 88 123 122
f 2 44 27
f 37 38 39
f 43 58 83
f 18 45 141
f 10 155 19
f 85 112 115
f 86 87 100
f 59 84 136
f 100 161 162
f 53 130 84
f 90 112 113
f 31 33 42
f 42 123 150
f 36 37 139
f 54 159 141
f 94 126 99
f 120 122 123
f 5 6 109
f 41 49 133
f 8 22 9
f 44 91 58
f 77 93 81
f 7 8 16
f 9 10 19
f 87 101 100
f 20 103 137
f 1 12 21
f 68 73 72
f 78 115 149
f 63 113 85
f 90 104 152
f 30 119 33
f 72 76 80
f 15 25 138
f 24 55 151
f 50 126 78
f 41 133 110
f 12 131 21
f 45 50 54
f 73 77 76
f 3 29 4
f 100 101 161
f 21 131 129
f 55 56 60
f 89 128 129
f 1 11 20
f 83 120 119
f 57 59 61
f 19 128 146
f 11 21 155
f 3 34 18
f 40 108 139
f 26 31 32
f 69 149 74
f 13 26 25
f 9 22 14
f 26 32 138
f 8 15 22
f 45 54 141
f 6 36 109
f 24 47 55
f 30 43 119
f 87 98 137
f 50 78 69
f 4 17 34
f 91 143 96
f 93 96 152
f 85 113 112
f 7 15 8
f 72 73 76
f 32 150 118
f 52 53 57
f 10 14 111
f 37 39 40
f 9 14 10
f 31 42 150
f 3 4 34
f 43 83 119
f 46 99 126
f 81 93 104
f 58 91 92
f 47 148 56
f 46 126 50
f 25 26 138
f 69 78 149
f 53 59 57
f 53 84 59
f 91 96 92
f 47 56 55
f 31 150 32
f 37 40 139
f 87 137 101
f 93 152 104
f 19 155 128
f 21 128 155
f 21 129 128
f 39 48 41
f 64 82 86
f 95 108 110
f 35 95 46
f 83 125 121
f 36 139 109
f 92 145 125
f 35 46 45
f 92 93 145
