v 1.494292 -0.130734 0
v 1.498572 -0.065429 0
v 1.500000 0.000000 0
v 1.498572 0.065429 0
v 1.494292 0.130734 0
v 1.487167 0.195789 0
v 1.477212 0.260472 0
v 1.464444 0.324659 0
v 1.448889 0.388229 0
v 1.430575 0.451059 0
v 1.409539 0.513030 0
v 1.385819 0.574025 0
v 1.359462 0.633927 0
v 1.330516 0.692623 0
v 1.299038 0.750000 0
v 1.265087 0.805949 0
v 1.228728 0.860365 0
v 1.190030 0.913142 0
v 1.149067 0.964181 0
v 1.105916 1.013385 0
v 1.060660 1.060660 0
v 1.013385 1.105916 0
v 0.964181 1.149067 0
v 0.913142 1.190030 0
v 0.860365 1.228728 0
v 0.805949 1.265087 0
v 0.750000 1.299038 0
v 0.692623 1.330516 0
v 0.633927 1.359462 0
v 0.574025 1.385819 0
v 0.513030 1.409539 0
v 0.451059 1.430575 0
v 0.388229 1.448889 0
v 0.324659 1.464444 0
v 0.260472 1.477212 0
v 0.195789 1.487167 0
v 0.130734 1.494292 0
v 0.065429 1.498572 0
v 0.000000 1.500000 0
v -0.065429 1.498572 0
v -0.130734 1.494292 0
v -0.195789 1.487167 0
v -0.260472 1.477212 0
v -0.324659 1.464444 0
v -0.388229 1.448889 0
v -0.451059 1.430575 0
v -0.513030 1.409539 0
v -0.574025 1.385819 0
v -0.633927 1.359462 0
v -0.692623 1.330516 0
v -0.750000 1.299038 0
v -0.805949 1.265087 0
v -0.860365 1.228728 0
v -0.913142 1.190030 0
v -0.964181 1.149067 0
v -1.013385 1.105916 0
v -1.060660 1.060660 0
v -1.105916 1.013385 0
v -1.149067 0.964181 0
v -1.190030 0.913142 0
v -1.228728 0.860365 0
v -1.265087 0.805949 0
v -1.299038 0.750000 0
v -1.330516 0.692623 0
v -1.359462 0.633927 0
v -1.385819 0.574025 0
v -1.409539 0.513030 0
v -1.430575 0.451059 0
v -1.448889 0.388229 0
v -1.464444 0.324659 0
v -1.477212 0.260472 0
v -1.487167 0.195789 0
v -1.494292 0.130734 0
v -1.498572 0.065429 0
v -1.500000 0.000000 0
v -1.498572 -0.065429 0
v -1.494292 -0.130734 0
v -1.487167 -0.195789 0
v -1.477212 -0.260472 0
v -1.464444 -0.324659 0
v -1.448889 -0.388229 0
v -1.430575 -0.451059 0
v -1.409539 -0.513030 0
v -1.385819 -0.574025 0
v -1.359462 -0.633927 0
v -1.330516 -0.692623 0
v -1.299038 -0.750000 0
v -1.265087 -0.805949 0
v -1.228728 -0.860365 0
v -1.190030 -0.913142 0
v -1.149067 -0.964181 0
v -1.105916 -1.013385 0
v -1.060660 -1.060660 0
v -1.013385 -1.105916 0
v -0.964181 -1.149067 0
v -0.913142 -1.190030 0
v -0.860365 -1.228728 0
v -0.805949 -1.265087 0
v -0.750000 -1.299038 0
v -0.692623 -1.330516 0
v -0.633927 -1.359462 0
v -0.574025 -1.385819 0
v -0.513030 -1.409539 0
v -0.451059 -1.430575 0
v -0.388229 -1.448889 0
v -0.324659 -1.464444 0
v -0.260472 -1.477212 0
v -0.195789 -1.487167 0
v -0.130734 -1.494292 0
v -0.065429 -1.498572 0
v -0.000000 -1.500000 0
v 0.065429 -1.498572 0
v 0.130734 -1.494292 0
v 0.195789 -1.487167 0
v 0.260472 -1.477212 0
v 0.324659 -1.464444 0
v 0.388229 -1.448889 0
v 0.451059 -1.430575 0
v 0.513030 -1.409539 0
v 0.574025 -1.385819 0
v 0.633927 -1.359462 0
v 0.692623 -1.330516 0
v 0.750000 -1.299038 0
v 0.805949 -1.265087 0
v 0.860365 -1.228728 0
v 0.913142 -1.190030 0
v 0.964181 -1.149067 0
v 1.013385 -1.105916 0
v 1.060660 -1.060660 0
v 1.105916 -1.013385 0
v 1.149067 -0.964181 0
v 1.190030 -0.913142 0
v 1.228728 -0.860365 0
v 1.265087 -0.805949 0
v 1.299038 -0.750000 0
v 1.330516 -0.692623 0
v 1.359462 -0.633927 0
v 1.385819 -0.574025 0
v 1.409539 -0.513030 0
v 1.430575 -0.451059 0
v 1.448889 -0.388229 0
v 1.464444 -0.324659 0
v 1.477212 -0.260472 0
v 1.487167 -0.195789 0
v 0.010695 -0.001689 0
v -0.730162 0.148075 0
v -0.350183 -0.661332 0
v -0.179268 0.724191 0
v 0.506142 -0.558100 0
v 0.591289 0.470032 0
v 0.872295 -0.071308 0
v -0.850507 -0.389665 0
v 0.119495 -0.954042 0
v 0.309767 0.923248 0
v -0.717338 0.671264 0
v -0.409771 -0.196651 0
v 0.076694 -0.440931 0
v 0.140658 0.421521 0
v -0.318484 0.300125 0
v 0.430854 -0.125961 0
v 0.930227 -0.508659 0
v 1.004167 0.377301 0
v -0.738611 -0.783215 0
v -1.087446 -0.040086 0
v 0.529869 -0.965549 0
v -0.281610 -1.065040 0
v -0.040667 1.104197 0
v -1.020160 0.412522 0
v -0.479536 0.982190 0
v 0.735572 0.842496 0
v 1.166981 0.076622 0
v 0.836399 -0.822642 0
v 0.396622 0.197774 0
v 1.149387 -0.247985 0
v 0.700432 0.185129 0
v 0.986725 0.678400 0
v -1.005168 -0.649326 0
v 0.662701 -0.307082 0
v -1.146341 -0.375353 0
v -0.595909 -1.050383 0
v -0.435899 0.584768 0
v -0.707794 -0.140343 0
v 0.560896 1.075789 0
v -0.553691 -0.461597 0
v 0.314993 -1.161447 0
v -0.040485 -0.718937 0
v 0.371685 0.648908 0
v 0.019650 -1.214671 0
v -1.004689 0.689973 0
v 0.256010 -0.678952 0
v -0.136139 -0.267347 0
v 0.094033 0.711483 0
v 0.231232 1.207282 0
v -0.783764 0.933206 0
v -0.295753 1.188789 0
v -1.191650 0.208413 0
v -0.651199 0.402257 0
v -0.250415 0.034108 0
v 0.175380 -0.191411 0
v -0.499939 0.036594 0
v -0.145788 0.477848 0
v -0.071183 0.230961 0
v 0.341713 -0.375595 0
v -0.157707 -0.510507 0
v 1.170201 -0.481138 0
v -0.219441 0.956054 0
v 1.043454 -0.710445 0
v 1.233418 0.305321 0
v -0.420942 -0.885891 0
v 0.230637 0.043797 0
v 0.811455 0.512436 0
v 0.732473 -0.624802 0
v -0.959001 0.197784 0
v 0.652555 -0.041194 0
v 0.737595 -1.038977 0
v 0.926373 -0.288493 0
v 0.375171 0.429950 0
v 0.511512 0.843662 0
v 0.957712 0.131313 0
v -0.112362 -0.934327 0
v -0.804413 -1.005550 0
v -0.015024 0.892843 0
v -1.265205 -0.154462 0
v -0.952796 -0.202990 0
v -0.741301 -0.572625 0
v -0.193374 -1.277586 0
v -0.870346 -0.008770 0
v -0.668779 1.107205 0
v 0.320386 -0.899624 0
v -0.532467 0.768107 0
v 1.175472 0.539627 0
v 0.524773 -1.171328 0
v -0.414442 -1.228046 0
v 0.542448 -0.760519 0
v -0.942349 -0.844800 0
v 0.042583 1.290319 0
v -0.359713 -0.403007 0
v -0.841169 0.506461 0
v 0.613044 0.670541 0
v -0.548336 -0.689579 0
v 0.781226 1.036457 0
v 1.281601 -0.099136 0
v -0.549165 0.230959 0
v -1.161738 0.567783 0
v 0.961779 0.871676 0
v 0.139448 1.012349 0
v -1.308492 0.039491 0
v 0.202629 0.229912 0
v 0.446195 1.222294 0
v -0.512792 1.206757 0
v -1.186313 -0.571554 0
v -0.677675 -0.325986 0
v -0.341190 0.805913 0
v 0.187706 -1.289781 0
v -0.977995 0.887165 0
v -0.143249 1.316125 0
v -1.217378 0.400106 0
v 1.089027 -0.082203 0
v -0.232207 -0.804913 0
v 0.813064 0.336367 0
v 0.559502 0.290175 0
v 0.527331 0.082839 0
v -0.460911 0.416056 0
v 0.510182 -0.385609 0
v -0.797040 0.320199 0
v 0.796131 -0.407301 0
v 0.984320 -0.897963 0
v -0.048525 0.622066 0
v 0.088840 -0.616295 0
v 0.679872 -0.874638 0
v -0.103419 -1.104966 0
v 0.209291 0.593742 0
v -0.247070 -0.146626 0
v 0.824532 0.691601 0
v -0.593200 -0.887692 0
v 1.317289 0.166903 0
v 0.370116 1.079775 0
v 0.109498 -0.777635 0
v -1.004489 -0.451470 0
v 1.293903 -0.349381 0
v -0.863640 0.776908 0
v 0.325922 -0.533652 0
v -1.293209 -0.315459 0
v 0.019129 -0.166424 0
v 0.885564 -0.660063 0
v -0.278585 0.603410 0
v -0.379876 0.156765 0
v 1.139468 0.707868 0
v -0.631912 0.887535 0
v 0.063187 0.153560 0
v 0.656727 -0.490110 0
v -0.542087 -0.117622 0
v -0.597900 -1.208957 0
v -0.583617 0.541566 0
v 1.069940 0.236428 0
v 0.170097 -1.098390 0
v 0.775089 -0.203556 0
v 0.251561 0.742436 0
v -1.087365 -0.798780 0
v -0.511219 -0.309266 0
v -0.022439 0.373661 0
v 0.194276 -0.340721 0
v -0.293343 0.449397 0
v -0.851098 -0.674379 0
v 1.028476 0.523657 0
v 0.376402 0.021365 0
v 0.767531 0.051157 0
v -0.729155 -1.132112 0
v 0.681693 1.159853 0
v 0.402929 -0.713926 0
v -0.428490 -1.032395 0
v -0.044354 -1.354472 0
v -0.643693 0.014682 0
v -0.821795 1.077234 0
v 0.170910 0.863093 0
v -0.109542 0.079359 0
v -0.185089 -0.652435 0
v 1.356122 0.028032 0
v -1.108112 -0.236435 0
v 1.040267 -0.416358 0
v -1.324734 0.291708 0
v -0.428676 -0.531710 0
v 0.016661 -0.309731 0
v -0.185057 1.094553 0
v -0.231952 0.186931 0
v 0.621216 0.933747 0
v -0.110468 -0.074845 0
v 0.437452 -1.282402 0
v 0.323401 -0.217461 0
v -0.345886 1.026270 0
v -1.134558 0.753613 0
v -1.083622 0.118554 0
v 0.310265 1.324869 0
v -0.812653 -0.232793 0
v 0.564147 -0.209209 0
v -1.007435 0.551155 0
v 0.406340 -1.057451 0
v -0.164111 0.340680 0
v 0.661370 -1.154813 0
v 0.898425 -1.004385 0
v -0.269063 -0.299184 0
v 0.033214 0.505401 0
v -0.326886 1.321279 0
v 0.839643 0.203159 0
v 1.161088 -0.643017 0
v 0.008659 -0.873919 0
v -1.283453 -0.464520 0
v -0.901367 -0.536671 0
v -0.037784 0.761033 0
v 1.298696 0.432314 0
v -0.025902 -0.528058 0
v -0.283982 -0.927297 0
v -0.373826 -0.015102 0
v 0.486688 0.584329 0
v 0.038294 -1.057548 0
v -0.297387 -0.539720 0
v 0.920001 1.013738 0
v 0.674335 0.353197 0
v -0.735746 0.802890 0
v 0.106339 1.170360 0
v 0.161664 1.361508 0
v 0.982671 -0.171386 0
v 0.456220 -0.858574 0
v 0.312057 0.298891 0
v 0.278821 -1.028316 0
v 0.196754 -0.534139 0
v 1.350346 -0.208476 0
v -0.729198 -0.444555 0
v -0.074795 -0.409106 0
v -1.003897 -0.320515 0
v 1.065180 -0.554356 0
v 0.132708 -0.038837 0
v -0.935761 -1.004888 0
v -0.928627 1.004602 0
v 1.083099 0.833045 0
v 0.712220 0.591210 0
v -0.680693 0.270283 0
v 0.570070 1.247764 0
v 1.127598 0.422576 0
v -0.841724 0.649270 0
v 1.103440 -0.821842 0
v 0.365980 0.794388 0
v -1.329426 0.163322 0
v -1.066742 0.296002 0
v 0.429580 0.958839 0
v 0.087159 0.277060 0
v 0.253236 0.477120 0
v -0.718032 0.522629 0
v 0.996291 0.013471 0
v -0.286538 -1.188586 0
v -0.144311 0.857874 0
v 0.681168 -0.737248 0
v -1.133704 -0.684727 0
v -1.367639 -0.067351 0
v 0.296608 -0.070960 0
v 0.481087 0.725513 0
v -0.974992 0.053079 0
v -0.338717 -1.338370 0
v -0.620330 -0.571530 0
v 0.441495 -0.246419 0
v 0.226479 -0.823953 0
v 0.251728 1.055831 0
v -0.450239 0.865484 0
v 1.290604 -0.498456 0
v -0.598673 1.010270 0
v -0.411250 0.709101 0
v -0.447954 1.310091 0
v 0.851713 0.807003 0
v -0.845319 0.107077 0
v -0.405455 1.128664 0
v 1.189945 0.192808 0
v -1.365506 -0.216865 0
v 0.897847 0.592919 0
v 0.323822 -1.313154 0
v 0.493931 0.404135 0
v -0.107505 0.991813 0
v -0.899450 0.404875 0
v 0.835699 0.932603 0
v 0.619657 0.799592 0
v -0.446022 -0.745623 0
v 1.347365 0.280657 0
v 0.920846 0.472398 0
v 0.076994 -1.325964 0
v -0.678799 -0.965455 0
v 0.598260 -0.656704 0
v -0.497478 -1.124658 0
v 0.921567 0.297211 0
v 0.834913 -1.100151 0
v -0.238414 -0.409863 0
v -0.831244 -0.873805 0
v -0.596675 0.673129 0
v -1.175616 0.052125 0
v 0.616113 -1.039140 0
v 0.669441 -0.162770 0
v -0.431113 0.294089 0
v -0.869898 -0.126849 0
v -0.663904 -0.675290 0
v 0.414503 -0.461417 0
v 0.798235 -0.533514 0
v -0.620364 0.126128 0
v -0.549915 0.342866 0
v -0.155484 -1.382792 0
v -1.299638 0.492648 0
v -0.040004 1.365404 0
v -0.054250 1.214686 0
v -0.628778 -0.218297 0
v 0.541946 -0.034770 0
v -0.844775 0.220373 0
v -0.158458 0.611209 0
v -0.335639 0.916300 0
v 0.657186 0.069099 0
v 0.086357 0.602268 0
v 0.715471 0.709144 0
v -1.075334 -0.534887 0
v -0.766544 -0.043246 0
v 0.434677 0.300312 0
v 1.159260 -0.372646 0
v -1.157527 -0.138664 0
v 0.884372 0.051615 0
v -0.510814 -1.276971 0
v -1.205735 0.672634 0
v -0.088101 -1.214704 0
v 1.051948 -0.292503 0
v -0.943513 0.307324 0
v 0.766388 -0.086803 0
v -1.042304 -0.927375 0
v -0.615053 1.238150 0
v -0.538645 1.103067 0
v 0.338041 1.204117 0
v -0.509682 -0.953310 0
v 0.713563 0.471512 0
v -0.990638 -0.082995 0
v 0.589442 0.168370 0
v -0.175581 -1.018955 0
v -0.139811 -0.754371 0
v 1.173277 -0.144639 0
v 1.246114 0.617111 0
v -0.336652 -0.813809 0
v 0.321185 0.557197 0
v 0.981961 -0.619546 0
v -1.340399 0.396418 0
v -0.196552 1.221450 0
v 0.793440 -0.917700 0
v -1.079790 0.842202 0
v 0.215806 0.349508 0
v -1.234218 -0.033481 0
v 0.267102 0.148672 0
v -1.110495 0.463418 0
v 0.025157 0.988393 0
v 0.419068 1.322214 0
v -0.770398 0.430918 0
v 0.659504 1.044350 0
v 0.555930 -1.284033 0
v -0.622372 -0.769722 0
v -0.468097 -0.626274 0
v -0.246485 0.856535 0
v 0.782939 1.146790 0
v 1.084634 0.622106 0
v -0.868476 -1.098626 0
v 0.507450 -1.071086 0
f 101 102 460
f 137 345 136
f 120 121 493
f 121 122 493
f 477 13 14
f 13 477 12
f 29 30 378
f 28 29 378
f 244 336 189
f 209 275 470
f 424 275 163
f 426 293 460
f 293 101 460
f 101 293 100
f 233 426 460
f 180 424 308
f 293 180 308
f 180 293 426
f 275 180 470
f 180 275 424
f 424 221 308
f 156 300 237
f 341 156 237
f 84 251 347
f 85 251 84
f 251 86 393
f 251 85 86
f 331 244 189
f 318 2 3
f 4 318 3
f 291 439 266
f 439 161 266
f 404 137 138
f 345 404 205
f 404 345 137
f 404 280 205
f 280 140 141
f 280 404 140
f 381 345 207
f 345 371 207
f 371 345 205
f 320 371 205
f 371 320 161
f 113 114 423
f 112 113 423
f 157 323 369
f 346 278 186
f 122 339 493
f 123 339 122
f 405 468 228
f 374 56 57
f 58 374 57
f 374 58 255
f 76 394 75
f 77 394 76
f 408 274 176
f 274 413 176
f 274 408 453
f 376 274 453
f 413 305 176
f 487 290 210
f 290 316 145
f 316 290 202
f 336 488 168
f 488 336 244
f 257 488 244
f 488 384 168
f 488 257 384
f 164 397 332
f 275 494 163
f 494 437 163
f 311 209 470
f 180 311 470
f 311 180 426
f 233 311 426
f 474 271 220
f 474 166 271
f 166 390 271
f 390 311 233
f 311 390 166
f 462 390 226
f 390 462 271
f 83 84 347
f 82 83 347
f 394 412 223
f 412 77 78
f 412 394 77
f 86 87 393
f 109 442 108
f 442 109 110
f 312 442 110
f 312 110 111
f 112 312 111
f 312 112 423
f 442 312 226
f 312 462 226
f 102 103 460
f 103 104 460
f 99 293 308
f 293 99 100
f 499 97 308
f 221 499 308
f 430 424 163
f 430 221 424
f 300 184 237
f 292 300 156
f 292 156 353
f 200 292 353
f 323 191 369
f 284 191 323
f 156 273 353
f 341 273 156
f 273 198 353
f 191 273 341
f 251 179 347
f 319 458 223
f 454 251 393
f 177 454 393
f 179 454 279
f 454 179 251
f 304 177 235
f 304 430 163
f 430 304 235
f 437 304 163
f 255 484 189
f 484 331 189
f 58 484 255
f 331 461 244
f 65 461 64
f 62 461 331
f 318 242 2
f 276 208 411
f 178 291 266
f 161 216 266
f 320 216 161
f 285 172 207
f 439 285 161
f 172 285 392
f 171 242 318
f 171 276 411
f 276 171 318
f 258 171 389
f 242 258 476
f 171 258 242
f 483 270 215
f 270 172 392
f 270 483 172
f 340 483 215
f 340 128 129
f 139 404 138
f 404 139 140
f 142 280 141
f 457 320 205
f 280 457 205
f 381 134 345
f 284 372 145
f 372 290 145
f 290 372 210
f 372 395 210
f 351 157 369
f 157 302 323
f 302 157 366
f 420 147 495
f 420 275 209
f 420 494 275
f 352 474 220
f 474 352 166
f 311 352 209
f 352 311 166
f 204 351 369
f 433 339 215
f 270 433 215
f 433 270 165
f 119 328 118
f 119 120 493
f 328 119 493
f 449 148 286
f 391 148 349
f 148 391 496
f 48 407 47
f 468 467 228
f 467 407 48
f 194 405 228
f 194 374 255
f 374 55 56
f 247 74 75
f 394 247 75
f 443 65 66
f 443 257 244
f 461 443 244
f 443 461 65
f 315 298 154
f 298 192 272
f 192 298 315
f 148 268 349
f 268 148 449
f 268 192 349
f 201 449 286
f 201 268 449
f 268 201 342
f 382 385 154
f 382 218 385
f 298 382 154
f 170 418 241
f 408 170 453
f 418 170 408
f 183 309 378
f 497 309 241
f 309 28 378
f 309 27 28
f 385 277 154
f 183 277 385
f 350 11 12
f 350 477 231
f 477 350 12
f 15 477 14
f 375 19 20
f 245 375 20
f 245 418 408
f 245 408 176
f 375 245 176
f 30 31 378
f 376 239 150
f 239 376 453
f 498 305 231
f 305 498 176
f 477 498 231
f 248 487 364
f 248 290 487
f 263 181 294
f 287 200 353
f 198 287 353
f 384 464 168
f 491 265 197
f 494 240 437
f 240 420 495
f 420 240 494
f 79 412 78
f 412 79 80
f 87 88 393
f 466 92 93
f 442 107 108
f 97 98 308
f 98 99 308
f 499 96 97
f 184 252 368
f 252 184 300
f 252 152 368
f 152 252 334
f 224 152 334
f 184 322 237
f 322 184 495
f 147 322 495
f 399 184 368
f 240 399 437
f 184 399 495
f 399 240 495
f 327 191 284
f 327 273 191
f 327 284 145
f 316 327 145
f 198 327 316
f 273 327 198
f 412 283 223
f 283 319 223
f 283 179 319
f 179 283 347
f 283 82 347
f 82 283 81
f 283 80 81
f 283 412 80
f 225 304 437
f 225 399 368
f 399 225 437
f 304 348 177
f 454 348 279
f 348 454 177
f 348 152 279
f 225 348 304
f 152 348 368
f 348 225 368
f 461 63 64
f 62 63 461
f 59 484 58
f 484 61 331
f 61 62 331
f 142 367 280
f 367 242 476
f 5 318 4
f 5 276 318
f 276 5 6
f 425 234 392
f 234 425 310
f 234 270 392
f 270 234 165
f 212 439 291
f 425 212 291
f 212 425 392
f 285 212 392
f 212 285 439
f 310 282 190
f 190 282 366
f 149 425 291
f 425 149 310
f 149 282 310
f 282 149 438
f 178 264 291
f 264 149 291
f 149 264 438
f 297 178 266
f 216 297 266
f 480 371 161
f 285 480 161
f 371 480 207
f 480 285 207
f 297 362 151
f 362 297 216
f 362 389 151
f 362 258 389
f 428 340 215
f 428 125 126
f 339 428 215
f 130 267 129
f 267 340 129
f 172 267 207
f 267 381 207
f 483 267 172
f 340 267 483
f 463 216 320
f 457 463 320
f 463 362 216
f 131 132 381
f 131 267 130
f 267 131 381
f 345 135 136
f 134 135 345
f 132 133 381
f 133 134 381
f 157 269 366
f 351 269 157
f 269 190 366
f 269 278 190
f 278 269 186
f 269 351 186
f 203 264 400
f 264 203 438
f 203 282 438
f 203 302 366
f 282 203 366
f 199 284 323
f 302 199 323
f 199 372 284
f 199 395 372
f 259 352 220
f 351 317 186
f 204 317 351
f 259 317 147
f 232 328 493
f 339 232 493
f 433 232 339
f 124 339 123
f 124 428 339
f 428 124 125
f 153 278 346
f 114 254 423
f 115 254 114
f 229 153 365
f 222 391 349
f 222 315 489
f 192 222 349
f 222 192 315
f 406 181 286
f 230 289 359
f 289 194 359
f 194 289 405
f 403 289 230
f 406 403 230
f 222 416 391
f 167 416 489
f 416 222 489
f 41 444 40
f 40 444 39
f 444 38 39
f 38 444 236
f 407 46 47
f 46 407 45
f 407 343 45
f 467 49 50
f 49 467 48
f 250 467 468
f 467 250 407
f 51 467 50
f 467 51 228
f 314 55 374
f 314 194 228
f 194 314 374
f 432 164 332
f 443 481 257
f 481 321 257
f 68 481 443
f 481 68 69
f 432 383 247
f 73 383 72
f 383 71 72
f 71 383 321
f 247 383 74
f 383 73 74
f 192 452 272
f 452 268 342
f 268 452 192
f 415 261 150
f 487 173 364
f 173 262 473
f 261 173 473
f 187 298 272
f 187 382 298
f 218 326 385
f 326 183 385
f 326 170 241
f 309 492 241
f 492 309 183
f 492 326 241
f 326 492 183
f 277 402 154
f 402 277 469
f 249 183 378
f 249 277 183
f 277 249 469
f 37 361 36
f 361 38 236
f 361 37 38
f 361 35 36
f 35 361 333
f 490 32 33
f 333 490 33
f 490 31 32
f 490 333 469
f 249 490 469
f 31 490 378
f 490 249 378
f 10 350 9
f 350 10 11
f 421 350 208
f 276 421 208
f 421 8 9
f 350 421 9
f 421 7 8
f 421 276 6
f 7 421 6
f 375 288 17
f 288 375 176
f 498 288 176
f 15 288 477
f 288 498 477
f 18 375 17
f 18 19 375
f 357 20 21
f 357 245 20
f 22 357 21
f 245 357 418
f 418 357 241
f 357 497 241
f 357 24 497
f 24 25 497
f 170 419 453
f 419 239 453
f 419 326 218
f 326 419 170
f 208 295 411
f 295 171 411
f 379 350 231
f 350 379 208
f 305 379 231
f 162 379 305
f 379 295 208
f 295 379 162
f 422 305 413
f 422 162 305
f 290 386 202
f 248 386 290
f 181 431 294
f 431 155 294
f 431 406 230
f 406 431 181
f 431 230 359
f 155 431 359
f 303 338 201
f 303 201 286
f 181 303 286
f 303 181 263
f 201 301 342
f 338 301 201
f 301 338 202
f 386 301 202
f 325 287 198
f 325 316 202
f 325 198 316
f 338 325 202
f 213 384 332
f 213 464 384
f 397 213 332
f 182 313 455
f 292 313 182
f 313 146 455
f 146 313 440
f 313 292 200
f 440 313 200
f 287 243 200
f 243 440 200
f 417 491 238
f 464 417 168
f 417 464 265
f 491 417 265
f 417 336 168
f 417 238 336
f 336 380 189
f 238 380 336
f 491 388 238
f 388 380 238
f 380 388 155
f 155 388 294
f 294 388 197
f 388 491 197
f 466 91 92
f 91 466 90
f 466 299 90
f 90 299 89
f 299 466 235
f 88 299 393
f 299 88 89
f 299 177 393
f 177 299 235
f 94 373 93
f 373 466 93
f 373 499 221
f 466 373 235
f 373 430 235
f 430 373 221
f 107 398 106
f 398 442 226
f 398 107 442
f 390 398 226
f 398 390 233
f 106 398 105
f 398 104 105
f 398 233 460
f 104 398 460
f 95 96 499
f 95 373 94
f 373 95 499
f 292 446 300
f 446 252 300
f 446 292 182
f 334 446 182
f 252 446 334
f 458 472 164
f 472 397 164
f 472 458 319
f 224 472 319
f 472 227 397
f 152 370 279
f 224 370 152
f 370 224 319
f 370 179 279
f 179 370 319
f 429 341 237
f 429 204 369
f 191 429 369
f 429 191 341
f 356 322 147
f 317 356 147
f 356 317 204
f 429 356 204
f 322 356 237
f 356 429 237
f 59 60 484
f 60 61 484
f 242 1 2
f 367 1 242
f 1 367 144
f 367 143 144
f 143 367 142
f 262 451 473
f 451 214 307
f 264 335 400
f 335 264 178
f 335 160 400
f 465 297 151
f 465 151 307
f 214 465 307
f 340 127 128
f 428 127 340
f 127 428 126
f 174 463 457
f 174 457 280
f 463 174 362
f 174 367 476
f 367 174 280
f 258 174 476
f 362 174 258
f 160 306 395
f 173 306 262
f 306 173 487
f 306 487 210
f 395 306 210
f 447 451 262
f 451 447 214
f 306 447 262
f 447 306 160
f 335 447 160
f 199 329 395
f 160 329 400
f 329 160 395
f 329 203 400
f 203 329 302
f 329 199 302
f 420 478 147
f 478 259 147
f 478 420 209
f 352 478 209
f 259 478 352
f 317 475 186
f 475 317 259
f 475 259 220
f 346 475 220
f 475 346 186
f 500 433 165
f 500 232 433
f 414 116 117
f 414 115 116
f 414 254 115
f 118 414 117
f 328 414 118
f 153 296 365
f 234 363 165
f 363 234 310
f 229 363 310
f 401 310 190
f 401 229 310
f 278 401 190
f 153 401 278
f 229 401 153
f 450 169 403
f 169 468 405
f 289 169 405
f 403 169 289
f 253 403 406
f 253 450 403
f 450 253 496
f 253 148 496
f 148 253 286
f 253 406 286
f 44 343 43
f 343 44 45
f 195 343 407
f 195 482 343
f 51 52 228
f 52 314 228
f 314 52 53
f 54 314 53
f 314 54 55
f 486 458 164
f 432 486 164
f 458 486 223
f 486 432 247
f 486 394 223
f 486 247 394
f 67 443 66
f 67 68 443
f 70 71 321
f 70 481 69
f 481 70 321
f 196 432 332
f 196 383 432
f 384 196 332
f 383 196 321
f 257 196 384
f 321 196 257
f 415 456 261
f 456 173 261
f 173 456 364
f 456 217 364
f 456 415 217
f 387 479 272
f 479 187 272
f 479 387 217
f 396 419 218
f 419 396 239
f 382 396 218
f 187 396 382
f 193 402 469
f 333 193 469
f 361 193 333
f 34 333 33
f 34 35 333
f 288 16 17
f 16 288 15
f 23 357 22
f 357 23 24
f 25 26 497
f 26 309 497
f 309 26 27
f 171 219 389
f 295 219 171
f 471 376 150
f 485 386 248
f 485 248 364
f 217 485 364
f 387 485 217
f 325 159 287
f 159 303 263
f 303 159 338
f 159 325 338
f 441 294 197
f 441 263 294
f 377 146 440
f 243 377 440
f 265 377 197
f 377 441 197
f 441 377 243
f 281 255 189
f 380 281 189
f 194 281 359
f 281 194 255
f 281 155 359
f 281 380 155
f 436 472 224
f 436 227 472
f 436 224 334
f 227 436 455
f 436 182 455
f 436 334 182
f 146 409 455
f 409 227 455
f 409 213 397
f 227 409 397
f 434 465 214
f 465 434 297
f 447 434 214
f 434 447 335
f 297 434 178
f 434 335 178
f 232 185 328
f 185 414 328
f 296 185 365
f 414 185 254
f 185 296 254
f 355 296 153
f 271 355 220
f 355 346 220
f 355 153 346
f 254 188 423
f 296 188 254
f 355 188 296
f 188 312 423
f 312 188 462
f 462 188 271
f 188 355 271
f 256 41 42
f 256 444 41
f 482 256 343
f 256 42 43
f 343 256 43
f 169 410 468
f 410 250 468
f 250 410 407
f 410 195 407
f 410 330 195
f 330 169 450
f 330 410 169
f 195 324 482
f 324 416 167
f 330 324 195
f 396 354 239
f 354 396 187
f 239 354 150
f 354 415 150
f 415 354 217
f 354 479 217
f 479 354 187
f 193 360 402
f 360 167 489
f 360 361 236
f 360 193 361
f 151 459 307
f 389 459 151
f 219 459 389
f 427 295 162
f 427 219 295
f 422 427 162
f 471 211 376
f 274 211 413
f 211 274 376
f 211 422 413
f 261 358 150
f 358 471 150
f 485 158 386
f 301 158 342
f 158 301 386
f 158 485 387
f 158 387 272
f 452 158 272
f 158 452 342
f 435 243 287
f 159 435 287
f 435 441 243
f 435 159 263
f 441 435 263
f 448 409 146
f 448 377 265
f 377 448 146
f 409 448 213
f 464 448 265
f 213 448 464
f 500 337 232
f 337 185 232
f 185 337 365
f 337 229 365
f 337 500 165
f 363 337 165
f 337 363 229
f 444 445 236
f 256 445 444
f 445 360 236
f 360 445 167
f 445 256 482
f 445 324 167
f 324 445 482
f 206 330 450
f 206 324 330
f 324 206 416
f 206 450 496
f 391 206 496
f 416 206 391
f 246 360 489
f 360 246 402
f 315 246 489
f 246 315 154
f 402 246 154
f 427 344 219
f 459 344 307
f 344 459 219
f 260 211 471
f 358 260 471
f 260 427 422
f 211 260 422
f 260 344 427
f 175 261 473
f 175 358 261
f 451 175 473
f 175 260 358
f 260 175 344
f 175 451 307
f 344 175 307
