v -0.000907909976 -0.000610923447 0.0565447952
v 3.87125024e-10 4.8196273e-11 -1.42989332e-09
v 0.0123606806 1.94590559e-10 0.00195773782
v 0.0235114112 -1.43896302e-10 0.00763931734
v 0.0337932586 -0.000362963097 0.0141239993
v 0.0396061898 -0.000411099741 0.0243989709
v 0.0413387502 -0.00037587585 0.0359477738
v 0.0389295008 -0.000330571712 0.0477788054
v 0.0327194325 -0.000332898902 0.0581033035
v 0.0241300611 -0.000409574097 0.0657779502
v 0.0126829318 -0.000792575414 0.0685084192
v -6.00773346e-05 -0.013450665 0.0695616684
v 0.0355233644 0.0111425412 0.0187380852
v 0.0267600535 0.0114315459 0.0618797792
v 0.039168605 0.0108611563 0.0415329796
v 0.0391607287 -0.0115907175 0.0419939484
v 0.0283669593 -0.011501363 0.0106326355
v 0.00602530271 -0.0107926893 0.00195773822
v 0.0272689133 -0.0115107998 0.0612524698
v 0.00558403885 0.00953603243 0.0624559094
v 0.0119751514 -0.0130575139 0.0691036272
v 0.0345420857 0.0114473314 0.0530402268
v 0.0272102782 0.022032201 0.0553099847
v 0.0182745642 0.0214947878 0.0626353094
v 0.0394642113 0.0112081813 0.0300664158
v 0.0334889698 0.021630439 0.0254446568
v 0.00602530247 0.0107926883 0.0019577383
v 0.0280052091 0.021284496 0.0154305622
v 0.0187412139 0.0108997768 0.00638509321
v 0.0121311422 0.0203429013 0.00776644569
v 0.0244520353 0.0304789628 0.0224159983
v 0.028773852 0.0295727799 0.0341499946
v 0.0171643687 0.0285271578 0.0131408347
v 0.0171129704 -0.0105219483 0.00541047809
v 0.0109998935 -0.0214982308 0.0081122493
v 0.039123161 -0.0116361113 0.0302742597
v 0.0351062882 -0.0220004092 0.0355992357
v 0.0332275204 -0.0216167131 0.0466579547
v 0.0273233174 -0.0307069679 0.040862575
v 0.0281553111 -0.0297415295 0.0291808383
v 0.0187649255 -0.0368661428 0.0346070892
v 0.0128717553 0.0364825028 0.0210994909
v -0.000191616144 0.0222890364 0.00678611177
v -0.00644031682 0.0107092025 0.00200216541
v -0.00163131783 -0.0200015139 0.00539828774
v 0.00289079144 -0.0299403584 0.00998721667
v 0.017157064 0.0303084281 0.0554527564
v 0.0168810752 -0.0361423424 0.0463533866
v 0.00746775434 -0.0410326087 0.039334668
v -0.00986914971 -0.0291400914 0.0102681884
v 0.00493724036 -0.0379107976 0.0503298796
v -0.00489913305 -0.0407297487 0.043155531
v -0.00710166909 -0.0356520301 0.054154825
v -0.0139237077 -0.0172534861 0.00670663943
v 0.00730039545 0.0294039136 0.0613697156
v 0.00588343315 0.0360126116 0.0529155722
v -0.0165411837 -0.0363847785 0.046105281
v -0.0129863373 0.0211766735 0.00864870337
v -0.0183410839 -0.0299232067 0.0564711051
v -0.00476014343 0.0329505262 0.0578817845
v -0.0269947259 -0.0292588247 0.0478732485
v -0.0275741809 -0.0209843959 0.0567931968
v -0.0352178543 -0.019061473 0.0477159291
v -0.0343809474 -0.0102725161 0.0555769534
v -0.0402529966 -0.0058563121 0.0440172892
v -0.00610409357 0.038356014 0.0485548997
v -0.0163142505 0.0326961799 0.0531467241
v -0.0173849131 0.0371119637 0.0422998967
v -0.0216643502 -0.0235486435 0.0113051338
v -0.0159362063 0.0266322994 0.060807497
v -0.0262102683 -0.0117134812 0.00834983413
v -0.026618041 0.0297801587 0.0467131921
v -0.0261839177 0.0323711518 0.034866388
v -0.0321474709 -0.0173899202 0.0165482046
v -0.0339556603 -0.00522568789 0.0136428667
v -0.03427873 0.0236207145 0.0385114304
v -0.0326946363 0.0247093267 0.0272476288
v -0.018356189 -0.0333391365 0.0197695294
v -0.0146972134 0.0384856378 0.0306306036
v -0.0341507639 0.0191794759 0.0487913247
v -0.0390905503 0.014742858 0.0312204382
v -0.025250042 -0.0109997777 0.0638679686
v -0.00629588994 0.0314693929 0.0123189528
v -0.00814623655 -0.0275356851 0.0629828899
v -0.0330129747 -0.0257760322 0.0374096643
v -0.0302823598 0.000613649524 0.0613744314
v -0.0204571785 -0.000481944098 0.0678726565
v 0.00470284367 0.0405884294 0.0422200745
v 0.0140640628 -0.0312319543 0.056837519
v -0.0391534348 -0.00791447459 0.0229850325
v -0.0183134782 0.00920714444 0.00565112376
v -0.0246522366 0.0184302943 0.0106420234
v -0.0349965707 0.0147953503 0.0186443539
v -0.00164922174 -0.0411700583 0.0296637749
v 0.0151132403 -0.0299855307 0.0136937912
v -0.0300648173 0.00647012623 0.00972223435
v -0.0116733884 -0.000655211849 0.00174685882
v -0.0139955625 -0.0122558334 0.0684653483
v 0.00636404576 -0.0370252496 0.019356096
v -0.0244243045 0.0109315303 0.0643033207
v -0.013086236 0.0104694232 0.06837851
v 0.0246909963 0.0307132663 0.0462706503
v -0.00417036886 0.0160986958 0.0681140091
v -0.0402585812 0.00436953166 0.0255185399
v -0.0416977831 0.00482443374 0.0367697472
v 0.035172205 -0.0115164024 0.0520949197
v 0.0215963055 -0.020593038 0.00984756207
v 0.0268261183 -0.0252255063 0.0178279807
v 0.0355768339 -0.011155977 0.0189209224
v 0.0182596148 -0.0349484496 0.0236921092
v 0.0187470408 0.0086167356 0.0667701378
v -0.0349656175 -0.0211373424 0.0265257276
v -0.0396529016 -0.0136844835 0.034888369
v -0.0391471428 0.00646758706 0.0477506383
v -0.0274257773 -0.0307334415 0.0283906026
v 0.0277803645 0.0104297212 0.0102419303
v 0.0335515095 0.0209305379 0.0457159389
v 0.0185093982 0.0368579329 0.0382290662
v 0.0059680912 0.0325252377 0.0131288858
v -0.000699763619 0.03897203 0.0220299692
v -0.0127649277 0.0355618616 0.0197707412
v -0.00276537428 0.0410709964 0.0329999361
v 0.00898817182 0.039774298 0.0311416072
v -0.0231059555 0.0323846113 0.0239005685
v -0.0182813537 0.0288987473 0.0145409195
v -0.00513544746 -0.0366970922 0.0183080318
v 0.0241445828 -0.0285758188 0.051765422
v 0.0208824453 -0.0209894231 0.0614696451
v 0.0088116421 -0.0241713319 0.0648757571
v 0.00302958704 -0.0332301766 0.0582657478
v -0.00110242396 -0.0207511067 0.0673790561
v -0.00441652295 0.0259037087 0.064312353
v 0.0101704954 -0.0396692008 0.0291795544
v -0.0260494491 0.0244200063 0.0551641983
v -0.0137663878 -0.039661671 0.0354628885
v -0.0199933406 -0.021292065 0.0628259014
v -0.0132361246 0.000251731682 0.0673752926
v 0.0363127006 0.0196169301 0.0354678767
v 0.0345318858 -0.0208666735 0.026257069
v -0.0238897705 -0.0342674759 0.037347652
v -0.00635163934 -0.00907876689 0.001565213
v -0.0322833366 0.0114010844 0.0574772767
v -0.0207499781 -0.0004337699 0.00580569553
v -0.0117640261 -0.0388173386 0.0255826982
v -0.0280849274 0.0248257539 0.0183948174
v 0.0292421026 -0.0199202713 0.0550362447
v -0.038813659 0.0140617697 0.040742777
v 0.0148456243 0.0361310759 0.0476796108
v -0.0273744514 -0.0261822459 0.019484072
v 0.0191356503 0.0359196933 0.0288421624
v 0.0080971508 0.0216543249 0.06571085
v -0.0366054419 0.00407194588 0.0165447493
v 0.021481482 0.0185963135 0.00941674033
v -0.0365891531 -9.538677e-05 0.054505688
v 0.0209128067 -0.008891311 0.0667292515
v -0.0416540686 -0.00418305839 0.0321797241
v -0.0287008103 -0.00211924054 0.00866639334
v -0.00802398032 0.040402972 0.0404817115
v -0.0168965516 -0.00861181001 0.0047814907
v -0.0195826765 -0.0364276125 0.0291642236
v -0.0168369641 0.0179800446 0.0657052459
v -0.0232196008 0.0189276475 0.0616828135
f 39 127 48
f 64 86 154
f 66 158 68
f 80 142 134
f 97 159 143
f 64 154 65
f 115 160 140
f 134 142 162
f 71 157 143
f 66 68 67
f 24 151 111
f 68 158 79
f 71 143 159
f 5 116 13
f 38 127 39
f 63 64 65
f 86 142 154
f 28 153 33
f 74 90 75
f 27 30 29
f 102 118 148
f 114 154 142
f 38 146 127
f 103 151 132
f 70 162 161
f 61 85 140
f 135 140 160
f 71 75 157
f 19 146 106
f 70 134 162
f 78 144 160
f 80 114 142
f 80 147 114
f 61 62 63
f 135 160 144
f 17 108 107
f 29 30 153
f 4 116 5
f 49 52 94
f 70 161 132
f 65 105 156
f 12 98 131
f 30 33 153
f 48 127 89
f 75 96 157
f 65 154 114
f 60 66 67
f 81 105 147
f 16 106 38
f 71 74 75
f 67 134 70
f 76 81 147
f 34 107 35
f 103 132 161
f 13 116 28
f 38 106 146
f 28 116 153
f 95 110 99
f 43 44 58
f 66 88 158
f 94 135 144
f 48 51 49
f 29 153 116
f 2 18 141
f 88 148 118
f 62 64 63
f 77 124 145
f 52 135 94
f 54 71 159
f 5 13 6
f 62 82 64
f 57 140 135
f 79 121 124
f 58 125 83
f 14 23 24
f 23 102 47
f 105 114 147
f 67 72 134
f 59 136 62
f 60 67 70
f 85 115 140
f 7 16 36
f 49 51 52
f 56 88 66
f 121 125 124
f 60 70 132
f 6 25 7
f 16 38 37
f 65 114 105
f 95 107 108
f 35 107 95
f 18 35 45
f 2 141 97
f 18 34 35
f 67 68 72
f 97 141 159
f 79 158 122
f 108 109 139
f 124 125 145
f 9 19 106
f 16 37 36
f 17 109 108
f 73 79 124
f 100 162 142
f 84 98 136
f 74 112 90
f 84 131 98
f 54 69 71
f 79 120 121
f 94 99 133
f 59 62 61
f 82 87 86
f 22 117 23
f 20 111 151
f 62 136 82
f 65 156 113
f 73 124 77
f 56 66 60
f 61 63 85
f 76 147 80
f 76 77 81
f 32 102 117
f 82 98 87
f 57 61 140
f 48 89 51
f 10 11 155
f 2 3 18
f 112 149 115
f 20 151 103
f 28 33 31
f 82 136 98
f 101 137 103
f 127 146 128
f 27 43 30
f 1 20 137
f 2 27 3
f 27 44 43
f 89 127 128
f 104 156 105
f 79 122 120
f 77 145 93
f 23 47 24
f 84 130 129
f 10 111 11
f 32 118 102
f 14 24 111
f 14 22 23
f 88 122 158
f 5 109 17
f 32 117 138
f 4 5 17
f 3 27 29
f 75 152 96
f 49 94 133
f 55 132 151
f 88 118 123
f 6 13 25
f 51 53 52
f 26 28 31
f 23 117 102
f 101 103 161
f 41 48 49
f 44 97 91
f 8 9 106
f 74 149 112
f 94 144 126
f 78 160 115
f 68 79 73
f 4 29 116
f 83 121 120
f 13 28 26
f 90 156 104
f 33 119 42
f 51 130 53
f 8 106 16
f 15 138 117
f 86 100 142
f 2 97 44
f 1 21 11
f 90 113 156
f 56 148 88
f 40 110 108
f 50 69 54
f 17 107 34
f 7 25 15
f 42 120 123
f 58 92 125
f 75 90 152
f 84 129 131
f 40 41 110
f 47 102 148
f 99 110 133
f 63 65 113
f 78 126 144
f 69 74 71
f 46 95 99
f 91 97 143
f 55 60 132
f 89 129 130
f 6 7 36
f 52 57 135
f 12 137 98
f 96 143 157
f 1 137 12
f 118 150 123
f 39 41 40
f 72 80 134
f 11 111 20
f 51 89 130
f 42 119 120
f 92 96 93
f 81 104 105
f 45 46 50
f 15 117 22
f 88 123 122
f 2 44 27
f 37 38 39
f 43 58 83
f 18 45 141
f 10 155 19
f 85 112 115
f 86 87 100
f 59 84 136
f 100 161 162
f 53 130 84
f 90 112 113
f 31 33 42
f 42 123 150
f 36 37 139
f 54 159 141
f 94 126 99
f 120 122 123
f 5 6 109
f 41 49 133
f 8 22 9
f 44 91 58
f 77 93 81
f 7 8 16
f 9 10 19
f 87 101 100
f 20 103 137
f 1 12 21
f 68 73 72
f 78 115 149
f 63 113 85
f 90 104 152
f 30 119 33
f 72 76 80
f 15 25 138
f 24 55 151
f 50 126 78
f 41 133 110
f 12 131 21
f 45 50 54
f 73 77 76
f 3 29 4
f 100 101 161
f 21 131 129
f 55 56 60
f 89 128 129
f 1 11 20
f 83 120 119
f 57 59 61
f 19 128 146
f 11 21 155
f 3 34 18
f 40 108 139
f 26 31 32
f 69 149 74
f 13 26 25
f 9 22 14
f 26 32 138
f 8 15 22
f 45 54 141
f 6 36 109
f 24 47 55
f 30 43 119
f 87 98 137
f 50 78 69
f 4 17 34
f 91 143 96
f 93 96 152
f 85 113 112
f 7 15 8
f 72 73 76
f 32 150 118
f 52 53 57
f 10 14 111
f 37 39 40
f 9 14 10
f 31 42 150
f 3 4 34
f 43 83 119
f 46 99 126
f 81 93 104
f 58 91 92
f 47 148 56
f 46 126 50
f 25 26 138
f 69 78 149
f 53 59 57
f 53 84 59
f 91 96 92
f 47 56 55
f 31 150 32
f 37 40 139
f 87 137 101
f 93 152 104
f 19 155 128
f 21 128 155
f 21 129 128
f 39 48 41
f 64 82 86
f 95 108 110
f 35 95 46
f 83 125 121
f 36 139 109
f 92 145 125
f 35 46 45
f 92 93 145
