v -0.00119131321 -0.000448023457 0.046589008
v 5.95677366e-10 3.88415077e-11 -2.04561149e-09
v 0.0123606811 3.28837219e-10 0.00195773697
v 0.0235114116 -8.4999286e-11 0.00763931552
v 0.0345501588 -0.000329401314 0.0127648335
v 0.040622645 -0.000333157023 0.0225419626
v 0.0425164057 -0.000317733004 0.0335978045
v 0.0400011585 -0.000261991814 0.0451887014
v 0.0336940821 -0.000303695985 0.0550776722
v 0.0247198732 -0.000517941542 0.061797328
v 0.0129439986 -0.00104975648 0.0606158592
v 9.64313541e-05 -0.0134809046 0.061231975
v 0.036408615 0.011472133 0.0170132998
v 0.0276872642 0.0115178706 0.0585410885
v 0.0402254759 0.011151445 0.0390910364
v 0.0403454899 -0.0117935248 0.0397383477
v 0.0289575154 -0.0116896951 0.00941991893
v 0.00602530306 -0.0107926894 0.00195773776
v 0.0278910455 -0.0117270275 0.0577012077
v 0.00592166396 0.00919112179 0.0515918702
v 0.0118083801 -0.0129878291 0.0636491299
v 0.0356945591 0.0118064252 0.0503515901
v 0.0279807377 0.0224361904 0.0528173303
v 0.0189529786 0.0215476019 0.0597738417
v 0.0405248667 0.0116634153 0.0279096253
v 0.0342184516 0.0222396165 0.0235561144
v 0.00602530251 0.0107926878 0.0019577378
v 0.0285568987 0.0218898204 0.0139369538
v 0.0187412144 0.0108997766 0.00638509186
v 0.0121311422 0.0203429028 0.00776644436
v 0.0249842686 0.0312972615 0.0206556012
v 0.0294735693 0.0302609785 0.0321466331
v 0.0173986504 0.0291372667 0.0118481346
v 0.0171129706 -0.0105219486 0.00541047682
v 0.010999894 -0.0214982312 0.00811224785
v 0.0400113588 -0.0118578094 0.0282760177
v 0.0360755598 -0.0224734822 0.0333026059
v 0.0342311977 -0.0220930624 0.0441165699
v 0.0281609454 -0.0314370419 0.0383284713
v 0.0289566298 -0.0303890756 0.0268839671
v 0.0193126539 -0.0376234723 0.0322752435
v 0.0131365716 0.0373290526 0.019476063
v -0.000191616151 0.0222890371 0.00678611058
v -0.00644031645 0.0107092029 0.00200216456
v -0.00163131786 -0.0200015146 0.00539828622
v 0.00301898364 -0.0302229854 0.00851175191
v 0.0176948754 0.030684449 0.053052388
v 0.017454758 -0.037059065 0.0437569047
v 0.00786900075 -0.0421497119 0.0367984419
v -0.00992620088 -0.0297210759 0.00896562438
v 0.00512456131 -0.0388785349 0.0471234584
v -0.00495610056 -0.0418139762 0.0402907482
v -0.0072115752 -0.0367130265 0.0508772171
v -0.0139237082 -0.0172534869 0.00670663799
v 0.00786658476 0.0293890476 0.0589257573
v 0.00629656545 0.036330989 0.0508008972
v -0.0167883249 -0.037259146 0.0431336989
v -0.0129863377 0.0211766743 0.00864870233
v -0.0187957635 -0.0309297292 0.0532651153
v -0.00440512633 0.0331187024 0.0554940033
v -0.0274623154 -0.0301536378 0.045161514
v -0.0282217903 -0.0217431979 0.0535998305
v -0.0360227459 -0.0196605199 0.045275331
v -0.0351766441 -0.0106858577 0.0528955892
v -0.0409230411 -0.00604430067 0.0416191609
v -0.00606431059 0.0387746319 0.0466967406
v -0.0163302153 0.0330896382 0.0509992597
v -0.0177123944 0.0377864017 0.0404682836
v -0.0218929071 -0.0237815065 0.0096366645
v -0.0158278547 0.0267975783 0.058318941
v -0.026816817 -0.011765531 0.00721934756
v -0.0269647743 0.0302175785 0.044943801
v -0.026650512 0.0329403457 0.0331451271
v -0.03277721 -0.017655233 0.0147373687
v -0.0346108206 -0.00516044373 0.0121933356
v -0.0348757257 0.0241091456 0.0366110395
v -0.0333333507 0.0251518732 0.0254088164
v -0.0187146312 -0.0338556978 0.0177943563
v -0.0147631789 0.0391522852 0.0291166877
v -0.0346823594 0.0195043453 0.0466506191
v -0.0398048342 0.0151206901 0.0293788127
v -0.0260409847 -0.0114086089 0.0602922775
v -0.00637255706 0.0319078477 0.0114660019
v -0.00829871167 -0.0286790495 0.0588669108
v -0.0337155307 -0.0263172281 0.0350973706
v -0.0306286743 0.000572395162 0.0582425123
v -0.0202697871 -0.000837611649 0.0638115233
v 0.00487356799 0.0412972213 0.0405394649
v 0.0146610108 -0.0319966541 0.0535806991
v -0.0400000957 -0.00794484833 0.0210014381
v -0.018313479 0.00920714501 0.00565112222
v -0.0249967974 0.0187507562 0.00971809492
v -0.0355820601 0.0151498321 0.0167965442
v -0.00155856175 -0.0420071815 0.0274806998
v 0.0154030859 -0.0305458428 0.0121508064
v -0.0304744277 0.00670096903 0.00838895783
v -0.0116733881 -0.000655211863 0.0017468581
v -0.014429382 -0.0130602345 0.0627576468
v 0.00643754835 -0.0377049179 0.0174008517
v -0.0248322073 0.0108201529 0.0611386109
v -0.0133112837 0.0102761263 0.0638562956
v 0.0253755355 0.0312560719 0.0440824735
v -0.00361069481 0.015657056 0.0635433146
v -0.0409203833 0.00458928687 0.0236671209
v -0.0424981432 0.0048797928 0.0346984848
v 0.0362086518 -0.0117839929 0.0494073357
v 0.0220838765 -0.0209494609 0.00868469145
v 0.0274987271 -0.0257343597 0.0159698995
v 0.0364782431 -0.0113152343 0.0171968627
v 0.0187106489 -0.0357074861 0.021639276
v 0.0194878951 0.00840238947 0.0627634681
v -0.0357005801 -0.0215043384 0.0243473772
v -0.0404249997 -0.0140091272 0.0326647552
v -0.0397965978 0.00649193863 0.0454313199
v -0.0280216072 -0.0312983759 0.0262130058
v 0.0283656882 0.0107644343 0.00934858061
v 0.0344312424 0.0213864158 0.0433991008
v 0.0189027003 0.037557569 0.0363865431
v 0.00602200478 0.0330670471 0.0120710223
v -0.000721773845 0.0397091905 0.0204421113
v -0.0130163321 0.0361622344 0.0185240698
v -0.00274333364 0.0416628037 0.0314414208
v 0.00911333611 0.0403088293 0.0295094644
v -0.0234840429 0.0330171368 0.0224827991
v -0.0185269173 0.0293298358 0.013530013
v -0.00515967801 -0.037346426 0.0164973381
v 0.0249737712 -0.0293235859 0.0488681758
v 0.0216470996 -0.021370233 0.0578841363
v 0.00926376087 -0.0249126864 0.0605319374
v 0.00332280524 -0.0343372092 0.054674378
v -0.000914468304 -0.0214866195 0.0609755141
v -0.00386535065 0.025763581 0.0611673447
v 0.0104794123 -0.0404947268 0.0269052771
v -0.0262415748 0.0246598687 0.0531366254
v -0.0140607417 -0.0406419198 0.0327777695
v -0.0207266804 -0.0222616381 0.0592227362
v -0.0132411906 0.000196789371 0.0601507793
v 0.0372223057 0.0201356893 0.0333534369
v 0.0355164826 -0.0213014915 0.0241205253
v -0.0244241642 -0.0350249004 0.0347535214
v -0.00635163968 -0.00907876706 0.00156521178
v -0.0328720161 0.0115410417 0.0549160658
v -0.0207499791 -0.000433769893 0.00580569472
v -0.0119729643 -0.0396492397 0.0233220289
v -0.028566136 0.0253505563 0.0169676317
v 0.0302583925 -0.0204967291 0.0520907819
v -0.0393778821 0.0142610786 0.0386690592
v 0.015352007 0.0366938953 0.0455670328
v -0.0277933726 -0.026541204 0.0175260435
v 0.0195021079 0.0366697872 0.0271012306
v 0.00868322653 0.0212136273 0.0622712461
v -0.0372891382 0.00430051695 0.0147993882
v 0.0218054073 0.0188078586 0.00858334959
v -0.0373013579 -0.000228967978 0.0519926506
v 0.0213086543 -0.00911946934 0.0628127032
v -0.0424416856 -0.00431417801 0.0300862016
v -0.0291387943 -0.00201375863 0.00765380381
v -0.0080027023 0.041040141 0.0389505395
v -0.0168965518 -0.00861181009 0.00478149004
v -0.019976285 -0.0371678912 0.0268067708
v -0.0167666562 0.017914487 0.0625179303
v -0.0233725409 0.0188518941 0.0589724914
f 39 127 48
f 64 86 154
f 66 158 68
f 80 142 134
f 97 159 143
f 64 154 65
f 115 160 140
f 134 142 162
f 71 157 143
f 66 68 67
f 24 151 111
f 68 158 79
f 71 143 159
f 5 116 13
f 38 127 39
f 63 64 65
f 86 142 154
f 28 153 33
f 74 90 75
f 27 30 29
f 102 118 148
f 114 154 142
f 38 146 127
f 103 151 132
f 70 162 161
f 61 85 140
f 135 140 160
f 71 75 157
f 19 146 106
f 70 134 162
f 78 144 160
f 80 114 142
f 80 147 114
f 61 62 63
f 135 160 144
f 17 108 107
f 29 30 153
f 4 116 5
f 49 52 94
f 70 161 132
f 65 105 156
f 12 98 131
f 30 33 153
f 48 127 89
f 75 96 157
f 65 154 114
f 60 66 67
f 81 105 147
f 16 106 38
f 71 74 75
f 67 134 70
f 76 81 147
f 34 107 35
f 103 132 161
f 13 116 28
f 38 106 146
f 28 116 153
f 95 110 99
f 43 44 58
f 66 88 158
f 94 135 144
f 48 51 49
f 29 153 116
f 2 18 141
f 88 148 118
f 62 64 63
f 77 124 145
f 52 135 94
f 54 71 159
f 5 13 6
f 62 82 64
f 57 140 135
f 79 121 124
f 58 125 83
f 14 23 24
f 23 102 47
f 105 114 147
f 67 72 134
f 59 136 62
f 60 67 70
f 85 115 140
f 7 16 36
f 49 51 52
f 56 88 66
f 121 125 124
f 60 70 132
f 6 25 7
f 16 38 37
f 65 114 105
f 95 107 108
f 35 107 95
f 18 35 45
f 2 141 97
f 18 34 35
f 67 68 72
f 97 141 159
f 79 158 122
f 108 109 139
f 124 125 145
f 9 19 106
f 16 37 36
f 17 109 108
f 73 79 124
f 100 162 142
f 84 98 136
f 74 112 90
f 84 131 98
f 54 69 71
f 79 120 121
f 94 99 133
f 59 62 61
f 82 87 86
f 22 117 23
f 20 111 151
f 62 136 82
f 65 156 113
f 73 124 77
f 56 66 60
f 61 63 85
f 76 147 80
f 76 77 81
f 32 102 117
f 82 98 87
f 57 61 140
f 48 89 51
f 10 11 155
f 2 3 18
f 112 149 115
f 20 151 103
f 28 33 31
f 82 136 98
f 101 137 103
f 127 146 128
f 27 43 30
f 1 20 137
f 2 27 3
f 27 44 43
f 89 127 128
f 104 156 105
f 79 122 120
f 77 145 93
f 23 47 24
f 84 130 129
f 10 111 11
f 32 118 102
f 14 24 111
f 14 22 23
f 88 122 158
f 5 109 17
f 32 117 138
f 4 5 17
f 3 27 29
f 75 152 96
f 49 94 133
f 55 132 151
f 88 118 123
f 6 13 25
f 51 53 52
f 26 28 31
f 23 117 102
f 101 103 161
f 41 48 49
f 44 97 91
f 8 9 106
f 74 149 112
f 94 144 126
f 78 160 115
f 68 79 73
f 4 29 116
f 83 121 120
f 13 28 26
f 90 156 104
f 33 119 42
f 51 130 53
f 8 106 16
f 15 138 117
f 86 100 142
f 2 97 44
f 1 21 11
f 90 113 156
f 56 148 88
f 40 110 108
f 50 69 54
f 17 107 34
f 7 25 15
f 42 120 123
f 58 92 125
f 75 90 152
f 84 129 131
f 40 41 110
f 47 102 148
f 99 110 133
f 63 65 113
f 78 126 144
f 69 74 71
f 46 95 99
f 91 97 143
f 55 60 132
f 89 129 130
f 6 7 36
f 52 57 135
f 12 137 98
f 96 143 157
f 1 137 12
f 118 150 123
f 39 41 40
f 72 80 134
f 11 111 20
f 51 89 130
f 42 119 120
f 92 96 93
f 81 104 105
f 45 46 50
f 15 117 22
f 88 123 122
f 2 44 27
f 37 38 39
f 43 58 83
f 18 45 141
f 10 155 19
f 85 112 115
f 86 87 100
f 59 84 136
f 100 161 162
f 53 130 84
f 90 112 113
f 31 33 42
f 42 123 150
f 36 37 139
f 54 159 141
f 94 126 99
f 120 122 123
f 5 6 109
f 41 49 133
f 8 22 9
f 44 91 58
f 77 93 81
f 7 8 16
f 9 10 19
f 87 101 100
f 20 103 137
f 1 12 21
f 68 73 72
f 78 115 149
f 63 113 85
f 90 104 152
f 30 119 33
f 72 76 80
f 15 25 138
f 24 55 151
f 50 126 78
f 41 133 110
f 12 131 21
f 45 50 54
f 73 77 76
f 3 29 4
f 100 101 161
f 21 131 129
f 55 56 60
f 89 128 129
f 1 11 20
f 83 120 119
f 57 59 61
f 19 128 146
f 11 21 155
f 3 34 18
f 40 108 139
f 26 31 32
f 69 149 74
f 13 26 25
f 9 22 14
f 26 32 138
f 8 15 22
f 45 54 141
f 6 36 109
f 24 47 55
f 30 43 119
f 87 98 137
f 50 78 69
f 4 17 34
f 91 143 96
f 93 96 152
f 85 113 112
f 7 15 8
f 72 73 76
f 32 150 118
f 52 53 57
f 10 14 111
f 37 39 40
f 9 14 10
f 31 42 150
f 3 4 34
f 43 83 119
f 46 99 126
f 81 93 104
f 58 91 92
f 47 148 56
f 46 126 50
f 25 26 138
f 69 78 149
f 53 59 57
f 53 84 59
f 91 96 92
f 47 56 55
f 31 150 32
f 37 40 139
f 87 137 101
f 93 152 104
f 19 155 128
f 21 128 155
f 21 129 128
f 39 48 41
f 64 82 86
f 95 108 110
f 35 95 46
f 83 125 121
f 36 139 109
f 92 145 125
f 35 46 45
f 92 93 145
