v -0.00108959136 -0.00054086492 0.0487665679
v 5.88096953e-10 4.97713087e-11 -2.06509198e-09
v 0.0123606811 3.27265622e-10 0.00195773699
v 0.0235114116 -1.12144394e-10 0.00763931559
v 0.0344105054 -0.000392383992 0.0130322783
v 0.0404256801 -0.00042035202 0.0228952053
v 0.0422615187 -0.000392675075 0.0340339801
v 0.039750401 -0.000323884667 0.0456455607
v 0.033441523 -0.000351384569 0.0555898488
v 0.0245816594 -0.000477718292 0.0624653118
v 0.0128270766 -0.000950082816 0.0624221044
v 4.01164566e-05 -0.013433308 0.0632643016
v 0.0362452693 0.0113479165 0.0173368051
v 0.0275805116 0.0115745681 0.0589705345
v 0.0399954902 0.0110477758 0.0394984542
v 0.0400811978 -0.0118158468 0.0401550534
v 0.0288322447 -0.0116956533 0.0096664188
v 0.00602530304 -0.0107926894 0.00195773774
v 0.027740781 -0.0117303195 0.0583337188
v 0.00588791287 0.00920913996 0.0542050752
v 0.0119485046 -0.0130658163 0.0647732603
v 0.0354203605 0.0117091622 0.0507393535
v 0.027820741 0.0224180713 0.0530864911
v 0.0188067933 0.0217143657 0.0600036273
v 0.0403076241 0.0115093115 0.0282971314
v 0.0340837819 0.0220688519 0.0238711529
v 0.00602530255 0.0107926878 0.00195773782
v 0.0284738784 0.0217275175 0.0142013631
v 0.0187412144 0.0108997766 0.0063850919
v 0.0121311422 0.0203429027 0.00776644436
v 0.0248894548 0.0310930246 0.0209227645
v 0.0293249896 0.0300996236 0.0324204828
v 0.0173717847 0.0290019958 0.0120620381
v 0.0171129706 -0.0105219486 0.00541047687
v 0.010999894 -0.0214982312 0.00811224791
v 0.0398213477 -0.011888305 0.0286541878
v 0.0358566353 -0.0224520282 0.0337490754
v 0.0340015485 -0.0220589076 0.0446030568
v 0.0279641516 -0.0313598831 0.0388317517
v 0.0287678494 -0.0303336434 0.0273405364
v 0.0191680049 -0.0375381076 0.0327575681
v 0.0130785532 0.0371454695 0.019683447
v -0.000191616164 0.0222890371 0.00678611056
v -0.00644031645 0.0107092029 0.00200216459
v -0.00163131787 -0.0200015147 0.00539828628
v 0.00298371924 -0.0301969272 0.00881633354
v 0.017544256 0.0307352496 0.0532239004
v 0.01730512 -0.0369310607 0.0442904161
v 0.00775787229 -0.0419929143 0.0373367585
v -0.00992058035 -0.0296396599 0.00922490443
v 0.00505293826 -0.0387267547 0.0478129935
v -0.00497296245 -0.0416786263 0.0408958623
v -0.00720705582 -0.0365345606 0.0515905921
v -0.0139237082 -0.0172534869 0.00670663802
v 0.00764626863 0.029682357 0.0590093882
v 0.00612587604 0.0364133634 0.0508614078
v -0.0167615168 -0.0371682441 0.0437594866
v -0.0129863377 0.0211766742 0.00864870229
v -0.0187053805 -0.0307759971 0.0539481849
v -0.00463862029 0.0332709363 0.0555984691
v -0.0274032636 -0.0300733324 0.0457170847
v -0.0281209457 -0.0216679298 0.0542319556
v -0.0359073964 -0.019639295 0.0457370464
v -0.0350827823 -0.0106995098 0.0533782202
v -0.0408503034 -0.00611696663 0.0420318886
v -0.00620630594 0.038765836 0.0467521038
v -0.0164886848 0.0330470862 0.0511381527
v -0.0177847239 0.0376570221 0.0405867607
v -0.0218513403 -0.0237893148 0.00996320574
v -0.0160708927 0.0268610176 0.0585147112
v -0.0267034826 -0.0117940776 0.00744236936
v -0.0270450703 0.0301032969 0.045068231
v -0.0266734546 0.0327675964 0.0333019017
v -0.0326679315 -0.0176976142 0.0150803346
v -0.0345112776 -0.0052599573 0.0124504665
v -0.0348680667 0.0239233271 0.036823479
v -0.0333020674 0.0249802473 0.025633341
v -0.0186511547 -0.0338368338 0.0181868908
v -0.0148505802 0.0389991577 0.0292310212
v -0.0346975291 0.0193676393 0.0469007237
v -0.0397476841 0.0149376322 0.0296294427
v -0.025934877 -0.011378502 0.0609662287
v -0.00638163527 0.0318309883 0.0115696667
v -0.00826853197 -0.0283952251 0.0597560259
v -0.0335983117 -0.026314226 0.035549796
v -0.0306325133 0.000512432212 0.0587618558
v -0.0203477537 -0.000755054956 0.064527539
v 0.00476302147 0.0412285227 0.0405953835
v 0.0144980541 -0.0318764094 0.0542618727
v -0.0398696473 -0.00805710175 0.0213524343
v -0.018313479 0.00920714501 0.00565112225
v -0.0249690331 0.0186376572 0.00984911556
v -0.0355365622 0.0149793484 0.0170830239
v -0.0015987529 -0.0419141511 0.0279349624
v 0.0153235136 -0.0304808293 0.0124753421
v -0.0304377778 0.00659133811 0.00862139646
v -0.0116733881 -0.000655211864 0.00174685809
v -0.0143982727 -0.0128633238 0.0640203617
v 0.0064027459 -0.0376332166 0.0178042143
v -0.0248769921 0.0108223463 0.0615944431
v -0.0132737728 0.0103480862 0.0643887295
v 0.025214346 0.031191789 0.0443034974
v -0.00395049516 0.0159894945 0.0639603016
v -0.0408508906 0.00442526304 0.0239609871
v -0.0424184262 0.00475035394 0.0350126686
v 0.0359760073 -0.0117823312 0.0498873212
v 0.0219836461 -0.020920519 0.00892747822
v 0.0273455916 -0.0257004448 0.0163455825
v 0.0362921702 -0.0113547088 0.0175303857
v 0.0185870463 -0.035623562 0.022065766
v 0.0194784802 0.008637397 0.0631371537
v -0.0355752264 -0.0215434422 0.0247592849
v -0.0403104174 -0.0140663972 0.0330672372
v -0.0397664442 0.00638978782 0.04577657
v -0.0279181904 -0.0312875514 0.0266457757
v 0.0282558864 0.0106638537 0.00953112501
v 0.0342245023 0.0212821389 0.0437125095
v 0.0188215069 0.0374692673 0.0365299315
v 0.00600989273 0.0329638299 0.0122140627
v -0.000758846471 0.0395619249 0.0206142879
v -0.0130264539 0.0360248734 0.0186523979
v -0.00282488268 0.0415591682 0.0315347969
v 0.00905761006 0.0402179354 0.0296386646
v -0.0234998734 0.032837673 0.0226264306
v -0.0185258397 0.0292260896 0.013656797
v -0.00516601155 -0.0372785853 0.0168613831
v 0.0247729101 -0.0292298277 0.049435332
v 0.0214453461 -0.0213461318 0.0585443023
v 0.00913228764 -0.024738508 0.06144951
v 0.00323119865 -0.0341104387 0.055453516
v -0.000983575384 -0.0212508917 0.0625050755
v -0.00419831623 0.0260428827 0.0613696169
v 0.0103869683 -0.0403997758 0.0273820581
v -0.0263546132 0.0245957548 0.0532928369
v -0.0140224794 -0.0405278757 0.0333334767
v -0.0205819475 -0.0220780356 0.0599458916
v -0.0131008401 5.8378315e-05 0.0617512868
v 0.0370356873 0.0199914709 0.0336830985
v 0.0353018455 -0.0212901405 0.0245398648
v -0.024333943 -0.0349628814 0.0352857322
v -0.00635163966 -0.00907876707 0.00156521181
v -0.0328739586 0.011444472 0.0552654041
v -0.0207499791 -0.000433769914 0.00580569473
v -0.0119443254 -0.0395668908 0.0237799092
v -0.028544325 0.0251791946 0.0171462428
v 0.03000747 -0.0204233342 0.0526353293
v -0.0393638043 0.014118267 0.0389466893
v 0.0152175531 0.0366834035 0.0456975042
v -0.0277189055 -0.026565987 0.0179055557
v 0.0194211562 0.0365060528 0.0272872549
v 0.00846772178 0.0216837466 0.062413167
v -0.0372093285 0.00415266828 0.0150894884
v 0.0217569257 0.0187502613 0.00874338086
v -0.0372514088 -0.000288962181 0.0523983754
v 0.0212575135 -0.00907201989 0.0634742669
v -0.0423430298 -0.00441365168 0.030440202
v -0.0290718491 -0.00208648486 0.00783994087
v -0.00812647226 0.0409517547 0.0389941859
v -0.0168965518 -0.00861181013 0.00478149006
v -0.0199125351 -0.0371129906 0.0272832023
v -0.0170100359 0.0180301129 0.0628930231
v -0.0235261534 0.0188806949 0.0592729729
f 39 127 48
f 64 86 154
f 66 158 68
f 80 142 134
f 97 159 143
f 64 154 65
f 115 160 140
f 134 142 162
f 71 157 143
f 66 68 67
f 24 151 111
f 68 158 79
f 71 143 159
f 5 116 13
f 38 127 39
f 63 64 65
f 86 142 154
f 28 153 33
f 74 90 75
f 27 30 29
f 102 118 148
f 114 154 142
f 38 146 127
f 103 151 132
f 70 162 161
f 61 85 140
f 135 140 160
f 71 75 157
f 19 146 106
f 70 134 162
f 78 144 160
f 80 114 142
f 80 147 114
f 61 62 63
f 135 160 144
f 17 108 107
f 29 30 153
f 4 116 5
f 49 52 94
f 70 161 132
f 65 105 156
f 12 98 131
f 30 33 153
f 48 127 89
f 75 96 157
f 65 154 114
f 60 66 67
f 81 105 147
f 16 106 38
f 71 74 75
f 67 134 70
f 76 81 147
f 34 107 35
f 103 132 161
f 13 116 28
f 38 106 146
f 28 116 153
f 95 110 99
f 43 44 58
f 66 88 158
f 94 135 144
f 48 51 49
f 29 153 116
f 2 18 141
f 88 148 118
f 62 64 63
f 77 124 145
f 52 135 94
f 54 71 159
f 5 13 6
f 62 82 64
f 57 140 135
f 79 121 124
f 58 125 83
f 14 23 24
f 23 102 47
f 105 114 147
f 67 72 134
f 59 136 62
f 60 67 70
f 85 115 140
f 7 16 36
f 49 51 52
f 56 88 66
f 121 125 124
f 60 70 132
f 6 25 7
f 16 38 37
f 65 114 105
f 95 107 108
f 35 107 95
f 18 35 45
f 2 141 97
f 18 34 35
f 67 68 72
f 97 141 159
f 79 158 122
f 108 109 139
f 124 125 145
f 9 19 106
f 16 37 36
f 17 109 108
f 73 79 124
f 100 162 142
f 84 98 136
f 74 112 90
f 84 131 98
f 54 69 71
f 79 120 121
f 94 99 133
f 59 62 61
f 82 87 86
f 22 117 23
f 20 111 151
f 62 136 82
f 65 156 113
f 73 124 77
f 56 66 60
f 61 63 85
f 76 147 80
f 76 77 81
f 32 102 117
f 82 98 87
f 57 61 140
f 48 89 51
f 10 11 155
f 2 3 18
f 112 149 115
f 20 151 103
f 28 33 31
f 82 136 98
f 101 137 103
f 127 146 128
f 27 43 30
f 1 20 137
f 2 27 3
f 27 44 43
f 89 127 128
f 104 156 105
f 79 122 120
f 77 145 93
f 23 47 24
f 84 130 129
f 10 111 11
f 32 118 102
f 14 24 111
f 14 22 23
f 88 122 158
f 5 109 17
f 32 117 138
f 4 5 17
f 3 27 29
f 75 152 96
f 49 94 133
f 55 132 151
f 88 118 123
f 6 13 25
f 51 53 52
f 26 28 31
f 23 117 102
f 101 103 161
f 41 48 49
f 44 97 91
f 8 9 106
f 74 149 112
f 94 144 126
f 78 160 115
f 68 79 73
f 4 29 116
f 83 121 120
f 13 28 26
f 90 156 104
f 33 119 42
f 51 130 53
f 8 106 16
f 15 138 117
f 86 100 142
f 2 97 44
f 1 21 11
f 90 113 156
f 56 148 88
f 40 110 108
f 50 69 54
f 17 107 34
f 7 25 15
f 42 120 123
f 58 92 125
f 75 90 152
f 84 129 131
f 40 41 110
f 47 102 148
f 99 110 133
f 63 65 113
f 78 126 144
f 69 74 71
f 46 95 99
f 91 97 143
f 55 60 132
f 89 129 130
f 6 7 36
f 52 57 135
f 12 137 98
f 96 143 157
f 1 137 12
f 118 150 123
f 39 41 40
f 72 80 134
f 11 111 20
f 51 89 130
f 42 119 120
f 92 96 93
f 81 104 105
f 45 46 50
f 15 117 22
f 88 123 122
f 2 44 27
f 37 38 39
f 43 58 83
f 18 45 141
f 10 155 19
f 85 112 115
f 86 87 100
f 59 84 136
f 100 161 162
f 53 130 84
f 90 112 113
f 31 33 42
f 42 123 150
f 36 37 139
f 54 159 141
f 94 126 99
f 120 122 123
f 5 6 109
f 41 49 133
f 8 22 9
f 44 91 58
f 77 93 81
f 7 8 16
f 9 10 19
f 87 101 100
f 20 103 137
f 1 12 21
f 68 73 72
f 78 115 149
f 63 113 85
f 90 104 152
f 30 119 33
f 72 76 80
f 15 25 138
f 24 55 151
f 50 126 78
f 41 133 110
f 12 131 21
f 45 50 54
f 73 77 76
f 3 29 4
f 100 101 161
f 21 131 129
f 55 56 60
f 89 128 129
f 1 11 20
f 83 120 119
f 57 59 61
f 19 128 146
f 11 21 155
f 3 34 18
f 40 108 139
f 26 31 32
f 69 149 74
f 13 26 25
f 9 22 14
f 26 32 138
f 8 15 22
f 45 54 141
f 6 36 109
f 24 47 55
f 30 43 119
f 87 98 137
f 50 78 69
f 4 17 34
f 91 143 96
f 93 96 152
f 85 113 112
f 7 15 8
f 72 73 76
f 32 150 118
f 52 53 57
f 10 14 111
f 37 39 40
f 9 14 10
f 31 42 150
f 3 4 34
f 43 83 119
f 46 99 126
f 81 93 104
f 58 91 92
f 47 148 56
f 46 126 50
f 25 26 138
f 69 78 149
f 53 59 57
f 53 84 59
f 91 96 92
f 47 56 55
f 31 150 32
f 37 40 139
f 87 137 101
f 93 152 104
f 19 155 128
f 21 128 155
f 21 129 128
f 39 48 41
f 64 82 86
f 95 108 110
f 35 95 46
f 83 125 121
f 36 139 109
f 92 145 125
f 35 46 45
f 92 93 145
