v -0.00115174232 -0.000492634998 0.0468768847
v 6.09708873e-10 4.36401432e-11 -2.08575902e-09
v 0.0123606811 3.38372625e-10 0.00195773693
v 0.0235114116 -9.11429945e-11 0.00763931546
v 0.0345420726 -0.000361871456 0.0127788766
v 0.0406018928 -0.00037493001 0.022559744
v 0.0424727545 -0.000355718761 0.0336136668
v 0.0399421615 -0.000291333958 0.0451910479
v 0.0336114943 -0.000330174742 0.0550607909
v 0.0246607397 -0.000500824633 0.0617651696
v 0.0128893089 -0.000999114553 0.0608280553
v 6.30009657e-05 -0.0134405572 0.0614962244
v 0.0363966079 0.0114343397 0.0170258768
v 0.0276719226 0.0115505979 0.0584489051
v 0.0401780564 0.0111197483 0.0390836251
v 0.0402938225 -0.0118285752 0.039751958
v 0.0289411482 -0.0117118078 0.00943536311
v 0.00602530307 -0.0107926894 0.00195773772
v 0.0278363545 -0.0117489079 0.0576934945
v 0.00589814487 0.0091923756 0.0520246837
v 0.0118573111 -0.0130171038 0.0636956807
v 0.0356218022 0.011782736 0.0503080704
v 0.0279290386 0.0224567359 0.0527283597
v 0.0188910323 0.021628986 0.0596231599
v 0.0404932335 0.0116228303 0.0279185285
v 0.0342014039 0.0222034184 0.0235496862
v 0.00602530253 0.0107926877 0.00195773779
v 0.0285572717 0.0218583905 0.0139372794
v 0.0187412145 0.0108997766 0.0063850918
v 0.0121311422 0.0203429029 0.0077664443
v 0.024972282 0.0312640884 0.0206319462
v 0.0294409429 0.0302364335 0.0321069958
v 0.0174009856 0.029121416 0.0118363266
v 0.0171129706 -0.0105219486 0.00541047677
v 0.010999894 -0.0214982312 0.0081122478
v 0.03997803 -0.0118997659 0.0282930633
v 0.0360324649 -0.0225126519 0.0333244383
v 0.0341790953 -0.0221244198 0.0441360103
v 0.0281135165 -0.0314712634 0.0383543079
v 0.028916277 -0.030426821 0.0269061798
v 0.0192674272 -0.0376557196 0.0323066915
v 0.013120085 0.0373107864 0.0194280419
v -0.000191616157 0.0222890372 0.00678611051
v -0.00644031642 0.0107092029 0.00200216453
v -0.00163131786 -0.0200015147 0.00539828615
v 0.0030074509 -0.030233258 0.00852509228
v 0.0176289714 0.0307380263 0.0529159769
v 0.0174029713 -0.0370825279 0.0437905822
v 0.00782494996 -0.0421789016 0.036838164
v -0.00993385443 -0.0297362082 0.00896690412
v 0.00507412543 -0.0388926828 0.0471790371
v -0.00499826157 -0.0418503023 0.04033097
v -0.00724952935 -0.0367156143 0.0509389767
v -0.0139237082 -0.0172534869 0.00670663791
v 0.00776362522 0.0295266825 0.0587347454
v 0.00621272165 0.0363946231 0.0506266974
v -0.0168243521 -0.0372960024 0.0431718094
v -0.0129863377 0.0211766743 0.00864870226
v -0.0188151919 -0.0309382776 0.0533166162
v -0.00453109865 0.0332134757 0.0553091108
v -0.0275011635 -0.0301998114 0.0451860308
v -0.02825555 -0.0217737196 0.0536191296
v -0.0360657783 -0.0197097594 0.0452718271
v -0.0352326837 -0.0107339753 0.052880998
v -0.0409726166 -0.00610411773 0.0415875657
v -0.00616584413 0.0388063161 0.0465346843
v -0.0164483097 0.0331027702 0.0508482425
v -0.0178079298 0.037779591 0.0403359888
v -0.0218963076 -0.0238064249 0.00963326114
v -0.0159836419 0.0268461604 0.0581673293
v -0.0268196806 -0.0117857678 0.00721308958
v -0.0270702408 0.0301976627 0.0448176889
v -0.0267302618 0.0329005867 0.0330403916
v -0.0327907723 -0.0177066878 0.0147244354
v -0.0346298948 -0.00520951052 0.0121699084
v -0.0349538806 0.0240542525 0.0365158422
v -0.0333952922 0.0250995887 0.0253250233
v -0.0187289595 -0.0338974138 0.0177985913
v -0.0148342556 0.0391326705 0.029015058
v -0.0347706959 0.0194609305 0.0465545558
v -0.0398633993 0.0150567667 0.0293076403
v -0.0260841724 -0.0114244916 0.0602963007
v -0.0063885356 0.0319081532 0.0114298024
v -0.008320493 -0.0286178076 0.058938971
v -0.0337435341 -0.0263709925 0.0351002234
v -0.0306847977 0.000537987121 0.0582049306
v -0.0202760236 -0.000817767477 0.0637804677
v 0.00480643448 0.041323378 0.0404040323
v 0.0146009203 -0.0320051663 0.0536286028
v -0.0400281528 -0.00801091775 0.0209726927
v -0.0183134791 0.00920714505 0.00565112213
v -0.0250186429 0.0187201431 0.00968337322
v -0.0356242463 0.0150894562 0.016743521
v -0.00159075247 -0.0420420782 0.0275062583
v 0.0153789263 -0.0305673151 0.0121705123
v -0.0304975554 0.00666312708 0.00836455277
v -0.0116733881 -0.000655211862 0.00174685805
v -0.0144719145 -0.0130111584 0.0628678845
v 0.00641228477 -0.0377357073 0.0174210164
v -0.0249289524 0.0108097016 0.0610610141
v -0.0133337806 0.0102940806 0.0636835019
v 0.0253244488 0.0312659028 0.0439959778
v -0.00378060723 0.0157910176 0.0633109439
v -0.0409633241 0.00451971077 0.0236193216
v -0.0425568896 0.00481270899 0.0346405356
v 0.036153963 -0.0118108565 0.0494084252
v 0.022072972 -0.0209703605 0.0087001883
v 0.0274713386 -0.025768987 0.0159898639
v 0.036454957 -0.0113542118 0.0172135976
v 0.0186725247 -0.0357401788 0.0216663135
v 0.0194983099 0.00851369959 0.0625762828
v -0.0357225499 -0.0215642588 0.024335906
v -0.0404605396 -0.0140749133 0.0326437171
v -0.0398706609 0.0064361825 0.0453690076
v -0.0280430452 -0.0313499055 0.0262173339
v 0.0283593684 0.0107409499 0.00936162734
v 0.034374025 0.0213683126 0.0433530756
v 0.0188735236 0.0375712058 0.0362888918
v 0.00601631807 0.0330612774 0.0120417058
v -0.000755450432 0.0396979572 0.0203715501
v -0.0130554244 0.0361432948 0.0184584508
v -0.00280338866 0.0416604261 0.031331088
v 0.00907742992 0.0403063611 0.0294191287
v -0.0235434737 0.0329800551 0.0224030492
v -0.018556103 0.0293151534 0.0134867556
v -0.00517739408 -0.0373755904 0.0165072791
v 0.0249169988 -0.0293480058 0.0488911979
v 0.0215851215 -0.0213977088 0.0578822078
v 0.00920573536 -0.0248803424 0.0605948937
v 0.00327201019 -0.0343178719 0.0547416367
v -0.000955085812 -0.0214130319 0.0611638815
v -0.0040297503 0.0258961018 0.0609616102
v 0.0104408652 -0.0405286182 0.0269364516
v -0.0263530379 0.0246483056 0.0530043004
v -0.0140917809 -0.040679154 0.0328037503
v -0.0207424755 -0.0222438551 0.0592547329
v -0.0131551384 0.000127346119 0.0602778214
v 0.0371882957 0.0201049166 0.033336451
v 0.0354824936 -0.0213414732 0.0241419107
v -0.0244500696 -0.0350665991 0.0347737076
v -0.00635163969 -0.00907876707 0.00156521171
v -0.0329631594 0.0115019794 0.0548355448
v -0.0207499792 -0.000433769903 0.00580569468
v -0.0119945684 -0.0396888375 0.0233356211
v -0.0286113639 0.02530761 0.0169031226
v 0.0301913317 -0.0205135345 0.0520985056
v -0.0394499625 0.0142008984 0.0385914623
v 0.0152988242 0.0367331988 0.0454350298
v -0.0278062088 -0.0265913371 0.0175210725
v 0.0194772927 0.0366509438 0.0270349966
v 0.0085730445 0.0214005572 0.062017868
v -0.0373231159 0.00424077745 0.0147598859
v 0.0218076354 0.0187955341 0.008588209
v -0.037371611 -0.000275041377 0.051951448
v 0.0212876628 -0.00910563868 0.0627786514
v -0.0424853855 -0.00438375088 0.0300487745
v -0.0291490495 -0.00204295274 0.00764067155
v -0.00809034317 0.0410510136 0.0388129678
v -0.0168965518 -0.00861181011 0.00478149001
v -0.0199995888 -0.037213365 0.0268191439
v -0.0169305779 0.0179699178 0.0623962533
v -0.0235066681 0.0188588535 0.0588525943
f 39 127 48
f 64 86 154
f 66 158 68
f 80 142 134
f 97 159 143
f 64 154 65
f 115 160 140
f 134 142 162
f 71 157 143
f 66 68 67
f 24 151 111
f 68 158 79
f 71 143 159
f 5 116 13
f 38 127 39
f 63 64 65
f 86 142 154
f 28 153 33
f 74 90 75
f 27 30 29
f 102 118 148
f 114 154 142
f 38 146 127
f 103 151 132
f 70 162 161
f 61 85 140
f 135 140 160
f 71 75 157
f 19 146 106
f 70 134 162
f 78 144 160
f 80 114 142
f 80 147 114
f 61 62 63
f 135 160 144
f 17 108 107
f 29 30 153
f 4 116 5
f 49 52 94
f 70 161 132
f 65 105 156
f 12 98 131
f 30 33 153
f 48 127 89
f 75 96 157
f 65 154 114
f 60 66 67
f 81 105 147
f 16 106 38
f 71 74 75
f 67 134 70
f 76 81 147
f 34 107 35
f 103 132 161
f 13 116 28
f 38 106 146
f 28 116 153
f 95 110 99
f 43 44 58
f 66 88 158
f 94 135 144
f 48 51 49
f 29 153 116
f 2 18 141
f 88 148 118
f 62 64 63
f 77 124 145
f 52 135 94
f 54 71 159
f 5 13 6
f 62 82 64
f 57 140 135
f 79 121 124
f 58 125 83
f 14 23 24
f 23 102 47
f 105 114 147
f 67 72 134
f 59 136 62
f 60 67 70
f 85 115 140
f 7 16 36
f 49 51 52
f 56 88 66
f 121 125 124
f 60 70 132
f 6 25 7
f 16 38 37
f 65 114 105
f 95 107 108
f 35 107 95
f 18 35 45
f 2 141 97
f 18 34 35
f 67 68 72
f 97 141 159
f 79 158 122
f 108 109 139
f 124 125 145
f 9 19 106
f 16 37 36
f 17 109 108
f 73 79 124
f 100 162 142
f 84 98 136
f 74 112 90
f 84 131 98
f 54 69 71
f 79 120 121
f 94 99 133
f 59 62 61
f 82 87 86
f 22 117 23
f 20 111 151
f 62 136 82
f 65 156 113
f 73 124 77
f 56 66 60
f 61 63 85
f 76 147 80
f 76 77 81
f 32 102 117
f 82 98 87
f 57 61 140
f 48 89 51
f 10 11 155
f 2 3 18
f 112 149 115
f 20 151 103
f 28 33 31
f 82 136 98
f 101 137 103
f 127 146 128
f 27 43 30
f 1 20 137
f 2 27 3
f 27 44 43
f 89 127 128
f 104 156 105
f 79 122 120
f 77 145 93
f 23 47 24
f 84 130 129
f 10 111 11
f 32 118 102
f 14 24 111
f 14 22 23
f 88 122 158
f 5 109 17
f 32 117 138
f 4 5 17
f 3 27 29
f 75 152 96
f 49 94 133
f 55 132 151
f 88 118 123
f 6 13 25
f 51 53 52
f 26 28 31
f 23 117 102
f 101 103 161
f 41 48 49
f 44 97 91
f 8 9 106
f 74 149 112
f 94 144 126
f 78 160 115
f 68 79 73
f 4 29 116
f 83 121 120
f 13 28 26
f 90 156 104
f 33 119 42
f 51 130 53
f 8 106 16
f 15 138 117
f 86 100 142
f 2 97 44
f 1 21 11
f 90 113 156
f 56 148 88
f 40 110 108
f 50 69 54
f 17 107 34
f 7 25 15
f 42 120 123
f 58 92 125
f 75 90 152
f 84 129 131
f 40 41 110
f 47 102 148
f 99 110 133
f 63 65 113
f 78 126 144
f 69 74 71
f 46 95 99
f 91 97 143
f 55 60 132
f 89 129 130
f 6 7 36
f 52 57 135
f 12 137 98
f 96 143 157
f 1 137 12
f 118 150 123
f 39 41 40
f 72 80 134
f 11 111 20
f 51 89 130
f 42 119 120
f 92 96 93
f 81 104 105
f 45 46 50
f 15 117 22
f 88 123 122
f 2 44 27
f 37 38 39
f 43 58 83
f 18 45 141
f 10 155 19
f 85 112 115
f 86 87 100
f 59 84 136
f 100 161 162
f 53 130 84
f 90 112 113
f 31 33 42
f 42 123 150
f 36 37 139
f 54 159 141
f 94 126 99
f 120 122 123
f 5 6 109
f 41 49 133
f 8 22 9
f 44 91 58
f 77 93 81
f 7 8 16
f 9 10 19
f 87 101 100
f 20 103 137
f 1 12 21
f 68 73 72
f 78 115 149
f 63 113 85
f 90 104 152
f 30 119 33
f 72 76 80
f 15 25 138
f 24 55 151
f 50 126 78
f 41 133 110
f 12 131 21
f 45 50 54
f 73 77 76
f 3 29 4
f 100 101 161
f 21 131 129
f 55 56 60
f 89 128 129
f 1 11 20
f 83 120 119
f 57 59 61
f 19 128 146
f 11 21 155
f 3 34 18
f 40 108 139
f 26 31 32
f 69 149 74
f 13 26 25
f 9 22 14
f 26 32 138
f 8 15 22
f 45 54 141
f 6 36 109
f 24 47 55
f 30 43 119
f 87 98 137
f 50 78 69
f 4 17 34
f 91 143 96
f 93 96 152
f 85 113 112
f 7 15 8
f 72 73 76
f 32 150 118
f 52 53 57
f 10 14 111
f 37 39 40
f 9 14 10
f 31 42 150
f 3 4 34
f 43 83 119
f 46 99 126
f 81 93 104
f 58 91 92
f 47 148 56
f 46 126 50
f 25 26 138
f 69 78 149
f 53 59 57
f 53 84 59
f 91 96 92
f 47 56 55
f 31 150 32
f 37 40 139
f 87 137 101
f 93 152 104
f 19 155 128
f 21 128 155
f 21 129 128
f 39 48 41
f 64 82 86
f 95 108 110
f 35 95 46
f 83 125 121
f 36 139 109
f 92 145 125
f 35 46 45
f 92 93 145
