v -0.0011920742 -0.000445133477 0.0465894339
v 5.95147052e-10 3.87231256e-11 -2.04483254e-09
v 0.0123606811 3.28565124e-10 0.00195773697
v 0.0235114116 -8.49816413e-11 0.00763931552
v 0.0345504122 -0.000328751691 0.0127650455
v 0.0406236784 -0.000332339683 0.0225419619
v 0.0425183017 -0.000316880984 0.0335983264
v 0.0400043097 -0.000261382252 0.0451898265
v 0.03369902 -0.000302997998 0.0550802788
v 0.0247253445 -0.000519311288 0.0618021526
v 0.0129488377 -0.00105403904 0.0606200959
v 9.97650712e-05 -0.0134857379 0.0612362394
v 0.0364093489 0.011472657 0.0170135052
v 0.0276905555 0.0115173751 0.0585462331
v 0.0402281793 0.011151976 0.0390921526
v 0.0403477702 -0.0117924944 0.0397385812
v 0.0289579201 -0.011689046 0.00942016272
v 0.00602530306 -0.0107926894 0.00195773776
v 0.0278956599 -0.0117270184 0.0577043424
v 0.00592459454 0.00919233686 0.0515929365
v 0.011809689 -0.0129898271 0.063654336
v 0.0356984678 0.0118068948 0.0503539534
v 0.0279850173 0.02243608 0.0528203448
v 0.018958011 0.0215474851 0.0597788393
v 0.0405265315 0.0116637223 0.0279100519
v 0.0342201722 0.0222398075 0.0235566207
v 0.0060253025 0.0107926878 0.00195773779
v 0.0285577071 0.0218899285 0.0139372752
v 0.0187412144 0.0108997766 0.00638509186
v 0.0121311422 0.0203429028 0.00776644436
v 0.0249860546 0.0312971933 0.020656395
v 0.0294762328 0.0302610292 0.0321477872
v 0.0173994814 0.0291369933 0.0118488805
v 0.0171129706 -0.0105219486 0.00541047682
v 0.010999894 -0.0214982312 0.00811224785
v 0.0400130967 -0.0118565253 0.0282760672
v 0.0360774002 -0.0224718774 0.0333030671
v 0.0342337838 -0.0220918223 0.0441171693
v 0.0281632232 -0.0314353578 0.0383291983
v 0.0289581516 -0.0303871998 0.0268849121
v 0.0193148208 -0.0376216702 0.0322759036
v 0.0131386817 0.0373286679 0.0194774045
v -0.000191616151 0.0222890371 0.00678611058
v -0.00644031645 0.0107092029 0.00200216457
v -0.00163131786 -0.0200015146 0.00539828622
v 0.00301943955 -0.0302224398 0.00851336694
v 0.0176997842 0.0306842303 0.0530560193
v 0.0174576242 -0.0370575091 0.0437575195
v 0.00787125409 -0.0421473075 0.0367994977
v -0.00992565178 -0.0297196731 0.00896775143
v 0.00512789453 -0.0388770793 0.0471245703
v -0.00495306513 -0.0418111503 0.0402924732
v -0.00720837248 -0.0367119966 0.0508781491
v -0.0139237082 -0.0172534869 0.00670663799
v 0.00787217999 0.0293886443 0.0589304777
v 0.00630175832 0.0363311946 0.0508049031
v -0.0167853071 -0.0372563248 0.0431359816
v -0.0129863377 0.0211766743 0.00864870233
v -0.0187930538 -0.0309279535 0.0532666324
v -0.00439936378 0.0331194276 0.0554987124
v -0.0274589123 -0.0301501357 0.0451638234
v -0.0282180805 -0.0217405489 0.053602564
v -0.0360185761 -0.0196572654 0.0452782485
v -0.0351719856 -0.0106827313 0.0528984197
v -0.0409193351 -0.00604123257 0.0416227097
v -0.00605869961 0.0387754348 0.0467004676
v -0.0163244486 0.033091052 0.0510032858
v -0.0177069729 0.0377874713 0.0404720047
v -0.0218922709 -0.0237805269 0.00963970565
v -0.0158217977 0.0267995225 0.0583232829
v -0.0268154353 -0.0117647802 0.00722205342
v -0.0269593069 0.0302195216 0.0449476382
v -0.026645648 0.0329420498 0.0331488719
v -0.0327753297 -0.0176530247 0.0147409099
v -0.034608763 -0.00515881893 0.0121966356
v -0.0348708316 0.0241114469 0.0366151471
v -0.0333293261 0.0251538546 0.0254129815
v -0.0187129892 -0.0338537006 0.0177972284
v -0.014759052 0.0391532128 0.0291195886
v -0.0346773049 0.0195068473 0.0466546607
v -0.0398008788 0.0151231619 0.0293828256
v -0.0260364493 -0.0114071987 0.0602950851
v -0.0063712318 0.0319076376 0.0114672878
v -0.00829623252 -0.028681387 0.0588687963
v -0.0337123982 -0.0263141774 0.0351003432
v -0.0306263771 0.000574580141 0.0582452008
v -0.0202743798 -0.000837269943 0.0638152975
v 0.00487814478 0.0412972389 0.0405422366
v 0.014664642 -0.0319964877 0.0535814941
v -0.0399972478 -0.00794229202 0.0210053
v -0.018313479 0.00920714501 0.00565112222
v -0.0249954888 0.0187514379 0.00972034119
v -0.0355793385 0.0151518327 0.0168005974
v -0.00155660116 -0.0420050314 0.0274822233
v 0.0154040117 -0.0305444409 0.012151849
v -0.0304729632 0.00670191716 0.008391904
v -0.0116733881 -0.000655211863 0.0017468581
v -0.0144250357 -0.0130610602 0.0627597831
v 0.00643902076 -0.037703116 0.0174024015
v -0.0248276408 0.0108228161 0.0611422002
v -0.0133113176 0.0102804765 0.0638628276
v 0.0253794834 0.031256077 0.0440847753
v -0.00360473497 0.0156589038 0.0635521313
v -0.0409172446 0.0045918061 0.0236710342
v -0.0424939949 0.00488277364 0.0347024885
v 0.036211887 -0.0117831327 0.0494087118
v 0.022083868 -0.0209484187 0.00868533022
v 0.0274995347 -0.0257327493 0.0159708242
v 0.0364790715 -0.0113141949 0.0171969932
v 0.018712249 -0.0357055629 0.0216401487
v 0.0194905989 0.0083989574 0.062769867
v -0.0356978657 -0.0215014561 0.0243511047
v -0.0404215387 -0.0140059615 0.0326684252
v -0.0397921677 0.00649508197 0.0454350961
v -0.0280191239 -0.0312956828 0.0262160776
v 0.0283657704 0.010764656 0.00934859099
v 0.0344349147 0.0213867443 0.0434008462
v 0.0189060746 0.0375572974 0.036388576
v 0.00602320741 0.0330669388 0.012071877
v -0.000718906838 0.039709273 0.0204441832
v -0.0130135689 0.0361629023 0.018526245
v -0.00273925877 0.0416633659 0.0314440041
v 0.00911677437 0.0403091727 0.0295113734
v -0.0234803466 0.0330182911 0.0224859005
v -0.0185250339 0.029330215 0.0135320227
v -0.0051584686 -0.0373446319 0.0164994216
v 0.0249768705 -0.0293223876 0.0488692769
v 0.0216510549 -0.0213700423 0.0578874242
v 0.0092678732 -0.0249153031 0.0605342034
v 0.00332609576 -0.0343374912 0.0546753744
v -0.000911183378 -0.0214911202 0.0609777135
v -0.0038593957 0.025764729 0.0611736399
v 0.0104813499 -0.0404926235 0.026906466
v -0.0262361911 0.0246621065 0.0531405249
v -0.0140581445 -0.0406392353 0.0327804142
v -0.0207232386 -0.0222610195 0.0592250939
v -0.0132495918 0.000201470556 0.0601562935
v 0.0372246686 0.0201358927 0.0333542279
v 0.0355175801 -0.0212999269 0.0241210857
v -0.0244214405 -0.035022238 0.034756298
v -0.00635163968 -0.00907876706 0.00156521178
v -0.0328666476 0.0115437184 0.0549198318
v -0.0207499791 -0.000433769893 0.00580569473
v -0.0119711609 -0.0396468411 0.0233247005
v -0.028563187 0.0253517657 0.0169710275
v 0.0302620168 -0.0204961506 0.0520923803
v -0.0393735324 0.0142639681 0.038673092
v 0.0153562938 0.0366937374 0.0455700829
v -0.027791723 -0.0265390002 0.0175293919
v 0.0195048458 0.0366697423 0.0271026905
v 0.00868902379 0.0212131591 0.0622786744
v -0.0372866067 0.00430244996 0.0148032628
v 0.0218054892 0.0188078619 0.00858368689
v -0.0372969496 -0.000226062966 0.0519955013
v 0.0213129111 -0.00912165869 0.0628172595
v -0.0424382793 -0.00431116419 0.0300900463
v -0.0291375885 -0.0020130212 0.00765609625
v -0.00799788591 0.0410408219 0.0389535995
v -0.0168965518 -0.00861181009 0.00478149004
v -0.0199740202 -0.0371652671 0.0268097012
v -0.0167603613 0.0179170991 0.0625221962
v -0.0233668441 0.0188546341 0.0589767755
f 39 127 48
f 64 86 154
f 66 158 68
f 80 142 134
f 97 159 143
f 64 154 65
f 115 160 140
f 134 142 162
f 71 157 143
f 66 68 67
f 24 151 111
f 68 158 79
f 71 143 159
f 5 116 13
f 38 127 39
f 63 64 65
f 86 142 154
f 28 153 33
f 74 90 75
f 27 30 29
f 102 118 148
f 114 154 142
f 38 146 127
f 103 151 132
f 70 162 161
f 61 85 140
f 135 140 160
f 71 75 157
f 19 146 106
f 70 134 162
f 78 144 160
f 80 114 142
f 80 147 114
f 61 62 63
f 135 160 144
f 17 108 107
f 29 30 153
f 4 116 5
f 49 52 94
f 70 161 132
f 65 105 156
f 12 98 131
f 30 33 153
f 48 127 89
f 75 96 157
f 65 154 114
f 60 66 67
f 81 105 147
f 16 106 38
f 71 74 75
f 67 134 70
f 76 81 147
f 34 107 35
f 103 132 161
f 13 116 28
f 38 106 146
f 28 116 153
f 95 110 99
f 43 44 58
f 66 88 158
f 94 135 144
f 48 51 49
f 29 153 116
f 2 18 141
f 88 148 118
f 62 64 63
f 77 124 145
f 52 135 94
f 54 71 159
f 5 13 6
f 62 82 64
f 57 140 135
f 79 121 124
f 58 125 83
f 14 23 24
f 23 102 47
f 105 114 147
f 67 72 134
f 59 136 62
f 60 67 70
f 85 115 140
f 7 16 36
f 49 51 52
f 56 88 66
f 121 125 124
f 60 70 132
f 6 25 7
f 16 38 37
f 65 114 105
f 95 107 108
f 35 107 95
f 18 35 45
f 2 141 97
f 18 34 35
f 67 68 72
f 97 141 159
f 79 158 122
f 108 109 139
f 124 125 145
f 9 19 106
f 16 37 36
f 17 109 108
f 73 79 124
f 100 162 142
f 84 98 136
f 74 112 90
f 84 131 98
f 54 69 71
f 79 120 121
f 94 99 133
f 59 62 61
f 82 87 86
f 22 117 23
f 20 111 151
f 62 136 82
f 65 156 113
f 73 124 77
f 56 66 60
f 61 63 85
f 76 147 80
f 76 77 81
f 32 102 117
f 82 98 87
f 57 61 140
f 48 89 51
f 10 11 155
f 2 3 18
f 112 149 115
f 20 151 103
f 28 33 31
f 82 136 98
f 101 137 103
f 127 146 128
f 27 43 30
f 1 20 137
f 2 27 3
f 27 44 43
f 89 127 128
f 104 156 105
f 79 122 120
f 77 145 93
f 23 47 24
f 84 130 129
f 10 111 11
f 32 118 102
f 14 24 111
f 14 22 23
f 88 122 158
f 5 109 17
f 32 117 138
f 4 5 17
f 3 27 29
f 75 152 96
f 49 94 133
f 55 132 151
f 88 118 123
f 6 13 25
f 51 53 52
f 26 28 31
f 23 117 102
f 101 103 161
f 41 48 49
f 44 97 91
f 8 9 106
f 74 149 112
f 94 144 126
f 78 160 115
f 68 79 73
f 4 29 116
f 83 121 120
f 13 28 26
f 90 156 104
f 33 119 42
f 51 130 53
f 8 106 16
f 15 138 117
f 86 100 142
f 2 97 44
f 1 21 11
f 90 113 156
f 56 148 88
f 40 110 108
f 50 69 54
f 17 107 34
f 7 25 15
f 42 120 123
f 58 92 125
f 75 90 152
f 84 129 131
f 40 41 110
f 47 102 148
f 99 110 133
f 63 65 113
f 78 126 144
f 69 74 71
f 46 95 99
f 91 97 143
f 55 60 132
f 89 129 130
f 6 7 36
f 52 57 135
f 12 137 98
f 96 143 157
f 1 137 12
f 118 150 123
f 39 41 40
f 72 80 134
f 11 111 20
f 51 89 130
f 42 119 120
f 92 96 93
f 81 104 105
f 45 46 50
f 15 117 22
f 88 123 122
f 2 44 27
f 37 38 39
f 43 58 83
f 18 45 141
f 10 155 19
f 85 112 115
f 86 87 100
f 59 84 136
f 100 161 162
f 53 130 84
f 90 112 113
f 31 33 42
f 42 123 150
f 36 37 139
f 54 159 141
f 94 126 99
f 120 122 123
f 5 6 109
f 41 49 133
f 8 22 9
f 44 91 58
f 77 93 81
f 7 8 16
f 9 10 19
f 87 101 100
f 20 103 137
f 1 12 21
f 68 73 72
f 78 115 149
f 63 113 85
f 90 104 152
f 30 119 33
f 72 76 80
f 15 25 138
f 24 55 151
f 50 126 78
f 41 133 110
f 12 131 21
f 45 50 54
f 73 77 76
f 3 29 4
f 100 101 161
f 21 131 129
f 55 56 60
f 89 128 129
f 1 11 20
f 83 120 119
f 57 59 61
f 19 128 146
f 11 21 155
f 3 34 18
f 40 108 139
f 26 31 32
f 69 149 74
f 13 26 25
f 9 22 14
f 26 32 138
f 8 15 22
f 45 54 141
f 6 36 109
f 24 47 55
f 30 43 119
f 87 98 137
f 50 78 69
f 4 17 34
f 91 143 96
f 93 96 152
f 85 113 112
f 7 15 8
f 72 73 76
f 32 150 118
f 52 53 57
f 10 14 111
f 37 39 40
f 9 14 10
f 31 42 150
f 3 4 34
f 43 83 119
f 46 99 126
f 81 93 104
f 58 91 92
f 47 148 56
f 46 126 50
f 25 26 138
f 69 78 149
f 53 59 57
f 53 84 59
f 91 96 92
f 47 56 55
f 31 150 32
f 37 40 139
f 87 137 101
f 93 152 104
f 19 155 128
f 21 128 155
f 21 129 128
f 39 48 41
f 64 82 86
f 95 108 110
f 35 95 46
f 83 125 121
f 36 139 109
f 92 145 125
f 35 46 45
f 92 93 145
