v -0.000766568362 -0.000567595534 0.064395603
v 2.70553225e-10 7.27035531e-11 -1.04172973e-09
v 0.0123606804 1.6367358e-10 0.00195773818
v 0.0235114109 -4.14662395e-11 0.00763931816
v 0.0333638908 -0.000331913129 0.0148357025
v 0.0390250513 -0.000488829903 0.0254011396
v 0.0407017122 -0.000619674831 0.0372242556
v 0.0383402159 -0.000780329105 0.049207303
v 0.0322065715 -0.000955129761 0.0597880913
v 0.0235273644 -0.00102997573 0.0679339357
v 0.0123631048 -0.00111416843 0.0722207468
v -0.000158481916 -0.0143122339 0.0722530426
v 0.0349422981 0.0109455457 0.0198020185
v 0.0258785937 0.0104839962 0.0641330055
v 0.0385116617 0.0103735522 0.0430656459
v 0.0385473601 -0.0117912675 0.0430740939
v 0.0280914869 -0.0113367471 0.0111684313
v 0.00602530257 -0.0107926893 0.00195773837
v 0.0268879453 -0.0120037928 0.063044254
v 0.00541578646 0.0101503436 0.0705147391
v 0.0117111597 -0.01374941 0.071249421
v 0.0338654459 0.0107117308 0.0548160056
v 0.0266201346 0.0210698415 0.0572230572
v 0.017724931 0.0203748216 0.0648327691
v 0.0388132614 0.0108335469 0.0314028105
v 0.0329382114 0.0211693614 0.0267818235
v 0.00602530238 0.0107926887 0.00195773857
v 0.027548726 0.0209110466 0.0164835079
v 0.0187412135 0.0108997769 0.00638509389
v 0.0121311421 0.0203429005 0.00776644665
v 0.0239818908 0.029882879 0.0238061751
v 0.0282299114 0.0288960134 0.0357500101
v 0.0168907606 0.0280730788 0.0141438378
v 0.0171129703 -0.0105219482 0.00541047853
v 0.0109998934 -0.0214982306 0.0081122497
v 0.0386656818 -0.0116399852 0.0312203816
v 0.0346660246 -0.0219748828 0.0365397177
v 0.0327583213 -0.0217770208 0.0477171661
v 0.0269889232 -0.0306804059 0.0417499363
v 0.0278522449 -0.0295817968 0.0300062333
v 0.0186230067 -0.0368025842 0.0352440981
v 0.0125866745 0.035802253 0.0225295194
v -0.00019161611 0.0222890359 0.00678611265
v -0.00644031699 0.0107092022 0.00200216589
v -0.00163131778 -0.0200015136 0.00539828818
v 0.00288439446 -0.0298269576 0.0104302379
v 0.0167000556 0.0292234733 0.0574942671
v 0.0167049183 -0.0361958909 0.04708933
v 0.00738130209 -0.040909782 0.0399428572
v -0.00982329398 -0.0289196328 0.0106349688
v 0.00493201789 -0.0380842432 0.0512252924
v -0.00479936267 -0.0407283691 0.0438924876
v -0.00703890727 -0.0359671384 0.0550797659
v -0.0139237075 -0.0172534857 0.00670663987
v 0.00693865404 0.0279272979 0.0636090179
v 0.00556424241 0.0348480421 0.0550079358
v -0.0164206269 -0.0365920186 0.0469268571
v -0.012986337 0.0211766731 0.00864870417
v -0.0182038446 -0.0303032404 0.0574611657
v -0.00487836099 0.0315727729 0.0601181435
v -0.0267839166 -0.0294700828 0.0486581696
v -0.027352969 -0.0214776489 0.057994994
v -0.0348555317 -0.0194008699 0.0485911319
v -0.0340348447 -0.0108407954 0.0567607837
v -0.0399259941 -0.00629816211 0.0451595269
v -0.00614859272 0.0372695905 0.0504914981
v -0.0162453347 0.0315604648 0.0551823358
v -0.0171902935 0.036082585 0.0441081818
v -0.021537085 -0.0234735355 0.0118706086
v -0.0157613217 0.0252693549 0.0629550771
v -0.0259031981 -0.0116775729 0.00883488044
v -0.0263488719 0.0288096304 0.048390327
v -0.0259080488 0.0316105127 0.0364411153
v -0.0318234562 -0.017325842 0.0172387087
v -0.0335898296 -0.00528203112 0.0143418141
v -0.0339241604 0.0228827112 0.0400453785
v -0.032301405 0.0241850706 0.0287025804
v -0.018164519 -0.0332505897 0.0203036215
v -0.0146888163 0.0377037131 0.0321558274
v -0.0338048853 0.0182974828 0.0504166333
v -0.0386718151 0.0142196696 0.0325147642
v -0.0250061721 -0.0118241476 0.0654907912
v -0.00628357357 0.0310726121 0.0131237976
v -0.0081248144 -0.0280802119 0.0643193648
v -0.0326868419 -0.0259542102 0.0381162165
v -0.030064336 -0.000297619231 0.0631545353
v -0.0204054376 -0.00154256292 0.0701109864
v 0.00448934376 0.0395388781 0.0439957246
v 0.0138751257 -0.0315839508 0.0578848477
v -0.0387151793 -0.00806510173 0.023878236
v -0.0183134777 0.00920714415 0.00565112459
v -0.0243800173 0.0182243147 0.0113466918
v -0.0346195069 0.0144943773 0.0199001503
v -0.00161803384 -0.0410735435 0.030141933
v 0.0150546789 -0.0297366059 0.0141724923
v -0.0297693393 0.00635616163 0.0105335003
v -0.0116733885 -0.000655211787 0.00174685917
v -0.0138385575 -0.0129553719 0.0707373658
v 0.00640869272 -0.0368340799 0.0198517049
v -0.0240796229 0.00986559398 0.0664369178
v -0.0128539052 0.00897207909 0.0714572713
v 0.0241529042 0.0298226949 0.048109195
v -0.00415136526 0.0144315119 0.0712890013
v -0.0398585611 0.00405989369 0.0265877468
v -0.0412352035 0.00438854935 0.0379911125
v 0.0346627439 -0.0118816587 0.0534320162
v 0.021380474 -0.0203657947 0.0103233084
v 0.0265739754 -0.0249795158 0.0185334809
v 0.0351319848 -0.0110571007 0.0197289987
v 0.0181715058 -0.0347349995 0.0242580295
v 0.0176333698 0.00783711449 0.0697087462
v -0.0346190015 -0.0212107231 0.0272881665
v -0.0392761501 -0.0138793001 0.0357839579
v -0.0387463598 0.00580974132 0.0491845474
v -0.0271343927 -0.0307641153 0.0289840023
v 0.0273916536 0.0102757583 0.0107880393
v 0.0329476319 0.0202119828 0.0474178853
v 0.0180894632 0.0359682175 0.0399588593
v 0.0058392773 0.0320617287 0.0140851417
v -0.000785795806 0.0382985449 0.0235074146
v -0.0126601072 0.0349967012 0.0209628291
v -0.00286668406 0.0402777821 0.0346239963
v 0.00876049689 0.0390764881 0.0327398312
v -0.0228707045 0.0317649017 0.0251942981
v -0.0181156652 0.0284971684 0.0154195108
v -0.00506652624 -0.0365221436 0.0187462845
v 0.0238014503 -0.0287442986 0.0528424098
v 0.0206240617 -0.0215291487 0.0630510191
v 0.0086425462 -0.0248068169 0.0664266742
v 0.00294736484 -0.0335737348 0.0593549745
v -0.00119229291 -0.0215425743 0.0693991269
v -0.00443693829 0.0242920124 0.0668397731
v 0.0101345862 -0.0395238445 0.0297376717
v -0.0258456864 0.0233545376 0.056950557
v -0.0135694584 -0.039607627 0.0361492787
v -0.0197504022 -0.0218502945 0.0641974026
v -0.0133345498 -0.000952021053 0.0715277443
v 0.0356829207 0.0190737102 0.0369608164
v 0.0340911922 -0.0207310588 0.0271469734
v -0.0236350831 -0.0343860027 0.0380359466
v -0.00635163917 -0.00907876679 0.00156521345
v -0.0318805726 0.0104504561 0.0592148143
v -0.0207499776 -0.000433769847 0.00580569591
v -0.0116169198 -0.0386683352 0.0261417612
v -0.0277866405 0.0243945807 0.019544419
v 0.0288057993 -0.0202129926 0.0563411559
v -0.038466596 0.0134445014 0.0421902308
v 0.0143912153 0.0350810009 0.0496298016
v -0.0271588167 -0.0261371168 0.0200947419
v 0.0187654964 0.0352246924 0.0304139106
v 0.007770206 0.0200263692 0.0684568206
v -0.036179743 0.00389295833 0.0175473944
v 0.0212015362 0.0184569044 0.00999838554
v -0.0361680692 -0.000802546816 0.055888953
v 0.0204385741 -0.00942809791 0.0687237832
v -0.0412032254 -0.00441552332 0.0331947803
v -0.0284270138 -0.00215468505 0.0092047519
v -0.00805178738 0.0393880055 0.0421716314
v -0.0168965516 -0.00861180979 0.0047814909
v -0.0193624845 -0.0363853564 0.0297673468
v -0.0165761382 0.0165405772 0.068071382
v -0.0229280189 0.0178145192 0.0637685563
f 39 127 48
f 64 86 154
f 66 158 68
f 80 142 134
f 97 159 143
f 64 154 65
f 115 160 140
f 134 142 162
f 71 157 143
f 66 68 67
f 24 151 111
f 68 158 79
f 71 143 159
f 5 116 13
f 38 127 39
f 63 64 65
f 86 142 154
f 28 153 33
f 74 90 75
f 27 30 29
f 102 118 148
f 114 154 142
f 38 146 127
f 103 151 132
f 70 162 161
f 61 85 140
f 135 140 160
f 71 75 157
f 19 146 106
f 70 134 162
f 78 144 160
f 80 114 142
f 80 147 114
f 61 62 63
f 135 160 144
f 17 108 107
f 29 30 153
f 4 116 5
f 49 52 94
f 70 161 132
f 65 105 156
f 12 98 131
f 30 33 153
f 48 127 89
f 75 96 157
f 65 154 114
f 60 66 67
f 81 105 147
f 16 106 38
f 71 74 75
f 67 134 70
f 76 81 147
f 34 107 35
f 103 132 161
f 13 116 28
f 38 106 146
f 28 116 153
f 95 110 99
f 43 44 58
f 66 88 158
f 94 135 144
f 48 51 49
f 29 153 116
f 2 18 141
f 88 148 118
f 62 64 63
f 77 124 145
f 52 135 94
f 54 71 159
f 5 13 6
f 62 82 64
f 57 140 135
f 79 121 124
f 58 125 83
f 14 23 24
f 23 102 47
f 105 114 147
f 67 72 134
f 59 136 62
f 60 67 70
f 85 115 140
f 7 16 36
f 49 51 52
f 56 88 66
f 121 125 124
f 60 70 132
f 6 25 7
f 16 38 37
f 65 114 105
f 95 107 108
f 35 107 95
f 18 35 45
f 2 141 97
f 18 34 35
f 67 68 72
f 97 141 159
f 79 158 122
f 108 109 139
f 124 125 145
f 9 19 106
f 16 37 36
f 17 109 108
f 73 79 124
f 100 162 142
f 84 98 136
f 74 112 90
f 84 131 98
f 54 69 71
f 79 120 121
f 94 99 133
f 59 62 61
f 82 87 86
f 22 117 23
f 20 111 151
f 62 136 82
f 65 156 113
f 73 124 77
f 56 66 60
f 61 63 85
f 76 147 80
f 76 77 81
f 32 102 117
f 82 98 87
f 57 61 140
f 48 89 51
f 10 11 155
f 2 3 18
f 112 149 115
f 20 151 103
f 28 33 31
f 82 136 98
f 101 137 103
f 127 146 128
f 27 43 30
f 1 20 137
f 2 27 3
f 27 44 43
f 89 127 128
f 104 156 105
f 79 122 120
f 77 145 93
f 23 47 24
f 84 130 129
f 10 111 11
f 32 118 102
f 14 24 111
f 14 22 23
f 88 122 158
f 5 109 17
f 32 117 138
f 4 5 17
f 3 27 29
f 75 152 96
f 49 94 133
f 55 132 151
f 88 118 123
f 6 13 25
f 51 53 52
f 26 28 31
f 23 117 102
f 101 103 161
f 41 48 49
f 44 97 91
f 8 9 106
f 74 149 112
f 94 144 126
f 78 160 115
f 68 79 73
f 4 29 116
f 83 121 120
f 13 28 26
f 90 156 104
f 33 119 42
f 51 130 53
f 8 106 16
f 15 138 117
f 86 100 142
f 2 97 44
f 1 21 11
f 90 113 156
f 56 148 88
f 40 110 108
f 50 69 54
f 17 107 34
f 7 25 15
f 42 120 123
f 58 92 125
f 75 90 152
f 84 129 131
f 40 41 110
f 47 102 148
f 99 110 133
f 63 65 113
f 78 126 144
f 69 74 71
f 46 95 99
f 91 97 143
f 55 60 132
f 89 129 130
f 6 7 36
f 52 57 135
f 12 137 98
f 96 143 157
f 1 137 12
f 118 150 123
f 39 41 40
f 72 80 134
f 11 111 20
f 51 89 130
f 42 119 120
f 92 96 93
f 81 104 105
f 45 46 50
f 15 117 22
f 88 123 122
f 2 44 27
f 37 38 39
f 43 58 83
f 18 45 141
f 10 155 19
f 85 112 115
f 86 87 100
f 59 84 136
f 100 161 162
f 53 130 84
f 90 112 113
f 31 33 42
f 42 123 150
f 36 37 139
f 54 159 141
f 94 126 99
f 120 122 123
f 5 6 109
f 41 49 133
f 8 22 9
f 44 91 58
f 77 93 81
f 7 8 16
f 9 10 19
f 87 101 100
f 20 103 137
f 1 12 21
f 68 73 72
f 78 115 149
f 63 113 85
f 90 104 152
f 30 119 33
f 72 76 80
f 15 25 138
f 24 55 151
f 50 126 78
f 41 133 110
f 12 131 21
f 45 50 54
f 73 77 76
f 3 29 4
f 100 101 161
f 21 131 129
f 55 56 60
f 89 128 129
f 1 11 20
f 83 120 119
f 57 59 61
f 19 128 146
f 11 21 155
f 3 34 18
f 40 108 139
f 26 31 32
f 69 149 74
f 13 26 25
f 9 22 14
f 26 32 138
f 8 15 22
f 45 54 141
f 6 36 109
f 24 47 55
f 30 43 119
f 87 98 137
f 50 78 69
f 4 17 34
f 91 143 96
f 93 96 152
f 85 113 112
f 7 15 8
f 72 73 76
f 32 150 118
f 52 53 57
f 10 14 111
f 37 39 40
f 9 14 10
f 31 42 150
f 3 4 34
f 43 83 119
f 46 99 126
f 81 93 104
f 58 91 92
f 47 148 56
f 46 126 50
f 25 26 138
f 69 78 149
f 53 59 57
f 53 84 59
f 91 96 92
f 47 56 55
f 31 150 32
f 37 40 139
f 87 137 101
f 93 152 104
f 19 155 128
f 21 128 155
f 21 129 128
f 39 48 41
f 64 82 86
f 95 108 110
f 35 95 46
f 83 125 121
f 36 139 109
f 92 145 125
f 35 46 45
f 92 93 145
