v -0.000757256605 -0.00056894309 0.067167956
v 2.53780806e-10 6.539129e-11 -9.70672482e-10
v 0.0123606803 1.47843487e-10 0.00195773826
v 0.0235114109 -3.05432972e-11 0.00763931833
v 0.0332443206 -0.000306852619 0.0150170692
v 0.0388677362 -0.000477157422 0.0256549312
v 0.0405381259 -0.000639058187 0.0375461841
v 0.0381984722 -0.000836427622 0.0495681602
v 0.0320986185 -0.00103102127 0.0602177638
v 0.0233995063 -0.00111750068 0.0684798561
v 0.0122909543 -0.00113805012 0.0730052436
v -0.000210367554 -0.0143474094 0.0728889691
v 0.0347899687 0.0109211813 0.0200660378
v 0.0256692788 0.0103107421 0.0647273846
v 0.0383530487 0.0103012224 0.0434496885
v 0.0383813301 -0.0117895363 0.0433619296
v 0.0280115628 -0.0112851946 0.0113151447
v 0.00602530254 -0.0107926893 0.00195773843
v 0.0267860367 -0.0120502402 0.0635000726
v 0.00536100045 0.0103178235 0.0723749618
v 0.0115596063 -0.013775834 0.0717752383
v 0.0337230464 0.0105945982 0.0552706772
v 0.0264919644 0.0208843376 0.0577336931
v 0.0176101437 0.0201398168 0.0654526159
v 0.0386477676 0.0107767074 0.0317352605
v 0.0327985533 0.0210875797 0.0271099923
v 0.00602530238 0.0107926888 0.00195773862
v 0.0274257994 0.0208346888 0.0167413867
v 0.0187412135 0.0108997769 0.00638509402
v 0.0121311421 0.0203429004 0.00776644677
v 0.0238631698 0.0297636691 0.0241488611
v 0.0281018365 0.0287655809 0.0361507155
v 0.016818111 0.0279700042 0.0143892577
v 0.0171129703 -0.0105219481 0.00541047867
v 0.0109998933 -0.0214982305 0.00811224984
v 0.0385379141 -0.0116027052 0.0314739212
v 0.0345344958 -0.0219183055 0.0368045834
v 0.0326183159 -0.0217523304 0.0480091863
v 0.026881066 -0.0306125891 0.0420108519
v 0.0277515976 -0.0294933819 0.0302531503
v 0.0185620044 -0.0367258491 0.0354491872
v 0.012518145 0.0356556494 0.0228875313
v -0.000191616103 0.0222890359 0.00678611277
v -0.00644031703 0.0107092022 0.00200216595
v -0.00163131777 -0.0200015135 0.00539828833
v 0.00287089498 -0.0297796326 0.0105747599
v 0.0166143155 0.0289969417 0.0580568082
v 0.016636229 -0.0361346803 0.0473187354
v 0.0073317293 -0.0407995169 0.0401522594
v -0.00982043343 -0.0288374888 0.0107588676
v 0.00490711503 -0.0380282727 0.0515028804
v -0.00479704419 -0.0406321299 0.0441389783
v -0.00704619326 -0.0359377022 0.0553633777
v -0.0139237074 -0.0172534856 0.00670664001
v 0.00689514219 0.0275660902 0.0642589613
v 0.0055234408 0.0345933739 0.055599282
v -0.0164107045 -0.036538544 0.0471893066
v -0.0129863369 0.0211766731 0.00864870429
v -0.0181904994 -0.0302809398 0.0577563431
v -0.00484903564 0.0312641315 0.0607520797
v -0.0267450673 -0.0294084451 0.0489026565
v -0.0273122869 -0.0214797861 0.0583415616
v -0.0347681954 -0.019370829 0.0488522499
v -0.0339460201 -0.0108566943 0.0570943976
v -0.0398394653 -0.00629833423 0.0454813623
v -0.00611116742 0.0370500455 0.0510280057
v -0.0161787423 0.0313556437 0.0557488767
v -0.0170977633 0.0358927736 0.044594805
v -0.0215117987 -0.0234215962 0.0120476956
v -0.015647001 0.0249976511 0.0635609032
v -0.0258166265 -0.0116477941 0.00897591904
v -0.0262352419 0.0286513993 0.048849458
v -0.0258039323 0.0314945265 0.0368596328
v -0.0317439593 -0.0172534721 0.0174442544
v -0.0334866904 -0.00525084927 0.0145393367
v -0.0338049566 0.0227888859 0.0404574358
v -0.0321732099 0.024122143 0.0290879857
v -0.0181296805 -0.0331709209 0.0204866261
v -0.0146526201 0.0375585808 0.0325565761
v -0.0336876693 0.0181816708 0.0508611669
v -0.0385416539 0.0141715105 0.032864349
v -0.0249644612 -0.0118982299 0.0659366308
v -0.00627157096 0.0309775874 0.0133247321
v -0.00814640821 -0.0280917934 0.0646891628
v -0.0326150429 -0.025902028 0.0383390925
v -0.0300035395 -0.000393908603 0.0636470267
v -0.0203849731 -0.0016774128 0.0707254785
v 0.0044691247 0.0393146692 0.0444755828
v 0.0138050323 -0.0315800997 0.0581894271
v -0.0385971412 -0.00802788419 0.0241332831
v -0.0183134776 0.0092071441 0.00565112474
v -0.0242987914 0.0181951719 0.0115295274
v -0.0345022797 0.014474999 0.0202355985
v -0.00163441849 -0.0409818276 0.030318905
v 0.0150249593 -0.0296471118 0.0143226143
v -0.0296791831 0.00635513477 0.0107518465
v -0.0116733886 -0.000655211787 0.00174685924
v -0.01382088 -0.0129885603 0.07132226
v 0.00640160712 -0.0367432135 0.0200239086
v -0.0239593364 0.00971862664 0.0670338031
v -0.0127681224 0.00867677218 0.0723350223
v 0.0240360972 0.0296447078 0.0485917842
v -0.00406885949 0.0140543031 0.0722210245
v -0.0397418313 0.00405968135 0.0268827221
v -0.0411010912 0.00437903429 0.0383300475
v 0.0345263236 -0.0119058228 0.0537868261
v 0.0213125881 -0.0202936002 0.0104603086
v 0.0264906333 -0.0248878635 0.0187417764
v 0.0350074565 -0.0110075551 0.0199469993
v 0.0181266306 -0.0346346231 0.0244434445
v 0.0173726677 0.00769651566 0.0705261242
v -0.0345350651 -0.0211483577 0.0275222882
v -0.0391807319 -0.0138299735 0.0360469147
v -0.0386240642 0.00575709232 0.0495816239
v -0.027072965 -0.0306917919 0.0291815579
v 0.0272878456 0.0102449687 0.0109231231
v 0.0328117506 0.0200852234 0.047852484
v 0.017997056 0.0357780609 0.0404130267
v 0.00580908029 0.0319511992 0.0143214681
v -0.000790203038 0.0381539828 0.0238831672
v -0.0126098203 0.0348822683 0.0212687472
v -0.00286172083 0.0401212966 0.0350512265
v 0.00872068593 0.0389370842 0.0331575694
v -0.0227801212 0.0316579312 0.0255317579
v -0.0180555732 0.0284146262 0.0156450953
v -0.00506747353 -0.0364330613 0.018904929
v 0.0236943867 -0.0287150498 0.0531490967
v 0.0205399675 -0.0215704506 0.0634749391
v 0.00857481717 -0.0248551622 0.0668384774
v 0.00290132782 -0.0335514844 0.0596739171
v -0.00123980797 -0.021598183 0.069889335
v -0.0043623272 0.0239164925 0.0675719264
v 0.0101002481 -0.0394277364 0.0299311766
v -0.0257523203 0.0231869695 0.0574534369
v -0.0135396421 -0.0395081745 0.036382818
v -0.01971256 -0.0218631665 0.0645851531
v -0.0133826586 -0.00113642598 0.0726192969
v 0.0355297984 0.0189806231 0.0373327382
v 0.0339586723 -0.0206587412 0.0273985581
v -0.0235874516 -0.0343240394 0.0382618283
v -0.00635163913 -0.00907876677 0.00156521357
v -0.0317555784 0.0103341218 0.0596984769
v -0.0207499775 -0.000433769827 0.00580569598
v -0.0115986917 -0.0385633316 0.0263393539
v -0.0276862815 0.0243284128 0.0198457738
v 0.0286863753 -0.0202187978 0.0566946215
v -0.0383537156 0.0133901065 0.0425855395
v 0.0143005413 0.0348569902 0.0501592782
v -0.0271151479 -0.0260643878 0.0202906223
v 0.0186802878 0.0350839289 0.030815167
v 0.00774296568 0.0196098048 0.0692995811
v -0.0360540647 0.00390262662 0.0178224302
v 0.021124883 0.0184267354 0.0101395271
v -0.0360486392 -0.000858822459 0.0562740999
v 0.0203186294 -0.00949910551 0.0692366012
v -0.0410806673 -0.00437999555 0.0334826439
v -0.0283487966 -0.00214054273 0.00935220741
v -0.00801336866 0.0391835715 0.0426280761
v -0.0168965516 -0.00861180976 0.00478149096
v -0.0193238657 -0.0362974104 0.0299750481
v -0.0164414485 0.0162542848 0.0687396349
v -0.0228010963 0.017635865 0.0643569672
f 39 127 48
f 64 86 154
f 66 158 68
f 80 142 134
f 97 159 143
f 64 154 65
f 115 160 140
f 134 142 162
f 71 157 143
f 66 68 67
f 24 151 111
f 68 158 79
f 71 143 159
f 5 116 13
f 38 127 39
f 63 64 65
f 86 142 154
f 28 153 33
f 74 90 75
f 27 30 29
f 102 118 148
f 114 154 142
f 38 146 127
f 103 151 132
f 70 162 161
f 61 85 140
f 135 140 160
f 71 75 157
f 19 146 106
f 70 134 162
f 78 144 160
f 80 114 142
f 80 147 114
f 61 62 63
f 135 160 144
f 17 108 107
f 29 30 153
f 4 116 5
f 49 52 94
f 70 161 132
f 65 105 156
f 12 98 131
f 30 33 153
f 48 127 89
f 75 96 157
f 65 154 114
f 60 66 67
f 81 105 147
f 16 106 38
f 71 74 75
f 67 134 70
f 76 81 147
f 34 107 35
f 103 132 161
f 13 116 28
f 38 106 146
f 28 116 153
f 95 110 99
f 43 44 58
f 66 88 158
f 94 135 144
f 48 51 49
f 29 153 116
f 2 18 141
f 88 148 118
f 62 64 63
f 77 124 145
f 52 135 94
f 54 71 159
f 5 13 6
f 62 82 64
f 57 140 135
f 79 121 124
f 58 125 83
f 14 23 24
f 23 102 47
f 105 114 147
f 67 72 134
f 59 136 62
f 60 67 70
f 85 115 140
f 7 16 36
f 49 51 52
f 56 88 66
f 121 125 124
f 60 70 132
f 6 25 7
f 16 38 37
f 65 114 105
f 95 107 108
f 35 107 95
f 18 35 45
f 2 141 97
f 18 34 35
f 67 68 72
f 97 141 159
f 79 158 122
f 108 109 139
f 124 125 145
f 9 19 106
f 16 37 36
f 17 109 108
f 73 79 124
f 100 162 142
f 84 98 136
f 74 112 90
f 84 131 98
f 54 69 71
f 79 120 121
f 94 99 133
f 59 62 61
f 82 87 86
f 22 117 23
f 20 111 151
f 62 136 82
f 65 156 113
f 73 124 77
f 56 66 60
f 61 63 85
f 76 147 80
f 76 77 81
f 32 102 117
f 82 98 87
f 57 61 140
f 48 89 51
f 10 11 155
f 2 3 18
f 112 149 115
f 20 151 103
f 28 33 31
f 82 136 98
f 101 137 103
f 127 146 128
f 27 43 30
f 1 20 137
f 2 27 3
f 27 44 43
f 89 127 128
f 104 156 105
f 79 122 120
f 77 145 93
f 23 47 24
f 84 130 129
f 10 111 11
f 32 118 102
f 14 24 111
f 14 22 23
f 88 122 158
f 5 109 17
f 32 117 138
f 4 5 17
f 3 27 29
f 75 152 96
f 49 94 133
f 55 132 151
f 88 118 123
f 6 13 25
f 51 53 52
f 26 28 31
f 23 117 102
f 101 103 161
f 41 48 49
f 44 97 91
f 8 9 106
f 74 149 112
f 94 144 126
f 78 160 115
f 68 79 73
f 4 29 116
f 83 121 120
f 13 28 26
f 90 156 104
f 33 119 42
f 51 130 53
f 8 106 16
f 15 138 117
f 86 100 142
f 2 97 44
f 1 21 11
f 90 113 156
f 56 148 88
f 40 110 108
f 50 69 54
f 17 107 34
f 7 25 15
f 42 120 123
f 58 92 125
f 75 90 152
f 84 129 131
f 40 41 110
f 47 102 148
f 99 110 133
f 63 65 113
f 78 126 144
f 69 74 71
f 46 95 99
f 91 97 143
f 55 60 132
f 89 129 130
f 6 7 36
f 52 57 135
f 12 137 98
f 96 143 157
f 1 137 12
f 118 150 123
f 39 41 40
f 72 80 134
f 11 111 20
f 51 89 130
f 42 119 120
f 92 96 93
f 81 104 105
f 45 46 50
f 15 117 22
f 88 123 122
f 2 44 27
f 37 38 39
f 43 58 83
f 18 45 141
f 10 155 19
f 85 112 115
f 86 87 100
f 59 84 136
f 100 161 162
f 53 130 84
f 90 112 113
f 31 33 42
f 42 123 150
f 36 37 139
f 54 159 141
f 94 126 99
f 120 122 123
f 5 6 109
f 41 49 133
f 8 22 9
f 44 91 58
f 77 93 81
f 7 8 16
f 9 10 19
f 87 101 100
f 20 103 137
f 1 12 21
f 68 73 72
f 78 115 149
f 63 113 85
f 90 104 152
f 30 119 33
f 72 76 80
f 15 25 138
f 24 55 151
f 50 126 78
f 41 133 110
f 12 131 21
f 45 50 54
f 73 77 76
f 3 29 4
f 100 101 161
f 21 131 129
f 55 56 60
f 89 128 129
f 1 11 20
f 83 120 119
f 57 59 61
f 19 128 146
f 11 21 155
f 3 34 18
f 40 108 139
f 26 31 32
f 69 149 74
f 13 26 25
f 9 22 14
f 26 32 138
f 8 15 22
f 45 54 141
f 6 36 109
f 24 47 55
f 30 43 119
f 87 98 137
f 50 78 69
f 4 17 34
f 91 143 96
f 93 96 152
f 85 113 112
f 7 15 8
f 72 73 76
f 32 150 118
f 52 53 57
f 10 14 111
f 37 39 40
f 9 14 10
f 31 42 150
f 3 4 34
f 43 83 119
f 46 99 126
f 81 93 104
f 58 91 92
f 47 148 56
f 46 126 50
f 25 26 138
f 69 78 149
f 53 59 57
f 53 84 59
f 91 96 92
f 47 56 55
f 31 150 32
f 37 40 139
f 87 137 101
f 93 152 104
f 19 155 128
f 21 128 155
f 21 129 128
f 39 48 41
f 64 82 86
f 95 108 110
f 35 95 46
f 83 125 121
f 36 139 109
f 92 145 125
f 35 46 45
f 92 93 145
