v -0.00113747444 -0.00050542233 0.0503003476
v 4.8825445e-10 3.62699146e-11 -1.76165477e-09
v 0.0123606809 2.59654749e-10 0.00195773736
v 0.0235114114 -1.19021977e-10 0.00763931633
v 0.0342706332 -0.00032738872 0.0132803125
v 0.0402548801 -0.000334721455 0.0232341897
v 0.0421019619 -0.000301321948 0.034477951
v 0.0396493086 -0.000242834713 0.0461648034
v 0.0334072276 -0.000256978181 0.0562380726
v 0.0246233567 -0.000441898669 0.0633484541
v 0.0128951164 -0.000972158259 0.0636648033
v 9.00982665e-05 -0.0135243219 0.0646368054
v 0.0360848234 0.0113706115 0.0176578322
v 0.0274978373 0.0115800407 0.059805454
v 0.0398759232 0.0110853815 0.0399973175
v 0.0399406664 -0.011672262 0.0405872117
v 0.0287421163 -0.0116115812 0.00988622318
v 0.00602530289 -0.0107926894 0.00195773799
v 0.0277359603 -0.011606899 0.0590677323
v 0.0059244651 0.00918708981 0.0555001515
v 0.0119618192 -0.0130442545 0.0658545261
v 0.0353394284 0.0117263864 0.0513506574
v 0.0277800817 0.0223523717 0.0537534996
v 0.0188139647 0.0216233366 0.0608994102
v 0.0401469544 0.0115177366 0.0287112597
v 0.0339621154 0.0220352004 0.0242523478
v 0.00602530248 0.010792688 0.00195773801
v 0.0283558616 0.0216772435 0.014492908
v 0.0187412142 0.0108997767 0.00638509246
v 0.0121311422 0.0203429021 0.00776644493
v 0.0247947529 0.0310053736 0.021312305
v 0.0292404538 0.0300318475 0.032884676
v 0.0173168077 0.0289190247 0.0123351826
v 0.0171129705 -0.0105219485 0.00541047742
v 0.0109998937 -0.021498231 0.00811224854
v 0.0397040067 -0.0117356797 0.0290275436
v 0.0357418207 -0.0222483868 0.0341789339
v 0.0339019309 -0.0218620946 0.0450853397
v 0.0278904373 -0.0311118139 0.0393072099
v 0.028678839 -0.0301019699 0.0277769019
v 0.0191438626 -0.0372889962 0.0331956463
v 0.0130467486 0.0370195531 0.0200903511
v -0.00019161615 0.0222890368 0.00678611112
v -0.00644031664 0.0107092027 0.00200216494
v -0.00163131786 -0.0200015143 0.00539828697
v 0.00297358273 -0.0301153191 0.00911198998
v 0.0175791023 0.0306095301 0.0539877489
v 0.0172958956 -0.0366583868 0.0447763436
v 0.00776394298 -0.0416677103 0.0378130242
v -0.00989772491 -0.0294820433 0.00951009807
v 0.00512607941 -0.0384567745 0.0483968712
v -0.00486878862 -0.0413403284 0.0414489201
v -0.00708782217 -0.0362692394 0.052189088
v -0.0139237079 -0.0172534865 0.00670663872
v 0.00774063343 0.0295363678 0.0598984532
v 0.00621080028 0.0362865717 0.0516332612
v -0.0166237014 -0.0368712631 0.0443490275
v -0.0129863375 0.0211766739 0.00864870281
v -0.0185470269 -0.0305054715 0.0545609862
v -0.00445968856 0.0331054919 0.0564648227
v -0.0272079794 -0.0297516583 0.0462825213
v -0.0278836587 -0.0214039953 0.0549158013
v -0.035626239 -0.0193806051 0.0463032165
v -0.0347688105 -0.0104779383 0.05401267
v -0.0405878647 -0.00592846254 0.0426397136
v -0.00600479669 0.0386545626 0.047448457
v -0.0162436846 0.0329778258 0.0518856142
v -0.0175221501 0.0375564929 0.0412217847
v -0.0218006224 -0.0236832257 0.0103393582
v -0.0157810422 0.0267784857 0.0593502264
v -0.0265716734 -0.0117401703 0.00770034911
v -0.0267541013 0.0300800765 0.0456894724
v -0.0264113592 0.0327441694 0.0338647578
v -0.0325073747 -0.0175280391 0.0155125707
v -0.0343340605 -0.00516960375 0.0128178821
v -0.0345754093 0.023947978 0.0374193924
v -0.0330401015 0.0250014165 0.0261870946
v -0.0185505638 -0.033628029 0.0186204168
v -0.0146938541 0.0389129699 0.029735348
v -0.0343916466 0.019411833 0.0475602686
v -0.0394702594 0.0149981779 0.030173483
v -0.0256411655 -0.0112217955 0.0617617107
v -0.00633737331 0.0317436443 0.0118060513
v -0.00816841344 -0.0282511988 0.0605230354
v -0.0333805192 -0.0260634694 0.03607251
v -0.030424086 0.000624193259 0.0595448824
v -0.0203900291 -0.000686548924 0.0655257236
v 0.00486444481 0.0410585249 0.0411900167
v 0.0145116541 -0.0316690083 0.0548583834
v -0.0396254172 -0.00790509727 0.0218593329
v -0.0183134786 0.00920714473 0.00565112296
v -0.0248558313 0.0186310614 0.0101066946
v -0.0353245007 0.01502837 0.0175847878
v -0.00155518777 -0.0416432939 0.0283692467
v 0.0153065523 -0.0303179143 0.0127695848
v -0.0303069079 0.0066183679 0.00895522684
v -0.0116733882 -0.000655211865 0.00174685846
v -0.014188809 -0.0127621636 0.0651027365
v 0.00643252869 -0.0374153867 0.0181943999
v -0.0245540459 0.010900654 0.0624633379
v -0.013120078 0.010384372 0.0657407788
v 0.0251760096 0.0311010845 0.0449014902
v -0.00372926416 0.0159335014 0.0654641053
v -0.0406185673 0.00452946421 0.0244690795
v -0.0421142242 0.00489480374 0.0355947804
v 0.0358720717 -0.0116294468 0.0504295043
v 0.0219052043 -0.02080633 0.00913887585
v 0.0272560209 -0.0255173522 0.0166945947
v 0.0361496569 -0.0112330775 0.017851255
v 0.0185631669 -0.0353820922 0.0224576172
v 0.0194803242 0.00858305761 0.0643341561
v -0.0353662779 -0.0213231944 0.0252799071
v -0.0400605625 -0.0138407769 0.0336189935
v -0.0394576862 0.00652446076 0.0464235314
v -0.0277459649 -0.0310408952 0.0271310855
v 0.0281507111 0.0106466819 0.00968511544
v 0.0341614886 0.0212647212 0.0442525179
v 0.0187976772 0.0373260618 0.0370807981
v 0.00600454557 0.0328694127 0.0124721168
v -0.000691386569 0.0394383902 0.021065999
v -0.0128970002 0.0359416633 0.019030097
v -0.00271086494 0.0414616655 0.0320577344
v 0.00910098194 0.0401345698 0.0301347864
v -0.0233042239 0.0327887938 0.0230719205
v -0.0184176775 0.0291695763 0.0139443032
v -0.00513208539 -0.0370701015 0.0172449774
v 0.0247253145 -0.0289915153 0.0499877478
v 0.0214244491 -0.0211817073 0.0592753588
v 0.00918422687 -0.024631048 0.0622576705
v 0.003289981 -0.0338819293 0.0560978126
v -0.00091794409 -0.0212272161 0.0635666669
v -0.00399357063 0.0258959141 0.0624668241
v 0.0103958841 -0.0401350555 0.0278183799
v -0.0260795268 0.0246056069 0.0539903345
v -0.0138945289 -0.0402164037 0.0338828192
v -0.020356623 -0.021869028 0.060687614
v -0.0132346073 0.000177656616 0.0632387953
v 0.0369153474 0.0199755047 0.0341279435
v 0.0351621273 -0.0211016027 0.0249398678
v -0.0241607777 -0.0346903203 0.0358308728
v -0.00635163951 -0.00907876698 0.00156521239
v -0.0325420257 0.0115260718 0.0560007198
v -0.0207499786 -0.000433769897 0.00580569513
v -0.0118594732 -0.0392904685 0.0242591188
v -0.0283513442 0.0251576901 0.0175683268
v 0.0299366138 -0.0202296013 0.0532195572
v -0.0390851522 0.0142183837 0.0395593953
v 0.0152230036 0.0365310229 0.0463847886
v -0.0276074262 -0.0263750007 0.0183560264
v 0.019386759 0.0364075493 0.0277533706
v 0.00858617314 0.0215964236 0.0637227863
v -0.0369933557 0.00422866393 0.0155526958
v 0.0216882236 0.0187363866 0.00889375538
v -0.0369317369 -0.000135890587 0.0530493215
v 0.0212665616 -0.00902646165 0.0643369137
v -0.042073462 -0.00422575928 0.0309907018
v -0.0289616412 -0.0020486798 0.00808406789
v -0.00795449681 0.0408265203 0.0395691869
v -0.0168965517 -0.00861181006 0.00478149037
v -0.0197817381 -0.0368410974 0.0277891739
v -0.0166929287 0.0179890097 0.063850458
v -0.0232121284 0.0189276031 0.0601112231
f 39 127 48
f 64 86 154
f 66 158 68
f 80 142 134
f 97 159 143
f 64 154 65
f 115 160 140
f 134 142 162
f 71 157 143
f 66 68 67
f 24 151 111
f 68 158 79
f 71 143 159
f 5 116 13
f 38 127 39
f 63 64 65
f 86 142 154
f 28 153 33
f 74 90 75
f 27 30 29
f 102 118 148
f 114 154 142
f 38 146 127
f 103 151 132
f 70 162 161
f 61 85 140
f 135 140 160
f 71 75 157
f 19 146 106
f 70 134 162
f 78 144 160
f 80 114 142
f 80 147 114
f 61 62 63
f 135 160 144
f 17 108 107
f 29 30 153
f 4 116 5
f 49 52 94
f 70 161 132
f 65 105 156
f 12 98 131
f 30 33 153
f 48 127 89
f 75 96 157
f 65 154 114
f 60 66 67
f 81 105 147
f 16 106 38
f 71 74 75
f 67 134 70
f 76 81 147
f 34 107 35
f 103 132 161
f 13 116 28
f 38 106 146
f 28 116 153
f 95 110 99
f 43 44 58
f 66 88 158
f 94 135 144
f 48 51 49
f 29 153 116
f 2 18 141
f 88 148 118
f 62 64 63
f 77 124 145
f 52 135 94
f 54 71 159
f 5 13 6
f 62 82 64
f 57 140 135
f 79 121 124
f 58 125 83
f 14 23 24
f 23 102 47
f 105 114 147
f 67 72 134
f 59 136 62
f 60 67 70
f 85 115 140
f 7 16 36
f 49 51 52
f 56 88 66
f 121 125 124
f 60 70 132
f 6 25 7
f 16 38 37
f 65 114 105
f 95 107 108
f 35 107 95
f 18 35 45
f 2 141 97
f 18 34 35
f 67 68 72
f 97 141 159
f 79 158 122
f 108 109 139
f 124 125 145
f 9 19 106
f 16 37 36
f 17 109 108
f 73 79 124
f 100 162 142
f 84 98 136
f 74 112 90
f 84 131 98
f 54 69 71
f 79 120 121
f 94 99 133
f 59 62 61
f 82 87 86
f 22 117 23
f 20 111 151
f 62 136 82
f 65 156 113
f 73 124 77
f 56 66 60
f 61 63 85
f 76 147 80
f 76 77 81
f 32 102 117
f 82 98 87
f 57 61 140
f 48 89 51
f 10 11 155
f 2 3 18
f 112 149 115
f 20 151 103
f 28 33 31
f 82 136 98
f 101 137 103
f 127 146 128
f 27 43 30
f 1 20 137
f 2 27 3
f 27 44 43
f 89 127 128
f 104 156 105
f 79 122 120
f 77 145 93
f 23 47 24
f 84 130 129
f 10 111 11
f 32 118 102
f 14 24 111
f 14 22 23
f 88 122 158
f 5 109 17
f 32 117 138
f 4 5 17
f 3 27 29
f 75 152 96
f 49 94 133
f 55 132 151
f 88 118 123
f 6 13 25
f 51 53 52
f 26 28 31
f 23 117 102
f 101 103 161
f 41 48 49
f 44 97 91
f 8 9 106
f 74 149 112
f 94 144 126
f 78 160 115
f 68 79 73
f 4 29 116
f 83 121 120
f 13 28 26
f 90 156 104
f 33 119 42
f 51 130 53
f 8 106 16
f 15 138 117
f 86 100 142
f 2 97 44
f 1 21 11
f 90 113 156
f 56 148 88
f 40 110 108
f 50 69 54
f 17 107 34
f 7 25 15
f 42 120 123
f 58 92 125
f 75 90 152
f 84 129 131
f 40 41 110
f 47 102 148
f 99 110 133
f 63 65 113
f 78 126 144
f 69 74 71
f 46 95 99
f 91 97 143
f 55 60 132
f 89 129 130
f 6 7 36
f 52 57 135
f 12 137 98
f 96 143 157
f 1 137 12
f 118 150 123
f 39 41 40
f 72 80 134
f 11 111 20
f 51 89 130
f 42 119 120
f 92 96 93
f 81 104 105
f 45 46 50
f 15 117 22
f 88 123 122
f 2 44 27
f 37 38 39
f 43 58 83
f 18 45 141
f 10 155 19
f 85 112 115
f 86 87 100
f 59 84 136
f 100 161 162
f 53 130 84
f 90 112 113
f 31 33 42
f 42 123 150
f 36 37 139
f 54 159 141
f 94 126 99
f 120 122 123
f 5 6 109
f 41 49 133
f 8 22 9
f 44 91 58
f 77 93 81
f 7 8 16
f 9 10 19
f 87 101 100
f 20 103 137
f 1 12 21
f 68 73 72
f 78 115 149
f 63 113 85
f 90 104 152
f 30 119 33
f 72 76 80
f 15 25 138
f 24 55 151
f 50 126 78
f 41 133 110
f 12 131 21
f 45 50 54
f 73 77 76
f 3 29 4
f 100 101 161
f 21 131 129
f 55 56 60
f 89 128 129
f 1 11 20
f 83 120 119
f 57 59 61
f 19 128 146
f 11 21 155
f 3 34 18
f 40 108 139
f 26 31 32
f 69 149 74
f 13 26 25
f 9 22 14
f 26 32 138
f 8 15 22
f 45 54 141
f 6 36 109
f 24 47 55
f 30 43 119
f 87 98 137
f 50 78 69
f 4 17 34
f 91 143 96
f 93 96 152
f 85 113 112
f 7 15 8
f 72 73 76
f 32 150 118
f 52 53 57
f 10 14 111
f 37 39 40
f 9 14 10
f 31 42 150
f 3 4 34
f 43 83 119
f 46 99 126
f 81 93 104
f 58 91 92
f 47 148 56
f 46 126 50
f 25 26 138
f 69 78 149
f 53 59 57
f 53 84 59
f 91 96 92
f 47 56 55
f 31 150 32
f 37 40 139
f 87 137 101
f 93 152 104
f 19 155 128
f 21 128 155
f 21 129 128
f 39 48 41
f 64 82 86
f 95 108 110
f 35 95 46
f 83 125 121
f 36 139 109
f 92 145 125
f 35 46 45
f 92 93 145
