v -0.000826307518 -0.000602783734 0.0591350455
v 3.37586683e-10 6.12480693e-11 -1.3001415e-09
v 0.0123606805 1.90346794e-10 0.00195773794
v 0.0235114111 -1.0913126e-10 0.00763931763
v 0.0336377784 -0.000356461406 0.0143921553
v 0.0393950067 -0.000438153501 0.0247755956
v 0.0410986297 -0.000448884112 0.0364280539
v 0.0387015004 -0.000464357997 0.0483151287
v 0.0325055302 -0.000520911339 0.0587317552
v 0.0238965743 -0.000577446778 0.06658751
v 0.0125614967 -0.000842760519 0.0700544086
v -9.18068227e-05 -0.0137255058 0.0706729102
v 0.0353161783 0.0110687409 0.0191242761
v 0.0264505457 0.0111542372 0.0626679148
v 0.038923076 0.0107055016 0.0420879895
v 0.0389333399 -0.0116408917 0.0424100523
v 0.0282636546 -0.0114447058 0.0108411834
v 0.00602530267 -0.0107926893 0.00195773826
v 0.0271311663 -0.0116415702 0.0619404142
v 0.00552947453 0.00973130401 0.0652891288
v 0.0119249431 -0.0132548812 0.0699573275
v 0.0342733365 0.0112127816 0.0536714315
v 0.0269896363 0.0217356285 0.0559556214
v 0.0180684403 0.0211759235 0.0633591312
v 0.0392252888 0.0110778412 0.0305523985
v 0.0332942608 0.0214667239 0.025915816
v 0.00602530245 0.0107926885 0.0019577384
v 0.02784968 0.0211472743 0.0158015667
v 0.0187412137 0.0108997768 0.00638509346
v 0.0121311422 0.020342901 0.00776644603
v 0.0242892638 0.0302662844 0.0228922468
v 0.0285768043 0.0293445527 0.034695809
v 0.0170746148 0.0283686602 0.0134858235
v 0.0171129704 -0.0105219483 0.00541047824
v 0.0109998935 -0.0214982308 0.00811224943
v 0.0389552537 -0.0116278623 0.0306388577
v 0.0349444989 -0.021975077 0.0359733065
v 0.0330545851 -0.0216447316 0.0470803203
v 0.0271993356 -0.0306704506 0.0412319719
v 0.0280445653 -0.0296716283 0.0295175682
v 0.0187140919 -0.0368240894 0.0348890221
v 0.0127719981 0.036246305 0.0215758545
v -0.000191616142 0.0222890362 0.00678611208
v -0.00644031687 0.0107092024 0.00200216559
v -0.00163131781 -0.0200015138 0.00539828787
v 0.00288997665 -0.0298991214 0.0101726479
v 0.0169801849 0.0299830361 0.0561164101
v 0.0168164663 -0.0361253325 0.0466774474
v 0.00744175729 -0.0409665512 0.0396114091
v -0.00984736398 -0.0290585228 0.0104226065
v 0.00493977229 -0.0379399248 0.0507197928
v -0.00485446209 -0.0407090168 0.0434798958
v -0.0070693507 -0.035725628 0.0545536635
v -0.0139237076 -0.017253486 0.00670663956
v 0.00714110757 0.0289997951 0.0620734369
v 0.00574656693 0.0356682745 0.0535710037
v -0.0164864316 -0.0364412244 0.0464558693
v -0.0129863372 0.0211766733 0.00864870364
v -0.0182760904 -0.0300256777 0.0568825803
v -0.0048449911 0.0325472057 0.0585900713
v -0.0269098454 -0.0293219246 0.0482015245
v -0.0274845812 -0.0211351181 0.0572618473
v -0.0350833307 -0.0191746429 0.0480573949
v -0.0342576179 -0.0104612426 0.0560186445
v -0.0401375551 -0.00601441101 0.0444337841
v -0.00615041564 0.0380175462 0.0491626942
v -0.0163246533 0.032331594 0.0537957237
v -0.0173425333 0.0367677945 0.0428777631
v -0.0216121474 -0.0235281459 0.0115299391
v -0.0159294393 0.0262163605 0.0615002834
v -0.0260973211 -0.0117089683 0.00853074551
v -0.0265534557 0.0294552183 0.0472501709
v -0.026106506 0.0321029134 0.0353770544
v -0.0320248905 -0.0173818814 0.016812737
v -0.0338261833 -0.00526254161 0.0138962754
v -0.0341703027 0.0233554231 0.0390180058
v -0.0325706165 0.0245146852 0.0277310117
v -0.0182758119 -0.0333111781 0.0199961795
v -0.0147138266 0.038217282 0.0311192112
v -0.0340483219 0.0188762955 0.0493321504
v -0.0389535501 0.0145454206 0.0316577139
v -0.025150866 -0.0112602197 0.0644751859
v -0.00629486781 0.0313367746 0.0125829909
v -0.00812427954 -0.0276724162 0.0635354926
v -0.0328857414 -0.0258398649 0.0376974701
v -0.0302138943 0.000311312546 0.0620045114
v -0.0204543885 -0.000810331228 0.068670671
v 0.00461027411 0.0402544538 0.0427795444
v 0.0139917125 -0.0313059117 0.0572786952
v -0.0389952776 -0.00798505246 0.0233133956
v -0.018313478 0.00920714434 0.00565112405
v -0.0245654414 0.0183483452 0.0108784319
v -0.0348735969 0.0146717425 0.019073057
v -0.00162903805 -0.0411239982 0.0298851467
v 0.0150912917 -0.0298931026 0.0138936526
v -0.0299682424 0.0064161406 0.0100054185
v -0.0116733884 -0.000655211826 0.00174685893
v -0.0139353679 -0.0124581242 0.0693508512
v 0.00638546213 -0.0369508793 0.0195747918
v -0.024329112 0.0105928301 0.0650283135
v -0.0130266668 0.0100265122 0.0694164961
v 0.0244902976 0.0304335622 0.0468821389
v -0.0042321619 0.015639324 0.0691640713
v -0.0401236085 0.00424148701 0.0258923713
v -0.0415420676 0.00466037608 0.0371943871
v 0.034981153 -0.0116135679 0.0526039165
v 0.0215157183 -0.0205122496 0.0100339183
v 0.0267327573 -0.0251343854 0.0181095088
v 0.0354121468 -0.0111203864 0.0192316445
v 0.0182277932 -0.034862147 0.0239382719
v 0.018375063 0.00840420637 0.0677634427
v -0.0348332143 -0.0211738734 0.0268229197
v -0.0395148523 -0.0137630718 0.0352258058
v -0.0390186833 0.00623797977 0.0482461038
v -0.0273087394 -0.0307471066 0.0286407405
v 0.0276425728 0.0103687964 0.0104402521
v 0.0333237363 0.0207000928 0.0463050651
v 0.0183594891 0.0365730508 0.0387906255
v 0.00592557187 0.0323686761 0.0134469583
v -0.000736092904 0.0387419255 0.0225137984
v -0.0127379884 0.0353653333 0.0201579704
v -0.00281648828 0.0408086421 0.0335172467
v 0.00890299818 0.0395455964 0.0316569285
v -0.0230402802 0.0321625365 0.0243218722
v -0.0182330121 0.0287589729 0.014830664
v -0.00510273615 -0.0366319447 0.0185018335
v 0.0240147623 -0.0285905879 0.0522071066
v 0.0207780195 -0.0211276083 0.0620885993
v 0.00874944651 -0.0243277434 0.0655079569
v 0.00300439521 -0.0333014096 0.0587282867
v -0.00113094203 -0.0209731652 0.068227412
v -0.00448956025 0.0254507536 0.0651275061
v 0.0101621062 -0.0396048001 0.0294304349
v -0.0260085044 0.0240719017 0.0557383472
v -0.0136841316 -0.0396311808 0.0357615623
v -0.0198908546 -0.0214494618 0.0633629865
v -0.0132653752 -0.000121796591 0.0688704475
v 0.0360830514 0.0194345527 0.0359933434
v 0.0343702552 -0.0208102446 0.0266073854
v -0.0237846079 -0.0343007794 0.0376425432
v -0.00635163927 -0.00907876686 0.00156521315
v -0.0321591705 0.0110817855 0.0580664984
v -0.0207499779 -0.000433769895 0.00580569565
v -0.0116997445 -0.0387598417 0.0258276939
v -0.0279915993 0.0246633544 0.0187760163
v 0.0290714651 -0.0199744437 0.05554822
v -0.038705736 0.0138398371 0.041231679
v 0.0146744127 0.0358080127 0.0483066138
v -0.0272873324 -0.0261766929 0.01973106
v 0.0190038774 0.0356828239 0.0293607317
v 0.00794692689 0.0212333641 0.0665673684
v -0.0364615516 0.00398917511 0.0168964653
v 0.0213878474 0.0185463564 0.00962276936
v -0.0364488242 -0.000333346806 0.054996947
v 0.0207481171 -0.00901378247 0.0674851342
v -0.0414970156 -0.00427901774 0.0325466653
v -0.0286060585 -0.00214314846 0.00885912729
v -0.00806150814 0.0400730272 0.0410117725
v -0.0168965516 -0.00861180993 0.00478149076
v -0.0194912553 -0.0364099606 0.0294248743
v -0.0168025705 0.0175497588 0.0664901599
v -0.0231598584 0.0185806776 0.0623698009
f 39 127 48
f 64 86 154
f 66 158 68
f 80 142 134
f 97 159 143
f 64 154 65
f 115 160 140
f 134 142 162
f 71 157 143
f 66 68 67
f 24 151 111
f 68 158 79
f 71 143 159
f 5 116 13
f 38 127 39
f 63 64 65
f 86 142 154
f 28 153 33
f 74 90 75
f 27 30 29
f 102 118 148
f 114 154 142
f 38 146 127
f 103 151 132
f 70 162 161
f 61 85 140
f 135 140 160
f 71 75 157
f 19 146 106
f 70 134 162
f 78 144 160
f 80 114 142
f 80 147 114
f 61 62 63
f 135 160 144
f 17 108 107
f 29 30 153
f 4 116 5
f 49 52 94
f 70 161 132
f 65 105 156
f 12 98 131
f 30 33 153
f 48 127 89
f 75 96 157
f 65 154 114
f 60 66 67
f 81 105 147
f 16 106 38
f 71 74 75
f 67 134 70
f 76 81 147
f 34 107 35
f 103 132 161
f 13 116 28
f 38 106 146
f 28 116 153
f 95 110 99
f 43 44 58
f 66 88 158
f 94 135 144
f 48 51 49
f 29 153 116
f 2 18 141
f 88 148 118
f 62 64 63
f 77 124 145
f 52 135 94
f 54 71 159
f 5 13 6
f 62 82 64
f 57 140 135
f 79 121 124
f 58 125 83
f 14 23 24
f 23 102 47
f 105 114 147
f 67 72 134
f 59 136 62
f 60 67 70
f 85 115 140
f 7 16 36
f 49 51 52
f 56 88 66
f 121 125 124
f 60 70 132
f 6 25 7
f 16 38 37
f 65 114 105
f 95 107 108
f 35 107 95
f 18 35 45
f 2 141 97
f 18 34 35
f 67 68 72
f 97 141 159
f 79 158 122
f 108 109 139
f 124 125 145
f 9 19 106
f 16 37 36
f 17 109 108
f 73 79 124
f 100 162 142
f 84 98 136
f 74 112 90
f 84 131 98
f 54 69 71
f 79 120 121
f 94 99 133
f 59 62 61
f 82 87 86
f 22 117 23
f 20 111 151
f 62 136 82
f 65 156 113
f 73 124 77
f 56 66 60
f 61 63 85
f 76 147 80
f 76 77 81
f 32 102 117
f 82 98 87
f 57 61 140
f 48 89 51
f 10 11 155
f 2 3 18
f 112 149 115
f 20 151 103
f 28 33 31
f 82 136 98
f 101 137 103
f 127 146 128
f 27 43 30
f 1 20 137
f 2 27 3
f 27 44 43
f 89 127 128
f 104 156 105
f 79 122 120
f 77 145 93
f 23 47 24
f 84 130 129
f 10 111 11
f 32 118 102
f 14 24 111
f 14 22 23
f 88 122 158
f 5 109 17
f 32 117 138
f 4 5 17
f 3 27 29
f 75 152 96
f 49 94 133
f 55 132 151
f 88 118 123
f 6 13 25
f 51 53 52
f 26 28 31
f 23 117 102
f 101 103 161
f 41 48 49
f 44 97 91
f 8 9 106
f 74 149 112
f 94 144 126
f 78 160 115
f 68 79 73
f 4 29 116
f 83 121 120
f 13 28 26
f 90 156 104
f 33 119 42
f 51 130 53
f 8 106 16
f 15 138 117
f 86 100 142
f 2 97 44
f 1 21 11
f 90 113 156
f 56 148 88
f 40 110 108
f 50 69 54
f 17 107 34
f 7 25 15
f 42 120 123
f 58 92 125
f 75 90 152
f 84 129 131
f 40 41 110
f 47 102 148
f 99 110 133
f 63 65 113
f 78 126 144
f 69 74 71
f 46 95 99
f 91 97 143
f 55 60 132
f 89 129 130
f 6 7 36
f 52 57 135
f 12 137 98
f 96 143 157
f 1 137 12
f 118 150 123
f 39 41 40
f 72 80 134
f 11 111 20
f 51 89 130
f 42 119 120
f 92 96 93
f 81 104 105
f 45 46 50
f 15 117 22
f 88 123 122
f 2 44 27
f 37 38 39
f 43 58 83
f 18 45 141
f 10 155 19
f 85 112 115
f 86 87 100
f 59 84 136
f 100 161 162
f 53 130 84
f 90 112 113
f 31 33 42
f 42 123 150
f 36 37 139
f 54 159 141
f 94 126 99
f 120 122 123
f 5 6 109
f 41 49 133
f 8 22 9
f 44 91 58
f 77 93 81
f 7 8 16
f 9 10 19
f 87 101 100
f 20 103 137
f 1 12 21
f 68 73 72
f 78 115 149
f 63 113 85
f 90 104 152
f 30 119 33
f 72 76 80
f 15 25 138
f 24 55 151
f 50 126 78
f 41 133 110
f 12 131 21
f 45 50 54
f 73 77 76
f 3 29 4
f 100 101 161
f 21 131 129
f 55 56 60
f 89 128 129
f 1 11 20
f 83 120 119
f 57 59 61
f 19 128 146
f 11 21 155
f 3 34 18
f 40 108 139
f 26 31 32
f 69 149 74
f 13 26 25
f 9 22 14
f 26 32 138
f 8 15 22
f 45 54 141
f 6 36 109
f 24 47 55
f 30 43 119
f 87 98 137
f 50 78 69
f 4 17 34
f 91 143 96
f 93 96 152
f 85 113 112
f 7 15 8
f 72 73 76
f 32 150 118
f 52 53 57
f 10 14 111
f 37 39 40
f 9 14 10
f 31 42 150
f 3 4 34
f 43 83 119
f 46 99 126
f 81 93 104
f 58 91 92
f 47 148 56
f 46 126 50
f 25 26 138
f 69 78 149
f 53 59 57
f 53 84 59
f 91 96 92
f 47 56 55
f 31 150 32
f 37 40 139
f 87 137 101
f 93 152 104
f 19 155 128
f 21 128 155
f 21 129 128
f 39 48 41
f 64 82 86
f 95 108 110
f 35 95 46
f 83 125 121
f 36 139 109
f 92 145 125
f 35 46 45
f 92 93 145
