v 2.43960951e-18 1.03837394e-19 0.439877375
v 2.64073549e-18 -1.80710313e-19 0.359877375
v 0.0123606798 -3.28694314e-18 0.361835114
v 0.0235114101 -5.95174848e-18 0.367516695
v 0.0323606798 -8.01311308e-18 0.376365965
v 0.0380422607 -9.23043355e-18 0.387516695
v 0.04 -9.72565995e-18 0.399877375
v 0.0380422607 -9.35292814e-18 0.412238055
v 0.0323606798 -8.07752804e-18 0.423388785
v 0.0235114101 -5.80949641e-18 0.432238055
v 0.0123606798 -3.07740562e-18 0.437919636
v 0.000820994127 -0.0125572248 0.437846337
v 0.0339100853 0.0109697001 0.381717755
v 0.0259968985 0.0111427676 0.428161646
v 0.0380413247 0.0108431135 0.405817451
v 0.0380422607 -0.0107926891 0.405902677
v 0.0272352516 -0.0107926891 0.372642123
v 0.00602530216 -0.0107926891 0.361835114
v 0.0272352516 -0.0107926891 0.427112627
v 0.00602530216 0.0107926891 0.437919636
v 0.0117165881 -0.0119664224 0.43620266
v 0.0338042357 0.0112928203 0.418036281
v 0.0267425656 0.021404133 0.420534051
v 0.0181652384 0.0207960299 0.428817818
v 0.0379826854 0.0109703105 0.393797252
v 0.0322359934 0.0209973928 0.388925196
v 0.00602530216 0.0107926891 0.361835114
v 0.0267201662 0.0204054662 0.378205973
v 0.0187412128 0.010899777 0.36626247
v 0.0121311418 0.0203428991 0.367643823
v 0.0233752253 0.0292986006 0.385906303
v 0.0277967884 0.02871455 0.398200123
v 0.0164011497 0.0273257012 0.375704904
v 0.0171129699 -0.0105219477 0.365287855
v 0.0109998927 -0.0214982296 0.367989627
v 0.0380354472 -0.0107170513 0.393676603
v 0.0342074077 -0.0207279106 0.399422422
v 0.0325248701 -0.0204999134 0.410917591
v 0.0268612854 -0.0291970266 0.404976884
v 0.0274890488 -0.0282186941 0.392945023
v 0.0186937409 -0.0353285518 0.398316132
v 0.0122628216 0.0349344921 0.384737875
v -0.000191616028 0.022289035 0.366663489
v -0.0064403175 0.0107092016 0.361879542
v -0.00163131774 -0.0200015123 0.365275665
v 0.00288954246 -0.0290888716 0.372573747
v 0.0170588528 0.0294025367 0.42096022
v 0.0170216909 -0.0346013023 0.410508081
v 0.00773764695 -0.0390847799 0.403414154
v -0.00952381867 -0.0277001714 0.372637746
v 0.00570066648 -0.0364656424 0.415296821
v -0.00394975104 -0.0389901279 0.407887955
v -0.0060599133 -0.0344143674 0.419343468
v -0.0139237066 -0.0172534843 0.366584017
v 0.00758603824 0.0278688207 0.427550121
v 0.00606531597 0.0348639027 0.418524633
v -0.0154292201 -0.0351628629 0.4110806
v -0.0129863361 0.0211766721 0.368526081
v -0.0170003139 -0.0288417136 0.421766753
v -0.00404855625 0.031609274 0.424053044
v -0.0255561054 -0.0279846139 0.412673736
v -0.0260596445 -0.0202379404 0.422489776
v -0.0333206223 -0.0181711475 0.412508508
v -0.0324743641 -0.00981265172 0.421070004
v -0.0384966151 -0.00551715652 0.409235345
v -0.0053096214 0.0371146931 0.413816797
v -0.0152687371 0.0316197676 0.41903608
v -0.0161431316 0.0357993103 0.407480577
v -0.0209276755 -0.0227956382 0.374531936
v -0.014502255 0.0254115451 0.427152601
v -0.0247164355 -0.0114235469 0.370575491
v -0.025107976 0.0287410641 0.411858225
v -0.0248004322 0.0313827046 0.399623579
v -0.030605848 -0.0165543295 0.380148304
v -0.032276235 -0.00503003706 0.376791808
v -0.0326313833 0.0228347801 0.403587583
v -0.0310157284 0.0240044326 0.392015327
v -0.017290102 -0.0320995267 0.38342524
v -0.0141247951 0.0370969421 0.394947157
v -0.0323959985 0.0184840724 0.414328615
v -0.0371926917 0.0141877455 0.395951618
v -0.0236087365 -0.010782735 0.430313541
v -0.006149861 0.0303028645 0.374501883
v -0.00705252668 -0.0265063994 0.428992194
v -0.0313303459 -0.0247913204 0.401826697
v -0.0284802888 0.000502073473 0.427959773
v -0.0184477692 -0.000561806906 0.435364897
v 0.00486736114 0.0390932882 0.406807282
v 0.0143854571 -0.0301356358 0.421897867
v -0.0371919974 -0.00752940974 0.387225762
v -0.0183134764 0.00920714338 0.365528502
v -0.0235549727 0.017840759 0.372916838
v -0.0333678125 0.0143288995 0.383106217
v -0.00113198561 -0.0394529274 0.393382367
v 0.0148619764 -0.0285856871 0.376171255
v -0.0287293065 0.00619500851 0.37274347
v -0.0116733889 -0.000655211788 0.361624235
v -0.0125212029 -0.0115620304 0.436064927
v 0.00666811359 -0.0354781242 0.38264836
v -0.0224627108 0.010546218 0.431249399
v -0.0110913595 0.00940568204 0.437140157
v 0.024103117 0.0299006331 0.411057352
v -0.00288887077 0.0148384548 0.436910802
v -0.038504193 0.00422602851 0.389899008
v -0.0396616129 0.00484832278 0.401734854
v 0.0346041615 -0.0107922512 0.416791254
v 0.0206217799 -0.0195561162 0.371729542
v 0.0259571714 -0.0238101637 0.380922129
v 0.034171133 -0.0103181675 0.381825531
v 0.0180826438 -0.0332638731 0.386972619
v 0.0177325018 0.00862435899 0.434679369
v -0.0332708211 -0.0202643204 0.390799392
v -0.037846319 -0.0129429106 0.399506966
v -0.0371595447 0.00631872017 0.413265505
v -0.0258993092 -0.0295686754 0.392466625
v 0.0265675951 0.00999667879 0.371695301
v 0.0327460185 0.0204979194 0.410247214
v 0.0180037811 0.0356156082 0.402596257
v 0.00567124699 0.0312457585 0.375555789
v -0.000616276545 0.0374816015 0.385922098
v -0.0121133146 0.0342480935 0.383134146
v -0.00248570601 0.0398372821 0.397267352
v 0.00885718538 0.0387283038 0.395222404
v -0.021961176 0.0311643801 0.387774146
v -0.0175257091 0.0278484645 0.377132869
v -0.0047072376 -0.0352110754 0.381491998
v 0.0239714324 -0.027339862 0.416547779
v 0.0210477181 -0.0201227017 0.427301278
v 0.0093827244 -0.0233183667 0.430993581
v 0.00370511433 -0.0319329752 0.423679837
v -0.00019658072 -0.0200036582 0.434515721
v -0.00334150108 0.0244189482 0.431382126
v 0.0103601916 -0.0379950345 0.392874248
v -0.0246085684 0.0235665062 0.420830612
v -0.0125725764 -0.0379723154 0.400060648
v -0.0184115577 -0.0204842365 0.428884453
v -0.0113200892 -0.000228250093 0.438241466
v 0.0350997967 0.0191773684 0.399394866
v 0.0333728242 -0.0196086648 0.389790013
v -0.0224431608 -0.0330464735 0.401935317
v -0.00635163874 -0.00907876651 0.36144259
v -0.0303125974 0.0109469552 0.42356937
v -0.020749976 -0.000433769711 0.365683072
v -0.0108381935 -0.0371036557 0.38958892
v -0.0267461438 0.0238549556 0.382112666
v 0.0289449693 -0.0189145941 0.419987743
v -0.0370738213 0.0137173691 0.405990113
v 0.0145188857 0.0349732091 0.412764446
v -0.0262357942 -0.0252147493 0.383267152
v 0.0185179552 0.0347352637 0.392767748
v 0.0085979777 0.0200370077 0.433412328
v -0.0347783648 0.00394303579 0.380514581
v 0.0206521276 0.0182482057 0.370886124
v -0.0344806115 -6.05226547e-05 0.420152576
v 0.0206689946 -0.00817922575 0.433132343
v -0.0397119482 -0.0037304418 0.396869889
v -0.0274374256 -0.00212749907 0.370848744
v -0.00736794766 0.0389718576 0.405064634
v -0.0168965512 -0.00861180963 0.364658867
v -0.0183351163 -0.0349580839 0.393415496
v -0.01510617 0.0168877457 0.432841108
v -0.0214871155 0.0183037688 0.428219498
f 39 127 48
f 64 86 154
f 66 158 68
f 80 142 134
f 97 159 143
f 64 154 65
f 115 160 140
f 134 142 162
f 71 157 143
f 66 68 67
f 24 151 111
f 68 158 79
f 71 143 159
f 5 116 13
f 38 127 39
f 63 64 65
f 86 142 154
f 28 153 33
f 74 90 75
f 27 30 29
f 102 118 148
f 114 154 142
f 38 146 127
f 103 151 132
f 70 162 161
f 61 85 140
f 135 140 160
f 71 75 157
f 19 146 106
f 70 134 162
f 78 144 160
f 80 114 142
f 80 147 114
f 61 62 63
f 135 160 144
f 17 108 107
f 29 30 153
f 4 116 5
f 49 52 94
f 70 161 132
f 65 105 156
f 12 98 131
f 30 33 153
f 48 127 89
f 75 96 157
f 65 154 114
f 60 66 67
f 81 105 147
f 16 106 38
f 71 74 75
f 67 134 70
f 76 81 147
f 34 107 35
f 103 132 161
f 13 116 28
f 38 106 146
f 28 116 153
f 95 110 99
f 43 44 58
f 66 88 158
f 94 135 144
f 48 51 49
f 29 153 116
f 2 18 141
f 88 148 118
f 62 64 63
f 77 124 145
f 52 135 94
f 54 71 159
f 5 13 6
f 62 82 64
f 57 140 135
f 79 121 124
f 58 125 83
f 14 23 24
f 23 102 47
f 105 114 147
f 67 72 134
f 59 136 62
f 60 67 70
f 85 115 140
f 7 16 36
f 49 51 52
f 56 88 66
f 121 125 124
f 60 70 132
f 6 25 7
f 16 38 37
f 65 114 105
f 95 107 108
f 35 107 95
f 18 35 45
f 2 141 97
f 18 34 35
f 67 68 72
f 97 141 159
f 79 158 122
f 108 109 139
f 124 125 145
f 9 19 106
f 16 37 36
f 17 109 108
f 73 79 124
f 100 162 142
f 84 98 136
f 74 112 90
f 84 131 98
f 54 69 71
f 79 120 121
f 94 99 133
f 59 62 61
f 82 87 86
f 22 117 23
f 20 111 151
f 62 136 82
f 65 156 113
f 73 124 77
f 56 66 60
f 61 63 85
f 76 147 80
f 76 77 81
f 32 102 117
f 82 98 87
f 57 61 140
f 48 89 51
f 10 11 155
f 2 3 18
f 112 149 115
f 20 151 103
f 28 33 31
f 82 136 98
f 101 137 103
f 127 146 128
f 27 43 30
f 1 20 137
f 2 27 3
f 27 44 43
f 89 127 128
f 104 156 105
f 79 122 120
f 77 145 93
f 23 47 24
f 84 130 129
f 10 111 11
f 32 118 102
f 14 24 111
f 14 22 23
f 88 122 158
f 5 109 17
f 32 117 138
f 4 5 17
f 3 27 29
f 75 152 96
f 49 94 133
f 55 132 151
f 88 118 123
f 6 13 25
f 51 53 52
f 26 28 31
f 23 117 102
f 101 103 161
f 41 48 49
f 44 97 91
f 8 9 106
f 74 149 112
f 94 144 126
f 78 160 115
f 68 79 73
f 4 29 116
f 83 121 120
f 13 28 26
f 90 156 104
f 33 119 42
f 51 130 53
f 8 106 16
f 15 138 117
f 86 100 142
f 2 97 44
f 1 21 11
f 90 113 156
f 56 148 88
f 40 110 108
f 50 69 54
f 17 107 34
f 7 25 15
f 42 120 123
f 58 92 125
f 75 90 152
f 84 129 131
f 40 41 110
f 47 102 148
f 99 110 133
f 63 65 113
f 78 126 144
f 69 74 71
f 46 95 99
f 91 97 143
f 55 60 132
f 89 129 130
f 6 7 36
f 52 57 135
f 12 137 98
f 96 143 157
f 1 137 12
f 118 150 123
f 39 41 40
f 72 80 134
f 11 111 20
f 51 89 130
f 42 119 120
f 92 96 93
f 81 104 105
f 45 46 50
f 15 117 22
f 88 123 122
f 2 44 27
f 37 38 39
f 43 58 83
f 18 45 141
f 10 155 19
f 85 112 115
f 86 87 100
f 59 84 136
f 100 161 162
f 53 130 84
f 90 112 113
f 31 33 42
f 42 123 150
f 36 37 139
f 54 159 141
f 94 126 99
f 120 122 123
f 5 6 109
f 41 49 133
f 8 22 9
f 44 91 58
f 77 93 81
f 7 8 16
f 9 10 19
f 87 101 100
f 20 103 137
f 1 12 21
f 68 73 72
f 78 115 149
f 63 113 85
f 90 104 152
f 30 119 33
f 72 76 80
f 15 25 138
f 24 55 151
f 50 126 78
f 41 133 110
f 12 131 21
f 45 50 54
f 73 77 76
f 3 29 4
f 100 101 161
f 21 131 129
f 55 56 60
f 89 128 129
f 1 11 20
f 83 120 119
f 57 59 61
f 19 128 146
f 11 21 155
f 3 34 18
f 40 108 139
f 26 31 32
f 69 149 74
f 13 26 25
f 9 22 14
f 26 32 138
f 8 15 22
f 45 54 141
f 6 36 109
f 24 47 55
f 30 43 119
f 87 98 137
f 50 78 69
f 4 17 34
f 91 143 96
f 93 96 152
f 85 113 112
f 7 15 8
f 72 73 76
f 32 150 118
f 52 53 57
f 10 14 111
f 37 39 40
f 9 14 10
f 31 42 150
f 3 4 34
f 43 83 119
f 46 99 126
f 81 93 104
f 58 91 92
f 47 148 56
f 46 126 50
f 25 26 138
f 69 78 149
f 53 59 57
f 53 84 59
f 91 96 92
f 47 56 55
f 31 150 32
f 37 40 139
f 87 137 101
f 93 152 104
f 19 155 128
f 21 128 155
f 21 129 128
f 39 48 41
f 64 82 86
f 95 108 110
f 35 95 46
f 83 125 121
f 36 139 109
f 92 145 125
f 35 46 45
f 92 93 145
