v -0.00102325821 -0.000587478051 0.0522150801
v 5.24474021e-10 6.27076161e-11 -1.94939067e-09
v 0.012360681 2.93915678e-10 0.00195773718
v 0.0235114116 -1.47130908e-10 0.007639316
v 0.034143516 -0.000433059002 0.01353031
v 0.0400756937 -0.000501360851 0.0235658092
v 0.0418664372 -0.000482943507 0.0348810274
v 0.039402927 -0.00043372176 0.0465804546
v 0.0331579286 -0.000455868513 0.0566955442
v 0.0244164642 -0.000528887334 0.0639224092
v 0.0127482132 -0.000906004491 0.0653556587
v 2.3025678e-05 -0.0134397264 0.0664863939
v 0.0359361741 0.0111874761 0.0179720245
v 0.0273441106 0.0114574649 0.0601817008
v 0.0396552867 0.0108682679 0.0403797679
v 0.0396776525 -0.0118155424 0.0409660686
v 0.0286194938 -0.011644402 0.010108217
v 0.00602530296 -0.0107926894 0.00195773783
v 0.0275539432 -0.0117345588 0.0596523384
v 0.00587166477 0.00927884049 0.0581855269
v 0.0120130628 -0.0131063538 0.0668630998
v 0.0350692987 0.0114970462 0.0517080933
v 0.0276235987 0.0221971801 0.0539809159
v 0.0186640145 0.0216260317 0.0610078515
v 0.0399502411 0.0112807753 0.0290812127
v 0.0338458349 0.0217971813 0.0245725866
v 0.00602530256 0.0107926879 0.00195773793
v 0.0282887771 0.0214765021 0.0147665143
v 0.0187412143 0.0108997767 0.0063850922
v 0.0121311422 0.0203429024 0.00776644464
v 0.0247203353 0.0307507983 0.0215921852
v 0.0291076277 0.0297921754 0.0331665029
v 0.0172976371 0.0287551422 0.0125669933
v 0.0171129706 -0.0105219485 0.00541047716
v 0.0109998939 -0.0214982312 0.00811224825
v 0.0395170685 -0.0118667137 0.0293715716
v 0.0355191549 -0.0223399974 0.0345814662
v 0.0336621084 -0.0219555083 0.0455314976
v 0.0276749051 -0.0311471391 0.0397639733
v 0.0284861171 -0.0301438769 0.0281800935
v 0.0189842778 -0.0373069815 0.0336157141
v 0.0130049401 0.0367974517 0.020318484
v -0.000191616172 0.022289037 0.0067861108
v -0.00644031654 0.0107092028 0.00200216479
v -0.00163131787 -0.0200015145 0.00539828664
v 0.0029460818 -0.0301065477 0.00935730043
v 0.0174140131 0.0305322224 0.0540835949
v 0.0171210946 -0.0366484988 0.0452545659
v 0.00763693662 -0.0416301156 0.0382736124
v -0.00988923979 -0.0294360235 0.00970596632
v 0.00502256293 -0.0384192334 0.0490178452
v -0.00491238559 -0.0413356414 0.0419589535
v -0.00711788593 -0.0361974378 0.0528226542
v -0.0139237081 -0.0172534868 0.00670663836
v 0.00751551988 0.0296080534 0.0598847338
v 0.00603085933 0.0362279035 0.0516427172
v -0.016627469 -0.0369132009 0.0448641217
v -0.0129863377 0.021176674 0.00864870248
v -0.018485586 -0.0304829043 0.0551448024
v -0.00469975812 0.0331111349 0.0565037412
v -0.0271934755 -0.0298166478 0.0467252976
v -0.0278445524 -0.0214754706 0.0554143399
v -0.0355721627 -0.0194873484 0.0466427959
v -0.0347488798 -0.0106324071 0.0543767892
v -0.0405694967 -0.00611610584 0.0429347339
v -0.00617524895 0.038542699 0.0474810959
v -0.0164259021 0.0328218096 0.0519817097
v -0.0176205233 0.0373447176 0.0413220279
v -0.0217548704 -0.023724458 0.0105895186
v -0.0160382441 0.0267016712 0.0594663072
v -0.0264690183 -0.0117847003 0.00787983657
v -0.0268666606 0.0298696541 0.0457774018
v -0.0264661871 0.0325045174 0.0339999672
v -0.0324131351 -0.0176272484 0.0157666225
v -0.0342536874 -0.00530728463 0.0130117989
v -0.0346097763 0.0236863741 0.0375799568
v -0.0330400678 0.0247767653 0.0263732148
v -0.0184936642 -0.0336803884 0.0189174813
v -0.0148017247 0.0387093418 0.029847013
v -0.0344572759 0.0191776259 0.0477325132
v -0.0394535905 0.0147503318 0.0303592396
v -0.0256158208 -0.011324062 0.0622913527
v -0.00634790882 0.0316560476 0.011923091
v -0.00816085651 -0.0280094205 0.0613129071
v -0.0333010237 -0.0261726829 0.0364089981
v -0.0304700211 0.000440165375 0.0599188494
v -0.0203965229 -0.000720359675 0.0660194918
v 0.00474085712 0.0409163298 0.0412395137
v 0.0143048294 -0.0316417265 0.0554913261
v -0.0395318779 -0.008086747 0.0221091323
v -0.0183134788 0.00920714487 0.00565112261
v -0.0248338029 0.0185059562 0.010229104
v -0.035308 0.0148204243 0.0178191468
v -0.00160619147 -0.0416501845 0.0287347462
v 0.0152243533 -0.0302938939 0.0130424893
v -0.0302812655 0.00649294455 0.00914973615
v -0.0116733882 -0.000655211864 0.00174685825
v -0.0142273362 -0.012660982 0.0661646304
v 0.00639216637 -0.0374124384 0.0185194623
v -0.0246819014 0.0107753327 0.0627718287
v -0.0131320657 0.0102896363 0.066038677
v 0.0250211807 0.0309311098 0.0451050237
v -0.00407185357 0.0160098771 0.0656369927
v -0.040582831 0.00430231286 0.0246809153
v -0.0420900595 0.00467107557 0.0358099231
v 0.0356421484 -0.0117752746 0.0508692196
v 0.0218068345 -0.0208029312 0.00935577327
v 0.0271046977 -0.0255458657 0.017025373
v 0.035973286 -0.0113379627 0.0181512584
v 0.0184332744 -0.0353823953 0.0228167108
v 0.0193006278 0.0086222782 0.0645580195
v -0.0352746903 -0.0214554236 0.0255744562
v -0.0399920438 -0.0140035533 0.033901549
v -0.0394909439 0.00631269402 0.0466591116
v -0.0276643297 -0.0311273612 0.0274562219
v 0.0280434089 0.0105260275 0.0098667973
v 0.033959025 0.0210435821 0.0445503048
v 0.018724999 0.0371657759 0.0372167035
v 0.00599910229 0.0327500409 0.0126386762
v -0.000732290831 0.0392643479 0.0212466363
v -0.0129226314 0.035781629 0.0191623961
v -0.00280474715 0.0412965534 0.0321556061
v 0.00904306329 0.0399813057 0.0302668719
v -0.023338947 0.0325678117 0.0232078951
v -0.0184272862 0.0290488932 0.0140724646
v -0.00513666433 -0.0370657957 0.0175230102
v 0.0244963971 -0.0290182237 0.050514156
v 0.0211826337 -0.0212613478 0.0598969042
v 0.00899423849 -0.0244876572 0.0631072378
v 0.0031632846 -0.0337386505 0.0568124241
v -0.0010196655 -0.0209934662 0.0649748811
v -0.00431532277 0.0259777062 0.0625373321
v 0.0102929152 -0.0401379957 0.0282166417
v -0.0262260902 0.0244217326 0.0540841364
v -0.0138772452 -0.0402135844 0.0343262174
v -0.0202734932 -0.0218052802 0.0612862775
v -0.013054591 -4.61708016e-05 0.0643726674
v 0.0367435527 0.0197377975 0.0344529825
v 0.0349522086 -0.0211801379 0.0253138308
v -0.0240957278 -0.0347356642 0.0362515379
v -0.00635163958 -0.00907876704 0.00156521209
v -0.0326125045 0.0113095935 0.0562336127
v -0.0207499789 -0.000433769931 0.00580569492
v -0.0118399064 -0.0393004131 0.0246110226
v -0.0283540127 0.0249596511 0.0177284563
v 0.0296646152 -0.0202876565 0.0537244898
v -0.0391184935 0.0139842928 0.0397546414
v 0.0150872507 0.03642125 0.0464715856
v -0.0275386296 -0.0264684074 0.0186381904
v 0.019320476 0.0361860256 0.0279484816
v 0.00836071242 0.0217392711 0.0635476156
v -0.0369422095 0.00404055589 0.0157721836
v 0.0216412731 0.0186635301 0.00906629214
v -0.0369536889 -0.000320249259 0.0533348697
v 0.0211360801 -0.0090538807 0.0649343103
v -0.042024093 -0.00441828897 0.0312368791
v -0.0289010569 -0.00213745521 0.0082380655
v -0.00809615977 0.040656892 0.039609465
v -0.0168965518 -0.00861181014 0.0047814902
v -0.0197343176 -0.0368853594 0.0281549993
v -0.0169587734 0.0179416581 0.0640733185
v -0.0234048963 0.0188119858 0.0602961745
f 39 127 48
f 64 86 154
f 66 158 68
f 80 142 134
f 97 159 143
f 64 154 65
f 115 160 140
f 134 142 162
f 71 157 143
f 66 68 67
f 24 151 111
f 68 158 79
f 71 143 159
f 5 116 13
f 38 127 39
f 63 64 65
f 86 142 154
f 28 153 33
f 74 90 75
f 27 30 29
f 102 118 148
f 114 154 142
f 38 146 127
f 103 151 132
f 70 162 161
f 61 85 140
f 135 140 160
f 71 75 157
f 19 146 106
f 70 134 162
f 78 144 160
f 80 114 142
f 80 147 114
f 61 62 63
f 135 160 144
f 17 108 107
f 29 30 153
f 4 116 5
f 49 52 94
f 70 161 132
f 65 105 156
f 12 98 131
f 30 33 153
f 48 127 89
f 75 96 157
f 65 154 114
f 60 66 67
f 81 105 147
f 16 106 38
f 71 74 75
f 67 134 70
f 76 81 147
f 34 107 35
f 103 132 161
f 13 116 28
f 38 106 146
f 28 116 153
f 95 110 99
f 43 44 58
f 66 88 158
f 94 135 144
f 48 51 49
f 29 153 116
f 2 18 141
f 88 148 118
f 62 64 63
f 77 124 145
f 52 135 94
f 54 71 159
f 5 13 6
f 62 82 64
f 57 140 135
f 79 121 124
f 58 125 83
f 14 23 24
f 23 102 47
f 105 114 147
f 67 72 134
f 59 136 62
f 60 67 70
f 85 115 140
f 7 16 36
f 49 51 52
f 56 88 66
f 121 125 124
f 60 70 132
f 6 25 7
f 16 38 37
f 65 114 105
f 95 107 108
f 35 107 95
f 18 35 45
f 2 141 97
f 18 34 35
f 67 68 72
f 97 141 159
f 79 158 122
f 108 109 139
f 124 125 145
f 9 19 106
f 16 37 36
f 17 109 108
f 73 79 124
f 100 162 142
f 84 98 136
f 74 112 90
f 84 131 98
f 54 69 71
f 79 120 121
f 94 99 133
f 59 62 61
f 82 87 86
f 22 117 23
f 20 111 151
f 62 136 82
f 65 156 113
f 73 124 77
f 56 66 60
f 61 63 85
f 76 147 80
f 76 77 81
f 32 102 117
f 82 98 87
f 57 61 140
f 48 89 51
f 10 11 155
f 2 3 18
f 112 149 115
f 20 151 103
f 28 33 31
f 82 136 98
f 101 137 103
f 127 146 128
f 27 43 30
f 1 20 137
f 2 27 3
f 27 44 43
f 89 127 128
f 104 156 105
f 79 122 120
f 77 145 93
f 23 47 24
f 84 130 129
f 10 111 11
f 32 118 102
f 14 24 111
f 14 22 23
f 88 122 158
f 5 109 17
f 32 117 138
f 4 5 17
f 3 27 29
f 75 152 96
f 49 94 133
f 55 132 151
f 88 118 123
f 6 13 25
f 51 53 52
f 26 28 31
f 23 117 102
f 101 103 161
f 41 48 49
f 44 97 91
f 8 9 106
f 74 149 112
f 94 144 126
f 78 160 115
f 68 79 73
f 4 29 116
f 83 121 120
f 13 28 26
f 90 156 104
f 33 119 42
f 51 130 53
f 8 106 16
f 15 138 117
f 86 100 142
f 2 97 44
f 1 21 11
f 90 113 156
f 56 148 88
f 40 110 108
f 50 69 54
f 17 107 34
f 7 25 15
f 42 120 123
f 58 92 125
f 75 90 152
f 84 129 131
f 40 41 110
f 47 102 148
f 99 110 133
f 63 65 113
f 78 126 144
f 69 74 71
f 46 95 99
f 91 97 143
f 55 60 132
f 89 129 130
f 6 7 36
f 52 57 135
f 12 137 98
f 96 143 157
f 1 137 12
f 118 150 123
f 39 41 40
f 72 80 134
f 11 111 20
f 51 89 130
f 42 119 120
f 92 96 93
f 81 104 105
f 45 46 50
f 15 117 22
f 88 123 122
f 2 44 27
f 37 38 39
f 43 58 83
f 18 45 141
f 10 155 19
f 85 112 115
f 86 87 100
f 59 84 136
f 100 161 162
f 53 130 84
f 90 112 113
f 31 33 42
f 42 123 150
f 36 37 139
f 54 159 141
f 94 126 99
f 120 122 123
f 5 6 109
f 41 49 133
f 8 22 9
f 44 91 58
f 77 93 81
f 7 8 16
f 9 10 19
f 87 101 100
f 20 103 137
f 1 12 21
f 68 73 72
f 78 115 149
f 63 113 85
f 90 104 152
f 30 119 33
f 72 76 80
f 15 25 138
f 24 55 151
f 50 126 78
f 41 133 110
f 12 131 21
f 45 50 54
f 73 77 76
f 3 29 4
f 100 101 161
f 21 131 129
f 55 56 60
f 89 128 129
f 1 11 20
f 83 120 119
f 57 59 61
f 19 128 146
f 11 21 155
f 3 34 18
f 40 108 139
f 26 31 32
f 69 149 74
f 13 26 25
f 9 22 14
f 26 32 138
f 8 15 22
f 45 54 141
f 6 36 109
f 24 47 55
f 30 43 119
f 87 98 137
f 50 78 69
f 4 17 34
f 91 143 96
f 93 96 152
f 85 113 112
f 7 15 8
f 72 73 76
f 32 150 118
f 52 53 57
f 10 14 111
f 37 39 40
f 9 14 10
f 31 42 150
f 3 4 34
f 43 83 119
f 46 99 126
f 81 93 104
f 58 91 92
f 47 148 56
f 46 126 50
f 25 26 138
f 69 78 149
f 53 59 57
f 53 84 59
f 91 96 92
f 47 56 55
f 31 150 32
f 37 40 139
f 87 137 101
f 93 152 104
f 19 155 128
f 21 128 155
f 21 129 128
f 39 48 41
f 64 82 86
f 95 108 110
f 35 95 46
f 83 125 121
f 36 139 109
f 92 145 125
f 35 46 45
f 92 93 145
