v -0.500000 -2.500000 0
v -0.450000 -2.500000 0
v -0.400000 -2.500000 0
v -0.350000 -2.500000 0
v -0.300000 -2.500000 0
v -0.250000 -2.500000 0
v -0.200000 -2.500000 0
v -0.150000 -2.500000 0
v -0.100000 -2.500000 0
v -0.050000 -2.500000 0
v 0.000000 -2.500000 0
v 0.050000 -2.500000 0
v 0.100000 -2.500000 0
v 0.150000 -2.500000 0
v 0.200000 -2.500000 0
v 0.250000 -2.500000 0
v 0.300000 -2.500000 0
v 0.350000 -2.500000 0
v 0.400000 -2.500000 0
v 0.450000 -2.500000 0
v 0.500000 -2.500000 0
v 0.500000 -2.450000 0
v 0.500000 -2.400000 0
v 0.500000 -2.350000 0
v 0.500000 -2.300000 0
v 0.500000 -2.250000 0
v 0.500000 -2.200000 0
v 0.500000 -2.150000 0
v 0.500000 -2.100000 0
v 0.500000 -2.050000 0
v 0.500000 -2.000000 0
v 0.500000 -1.950000 0
v 0.500000 -1.900000 0
v 0.500000 -1.850000 0
v 0.500000 -1.800000 0
v 0.500000 -1.750000 0
v 0.500000 -1.700000 0
v 0.500000 -1.650000 0
v 0.500000 -1.600000 0
v 0.500000 -1.550000 0
v 0.500000 -1.500000 0
v 0.500000 -1.450000 0
v 0.500000 -1.400000 0
v 0.500000 -1.350000 0
v 0.500000 -1.300000 0
v 0.500000 -1.250000 0
v 0.500000 -1.200000 0
v 0.500000 -1.150000 0
v 0.500000 -1.100000 0
v 0.500000 -1.050000 0
v 0.500000 -1.000000 0
v 0.500000 -0.950000 0
v 0.500000 -0.900000 0
v 0.500000 -0.850000 0
v 0.500000 -0.800000 0
v 0.500000 -0.750000 0
v 0.500000 -0.700000 0
v 0.500000 -0.650000 0
v 0.500000 -0.600000 0
v 0.500000 -0.550000 0
v 0.500000 -0.500000 0
v 0.500000 -0.450000 0
v 0.500000 -0.400000 0
v 0.500000 -0.350000 0
v 0.500000 -0.300000 0
v 0.500000 -0.250000 0
v 0.500000 -0.200000 0
v 0.500000 -0.150000 0
v 0.500000 -0.100000 0
v 0.500000 -0.050000 0
v 0.500000 0.000000 0
v 0.500000 0.050000 0
v 0.500000 0.100000 0
v 0.500000 0.150000 0
v 0.500000 0.200000 0
v 0.500000 0.250000 0
v 0.500000 0.300000 0
v 0.500000 0.350000 0
v 0.500000 0.400000 0
v 0.500000 0.450000 0
v 0.500000 0.500000 0
v 0.500000 0.550000 0
v 0.500000 0.600000 0
v 0.500000 0.650000 0
v 0.500000 0.700000 0
v 0.500000 0.750000 0
v 0.500000 0.800000 0
v 0.500000 0.850000 0
v 0.500000 0.900000 0
v 0.500000 0.950000 0
v 0.500000 1.000000 0
v 0.500000 1.050000 0
v 0.500000 1.100000 0
v 0.500000 1.150000 0
v 0.500000 1.200000 0
v 0.500000 1.250000 0
v 0.500000 1.300000 0
v 0.500000 1.350000 0
v 0.500000 1.400000 0
v 0.500000 1.450000 0
v 0.500000 1.500000 0
v 0.500000 1.550000 0
v 0.500000 1.600000 0
v 0.500000 1.650000 0
v 0.500000 1.700000 0
v 0.500000 1.750000 0
v 0.500000 1.800000 0
v 0.500000 1.850000 0
v 0.500000 1.900000 0
v 0.500000 1.950000 0
v 0.500000 2.000000 0
v 0.500000 2.050000 0
v 0.500000 2.100000 0
v 0.500000 2.150000 0
v 0.500000 2.200000 0
v 0.500000 2.250000 0
v 0.500000 2.300000 0
v 0.500000 2.350000 0
v 0.500000 2.400000 0
v 0.500000 2.450000 0
v 0.500000 2.500000 0
v 0.450000 2.500000 0
v 0.400000 2.500000 0
v 0.350000 2.500000 0
v 0.300000 2.500000 0
v 0.250000 2.500000 0
v 0.200000 2.500000 0
v 0.150000 2.500000 0
v 0.100000 2.500000 0
v 0.050000 2.500000 0
v 0.000000 2.500000 0
v -0.050000 2.500000 0
v -0.100000 2.500000 0
v -0.150000 2.500000 0
v -0.200000 2.500000 0
v -0.250000 2.500000 0
v -0.300000 2.500000 0
v -0.350000 2.500000 0
v -0.400000 2.500000 0
v -0.450000 2.500000 0
v -0.500000 2.500000 0
v -0.500000 2.450000 0
v -0.500000 2.400000 0
v -0.500000 2.350000 0
v -0.500000 2.300000 0
v -0.500000 2.250000 0
v -0.500000 2.200000 0
v -0.500000 2.150000 0
v -0.500000 2.100000 0
v -0.500000 2.050000 0
v -0.500000 2.000000 0
v -0.500000 1.950000 0
v -0.500000 1.900000 0
v -0.500000 1.850000 0
v -0.500000 1.800000 0
v -0.500000 1.750000 0
v -0.500000 1.700000 0
v -0.500000 1.650000 0
v -0.500000 1.600000 0
v -0.500000 1.550000 0
v -0.500000 1.500000 0
v -0.500000 1.450000 0
v -0.500000 1.400000 0
v -0.500000 1.350000 0
v -0.500000 1.300000 0
v -0.500000 1.250000 0
v -0.500000 1.200000 0
v -0.500000 1.150000 0
v -0.500000 1.100000 0
v -0.500000 1.050000 0
v -0.500000 1.000000 0
v -0.500000 0.950000 0
v -0.500000 0.900000 0
v -0.500000 0.850000 0
v -0.500000 0.800000 0
v -0.500000 0.750000 0
v -0.500000 0.700000 0
v -0.500000 0.650000 0
v -0.500000 0.600000 0
v -0.500000 0.550000 0
v -0.500000 0.500000 0
v -0.500000 0.450000 0
v -0.500000 0.400000 0
v -0.500000 0.350000 0
v -0.500000 0.300000 0
v -0.500000 0.250000 0
v -0.500000 0.200000 0
v -0.500000 0.150000 0
v -0.500000 0.100000 0
v -0.500000 0.050000 0
v -0.500000 0.000000 0
v -0.500000 -0.050000 0
v -0.500000 -0.100000 0
v -0.500000 -0.150000 0
v -0.500000 -0.200000 0
v -0.500000 -0.250000 0
v -0.500000 -0.300000 0
v -0.500000 -0.350000 0
v -0.500000 -0.400000 0
v -0.500000 -0.450000 0
v -0.500000 -0.500000 0
v -0.500000 -0.550000 0
v -0.500000 -0.600000 0
v -0.500000 -0.650000 0
v -0.500000 -0.700000 0
v -0.500000 -0.750000 0
v -0.500000 -0.800000 0
v -0.500000 -0.850000 0
v -0.500000 -0.900000 0
v -0.500000 -0.950000 0
v -0.500000 -1.000000 0
v -0.500000 -1.050000 0
v -0.500000 -1.100000 0
v -0.500000 -1.150000 0
v -0.500000 -1.200000 0
v -0.500000 -1.250000 0
v -0.500000 -1.300000 0
v -0.500000 -1.350000 0
v -0.500000 -1.400000 0
v -0.500000 -1.450000 0
v -0.500000 -1.500000 0
v -0.500000 -1.550000 0
v -0.500000 -1.600000 0
v -0.500000 -1.650000 0
v -0.500000 -1.700000 0
v -0.500000 -1.750000 0
v -0.500000 -1.800000 0
v -0.500000 -1.850000 0
v -0.500000 -1.900000 0
v -0.500000 -1.950000 0
v -0.500000 -2.000000 0
v -0.500000 -2.050000 0
v -0.500000 -2.100000 0
v -0.500000 -2.150000 0
v -0.500000 -2.200000 0
v -0.500000 -2.250000 0
v -0.500000 -2.300000 0
v -0.500000 -2.350000 0
v -0.500000 -2.400000 0
v -0.500000 -2.450000 0
v -0.000238 -1.123498 0
v -0.000118 0.515411 0
v 0.000125 1.452929 0
v -0.000673 -0.120762 0
v -0.001184 -1.989649 0
v 0.008013 1.997170 0
v -0.013071 -0.632405 0
v -0.034299 0.993895 0
v 0.047400 -1.553545 0
v 0.151334 0.198911 0
v -0.175580 0.176974 0
v 0.173618 1.724764 0
v -0.187155 1.726951 0
v 0.189469 -0.374484 0
v 0.192595 0.764412 0
v -0.198008 -0.377529 0
v -0.197124 -1.377856 0
v 0.200109 -0.881947 0
v -0.199724 -0.891202 0
v 0.202074 1.197986 0
v -0.185467 -1.738328 0
v -0.202266 -2.206746 0
v 0.203063 -2.210864 0
v 0.203457 2.212319 0
v -0.213309 0.711754 0
v -0.199885 2.193030 0
v -0.215111 1.233774 0
v 0.205593 -1.321162 0
v 0.220517 -1.808062 0
v 0.250431 -0.117264 0
v 0.235694 -0.623596 0
v -0.245722 -0.081108 0
v 0.252718 1.458365 0
v -0.244970 1.485721 0
v -0.253114 0.438386 0
v 0.254514 0.423504 0
v -0.239254 -1.141142 0
v 0.251007 1.977457 0
v -0.263764 -0.610063 0
v -0.252394 1.963416 0
v -0.266853 -1.960768 0
v -0.266872 0.974383 0
v 0.273282 -1.588196 0
v 0.255309 -1.105817 0
v 0.244873 0.977811 0
v 0.292958 -2.010702 0
v -0.003422 2.257721 0
v -0.001300 -2.252664 0
v -0.012463 0.790515 0
v 0.002461 1.237926 0
v 0.015351 -1.758942 0
v -0.281316 -1.561269 0
v -0.021178 0.315292 0
v -0.000451 -0.922855 0
v -0.003732 -0.331323 0
v 0.010146 -1.350175 0
v 0.306890 0.073804 0
v -0.006648 1.652891 0
v -0.013935 0.090127 0
v -0.319339 -0.249308 0
v 0.279294 0.611509 0
v 0.324755 1.813928 0
v 0.326966 1.637583 0
v -0.047600 1.829741 0
v -0.327445 0.261422 0
v -0.328025 0.069922 0
v 0.310718 0.257066 0
v 0.331569 -0.762050 0
v -0.333882 2.314409 0
v -0.331485 0.594371 0
v -0.321619 -0.778192 0
v 0.324463 -0.470218 0
v -0.143368 -0.734244 0
v 0.335312 -0.294233 0
v 0.333980 1.316071 0
v 0.337483 2.319802 0
v 0.337779 -1.433681 0
v 0.330310 -2.312557 0
v -0.338956 -0.976118 0
v 0.118932 -0.003768 0
v -0.155957 -0.215273 0
v -0.109745 -1.590144 0
v -0.338701 1.346576 0
v -0.339563 1.132051 0
v 0.077532 -0.489682 0
v 0.336503 -0.965255 0
v 0.115220 -0.746684 0
v -0.125451 -1.886302 0
v 0.342904 0.820277 0
v -0.341190 -2.282086 0
v -0.334570 -1.790116 0
v -0.335262 -1.302333 0
v -0.321402 1.808368 0
v -0.323853 0.823022 0
v 0.341908 2.104597 0
v 0.344706 1.096797 0
v -0.104769 -1.245756 0
v 0.336938 -1.238404 0
v -0.334914 -0.472245 0
v 0.078151 1.100687 0
v -0.127786 -0.528129 0
v -0.138315 2.334742 0
v -0.344957 1.603376 0
v -0.345743 2.106443 0
v -0.136652 -2.067040 0
v 0.134402 1.360050 0
v -0.155575 1.086486 0
v 0.101211 0.628874 0
v -0.155190 0.871547 0
v 0.154713 -1.944435 0
v 0.136560 -0.216788 0
v 0.116740 0.897649 0
v 0.124417 1.538302 0
v 0.078277 -2.117736 0
v 0.351538 -1.724597 0
v -0.135096 -1.033380 0
v -0.138182 0.573308 0
v 0.142896 2.350700 0
v 0.096328 1.876685 0
v 0.117422 -2.352580 0
v -0.124074 1.371734 0
v 0.131367 -1.191764 0
v -0.126549 -2.334119 0
v 0.110065 0.394245 0
v -0.331451 -2.135399 0
v 0.118952 -1.040057 0
v -0.070324 2.127372 0
v 0.346463 -2.168601 0
v 0.172430 -1.481009 0
v -0.165483 0.324399 0
v 0.347583 -1.875203 0
v 0.118238 2.088424 0
v 0.128276 -1.671410 0
v -0.111329 1.558893 0
v -0.103785 -0.029921 0
v -0.340708 -1.436708 0
v 0.368238 0.497751 0
v 0.361059 -0.046313 0
v -0.008095 -0.789525 0
v -0.068085 -1.454395 0
v -0.127575 1.932962 0
v -0.365298 -1.119197 0
v -0.358644 -1.661317 0
v -0.374449 -0.054711 0
v -0.376816 0.477722 0
v 0.374200 -0.170287 0
v 0.378318 1.478178 0
v 0.369592 1.942723 0
v -0.080228 0.687736 0
v -0.375095 1.484412 0
v -0.130556 0.443398 0
v 0.378390 0.683502 0
v 0.198125 -2.087989 0
v 0.364099 0.951593 0
v -0.204789 0.038240 0
v -0.377637 -0.651813 0
v 0.357236 -0.643704 0
v 0.374371 -1.084441 0
v 0.055358 1.763915 0
v 0.363603 0.373760 0
v -0.006781 -2.380603 0
v -0.041810 1.126868 0
v 0.199638 0.315739 0
v -0.039874 -2.135835 0
v 0.167758 0.531112 0
v 0.104984 -0.628799 0
v 0.020896 0.205064 0
v -0.369943 1.962491 0
v 0.209533 -0.509129 0
v -0.380562 -0.349083 0
v -0.380605 0.946798 0
v -0.048126 -0.442436 0
v -0.276083 -2.386130 0
v 0.023210 2.387153 0
v 0.378744 -1.542217 0
v -0.366791 -1.900104 0
v 0.384474 2.215595 0
v 0.026173 -1.872329 0
v 0.209027 1.864452 0
v -0.159434 2.057539 0
v 0.236554 1.570741 0
v 0.022936 -1.233478 0
v 0.382862 -0.861945 0
v -0.234503 1.622898 0
v -0.241348 2.388959 0
v 0.189665 1.087303 0
v -0.043228 -0.227294 0
v -0.389571 -2.387489 0
v -0.383016 0.356917 0
v 0.380919 0.155816 0
v 0.235673 -1.694219 0
v 0.225417 -0.988761 0
v 0.390423 1.222100 0
v -0.009291 -1.646746 0
v -0.370973 -2.033885 0
v 0.095569 2.198770 0
v -0.106497 1.231911 0
v -0.379354 0.729818 0
v -0.224763 1.858879 0
v 0.386113 -1.337711 0
v -0.011004 1.346076 0
v -0.369228 2.211265 0
v -0.205010 -1.485854 0
v 0.227618 0.865777 0
v 0.222168 -0.745953 0
v 0.217428 -2.390478 0
v -0.395491 -0.172404 0
v -0.232102 -1.247704 0
v -0.336252 1.239978 0
v 0.230640 2.082101 0
v -0.393516 -1.554044 0
v -0.395779 -0.871217 0
v -0.226526 -1.854392 0
v 0.183766 0.079994 0
v 0.383659 -2.064662 0
v -0.161647 0.980551 0
v 0.223602 1.301035 0
v -0.116493 -1.141239 0
v 0.145907 1.980815 0
v 0.391826 1.733423 0
v -0.314403 1.703864 0
v -0.227575 -0.477677 0
v -0.090460 -0.870340 0
v 0.227732 -0.266874 0
v -0.203340 -1.635319 0
v -0.077720 1.728511 0
v 0.067415 -1.435920 0
v -0.252887 -1.038988 0
v 0.241949 2.378245 0
v 0.130189 -0.114203 0
v 0.111768 1.259815 0
v 0.090536 0.996856 0
v -0.033221 -1.021383 0
v 0.101861 -0.918679 0
v 0.088229 0.116512 0
v -0.237994 -2.093886 0
v 0.106400 1.638778 0
v -0.085475 0.236023 0
v -0.105723 -0.329029 0
v -0.400726 -1.222480 0
v 0.103939 -0.319420 0
v 0.107053 -1.296115 0
v -0.245640 0.539295 0
v -0.231354 1.385497 0
v -0.399107 0.155822 0
v -0.088576 -1.710271 0
v 0.077461 0.295372 0
v 0.112901 -1.782553 0
v -0.102454 -2.214147 0
v -0.018172 0.890414 0
v 0.401443 -0.384794 0
v -0.112643 -0.629488 0
v 0.246895 0.171248 0
v 0.400554 -2.397688 0
v 0.256528 -1.914311 0
v -0.006796 0.614139 0
v 0.092025 0.727325 0
v 0.272149 1.730663 0
v 0.244907 -1.203710 0
v -0.007956 -0.008118 0
f 375 244 500
f 244 320 500
f 18 19 494
f 263 360 446
f 291 418 488
f 369 283 317
f 494 318 446
f 318 263 446
f 263 393 354
f 268 369 317
f 338 398 284
f 330 428 413
f 428 330 237
f 332 376 257
f 337 257 296
f 376 443 257
f 372 450 264
f 287 414 342
f 392 255 301
f 189 485 188
f 305 485 306
f 190 485 189
f 485 190 306
f 485 305 186
f 276 377 301
f 377 392 301
f 392 377 83
f 23 24 494
f 15 16 446
f 17 494 446
f 17 18 494
f 16 17 446
f 360 12 13
f 12 401 11
f 401 12 360
f 404 345 489
f 404 354 245
f 345 404 245
f 269 371 355
f 35 371 34
f 371 35 355
f 455 371 286
f 467 249 369
f 268 467 369
f 283 415 317
f 415 283 355
f 431 269 355
f 283 431 355
f 269 431 488
f 42 43 317
f 415 42 317
f 42 415 41
f 338 440 46
f 43 440 317
f 440 268 317
f 268 440 338
f 318 368 263
f 368 393 263
f 455 368 28
f 368 455 286
f 393 368 286
f 26 368 318
f 418 350 488
f 350 269 488
f 350 418 245
f 350 393 286
f 354 350 245
f 393 350 354
f 36 37 355
f 35 36 355
f 499 338 284
f 499 268 338
f 499 362 268
f 362 499 284
f 251 305 306
f 395 251 306
f 55 308 423
f 423 326 52
f 398 326 284
f 470 320 244
f 351 470 244
f 231 435 230
f 332 218 376
f 448 332 257
f 337 448 257
f 458 337 241
f 458 473 356
f 473 458 241
f 277 458 356
f 448 458 277
f 458 448 337
f 261 465 383
f 292 443 376
f 465 292 383
f 443 292 465
f 257 380 296
f 443 380 257
f 380 467 296
f 467 380 249
f 304 359 246
f 335 450 278
f 450 335 264
f 425 135 136
f 436 372 264
f 450 459 278
f 372 459 450
f 459 372 246
f 359 459 246
f 132 414 131
f 132 133 342
f 414 132 342
f 424 374 253
f 343 160 390
f 97 98 315
f 98 99 315
f 97 433 96
f 433 97 315
f 394 336 285
f 394 92 336
f 260 433 315
f 433 260 336
f 405 276 301
f 444 394 285
f 485 187 188
f 187 485 186
f 77 400 307
f 400 377 276
f 400 80 377
f 400 403 307
f 403 400 276
f 19 20 494
f 14 15 446
f 360 14 446
f 14 360 13
f 6 7 413
f 7 363 413
f 7 8 363
f 8 9 363
f 9 401 363
f 288 401 360
f 404 288 354
f 288 404 489
f 288 263 354
f 288 360 263
f 363 288 489
f 401 288 363
f 467 482 296
f 482 467 268
f 362 482 268
f 431 373 488
f 373 249 434
f 373 431 283
f 291 373 434
f 373 291 488
f 249 373 369
f 373 283 369
f 440 45 46
f 29 455 28
f 371 33 34
f 25 26 318
f 24 25 494
f 25 318 494
f 368 27 28
f 27 368 26
f 495 371 269
f 350 495 269
f 371 495 286
f 495 350 286
f 362 366 241
f 366 473 241
f 366 362 284
f 473 463 356
f 47 338 46
f 326 51 52
f 51 326 398
f 427 351 244
f 384 190 191
f 190 384 306
f 339 256 410
f 53 423 52
f 56 308 55
f 258 326 423
f 258 308 445
f 308 258 423
f 258 445 327
f 474 258 327
f 60 61 312
f 312 491 314
f 445 406 327
f 397 60 312
f 427 481 351
f 454 475 320
f 475 454 250
f 320 475 500
f 493 454 297
f 454 493 250
f 403 493 307
f 493 403 250
f 238 428 237
f 238 239 428
f 2 3 428
f 5 6 413
f 330 236 237
f 235 236 330
f 435 232 233
f 232 435 231
f 365 435 233
f 365 235 330
f 416 435 281
f 435 416 230
f 453 416 281
f 448 480 332
f 382 480 277
f 480 448 277
f 468 277 356
f 468 382 277
f 219 220 376
f 218 219 376
f 331 261 383
f 261 331 453
f 331 416 453
f 261 486 465
f 486 291 434
f 249 322 434
f 380 322 249
f 322 486 434
f 486 322 465
f 322 443 465
f 322 380 443
f 117 118 316
f 123 124 316
f 387 273 315
f 387 99 100
f 99 387 315
f 388 302 108
f 388 335 278
f 459 419 278
f 419 459 359
f 419 388 278
f 388 419 302
f 419 359 252
f 498 419 252
f 419 498 302
f 417 117 316
f 417 316 264
f 335 417 264
f 133 134 342
f 134 425 342
f 425 134 135
f 139 143 309
f 137 425 136
f 304 439 253
f 439 333 253
f 145 442 309
f 414 130 131
f 358 436 264
f 358 414 287
f 436 358 287
f 424 461 343
f 343 461 157
f 333 461 253
f 461 424 253
f 274 343 390
f 274 424 343
f 424 274 374
f 162 163 390
f 158 343 157
f 289 490 349
f 163 323 390
f 323 274 390
f 274 323 484
f 484 323 267
f 361 437 441
f 274 361 374
f 361 274 484
f 437 361 267
f 361 484 267
f 94 433 336
f 90 394 89
f 426 472 285
f 336 426 285
f 260 426 336
f 273 457 315
f 457 260 315
f 364 403 276
f 405 364 276
f 85 86 392
f 394 329 89
f 86 329 392
f 444 329 394
f 392 329 255
f 329 444 255
f 275 429 305
f 429 275 385
f 186 429 185
f 305 429 186
f 251 370 305
f 370 275 305
f 478 370 251
f 275 370 391
f 370 293 391
f 370 478 293
f 282 334 349
f 255 348 301
f 348 405 301
f 80 81 377
f 78 400 77
f 22 20 21
f 22 23 494
f 20 22 494
f 401 10 11
f 9 10 401
f 422 362 241
f 422 482 362
f 482 422 296
f 422 337 296
f 337 422 241
f 415 40 41
f 39 40 415
f 37 38 355
f 38 415 355
f 38 39 415
f 44 440 43
f 44 45 440
f 30 31 455
f 29 30 455
f 32 33 371
f 32 371 455
f 31 32 455
f 294 463 473
f 294 366 474
f 366 294 473
f 48 49 398
f 48 398 338
f 47 48 338
f 49 50 398
f 50 51 398
f 272 395 306
f 384 272 306
f 395 272 375
f 272 384 447
f 384 193 447
f 195 196 447
f 462 256 339
f 200 339 410
f 200 201 339
f 54 55 423
f 53 54 423
f 366 432 474
f 432 258 474
f 432 366 284
f 326 432 284
f 258 432 326
f 66 386 314
f 69 386 68
f 386 69 378
f 491 63 64
f 65 491 64
f 65 66 314
f 491 65 314
f 409 271 312
f 271 397 312
f 271 406 445
f 406 271 409
f 308 271 445
f 397 271 308
f 59 397 58
f 397 59 60
f 397 57 58
f 56 57 308
f 57 397 308
f 295 427 479
f 295 481 427
f 254 312 314
f 254 409 312
f 72 378 71
f 378 72 297
f 430 73 74
f 430 72 73
f 72 430 297
f 493 430 307
f 430 493 297
f 75 430 74
f 2 240 1
f 239 240 428
f 240 2 428
f 428 4 413
f 4 5 413
f 3 4 428
f 234 365 233
f 365 234 235
f 345 262 489
f 262 365 330
f 262 363 489
f 363 262 413
f 262 330 413
f 416 229 230
f 224 225 383
f 223 224 383
f 223 451 222
f 451 223 383
f 292 451 383
f 451 292 376
f 451 221 222
f 221 451 220
f 220 451 376
f 212 213 382
f 217 480 216
f 217 218 332
f 480 217 332
f 480 215 216
f 468 319 382
f 319 212 382
f 463 259 356
f 259 468 356
f 259 319 468
f 259 463 313
f 396 203 204
f 331 226 227
f 225 226 383
f 226 331 383
f 328 418 291
f 486 328 291
f 418 328 245
f 328 261 453
f 328 486 261
f 328 345 245
f 345 328 281
f 328 453 281
f 374 466 253
f 298 466 374
f 466 304 253
f 399 359 304
f 466 399 304
f 399 466 298
f 359 399 252
f 104 460 303
f 460 498 303
f 498 460 302
f 387 102 303
f 388 110 111
f 112 113 335
f 112 388 111
f 388 112 335
f 116 417 115
f 417 116 117
f 417 114 115
f 113 114 335
f 114 417 335
f 140 143 139
f 144 145 309
f 143 144 309
f 138 139 309
f 425 138 309
f 137 138 425
f 152 153 408
f 151 152 408
f 150 344 149
f 344 150 408
f 150 151 408
f 154 155 333
f 153 154 408
f 154 333 408
f 333 280 408
f 439 280 333
f 280 344 408
f 442 266 309
f 425 266 342
f 266 425 309
f 266 442 344
f 266 287 342
f 129 130 414
f 358 129 414
f 129 358 128
f 316 469 264
f 469 358 264
f 469 125 126
f 125 469 124
f 124 469 316
f 461 156 157
f 155 156 333
f 156 461 333
f 160 161 390
f 161 162 390
f 159 160 343
f 158 159 343
f 490 352 472
f 472 352 285
f 352 444 285
f 444 352 255
f 352 490 289
f 437 290 441
f 402 290 437
f 449 324 267
f 323 449 267
f 449 165 166
f 165 449 323
f 433 95 96
f 94 95 433
f 92 93 336
f 93 94 336
f 394 91 92
f 90 91 394
f 426 340 472
f 340 290 402
f 340 426 260
f 487 364 293
f 403 487 250
f 364 487 403
f 84 392 83
f 84 85 392
f 87 329 86
f 183 429 385
f 299 478 251
f 299 375 500
f 475 299 500
f 299 395 375
f 299 251 395
f 180 181 385
f 180 310 179
f 310 180 385
f 389 289 349
f 324 169 170
f 168 169 324
f 411 324 170
f 411 282 324
f 411 174 334
f 282 411 334
f 456 282 349
f 490 456 349
f 242 364 405
f 348 242 405
f 293 242 391
f 364 242 293
f 242 357 391
f 377 82 83
f 81 82 377
f 400 79 80
f 78 79 400
f 294 379 463
f 463 379 313
f 379 474 327
f 379 294 474
f 272 321 375
f 375 321 244
f 321 427 244
f 427 321 479
f 321 256 479
f 194 195 447
f 193 194 447
f 192 384 191
f 192 193 384
f 197 198 410
f 196 197 410
f 396 279 339
f 279 462 339
f 492 279 313
f 198 199 410
f 199 200 410
f 386 67 68
f 67 386 66
f 386 464 314
f 464 254 314
f 481 464 351
f 254 464 481
f 378 70 71
f 69 70 378
f 62 63 491
f 61 62 312
f 62 491 312
f 295 325 481
f 254 325 409
f 325 254 481
f 325 406 409
f 76 430 75
f 76 77 307
f 430 76 307
f 476 262 345
f 262 476 365
f 476 345 281
f 435 476 281
f 365 476 435
f 228 229 416
f 228 331 227
f 331 228 416
f 213 214 382
f 214 480 382
f 214 215 480
f 211 319 210
f 319 211 212
f 452 209 210
f 319 452 210
f 259 452 319
f 201 202 339
f 202 396 339
f 202 203 396
f 122 120 121
f 120 122 123
f 119 120 123
f 118 119 316
f 119 123 316
f 353 477 298
f 399 477 252
f 477 399 298
f 346 457 273
f 353 346 273
f 243 298 374
f 243 353 298
f 243 361 441
f 361 243 374
f 346 243 441
f 243 346 353
f 101 387 100
f 101 102 387
f 103 104 303
f 102 103 303
f 109 388 108
f 109 110 388
f 142 140 141
f 140 142 143
f 381 439 304
f 381 280 439
f 381 304 246
f 147 148 442
f 344 148 149
f 442 148 344
f 146 442 145
f 146 147 442
f 127 469 126
f 358 127 128
f 469 127 358
f 352 497 255
f 497 352 289
f 497 348 255
f 389 497 289
f 164 323 163
f 164 165 323
f 167 449 166
f 167 168 324
f 449 167 324
f 407 475 250
f 487 407 250
f 407 299 475
f 299 407 478
f 478 407 293
f 407 487 293
f 329 88 89
f 87 88 329
f 429 184 185
f 183 184 429
f 181 182 385
f 182 183 385
f 310 178 179
f 275 483 385
f 483 310 385
f 483 275 391
f 357 483 391
f 174 175 334
f 389 265 357
f 265 483 357
f 483 265 310
f 334 265 349
f 265 389 349
f 248 456 490
f 248 490 472
f 340 248 472
f 248 340 402
f 347 437 267
f 347 402 437
f 324 347 267
f 347 248 402
f 248 347 456
f 282 347 324
f 456 347 282
f 496 242 348
f 497 496 348
f 496 497 389
f 496 389 357
f 242 496 357
f 300 272 447
f 300 321 272
f 300 196 410
f 196 300 447
f 256 300 410
f 321 300 256
f 270 470 351
f 464 270 351
f 270 464 386
f 270 386 378
f 470 270 320
f 270 454 320
f 454 270 297
f 270 378 297
f 325 247 406
f 406 247 327
f 247 379 327
f 379 247 313
f 247 492 313
f 412 295 479
f 412 325 295
f 256 412 479
f 412 247 325
f 452 208 209
f 208 452 207
f 205 396 204
f 205 206 396
f 206 311 396
f 311 206 207
f 452 311 207
f 279 311 313
f 311 279 396
f 311 259 313
f 311 452 259
f 421 477 353
f 421 353 273
f 477 421 252
f 387 421 273
f 421 387 303
f 421 498 252
f 498 421 303
f 471 340 260
f 340 471 290
f 457 471 260
f 346 471 457
f 290 471 441
f 471 346 441
f 106 107 460
f 302 107 108
f 460 107 302
f 105 460 104
f 105 106 460
f 420 381 246
f 381 420 280
f 280 420 344
f 420 266 344
f 178 438 177
f 438 178 310
f 438 176 177
f 438 265 334
f 265 438 310
f 438 175 176
f 175 438 334
f 171 411 170
f 171 172 411
f 411 173 174
f 172 173 411
f 462 341 256
f 341 412 256
f 279 341 462
f 492 341 279
f 247 341 492
f 412 341 247
f 367 420 246
f 367 436 287
f 266 367 287
f 420 367 266
f 372 367 246
f 436 367 372
