v -2.69018609e-08 -1.0268614e-06 0.0799920086
v 5.89861947e-17 1.47440618e-16 -2.92683962e-12
v 0.0123606798 -2.97405413e-16 0.00195773935
v 0.0235114101 -1.07813491e-16 0.00763932022
v 0.0323606798 5.70267409e-12 0.0164885899
v 0.0380452546 -4.47392521e-07 0.0276360911
v 0.0400026545 -4.00992043e-07 0.0399951537
v 0.0380441542 -6.85042152e-07 0.0523550404
v 0.0323617946 -8.88256428e-07 0.0635048959
v 0.0235120241 -1.04176553e-06 0.0723533173
v 0.0123609534 -1.14526275e-06 0.078034268
v 0.000821186893 -0.0125582936 0.0779604751
v 0.0339125177 0.0109701704 0.0218381762
v 0.0259976336 0.0111420881 0.0682773827
v 0.0380434952 0.010843013 0.0459349601
v 0.0380448674 -0.0107938817 0.0460199185
v 0.0272352516 -0.0107926891 0.0127647484
v 0.00602530216 -0.0107926891 0.00195773934
v 0.0272360813 -0.0107938603 0.0672279575
v 0.00602544583 0.0107917438 0.0780345798
v 0.0117169723 -0.0119676916 0.0763173714
v 0.0338056736 0.0112925696 0.058152935
v 0.0267435909 0.0214041021 0.0606506858
v 0.0181656828 0.0207955896 0.068933621
v 0.0379853105 0.0109707392 0.0339157546
v 0.0322377795 0.0209984935 0.0290446735
v 0.00602530217 0.0107926891 0.00195773935
v 0.0267201662 0.0204054663 0.018328598
v 0.0187412127 0.010899777 0.00638509545
v 0.0121311417 0.0203428991 0.00776644824
v 0.0233765315 0.0293006172 0.0260260696
v 0.0277985079 0.0287158974 0.0383187499
v 0.0164011497 0.0273257012 0.0158275292
v 0.0171129699 -0.0105219477 0.00541048024
v 0.0109998927 -0.0214982296 0.00811225179
v 0.0380378519 -0.0107181391 0.0337949383
v 0.0342096528 -0.0207297384 0.0395399924
v 0.0325268884 -0.0205015658 0.0510343106
v 0.0268630248 -0.0291993105 0.0450939441
v 0.0274910507 -0.0282209025 0.0330629355
v 0.0186950869 -0.0353311009 0.0384336769
v 0.0122637506 0.034936933 0.0248584844
v -0.000191616031 0.022289035 0.00678611431
v -0.0064403175 0.0107092016 0.002002167
v -0.00163131774 -0.0200015123 0.00539829038
v 0.00288954246 -0.0290888716 0.0126963721
v 0.0170594124 0.0294026732 0.0610768904
v 0.0170227085 -0.0346038801 0.0506247316
v 0.00773834898 -0.039087861 0.0435310091
v -0.00952381867 -0.0277001715 0.0127603711
v 0.00570083266 -0.0364678427 0.0554125065
v -0.00394989393 -0.0389929675 0.0480038882
v -0.00606004753 -0.0344164537 0.0594589119
v -0.0139237066 -0.0172534843 0.00670664219
v 0.0075862951 0.0278686472 0.0676664092
v 0.00606551957 0.0348642737 0.0586416577
v -0.0154296365 -0.0351650835 0.0511966937
v -0.0129863361 0.0211766721 0.00864870606
v -0.0170008448 -0.0288436198 0.0618824664
v -0.0040485556 0.0316093998 0.0641693589
v -0.0255570034 -0.0279869011 0.0527900193
v -0.0260603207 -0.0202395465 0.0626051984
v -0.0333221231 -0.0181729409 0.0526251591
v -0.0324756281 -0.00981395228 0.0611858187
v -0.038498381 -0.00551814 0.0493521325
v -0.00531000912 0.0371157151 0.05393403
v -0.0152691181 0.0316203108 0.0591526259
v -0.0161441122 0.035800518 0.0475980126
v -0.0209276755 -0.0227956383 0.014654561
v -0.0145026455 0.0254115193 0.0672685655
v -0.0247164355 -0.0114235469 0.0106981162
v -0.0251090665 0.0287418396 0.0519756435
v -0.0248019652 0.0313839671 0.0397417917
v -0.0306080263 -0.0165558357 0.0202681467
v -0.032276235 -0.00503003706 0.0169144334
v -0.0326330532 0.0228355563 0.0437053785
v -0.0310178942 0.0240057086 0.0321339426
v -0.0172912039 -0.0321020029 0.0235446358
v -0.0141256817 0.0370992435 0.0350659185
v -0.0323973192 0.0184843171 0.0544453894
v -0.0371951041 0.0141884726 0.0360700161
v -0.0236094531 -0.0107837719 0.0704284566
v -0.00614986101 0.0303028645 0.0146245076
v -0.0070526248 -0.0265080072 0.0691069852
v -0.0313319174 -0.0247932036 0.0419439189
v -0.0284810209 0.000501319361 0.0680750625
v -0.0184482803 -0.000562783886 0.0754796726
v 0.00486761496 0.039094923 0.0469254572
v 0.0143862171 -0.0301374353 0.0620134496
v -0.037194535 -0.00753054912 0.027345277
v -0.0183134764 0.00920714338 0.00565112678
v -0.0235549727 0.017840759 0.0130394626
v -0.0333703385 0.0143297688 0.0232261233
v -0.00113196825 -0.0394558058 0.0334999801
v 0.0148619764 -0.0285856872 0.0162938795
v -0.0287293066 0.00619500852 0.0128660947
v -0.0116733889 -0.000655211788 0.0017468604
v -0.0125215263 -0.0115630256 0.0761792204
v 0.00666827645 -0.0354805707 0.0227677262
v -0.0224633569 0.0105455306 0.0713646221
v -0.0110916961 0.00940474987 0.0772547136
v 0.0241046025 0.0299014112 0.0511748978
v -0.00288891824 0.0148374044 0.0770253989
v -0.0385062353 0.00422600194 0.0300177902
v -0.0396640501 0.00484807147 0.0418524399
v 0.0346058691 -0.0107935425 0.0569075045
v 0.0206217799 -0.0195561162 0.0118521668
v 0.0259596183 -0.0238116442 0.0210419065
v 0.0341737214 -0.010318818 0.021945133
v 0.0180839611 -0.0332663952 0.027091249
v 0.0177329491 0.00862347354 0.0747945706
v -0.0332730201 -0.020266323 0.0309174721
v -0.0378483962 -0.0129444548 0.0396247275
v -0.0371612789 0.0063182656 0.0533821679
v -0.0259009052 -0.029571145 0.0325847029
v 0.0265675951 0.00999667878 0.0118179258
v 0.0327477257 0.0204982895 0.0503646683
v 0.0180048717 0.0356174628 0.0427150793
v 0.005671247 0.0312457585 0.0156784142
v -0.00061616616 0.0374844893 0.0260422534
v -0.0121138016 0.0342503266 0.0232549535
v -0.00248580746 0.0398394125 0.0373863185
v 0.00885781456 0.0387306234 0.0353416428
v -0.0219626065 0.0311662455 0.0278937376
v -0.0175257091 0.0278484645 0.0172554941
v -0.00470754926 -0.0352134861 0.0216115711
v 0.0239728207 -0.0273418917 0.0566638241
v 0.0210484893 -0.0201240758 0.0674165777
v 0.00938319312 -0.0233198112 0.0711085265
v 0.00370545966 -0.0319349096 0.0637951011
v -0.000196506963 -0.0200048785 0.0746300022
v -0.00334153124 0.0244185329 0.0714977215
v 0.0103610308 -0.0379978622 0.0329921209
v -0.0246093086 0.0235667078 0.0609471939
v -0.0125732662 -0.0379751447 0.0401772637
v -0.0184120682 -0.0204856363 0.0689994495
v -0.0113203682 -0.000229250868 0.0783558974
v 0.0351018243 0.0191778875 0.0395132236
v 0.0333755527 -0.0196101814 0.0299084119
v -0.0224442853 -0.0330488436 0.0420520968
v -0.00635163874 -0.00907876651 0.00156521518
v -0.0303136883 0.0109466329 0.0636852204
v -0.020749976 -0.000433769705 0.00580569727
v -0.0108388414 -0.0371066368 0.0297067698
v -0.026748038 0.0238560397 0.0222331563
v 0.028946362 -0.018916233 0.0601036849
v -0.0370756228 0.0137174623 0.0461075239
v 0.0145196536 0.0349741994 0.0528820744
v -0.0262373775 -0.0252167349 0.023386931
v 0.0185192755 0.0347373232 0.0328873913
v 0.00859818167 0.0200362627 0.0735276129
v -0.0347800871 0.00394316781 0.0206346704
v 0.0206521276 0.0182482057 0.0110087493
v -0.0344820937 -6.13500058e-05 0.0602687354
v 0.0206696549 -0.00818042909 0.0732474791
v -0.0397144387 -0.00373127259 0.0369879923
v -0.0274374256 -0.00212749908 0.0109713689
v -0.00736839176 0.0389734007 0.0451826933
v -0.0168965511 -0.00861180963 0.00478149216
v -0.0183361461 -0.0349608684 0.0335329646
v -0.0151065961 0.0168871408 0.0729563612
v -0.0214877317 0.0183033451 0.0683351965
f 39 127 48
f 64 86 154
f 66 158 68
f 80 142 134
f 97 159 143
f 64 154 65
f 115 160 140
f 134 142 162
f 71 157 143
f 66 68 67
f 24 151 111
f 68 158 79
f 71 143 159
f 5 116 13
f 38 127 39
f 63 64 65
f 86 142 154
f 28 153 33
f 74 90 75
f 27 30 29
f 102 118 148
f 114 154 142
f 38 146 127
f 103 151 132
f 70 162 161
f 61 85 140
f 135 140 160
f 71 75 157
f 19 146 106
f 70 134 162
f 78 144 160
f 80 114 142
f 80 147 114
f 61 62 63
f 135 160 144
f 17 108 107
f 29 30 153
f 4 116 5
f 49 52 94
f 70 161 132
f 65 105 156
f 12 98 131
f 30 33 153
f 48 127 89
f 75 96 157
f 65 154 114
f 60 66 67
f 81 105 147
f 16 106 38
f 71 74 75
f 67 134 70
f 76 81 147
f 34 107 35
f 103 132 161
f 13 116 28
f 38 106 146
f 28 116 153
f 95 110 99
f 43 44 58
f 66 88 158
f 94 135 144
f 48 51 49
f 29 153 116
f 2 18 141
f 88 148 118
f 62 64 63
f 77 124 145
f 52 135 94
f 54 71 159
f 5 13 6
f 62 82 64
f 57 140 135
f 79 121 124
f 58 125 83
f 14 23 24
f 23 102 47
f 105 114 147
f 67 72 134
f 59 136 62
f 60 67 70
f 85 115 140
f 7 16 36
f 49 51 52
f 56 88 66
f 121 125 124
f 60 70 132
f 6 25 7
f 16 38 37
f 65 114 105
f 95 107 108
f 35 107 95
f 18 35 45
f 2 141 97
f 18 34 35
f 67 68 72
f 97 141 159
f 79 158 122
f 108 109 139
f 124 125 145
f 9 19 106
f 16 37 36
f 17 109 108
f 73 79 124
f 100 162 142
f 84 98 136
f 74 112 90
f 84 131 98
f 54 69 71
f 79 120 121
f 94 99 133
f 59 62 61
f 82 87 86
f 22 117 23
f 20 111 151
f 62 136 82
f 65 156 113
f 73 124 77
f 56 66 60
f 61 63 85
f 76 147 80
f 76 77 81
f 32 102 117
f 82 98 87
f 57 61 140
f 48 89 51
f 10 11 155
f 2 3 18
f 112 149 115
f 20 151 103
f 28 33 31
f 82 136 98
f 101 137 103
f 127 146 128
f 27 43 30
f 1 20 137
f 2 27 3
f 27 44 43
f 89 127 128
f 104 156 105
f 79 122 120
f 77 145 93
f 23 47 24
f 84 130 129
f 10 111 11
f 32 118 102
f 14 24 111
f 14 22 23
f 88 122 158
f 5 109 17
f 32 117 138
f 4 5 17
f 3 27 29
f 75 152 96
f 49 94 133
f 55 132 151
f 88 118 123
f 6 13 25
f 51 53 52
f 26 28 31
f 23 117 102
f 101 103 161
f 41 48 49
f 44 97 91
f 8 9 106
f 74 149 112
f 94 144 126
f 78 160 115
f 68 79 73
f 4 29 116
f 83 121 120
f 13 28 26
f 90 156 104
f 33 119 42
f 51 130 53
f 8 106 16
f 15 138 117
f 86 100 142
f 2 97 44
f 1 21 11
f 90 113 156
f 56 148 88
f 40 110 108
f 50 69 54
f 17 107 34
f 7 25 15
f 42 120 123
f 58 92 125
f 75 90 152
f 84 129 131
f 40 41 110
f 47 102 148
f 99 110 133
f 63 65 113
f 78 126 144
f 69 74 71
f 46 95 99
f 91 97 143
f 55 60 132
f 89 129 130
f 6 7 36
f 52 57 135
f 12 137 98
f 96 143 157
f 1 137 12
f 118 150 123
f 39 41 40
f 72 80 134
f 11 111 20
f 51 89 130
f 42 119 120
f 92 96 93
f 81 104 105
f 45 46 50
f 15 117 22
f 88 123 122
f 2 44 27
f 37 38 39
f 43 58 83
f 18 45 141
f 10 155 19
f 85 112 115
f 86 87 100
f 59 84 136
f 100 161 162
f 53 130 84
f 90 112 113
f 31 33 42
f 42 123 150
f 36 37 139
f 54 159 141
f 94 126 99
f 120 122 123
f 5 6 109
f 41 49 133
f 8 22 9
f 44 91 58
f 77 93 81
f 7 8 16
f 9 10 19
f 87 101 100
f 20 103 137
f 1 12 21
f 68 73 72
f 78 115 149
f 63 113 85
f 90 104 152
f 30 119 33
f 72 76 80
f 15 25 138
f 24 55 151
f 50 126 78
f 41 133 110
f 12 131 21
f 45 50 54
f 73 77 76
f 3 29 4
f 100 101 161
f 21 131 129
f 55 56 60
f 89 128 129
f 1 11 20
f 83 120 119
f 57 59 61
f 19 128 146
f 11 21 155
f 3 34 18
f 40 108 139
f 26 31 32
f 69 149 74
f 13 26 25
f 9 22 14
f 26 32 138
f 8 15 22
f 45 54 141
f 6 36 109
f 24 47 55
f 30 43 119
f 87 98 137
f 50 78 69
f 4 17 34
f 91 143 96
f 93 96 152
f 85 113 112
f 7 15 8
f 72 73 76
f 32 150 118
f 52 53 57
f 10 14 111
f 37 39 40
f 9 14 10
f 31 42 150
f 3 4 34
f 43 83 119
f 46 99 126
f 81 93 104
f 58 91 92
f 47 148 56
f 46 126 50
f 25 26 138
f 69 78 149
f 53 59 57
f 53 84 59
f 91 96 92
f 47 56 55
f 31 150 32
f 37 40 139
f 87 137 101
f 93 152 104
f 19 155 128
f 21 128 155
f 21 129 128
f 39 48 41
f 64 82 86
f 95 108 110
f 35 95 46
f 83 125 121
f 36 139 109
f 92 145 125
f 35 46 45
f 92 93 145
