solid Created by Gmsh
facet normal -0.450196 0.878474 0.16002
  outer loop
    vertex -0.002539532907533762 0.001597113838006896 0.07451262687458422
    vertex -3.741461336184748e-05 0.002999766682044953 0.07385176756617695
    vertex -0.00124253019996684 0.00273058944225791 0.07193905608882151
  endloop
endfacet
facet normal -0.999698 0.000734984 0.024578
  outer loop
    vertex -0.002793924718021456 -0.001092696055648013 0.0972201413735552
    vertex -0.00282460102967297 0.001010756658731663 0.09590949506204013
    vertex -0.002867979565242976 -0.0008801665827266508 0.09420164026985899
  endloop
endfacet
facet normal -0.722905 0.688231 -0.0612059
  outer loop
    vertex -0.002764574566112016 0.001164958140194984 0.07231122144566172
    vertex -0.002539532907533762 0.001597113838006896 0.07451262687458422
    vertex -0.00124253019996684 0.00273058944225791 0.07193905608882151
  endloop
endfacet
facet normal -0.795822 -0.60509 -0.0230793
  outer loop
    vertex -0.002867979565242976 -0.0008801665827266508 0.09420164026985899
    vertex -0.001716978848298463 -0.002460077973255255 0.09593466821443264
    vertex -0.002793924718021456 -0.001092696055648013 0.0972201413735552
  endloop
endfacet
facet normal -0.0388762 0.998945 0.024447
  outer loop
    vertex -0.0009592814031656681 0.00284249524002073 0.08059189470173567
    vertex 0.0008922102963221074 0.00286425571259565 0.08264701128193423
    vertex 0.0006273994877730244 0.002933661514684703 0.07938987175371366
  endloop
endfacet
facet normal 0.519033 0.854417 -0.0239916
  outer loop
    vertex 0.0006273994877730244 0.002933661514684703 0.07938987175371366
    vertex 0.0008922102963221074 0.00286425571259565 0.08264701128193423
    vertex 0.002218749999999547 0.002019194997394262 0.08125
  endloop
endfacet
facet normal 0.396772 -0.917917 -0.000402256
  outer loop
    vertex 0.002218749999999893 -0.002019194997393881 0.07375000000000001
    vertex 0.002217121646858806 -0.002020982830958763 0.07622354311245344
    vertex -4.757743717653894e-05 -0.00299962270752035 0.07557931402565311
  endloop
endfacet
facet normal 0.393777 -0.919206 0.000396674
  outer loop
    vertex 0.002218749999997083 -0.002019194997396969 0.07875
    vertex -6.804189609329812e-05 -0.002999228284138443 0.07782814446648061
    vertex 0.002217121646858806 -0.002020982830958763 0.07622354311245344
  endloop
endfacet
facet normal -0.999688 0.000978088 0.0249679
  outer loop
    vertex -0.002771638597533855 0.001148050297095283 0.09802467483085817
    vertex -0.00282460102967297 0.001010756658731663 0.09590949506204013
    vertex -0.002793924718021456 -0.001092696055648013 0.0972201413735552
  endloop
endfacet
facet normal -0.700061 -0.709116 -0.084077
  outer loop
    vertex -0.002739823008245029 -0.001222035140039418 0.07205292195297353
    vertex -0.001200120348178035 -0.00274949288958692 0.07211545581627918
    vertex -0.001989800926158628 -0.002245148608501956 0.07443697802552443
  endloop
endfacet
facet normal 0.571405 0.819189 0.0492515
  outer loop
    vertex 0.0007320241921508255 0.002909319608105292 0.09369342436633832
    vertex 0.002481829693355626 0.001685384636567666 0.09375000000000001
    vertex 0.002218750000001526 0.002019194997392086 0.09125000000000001
  endloop
endfacet
facet normal 0.466353 0.883774 -0.0381966
  outer loop
    vertex 0.002218750000001526 0.002019194997392086 0.09125000000000001
    vertex 0.0004408465620136206 0.002967432275345264 0.09148293777926768
    vertex 0.0007320241921508255 0.002909319608105292 0.09369342436633832
  endloop
endfacet
facet normal -0.516109 0.83865 -0.174061
  outer loop
    vertex -0.0008864038973689192 0.002866057942667801 0.0757248825547911
    vertex -3.741461336184748e-05 0.002999766682044953 0.07385176756617695
    vertex -0.002539532907533762 0.001597113838006896 0.07451262687458422
  endloop
endfacet
facet normal -0.260188 -0.965552 -0.00325923
  outer loop
    vertex 0.0002907126209529796 -0.002985881138293795 0.08757855042194015
    vertex -0.001759306057906818 -0.00242998810585821 0.08654972119814305
    vertex 0.0003116647059606189 -0.002983766933099581 0.08527958301899424
  endloop
endfacet
facet normal 0.409957 -0.911904 0.0191554
  outer loop
    vertex -4.757743717653894e-05 -0.00299962270752035 0.07557931402565311
    vertex 4.701249414690116e-05 -0.002999631614947757 0.07355450910886134
    vertex 0.002218749999999893 -0.002019194997393881 0.07375000000000001
  endloop
endfacet
facet normal 0.450005 -0.89302 0.00327996
  outer loop
    vertex 0.0003116647059606189 -0.002983766933099581 0.08527958301899424
    vertex 0.002218749999999533 -0.002019194997394277 0.08625000000000002
    vertex 0.0002907126209529796 -0.002985881138293795 0.08757855042194015
  endloop
endfacet
facet normal 0.395771 -0.918342 0.0037626
  outer loop
    vertex 0.002217121646858806 -0.002020982830958763 0.07622354311245344
    vertex -6.804189609329812e-05 -0.002999228284138443 0.07782814446648061
    vertex -4.757743717653894e-05 -0.00299962270752035 0.07557931402565311
  endloop
endfacet
facet normal -0.257901 -0.966169 -0.00227288
  outer loop
    vertex 0.0003807709142164525 -0.002975737473448686 0.08246490691865559
    vertex -0.001805125045006803 -0.002396147652355587 0.08412092103335309
    vertex -0.001817098286335725 -0.002387080605634374 0.08162523908169869
  endloop
endfacet
facet normal -0.272084 -0.962176 -0.0136809
  outer loop
    vertex 0.0003550945546456495 -0.002978910515148283 0.0800481985518357
    vertex -0.001817098286335725 -0.002387080605634374 0.08162523908169869
    vertex -0.001889084281752592 -0.002330527960878241 0.07907955386217151
  endloop
endfacet
facet normal -0.910028 -0.398153 0.115427
  outer loop
    vertex -0.001989800926158628 -0.002245148608501956 0.07443697802552443
    vertex -0.002995703136614822 -0.0001605076860344135 0.07369717815446743
    vertex -0.002739823008245029 -0.001222035140039418 0.07205292195297353
  endloop
endfacet
facet normal -0.260147 -0.965561 0.00403168
  outer loop
    vertex 0.0003807709142164525 -0.002975737473448686 0.08246490691865559
    vertex -0.001817098286335725 -0.002387080605634374 0.08162523908169869
    vertex 0.0003550945546456495 -0.002978910515148283 0.0800481985518357
  endloop
endfacet
facet normal -0.262792 -0.964809 -0.00920442
  outer loop
    vertex 0.0003116647059606189 -0.002983766933099581 0.08527958301899424
    vertex -0.001805125045006803 -0.002396147652355587 0.08412092103335309
    vertex 0.0003807709142164525 -0.002975737473448686 0.08246490691865559
  endloop
endfacet
facet normal 0.931101 -0.36469 0.00716661
  outer loop
    vertex 0.003 -7.347638122934264e-19 0.08750000000000001
    vertex 0.002185318634611731 -0.002055330256970573 0.08875464382381974
    vertex 0.002218749999999533 -0.002019194997394277 0.08625000000000002
  endloop
endfacet
facet normal 0.573546 0.817717 -0.0488295
  outer loop
    vertex 0.002218750000000013 0.002019194997393749 0.09625
    vertex 0.002481829693355626 0.001685384636567666 0.09375000000000001
    vertex 0.0007320241921508255 0.002909319608105292 0.09369342436633832
  endloop
endfacet
facet normal 0.444337 -0.895833 -0.00699355
  outer loop
    vertex 0.002218749999999533 -0.002019194997394277 0.08625000000000002
    vertex 0.002185318634611731 -0.002055330256970573 0.08875464382381974
    vertex 0.0002907126209529796 -0.002985881138293795 0.08757855042194015
  endloop
endfacet
facet normal -0.263164 -0.964714 -0.0084768
  outer loop
    vertex -0.001759306057906818 -0.00242998810585821 0.08654972119814305
    vertex -0.001805125045006803 -0.002396147652355587 0.08412092103335309
    vertex 0.0003116647059606189 -0.002983766933099581 0.08527958301899424
  endloop
endfacet
facet normal 0.453678 0.889976 0.0460358
  outer loop
    vertex 0.0007320241921508255 0.002909319608105292 0.09369342436633832
    vertex 0.0003630501081109662 0.002977951413136322 0.09600282093583243
    vertex 0.002218750000000013 0.002019194997393749 0.09625
  endloop
endfacet
facet normal -0.734005 -0.671792 0.0996613
  outer loop
    vertex -0.002793924718021456 -0.001092696055648013 0.0972201413735552
    vertex -0.001716978848298463 -0.002460077973255255 0.09593466821443264
    vertex -0.001148050297095281 -0.002771638597533856 0.09802467483085815
  endloop
endfacet
facet normal 0.933276 -0.359147 0.00314707
  outer loop
    vertex 0.00221874999999989 -0.002019194997393884 0.08375
    vertex 0.002233648332400818 -0.002002701956648329 0.08121404640995722
    vertex 0.003 -7.347638122934264e-19 0.0825
  endloop
endfacet
facet normal 0.929634 -0.368484 0
  outer loop
    vertex 0.003 -7.347638122934264e-19 0.09000000000000001
    vertex 0.002185318634611731 -0.002055330256970573 0.08875464382381974
    vertex 0.003 -7.347638122934264e-19 0.08750000000000001
  endloop
endfacet
facet normal 0.417021 -0.906105 -0.0711905
  outer loop
    vertex 0.0003550945546456495 -0.002978910515148283 0.0800481985518357
    vertex -6.804189609329812e-05 -0.002999228284138443 0.07782814446648061
    vertex 0.002218749999997083 -0.002019194997396969 0.07875
  endloop
endfacet
facet normal 0.933088 -0.359642 -0.00222976
  outer loop
    vertex 0.003 -7.347638122934264e-19 0.09250000000000001
    vertex 0.002229258745755092 -0.002007586970587933 0.0937753190618219
    vertex 0.00221874999999989 -0.002019194997393884 0.09125000000000001
  endloop
endfacet
facet normal 0.461388 -0.887196 0.00215814
  outer loop
    vertex 0.002229258745755092 -0.002007586970587933 0.0937753190618219
    vertex 0.0003711205227058664 -0.002976956425214606 0.09252479921624006
    vertex 0.00221874999999989 -0.002019194997393884 0.09125000000000001
  endloop
endfacet
facet normal 0.463325 -0.886183 -0.0030415
  outer loop
    vertex 0.00221874999999989 -0.002019194997393884 0.08375
    vertex 0.0003807709142164525 -0.002975737473448686 0.08246490691865559
    vertex 0.002233648332400818 -0.002002701956648329 0.08121404640995722
  endloop
endfacet
facet normal 0.451337 -0.892353 -7.5578e-14
  outer loop
    vertex 0.00221874999999989 -0.002019194997393884 0.08375
    vertex 0.002218749999999533 -0.002019194997394277 0.08625000000000002
    vertex 0.0003116647059606189 -0.002983766933099581 0.08527958301899424
  endloop
endfacet
facet normal 0.932553 -0.361034 0.000352958
  outer loop
    vertex 0.003 -7.347638122934264e-19 0.07500000000000001
    vertex 0.002217121646858806 -0.002020982830958763 0.07622354311245344
    vertex 0.002218749999999893 -0.002019194997393881 0.07375000000000001
  endloop
endfacet
facet normal 0.461319 -0.887232 0.00228797
  outer loop
    vertex 0.002229258745755092 -0.002007586970587933 0.0937753190618219
    vertex 0.0003589112567954844 -0.002978453073282419 0.09440615344570022
    vertex 0.0003711205227058664 -0.002976956425214606 0.09252479921624006
  endloop
endfacet
facet normal 0.932626 -0.360844 7.66806e-14
  outer loop
    vertex 0.003 -7.347638122934264e-19 0.08500000000000001
    vertex 0.002218749999999533 -0.002019194997394277 0.08625000000000002
    vertex 0.00221874999999989 -0.002019194997393884 0.08375
  endloop
endfacet
facet normal 0.459565 -0.888139 0.00316607
  outer loop
    vertex 0.002233648332400818 -0.002002701956648329 0.08121404640995722
    vertex 0.0003550945546456495 -0.002978910515148283 0.0800481985518357
    vertex 0.002218749999997083 -0.002019194997396969 0.07875
  endloop
endfacet
facet normal -0.844721 -0.535203 0.00210817
  outer loop
    vertex -0.001817098286335725 -0.002387080605634374 0.08162523908169869
    vertex -0.001805125045006803 -0.002396147652355587 0.08412092103335309
    vertex -0.002936136423782374 -0.0006157133269131425 0.08293777743602102
  endloop
endfacet
facet normal 0.933295 -0.359097 -0.00323936
  outer loop
    vertex 0.003 -7.347638122934264e-19 0.08
    vertex 0.002233648332400818 -0.002002701956648329 0.08121404640995722
    vertex 0.002218749999997083 -0.002019194997396969 0.07875
  endloop
endfacet
facet normal 0.932554 -0.36103 -0.000345569
  outer loop
    vertex 0.002218749999997083 -0.002019194997396969 0.07875
    vertex 0.002217121646858806 -0.002020982830958763 0.07622354311245344
    vertex 0.003 -7.347638122934264e-19 0.0775
  endloop
endfacet
facet normal -0.225468 -0.974248 -0.00223823
  outer loop
    vertex 0.0003711205227058664 -0.002976956425214606 0.09252479921624006
    vertex 0.0003589112567954844 -0.002978453073282419 0.09440615344570022
    vertex -0.001634504790785829 -0.002515629958658104 0.09375739791626959
  endloop
endfacet
facet normal 0.933097 -0.359617 0.00227554
  outer loop
    vertex 0.002218749999996974 -0.002019194997397089 0.09625
    vertex 0.002229258745755092 -0.002007586970587933 0.0937753190618219
    vertex 0.003 -7.347638122934264e-19 0.09500000000000001
  endloop
endfacet
facet normal 0.460124 -0.887852 -0.00221075
  outer loop
    vertex 0.002218749999996974 -0.002019194997397089 0.09625
    vertex 0.0003589112567954844 -0.002978453073282419 0.09440615344570022
    vertex 0.002229258745755092 -0.002007586970587933 0.0937753190618219
  endloop
endfacet
facet normal 0.932626 -0.360844 0
  outer loop
    vertex 0.003 -7.347638122934264e-19 0.08
    vertex 0.002218749999997083 -0.002019194997396969 0.07875
    vertex 0.003 -7.347638122934264e-19 0.0775
  endloop
endfacet
facet normal 0.932626 -0.360844 0
  outer loop
    vertex 0.003 -7.347638122934264e-19 0.08500000000000001
    vertex 0.00221874999999989 -0.002019194997393884 0.08375
    vertex 0.003 -7.347638122934264e-19 0.0825
  endloop
endfacet
facet normal 0.932626 -0.360844 0
  outer loop
    vertex 0.003 -7.347638122934264e-19 0.09250000000000001
    vertex 0.00221874999999989 -0.002019194997393884 0.09125000000000001
    vertex 0.003 -7.347638122934264e-19 0.09000000000000001
  endloop
endfacet
facet normal 0.932626 0.360844 -1.00238e-11
  outer loop
    vertex 0.003 -7.347638122934264e-19 0.07500000000000001
    vertex 0.002218749999999551 0.002019194997394258 0.07375000000000001
    vertex 0.002218750000046293 0.002019194997342895 0.07625000000000001
  endloop
endfacet
facet normal 0.93282 0.360342 -0.000931375
  outer loop
    vertex 0.002218750000046293 0.002019194997342895 0.07625000000000001
    vertex 0.002223112288264319 0.002014391162055718 0.07876048633439119
    vertex 0.003 -7.347638122934264e-19 0.0775
  endloop
endfacet
facet normal 0.93282 0.360342 0.000931375
  outer loop
    vertex 0.003 -7.347638122934264e-19 0.09000000000000001
    vertex 0.002223112288264042 0.002014391162056023 0.0887395136656095
    vertex 0.002218750000001526 0.002019194997392086 0.09125000000000001
  endloop
endfacet
facet normal 0.932626 -0.360844 0
  outer loop
    vertex 0.003 -7.347638122934264e-19 0.0975
    vertex 0.002218749999996974 -0.002019194997397089 0.09625
    vertex 0.003 -7.347638122934264e-19 0.09500000000000001
  endloop
endfacet
facet normal 0.456475 -0.88971 -0.00685147
  outer loop
    vertex 0.0003711205227058664 -0.002976956425214606 0.09252479921624006
    vertex 0.0003243356074754703 -0.00298241620397347 0.0901167747566065
    vertex 0.00221874999999989 -0.002019194997393884 0.09125000000000001
  endloop
endfacet
facet normal -0.981298 0.192276 0.00912199
  outer loop
    vertex -0.002557761595470059 0.001567754961956256 0.07690371466316612
    vertex -0.00296543324915686 -0.0004540987170153468 0.07566572313877797
    vertex -0.002955251901090308 -0.0005162230148899987 0.07807045771925218
  endloop
endfacet
facet normal 0.932626 0.360844 -0
  outer loop
    vertex 0.003 -7.347638122934264e-19 0.09500000000000001
    vertex 0.002218750000000013 0.002019194997393749 0.09625
    vertex 0.003 -7.347638122934264e-19 0.0975
  endloop
endfacet
facet normal 0.932626 -0.360844 0
  outer loop
    vertex 0.003 -7.347638122934264e-19 0.07500000000000001
    vertex 0.002218749999999893 -0.002019194997393881 0.07375000000000001
    vertex 0.003 -7.347638122934264e-19 0.07250000000000001
  endloop
endfacet
facet normal 0.933956 -0.357387 0
  outer loop
    vertex 0.003 -7.347638122934264e-19 0.0825
    vertex 0.002233648332400818 -0.002002701956648329 0.08121404640995722
    vertex 0.003 -7.347638122934264e-19 0.08
  endloop
endfacet
facet normal -0.847854 -0.53018 -0.00734281
  outer loop
    vertex -0.002946137171800617 -0.0005659291165284419 0.08049791940433901
    vertex -0.001817098286335725 -0.002387080605634374 0.08162523908169869
    vertex -0.002936136423782374 -0.0006157133269131425 0.08293777743602102
  endloop
endfacet
facet normal 0.933565 -0.358409 0
  outer loop
    vertex 0.003 -7.347638122934264e-19 0.09500000000000001
    vertex 0.002229258745755092 -0.002007586970587933 0.0937753190618219
    vertex 0.003 -7.347638122934264e-19 0.09250000000000001
  endloop
endfacet
facet normal 0.931096 -0.364705 -0.007193
  outer loop
    vertex 0.00221874999999989 -0.002019194997393884 0.09125000000000001
    vertex 0.002185318634611731 -0.002055330256970573 0.08875464382381974
    vertex 0.003 -7.347638122934264e-19 0.09000000000000001
  endloop
endfacet
facet normal -0.306689 -0.946406 0.101282
  outer loop
    vertex -0.001200120348178035 -0.00274949288958692 0.07211545581627918
    vertex 4.701249414690116e-05 -0.002999631614947757 0.07355450910886134
    vertex -0.001989800926158628 -0.002245148608501956 0.07443697802552443
  endloop
endfacet
facet normal 0.932626 0.360844 -0
  outer loop
    vertex 0.003 -7.347638122934264e-19 0.07250000000000001
    vertex 0.002218749999999551 0.002019194997394258 0.07375000000000001
    vertex 0.003 -7.347638122934264e-19 0.07500000000000001
  endloop
endfacet
facet normal 0.462946 -0.886379 -0.00375479
  outer loop
    vertex 0.0003807709142164525 -0.002975737473448686 0.08246490691865559
    vertex 0.0003550945546456495 -0.002978910515148283 0.0800481985518357
    vertex 0.002233648332400818 -0.002002701956648329 0.08121404640995722
  endloop
endfacet
facet normal -0.979661 0.200597 -0.00500552
  outer loop
    vertex -0.002557761595470059 0.001567754961956256 0.07690371466316612
    vertex -0.002539532907533762 0.001597113838006896 0.07451262687458422
    vertex -0.00296543324915686 -0.0004540987170153468 0.07566572313877797
  endloop
endfacet
facet normal -0.611222 0.791443 0.00505799
  outer loop
    vertex -0.0008864038973689192 0.002866057942667801 0.0757248825547911
    vertex -0.002539532907533762 0.001597113838006896 0.07451262687458422
    vertex -0.002557761595470059 0.001567754961956256 0.07690371466316612
  endloop
endfacet
facet normal 0.932626 -0.360844 0
  outer loop
    vertex 0.003 -7.347638122934264e-19 0.08750000000000001
    vertex 0.002218749999999533 -0.002019194997394277 0.08625000000000002
    vertex 0.003 -7.347638122934264e-19 0.08500000000000001
  endloop
endfacet
facet normal 0.932481 -0.36122 0
  outer loop
    vertex 0.003 -7.347638122934264e-19 0.0775
    vertex 0.002217121646858806 -0.002020982830958763 0.07622354311245344
    vertex 0.003 -7.347638122934264e-19 0.07500000000000001
  endloop
endfacet
facet normal 0.456855 -0.889499 0.00867926
  outer loop
    vertex 0.00221874999999989 -0.002019194997393884 0.08375
    vertex 0.0003116647059606189 -0.002983766933099581 0.08527958301899424
    vertex 0.0003807709142164525 -0.002975737473448686 0.08246490691865559
  endloop
endfacet
facet normal 0.93282 0.360342 0.000931375
  outer loop
    vertex 0.003 -7.347638122934264e-19 0.08500000000000001
    vertex 0.002223112288264039 0.002014391162056027 0.0837395136656095
    vertex 0.002218750000000397 0.002019194997393328 0.08625000000000001
  endloop
endfacet
facet normal -0.982874 0.184185 -0.00586687
  outer loop
    vertex -0.00257871694514806 0.001533042372801958 0.07932458393254882
    vertex -0.002557761595470059 0.001567754961956256 0.07690371466316612
    vertex -0.002955251901090308 -0.0005162230148899987 0.07807045771925218
  endloop
endfacet
facet normal 0.932626 0.360844 -0
  outer loop
    vertex 0.003 -7.347638122934264e-19 0.07500000000000001
    vertex 0.002218750000046293 0.002019194997342895 0.07625000000000001
    vertex 0.003 -7.347638122934264e-19 0.0775
  endloop
endfacet
facet normal -0.984294 0.176383 0.0073076
  outer loop
    vertex -0.00257871694514806 0.001533042372801958 0.07932458393254882
    vertex -0.002955251901090308 -0.0005162230148899987 0.07807045771925218
    vertex -0.002946137171800617 -0.0005659291165284419 0.08049791940433901
  endloop
endfacet
facet normal 0.932626 0.360844 -0
  outer loop
    vertex 0.003 -7.347638122934264e-19 0.09000000000000001
    vertex 0.002218750000001526 0.002019194997392086 0.09125000000000001
    vertex 0.003 -7.347638122934264e-19 0.09250000000000001
  endloop
endfacet
facet normal -0.875663 -0.482847 0.00852785
  outer loop
    vertex -0.00296543324915686 -0.0004540987170153468 0.07566572313877797
    vertex -0.001989800926158628 -0.002245148608501956 0.07443697802552443
    vertex -0.001945297672770328 -0.002283816315800013 0.07681732610209803
  endloop
endfacet
facet normal -0.870965 -0.491262 -0.00900379
  outer loop
    vertex -0.00296543324915686 -0.0004540987170153468 0.07566572313877797
    vertex -0.001945297672770328 -0.002283816315800013 0.07681732610209803
    vertex -0.002955251901090308 -0.0005162230148899987 0.07807045771925218
  endloop
endfacet
facet normal -0.799582 -0.600483 -0.00944456
  outer loop
    vertex -0.001634504790785829 -0.002515629958658104 0.09375739791626959
    vertex -0.002867979565242976 -0.0008801665827266508 0.09420164026985899
    vertex -0.002880558843101335 -0.0008380815899604887 0.09259085405019453
  endloop
endfacet
facet normal 0.498829 0.8667 0.000798329
  outer loop
    vertex 0.002218750000000397 0.002019194997393328 0.08625000000000001
    vertex 0.0006284832728994254 0.002933429524581361 0.08738128405307698
    vertex 0.002223112288264042 0.002014391162056023 0.0887395136656095
  endloop
endfacet
facet normal 0.932821 0.360338 0.000939232
  outer loop
    vertex 0.003 -7.347638122934264e-19 0.08
    vertex 0.002223112288264319 0.002014391162055718 0.07876048633439119
    vertex 0.002218749999999547 0.002019194997394262 0.08125
  endloop
endfacet
facet normal -0.860379 -0.509604 -0.00720437
  outer loop
    vertex -0.002955251901090308 -0.0005162230148899987 0.07807045771925218
    vertex -0.001889084281752592 -0.002330527960878241 0.07907955386217151
    vertex -0.002946137171800617 -0.0005659291165284419 0.08049791940433901
  endloop
endfacet
facet normal -0.227559 -0.973747 -0.00582732
  outer loop
    vertex 0.0003711205227058664 -0.002976956425214606 0.09252479921624006
    vertex -0.001634504790785829 -0.002515629958658104 0.09375739791626959
    vertex -0.001668226250987775 -0.002493395511248722 0.09135885188697491
  endloop
endfacet
facet normal -0.853312 -0.52125 0.01255
  outer loop
    vertex -0.001889084281752592 -0.002330527960878241 0.07907955386217151
    vertex -0.001817098286335725 -0.002387080605634374 0.08162523908169869
    vertex -0.002946137171800617 -0.0005659291165284419 0.08049791940433901
  endloop
endfacet
facet normal 0.932626 0.360844 -0
  outer loop
    vertex 0.003 -7.347638122934264e-19 0.08
    vertex 0.002218749999999547 0.002019194997394262 0.08125
    vertex 0.003 -7.347638122934264e-19 0.0825
  endloop
endfacet
facet normal 0.933016 0.359835 -0
  outer loop
    vertex 0.003 -7.347638122934264e-19 0.0775
    vertex 0.002223112288264319 0.002014391162055718 0.07876048633439119
    vertex 0.003 -7.347638122934264e-19 0.08
  endloop
endfacet
facet normal 0.932821 0.360338 -0.000939232
  outer loop
    vertex 0.002218750000000397 0.002019194997393328 0.08625000000000001
    vertex 0.002223112288264042 0.002014391162056023 0.0887395136656095
    vertex 0.003 -7.347638122934264e-19 0.08750000000000001
  endloop
endfacet
facet normal -0.986992 0.160601 0.00732258
  outer loop
    vertex -0.002602037312622208 0.001493118154642089 0.08171856975099785
    vertex -0.002946137171800617 -0.0005659291165284419 0.08049791940433901
    vertex -0.002936136423782374 -0.0006157133269131425 0.08293777743602102
  endloop
endfacet
facet normal 0.933016 0.359835 -0
  outer loop
    vertex 0.003 -7.347638122934264e-19 0.08750000000000001
    vertex 0.002223112288264042 0.002014391162056023 0.0887395136656095
    vertex 0.003 -7.347638122934264e-19 0.09000000000000001
  endloop
endfacet
facet normal 0.932821 0.360338 -0.000939232
  outer loop
    vertex 0.002218749999999547 0.002019194997394262 0.08125
    vertex 0.002223112288264039 0.002014391162056027 0.0837395136656095
    vertex 0.003 -7.347638122934264e-19 0.0825
  endloop
endfacet
facet normal 0.932626 0.360844 -0
  outer loop
    vertex 0.003 -7.347638122934264e-19 0.08500000000000001
    vertex 0.002218750000000397 0.002019194997393328 0.08625000000000001
    vertex 0.003 -7.347638122934264e-19 0.08750000000000001
  endloop
endfacet
facet normal -0.717486 0.696528 -0.00789738
  outer loop
    vertex -0.002747032934336565 0.001205740460327281 0.09342863504537247
    vertex -0.00132071957211716 0.002693640624104609 0.09507533008510925
    vertex -0.001271011329847657 0.002717449208246383 0.09265913409934212
  endloop
endfacet
facet normal -0.234369 -0.972124 0.00675763
  outer loop
    vertex 0.0003711205227058664 -0.002976956425214606 0.09252479921624006
    vertex -0.001668226250987775 -0.002493395511248722 0.09135885188697491
    vertex 0.0003243356074754703 -0.00298241620397347 0.0901167747566065
  endloop
endfacet
facet normal -0.616214 0.787554 -0.00630347
  outer loop
    vertex -0.0009280807450357529 0.002852834753485362 0.07814702221057013
    vertex -0.0008864038973689192 0.002866057942667801 0.0757248825547911
    vertex -0.002557761595470059 0.001567754961956256 0.07690371466316612
  endloop
endfacet
facet normal -0.98942 0.144927 0.00658392
  outer loop
    vertex -0.002625584440609717 0.001451311939325299 0.08410717087048909
    vertex -0.002936136423782374 -0.0006157133269131425 0.08293777743602102
    vertex -0.002926433238484842 -0.0006602942531107799 0.08537728197257821
  endloop
endfacet
facet normal 0.933016 0.359835 -0
  outer loop
    vertex 0.003 -7.347638122934264e-19 0.0825
    vertex 0.002223112288264039 0.002014391162056027 0.0837395136656095
    vertex 0.003 -7.347638122934264e-19 0.08500000000000001
  endloop
endfacet
facet normal -0.985637 0.168739 -0.00678727
  outer loop
    vertex -0.002602037312622208 0.001493118154642089 0.08171856975099785
    vertex -0.00257871694514806 0.001533042372801958 0.07932458393254882
    vertex -0.002946137171800617 -0.0005659291165284419 0.08049791940433901
  endloop
endfacet
facet normal -0.804689 -0.593669 0.00580993
  outer loop
    vertex -0.001634504790785829 -0.002515629958658104 0.09375739791626959
    vertex -0.002880558843101335 -0.0008380815899604887 0.09259085405019453
    vertex -0.001668226250987775 -0.002493395511248722 0.09135885188697491
  endloop
endfacet
facet normal -0.988281 0.152482 -0.00707379
  outer loop
    vertex -0.002625584440609717 0.001451311939325299 0.08410717087048909
    vertex -0.002602037312622208 0.001493118154642089 0.08171856975099785
    vertex -0.002936136423782374 -0.0006157133269131425 0.08293777743602102
  endloop
endfacet
facet normal -0.249753 -0.968298 0.00463022
  outer loop
    vertex -0.001713873341909815 -0.002462242507936796 0.08895780219334923
    vertex 0.0002907126209529796 -0.002985881138293795 0.08757855042194015
    vertex 0.0003243356074754703 -0.00298241620397347 0.0901167747566065
  endloop
endfacet
facet normal -0.837251 -0.546757 0.00817668
  outer loop
    vertex -0.002926433238484842 -0.0006602942531107799 0.08537728197257821
    vertex -0.001805125045006803 -0.002396147652355587 0.08412092103335309
    vertex -0.001759306057906818 -0.00242998810585821 0.08654972119814305
  endloop
endfacet
facet normal -0.842109 -0.539268 -0.00650539
  outer loop
    vertex -0.002936136423782374 -0.0006157133269131425 0.08293777743602102
    vertex -0.001805125045006803 -0.002396147652355587 0.08412092103335309
    vertex -0.002926433238484842 -0.0006602942531107799 0.08537728197257821
  endloop
endfacet
facet normal -0.998072 0.0613535 0.00939733
  outer loop
    vertex -0.002867979565242976 -0.0008801665827266508 0.09420164026985899
    vertex -0.002747032934336565 0.001205740460327281 0.09342863504537247
    vertex -0.002880558843101335 -0.0008380815899604887 0.09259085405019453
  endloop
endfacet
facet normal -0.864793 -0.502005 0.0111233
  outer loop
    vertex -0.001945297672770328 -0.002283816315800013 0.07681732610209803
    vertex -0.001889084281752592 -0.002330527960878241 0.07907955386217151
    vertex -0.002955251901090308 -0.0005162230148899987 0.07807045771925218
  endloop
endfacet
facet normal -0.920794 -0.381405 0.0816614
  outer loop
    vertex -0.003 1.901912871984934e-17 0.1
    vertex -0.002793924718021456 -0.001092696055648013 0.0972201413735552
    vertex -0.002121320343559654 -0.002121320343559631 0.1
  endloop
endfacet
facet normal -0.257928 -0.96613 -0.0080743
  outer loop
    vertex -0.001713873341909815 -0.002462242507936796 0.08895780219334923
    vertex -0.001759306057906818 -0.00242998810585821 0.08654972119814305
    vertex 0.0002907126209529796 -0.002985881138293795 0.08757855042194015
  endloop
endfacet
facet normal -0.243023 -0.969988 -0.00796517
  outer loop
    vertex -0.001668226250987775 -0.002493395511248722 0.09135885188697491
    vertex -0.001713873341909815 -0.002462242507936796 0.08895780219334923
    vertex 0.0003243356074754703 -0.00298241620397347 0.0901167747566065
  endloop
endfacet
facet normal -0.099321 0.995025 0.0077614
  outer loop
    vertex -0.00132071957211716 0.002693640624104609 0.09507533008510925
    vertex 0.0007320241921508255 0.002909319608105292 0.09369342436633832
    vertex -0.001271011329847657 0.002717449208246383 0.09265913409934212
  endloop
endfacet
facet normal -0.809312 -0.587334 -0.00725135
  outer loop
    vertex -0.002880558843101335 -0.0008380815899604887 0.09259085405019453
    vertex -0.002894248299776274 -0.0007895104681016873 0.09018462363190449
    vertex -0.001668226250987775 -0.002493395511248722 0.09135885188697491
  endloop
endfacet
facet normal -0.83231 -0.554251 -0.00805411
  outer loop
    vertex -0.00291361473447253 -0.0007147371398385342 0.08779915884471202
    vertex -0.002926433238484842 -0.0006602942531107799 0.08537728197257821
    vertex -0.001759306057906818 -0.00242998810585821 0.08654972119814305
  endloop
endfacet
facet normal -0.621931 0.78305 0.00584456
  outer loop
    vertex -0.00257871694514806 0.001533042372801958 0.07932458393254882
    vertex -0.0009280807450357529 0.002852834753485362 0.07814702221057013
    vertex -0.002557761595470059 0.001567754961956256 0.07690371466316612
  endloop
endfacet
facet normal -0.990679 0.135939 -0.00865718
  outer loop
    vertex -0.002653621297290128 0.001399390585422189 0.08650026146166365
    vertex -0.002625584440609717 0.001451311939325299 0.08410717087048909
    vertex -0.002926433238484842 -0.0006602942531107799 0.08537728197257821
  endloop
endfacet
facet normal -0.357747 -0.93378 -0.00848036
  outer loop
    vertex -0.001989800926158628 -0.002245148608501956 0.07443697802552443
    vertex -4.757743717653894e-05 -0.00299962270752035 0.07557931402565311
    vertex -0.001945297672770328 -0.002283816315800013 0.07681732610209803
  endloop
endfacet
facet normal -0.642494 0.766258 0.00707756
  outer loop
    vertex -0.002625584440609717 0.001451311939325299 0.08410717087048909
    vertex -0.0009917372677267842 0.002831334878074618 0.08301686141283034
    vertex -0.002602037312622208 0.001493118154642089 0.08171856975099785
  endloop
endfacet
facet normal -0.826871 -0.562334 0.00806834
  outer loop
    vertex -0.001713873341909815 -0.002462242507936796 0.08895780219334923
    vertex -0.00291361473447253 -0.0007147371398385342 0.08779915884471202
    vertex -0.001759306057906818 -0.00242998810585821 0.08654972119814305
  endloop
endfacet
facet normal -0.380152 -0.917767 0.114842
  outer loop
    vertex -0.002121320343559654 -0.002121320343559631 0.1
    vertex -0.001148050297095281 -0.002771638597533856 0.09802467483085815
    vertex -8.544678636521197e-18 -0.003 0.1
  endloop
endfacet
facet normal -0.655943 0.75476 0.00869068
  outer loop
    vertex -0.002653621297290128 0.001399390585422189 0.08650026146166365
    vertex -0.001039477560192378 0.002814158204837906 0.08546199320400569
    vertex -0.002625584440609717 0.001451311939325299 0.08410717087048909
  endloop
endfacet
facet normal -0.117287 0.992666 -0.0293069
  outer loop
    vertex 0.0006215274565716231 0.00293491117765557 0.08949086944752797
    vertex -0.001399049674224373 0.002653801049259849 0.08805567850889065
    vertex -0.001224170124086076 0.002738869749968969 0.09023719889566476
  endloop
endfacet
facet normal -0.991875 0.126959 0.00810378
  outer loop
    vertex -0.00291361473447253 -0.0007147371398385342 0.08779915884471202
    vertex -0.002653621297290128 0.001399390585422189 0.08650026146166365
    vertex -0.002926433238484842 -0.0006602942531107799 0.08537728197257821
  endloop
endfacet
facet normal -0.917767 0.380152 0.114842
  outer loop
    vertex -0.002121320343559634 0.002121320343559652 0.1
    vertex -0.002771638597533855 0.001148050297095283 0.09802467483085817
    vertex -0.003 1.901912871984934e-17 0.1
  endloop
endfacet
facet normal -0.918269 -0.38036 -0.110038
  outer loop
    vertex -0.002121320343559654 -0.002121320343559631 0.07000000000000001
    vertex -0.002739823008245029 -0.001222035140039418 0.07205292195297353
    vertex -0.003 1.901912871984934e-17 0.07000000000000001
  endloop
endfacet
facet normal -0.919405 0.38083 -0.0983028
  outer loop
    vertex -0.003 1.901912871984934e-17 0.07000000000000001
    vertex -0.002764574566112016 0.001164958140194984 0.07231122144566172
    vertex -0.002121320343559634 0.002121320343559652 0.07000000000000001
  endloop
endfacet
facet normal -0.626524 0.779388 -0.00469942
  outer loop
    vertex -0.00257871694514806 0.001533042372801958 0.07932458393254882
    vertex -0.0009592814031656681 0.00284249524002073 0.08059189470173567
    vertex -0.0009280807450357529 0.002852834753485362 0.07814702221057013
  endloop
endfacet
facet normal -0.631941 0.774987 0.00676849
  outer loop
    vertex -0.002602037312622208 0.001493118154642089 0.08171856975099785
    vertex -0.0009592814031656681 0.00284249524002073 0.08059189470173567
    vertex -0.00257871694514806 0.001533042372801958 0.07932458393254882
  endloop
endfacet
facet normal -0.648094 0.761525 -0.00730419
  outer loop
    vertex -0.002625584440609717 0.001451311939325299 0.08410717087048909
    vertex -0.001039477560192378 0.002814158204837906 0.08546199320400569
    vertex -0.0009917372677267842 0.002831334878074618 0.08301686141283034
  endloop
endfacet
facet normal -0.995003 0.042358 -0.0904111
  outer loop
    vertex -0.002771638597533855 0.001148050297095283 0.09802467483085817
    vertex -0.002793924718021456 -0.001092696055648013 0.0972201413735552
    vertex -0.003 1.901912871984934e-17 0.1
  endloop
endfacet
facet normal -0.713336 0.700772 0.0084016
  outer loop
    vertex -0.002747032934336565 0.001205740460327281 0.09342863504537247
    vertex -0.001271011329847657 0.002717449208246383 0.09265913409934212
    vertex -0.00272712419214414 0.001250117450731 0.0914175245836846
  endloop
endfacet
facet normal -0.706654 0.707521 -0.00740938
  outer loop
    vertex -0.001271011329847657 0.002717449208246383 0.09265913409934212
    vertex -0.001224170124086076 0.002738869749968969 0.09023719889566476
    vertex -0.00272712419214414 0.001250117450731 0.0914175245836846
  endloop
endfacet
facet normal -0.0166121 0.999852 0.00437926
  outer loop
    vertex -0.0009917372677267842 0.002831334878074618 0.08301686141283034
    vertex 0.0008922102963221074 0.00286425571259565 0.08264701128193423
    vertex -0.0009592814031656681 0.00284249524002073 0.08059189470173567
  endloop
endfacet
facet normal -0.814273 -0.580428 0.00794949
  outer loop
    vertex -0.001668226250987775 -0.002493395511248722 0.09135885188697491
    vertex -0.002894248299776274 -0.0007895104681016873 0.09018462363190449
    vertex -0.001713873341909815 -0.002462242507936796 0.08895780219334923
  endloop
endfacet
facet normal -0.99698 0.0773191 0.00723272
  outer loop
    vertex -0.00272712419214414 0.001250117450731 0.0914175245836846
    vertex -0.002894248299776274 -0.0007895104681016873 0.09018462363190449
    vertex -0.002880558843101335 -0.0008380815899604887 0.09259085405019453
  endloop
endfacet
facet normal -0.997609 0.0686029 -0.00836192
  outer loop
    vertex -0.002747032934336565 0.001205740460327281 0.09342863504537247
    vertex -0.00272712419214414 0.001250117450731 0.0914175245836846
    vertex -0.002880558843101335 -0.0008380815899604887 0.09259085405019453
  endloop
endfacet
facet normal -0.993395 -0.0224766 0.112518
  outer loop
    vertex -0.002739823008245029 -0.001222035140039418 0.07205292195297353
    vertex -0.002764574566112016 0.001164958140194984 0.07231122144566172
    vertex -0.003 1.901912871984934e-17 0.07000000000000001
  endloop
endfacet
facet normal -0.380483 -0.918568 -0.107078
  outer loop
    vertex -8.544678636521197e-18 -0.003 0.07000000000000001
    vertex -0.001200120348178035 -0.00274949288958692 0.07211545581627918
    vertex -0.002121320343559654 -0.002121320343559631 0.07000000000000001
  endloop
endfacet
facet normal -0.379445 0.916061 0.129821
  outer loop
    vertex 9.509564359924672e-18 0.003 0.1
    vertex -0.001080481879332862 0.002798670918209808 0.09826258029649054
    vertex -0.002121320343559634 0.002121320343559652 0.1
  endloop
endfacet
facet normal -0.380097 0.917635 -0.116067
  outer loop
    vertex -0.002121320343559634 0.002121320343559652 0.07000000000000001
    vertex -0.00124253019996684 0.00273058944225791 0.07193905608882151
    vertex 9.509564359924672e-18 0.003 0.07000000000000001
  endloop
endfacet
facet normal -0.995997 0.0886257 -0.0116054
  outer loop
    vertex -0.00272712419214414 0.001250117450731 0.0914175245836846
    vertex -0.002692673196880065 0.001322690838708612 0.08901508175515548
    vertex -0.002894248299776274 -0.0007895104681016873 0.09018462363190449
  endloop
endfacet
facet normal -0.636758 0.771048 -0.00497382
  outer loop
    vertex -0.0009917372677267842 0.002831334878074618 0.08301686141283034
    vertex -0.0009592814031656681 0.00284249524002073 0.08059189470173567
    vertex -0.002602037312622208 0.001493118154642089 0.08171856975099785
  endloop
endfacet
facet normal -0.685924 -0.720671 -0.100704
  outer loop
    vertex -0.002121320343559654 -0.002121320343559631 0.1
    vertex -0.002793924718021456 -0.001092696055648013 0.0972201413735552
    vertex -0.001148050297095281 -0.002771638597533856 0.09802467483085815
  endloop
endfacet
facet normal -0.820866 -0.57101 -0.0112343
  outer loop
    vertex -0.001713873341909815 -0.002462242507936796 0.08895780219334923
    vertex -0.002894248299776274 -0.0007895104681016873 0.09018462363190449
    vertex -0.00291361473447253 -0.0007147371398385342 0.08779915884471202
  endloop
endfacet
facet normal -0.303342 -0.950557 0.0665157
  outer loop
    vertex -0.001889084281752592 -0.002330527960878241 0.07907955386217151
    vertex -6.804189609329812e-05 -0.002999228284138443 0.07782814446648061
    vertex 0.0003550945546456495 -0.002978910515148283 0.0800481985518357
  endloop
endfacet
facet normal -0.683265 0.718659 -0.129148
  outer loop
    vertex -0.002121320343559634 0.002121320343559652 0.1
    vertex -0.001080481879332862 0.002798670918209808 0.09826258029649054
    vertex -0.002771638597533855 0.001148050297095283 0.09802467483085817
  endloop
endfacet
facet normal -0.702946 -0.704615 0.0968746
  outer loop
    vertex -0.002121320343559654 -0.002121320343559631 0.07000000000000001
    vertex -0.001200120348178035 -0.00274949288958692 0.07211545581627918
    vertex -0.002739823008245029 -0.001222035140039418 0.07205292195297353
  endloop
endfacet
facet normal -0.026935 0.999616 0.00649625
  outer loop
    vertex -0.001039477560192378 0.002814158204837906 0.08546199320400569
    vertex 0.0008772674113108023 0.002868867701559632 0.08499079159524336
    vertex -0.0009917372677267842 0.002831334878074618 0.08301686141283034
  endloop
endfacet
facet normal 0.443171 -0.896425 -0.00464682
  outer loop
    vertex 0.0002907126209529796 -0.002985881138293795 0.08757855042194015
    vertex 0.002185318634611731 -0.002055330256970573 0.08875464382381974
    vertex 0.0003243356074754703 -0.00298241620397347 0.0901167747566065
  endloop
endfacet
facet normal 0.449936 -0.893034 0.00690404
  outer loop
    vertex 0.0003243356074754703 -0.00298241620397347 0.0901167747566065
    vertex 0.002185318634611731 -0.002055330256970573 0.08875464382381974
    vertex 0.00221874999999989 -0.002019194997393884 0.09125000000000001
  endloop
endfacet
facet normal -0.994806 0.101166 0.0112474
  outer loop
    vertex -0.002894248299776274 -0.0007895104681016873 0.09018462363190449
    vertex -0.002692673196880065 0.001322690838708612 0.08901508175515548
    vertex -0.00291361473447253 -0.0007147371398385342 0.08779915884471202
  endloop
endfacet
facet normal -0.699093 0.714937 0.0115719
  outer loop
    vertex -0.001224170124086076 0.002738869749968969 0.09023719889566476
    vertex -0.002692673196880065 0.001322690838708612 0.08901508175515548
    vertex -0.00272712419214414 0.001250117450731 0.0914175245836846
  endloop
endfacet
facet normal -0.702104 0.705502 0.0965221
  outer loop
    vertex -0.002121320343559634 0.002121320343559652 0.07000000000000001
    vertex -0.002764574566112016 0.001164958140194984 0.07231122144566172
    vertex -0.00124253019996684 0.00273058944225791 0.07193905608882151
  endloop
endfacet
facet normal -0.993313 0.114832 -0.0119226
  outer loop
    vertex -0.00291361473447253 -0.0007147371398385342 0.08779915884471202
    vertex -0.002692673196880065 0.001322690838708612 0.08901508175515548
    vertex -0.002653621297290128 0.001399390585422189 0.08650026146166365
  endloop
endfacet
facet normal 0.0166919 -0.992092 -0.124394
  outer loop
    vertex -0.001148050297095281 -0.002771638597533856 0.09802467483085815
    vertex 0.001149999961960845 -0.002770830216287179 0.09832659284200987
    vertex -8.544678636521197e-18 -0.003 0.1
  endloop
endfacet
facet normal 0.942205 0.330488 0.0550218
  outer loop
    vertex 0.003 -7.347638122934264e-19 0.09500000000000001
    vertex 0.002481829693355626 0.001685384636567666 0.09375000000000001
    vertex 0.002218750000000013 0.002019194997393749 0.09625
  endloop
endfacet
facet normal -0.972368 0.226916 0.0548559
  outer loop
    vertex -0.002764574566112016 0.001164958140194984 0.07231122144566172
    vertex -0.002995703136614822 -0.0001605076860344135 0.07369717815446743
    vertex -0.002539532907533762 0.001597113838006896 0.07451262687458422
  endloop
endfacet
facet normal -0.351098 -0.936278 -0.0106084
  outer loop
    vertex -0.001945297672770328 -0.002283816315800013 0.07681732610209803
    vertex -6.804189609329812e-05 -0.002999228284138443 0.07782814446648061
    vertex -0.001889084281752592 -0.002330527960878241 0.07907955386217151
  endloop
endfacet
facet normal 0.00105709 -0.992991 0.118187
  outer loop
    vertex 0.001148050297095263 -0.002771638597533863 0.0719083885947561
    vertex -0.001200120348178035 -0.00274949288958692 0.07211545581627918
    vertex -8.544678636521197e-18 -0.003 0.07000000000000001
  endloop
endfacet
facet normal -0.00317346 0.993572 -0.11316
  outer loop
    vertex 0.001127170403434859 0.002780195475433427 0.09803844974571518
    vertex -0.001080481879332862 0.002798670918209808 0.09826258029649054
    vertex 9.509564359924672e-18 0.003 0.1
  endloop
endfacet
facet normal 0.942205 0.330488 -0.0550218
  outer loop
    vertex 0.002218750000001526 0.002019194997392086 0.09125000000000001
    vertex 0.002481829693355626 0.001685384636567666 0.09375000000000001
    vertex 0.003 -7.347638122934264e-19 0.09250000000000001
  endloop
endfacet
facet normal -0.0153871 0.991665 0.127921
  outer loop
    vertex -0.00124253019996684 0.00273058944225791 0.07193905608882151
    vertex 0.001148050297095276 0.002771638597533858 0.07190838859475591
    vertex 9.509564359924672e-18 0.003 0.07000000000000001
  endloop
endfacet
facet normal 0.379169 -0.915395 0.135211
  outer loop
    vertex -8.544678636521197e-18 -0.003 0.1
    vertex 0.001149999961960845 -0.002770830216287179 0.09832659284200987
    vertex 0.002121320343559639 -0.002121320343559647 0.1
  endloop
endfacet
facet normal 0.379973 -0.917335 -0.118814
  outer loop
    vertex 0.002121320343559639 -0.002121320343559647 0.07000000000000001
    vertex 0.001148050297095263 -0.002771638597533863 0.0719083885947561
    vertex -8.544678636521197e-18 -0.003 0.07000000000000001
  endloop
endfacet
facet normal 0.380118 0.917686 0.115595
  outer loop
    vertex 0.002121320343559645 0.00212132034355964 0.1
    vertex 0.001127170403434859 0.002780195475433427 0.09803844974571518
    vertex 9.509564359924672e-18 0.003 0.1
  endloop
endfacet
facet normal -0.0178802 0.999838 -0.00208143
  outer loop
    vertex 0.0008772674113108023 0.002868867701559632 0.08499079159524336
    vertex 0.0008922102963221074 0.00286425571259565 0.08264701128193423
    vertex -0.0009917372677267842 0.002831334878074618 0.08301686141283034
  endloop
endfacet
facet normal 0.379973 0.917335 -0.118814
  outer loop
    vertex 9.509564359924672e-18 0.003 0.07000000000000001
    vertex 0.001148050297095276 0.002771638597533858 0.07190838859475591
    vertex 0.002121320343559645 0.00212132034355964 0.07000000000000001
  endloop
endfacet
facet normal -0.737902 0.674245 0.0299207
  outer loop
    vertex -0.002747032934336565 0.001205740460327281 0.09342863504537247
    vertex -0.00282460102967297 0.001010756658731663 0.09590949506204013
    vertex -0.00132071957211716 0.002693640624104609 0.09507533008510925
  endloop
endfacet
facet normal -0.23109 -0.9728 0.0160669
  outer loop
    vertex 0.0003589112567954844 -0.002978453073282419 0.09440615344570022
    vertex -0.001716978848298463 -0.002460077973255255 0.09593466821443264
    vertex -0.001634504790785829 -0.002515629958658104 0.09375739791626959
  endloop
endfacet
facet normal -0.89182 -0.449241 -0.0532869
  outer loop
    vertex -0.00296543324915686 -0.0004540987170153468 0.07566572313877797
    vertex -0.002995703136614822 -0.0001605076860344135 0.07369717815446743
    vertex -0.001989800926158628 -0.002245148608501956 0.07443697802552443
  endloop
endfacet
facet normal 0.498943 0.866635 -0.000798002
  outer loop
    vertex 0.002223112288264319 0.002014391162055718 0.07876048633439119
    vertex 0.0006273994877730244 0.002933661514684703 0.07938987175371366
    vertex 0.002218749999999547 0.002019194997394262 0.08125
  endloop
endfacet
facet normal -0.136997 0.990571 -0.00114743
  outer loop
    vertex 0.0006284832728994254 0.002933429524581361 0.08738128405307698
    vertex -0.001399049674224373 0.002653801049259849 0.08805567850889065
    vertex 0.0006215274565716231 0.00293491117765557 0.08949086944752797
  endloop
endfacet
facet normal 0.514328 0.857055 0.0303801
  outer loop
    vertex 0.002218750000000397 0.002019194997393328 0.08625000000000001
    vertex 0.0008772674113108023 0.002868867701559632 0.08499079159524336
    vertex 0.0006284832728994254 0.002933429524581361 0.08738128405307698
  endloop
endfacet
facet normal 0.498032 0.867158 -0.000793921
  outer loop
    vertex 0.002223112288264042 0.002014391162056023 0.0887395136656095
    vertex 0.0006215274565716231 0.00293491117765557 0.08949086944752797
    vertex 0.002218750000001526 0.002019194997392086 0.09125000000000001
  endloop
endfacet
facet normal 0.503443 0.864028 0.000778527
  outer loop
    vertex 0.002218750000046293 0.002019194997342895 0.07625000000000001
    vertex 0.0006608122704876458 0.002926316309487572 0.07696329837255492
    vertex 0.002223112288264319 0.002014391162055718 0.07876048633439119
  endloop
endfacet
facet normal -0.0360656 0.998877 -0.0307308
  outer loop
    vertex 0.0006284832728994254 0.002933429524581361 0.08738128405307698
    vertex 0.0008772674113108023 0.002868867701559632 0.08499079159524336
    vertex -0.001039477560192378 0.002814158204837906 0.08546199320400569
  endloop
endfacet
facet normal 0.0174881 0.995773 0.0901721
  outer loop
    vertex 0.001127170403434859 0.002780195475433427 0.09803844974571518
    vertex 0.0003630501081109662 0.002977951413136322 0.09600282093583243
    vertex -0.001080481879332862 0.002798670918209808 0.09826258029649054
  endloop
endfacet
facet normal -0.116447 0.992333 0.041427
  outer loop
    vertex 0.0007320241921508255 0.002909319608105292 0.09369342436633832
    vertex 0.0004408465620136206 0.002967432275345264 0.09148293777926768
    vertex -0.001271011329847657 0.002717449208246383 0.09265913409934212
  endloop
endfacet
facet normal -0.354669 -0.934987 -0.00306352
  outer loop
    vertex -4.757743717653894e-05 -0.00299962270752035 0.07557931402565311
    vertex -6.804189609329812e-05 -0.002999228284138443 0.07782814446648061
    vertex -0.001945297672770328 -0.002283816315800013 0.07681732610209803
  endloop
endfacet
facet normal -0.800252 -0.599475 -0.0150179
  outer loop
    vertex -0.001634504790785829 -0.002515629958658104 0.09375739791626959
    vertex -0.001716978848298463 -0.002460077973255255 0.09593466821443264
    vertex -0.002867979565242976 -0.0008801665827266508 0.09420164026985899
  endloop
endfacet
facet normal -0.675724 0.735577 -0.0482003
  outer loop
    vertex -0.002653621297290128 0.001399390585422189 0.08650026146166365
    vertex -0.001399049674224373 0.002653801049259849 0.08805567850889065
    vertex -0.001039477560192378 0.002814158204837906 0.08546199320400569
  endloop
endfacet
facet normal 0.960694 -0.277611 0
  outer loop
    vertex 0.003 -7.347638122934264e-19 0.07250000000000001
    vertex 0.002537592065064265 -0.001600195772811215 0.07173042139327838
    vertex 0.003 -7.347638122934264e-19 0.07000000000000001
  endloop
endfacet
facet normal 0.960694 0.277611 -0
  outer loop
    vertex 0.003 -7.347638122934264e-19 0.0975
    vertex 0.002537592065064269 0.001600195772811208 0.09826957860672164
    vertex 0.003 -7.347638122934264e-19 0.1
  endloop
endfacet
facet normal 0.500439 0.865761 0.00427016
  outer loop
    vertex 0.0006608122704876458 0.002926316309487572 0.07696329837255492
    vertex 0.0006273994877730244 0.002933661514684703 0.07938987175371366
    vertex 0.002223112288264319 0.002014391162055718 0.07876048633439119
  endloop
endfacet
facet normal -0.302205 0.945911 -0.118003
  outer loop
    vertex 0.0003630501081109662 0.002977951413136322 0.09600282093583243
    vertex -0.001882821785252917 0.002335590316167846 0.09660531684718814
    vertex -0.001080481879332862 0.002798670918209808 0.09826258029649054
  endloop
endfacet
facet normal 0.918636 -0.380511 -0.106395
  outer loop
    vertex 0.003 -7.347638122934264e-19 0.07000000000000001
    vertex 0.002537592065064265 -0.001600195772811215 0.07173042139327838
    vertex 0.002121320343559639 -0.002121320343559647 0.07000000000000001
  endloop
endfacet
facet normal 0.918636 0.380511 0.106395
  outer loop
    vertex 0.003 -7.347638122934264e-19 0.1
    vertex 0.002537592065064269 0.001600195772811208 0.09826957860672164
    vertex 0.002121320343559645 0.00212132034355964 0.1
  endloop
endfacet
facet normal -0.353594 -0.935253 -0.0165143
  outer loop
    vertex -0.001989800926158628 -0.002245148608501956 0.07443697802552443
    vertex 4.701249414690116e-05 -0.002999631614947757 0.07355450910886134
    vertex -4.757743717653894e-05 -0.00299962270752035 0.07557931402565311
  endloop
endfacet
facet normal 0.95657 -0.291503 0
  outer loop
    vertex 0.003 -7.347638122934264e-19 0.1
    vertex 0.002490156870193413 -0.00167305671207779 0.0981761925779896
    vertex 0.003 -7.347638122934264e-19 0.0975
  endloop
endfacet
facet normal 0.961977 0.27313 -0
  outer loop
    vertex 0.003 -7.347638122934264e-19 0.07000000000000001
    vertex 0.002552401258295844 0.001576466877752206 0.07171869818714023
    vertex 0.003 -7.347638122934264e-19 0.07250000000000001
  endloop
endfacet
facet normal -0.121983 0.991539 0.0443919
  outer loop
    vertex -0.001039477560192378 0.002814158204837906 0.08546199320400569
    vertex -0.001399049674224373 0.002653801049259849 0.08805567850889065
    vertex 0.0006284832728994254 0.002933429524581361 0.08738128405307698
  endloop
endfacet
facet normal 0.418045 -0.907037 0.0502136
  outer loop
    vertex 0.002218749999996974 -0.002019194997397089 0.09625
    vertex 3.240050633702668e-05 -0.002999825029429067 0.09673841098620213
    vertex 0.0003589112567954844 -0.002978453073282419 0.09440615344570022
  endloop
endfacet
facet normal 0.919928 -0.381047 0.0923857
  outer loop
    vertex 0.002121320343559639 -0.002121320343559647 0.1
    vertex 0.002490156870193413 -0.00167305671207779 0.0981761925779896
    vertex 0.003 -7.347638122934264e-19 0.1
  endloop
endfacet
facet normal 0.400021 0.90611 0.137648
  outer loop
    vertex 0.001148050297095276 0.002771638597533858 0.07190838859475591
    vertex -3.741461336184748e-05 0.002999766682044953 0.07385176756617695
    vertex 0.002218749999999551 0.002019194997394258 0.07375000000000001
  endloop
endfacet
facet normal 0.918299 0.380372 -0.109743
  outer loop
    vertex 0.002121320343559645 0.00212132034355964 0.07000000000000001
    vertex 0.002552401258295844 0.001576466877752206 0.07171869818714023
    vertex 0.003 -7.347638122934264e-19 0.07000000000000001
  endloop
endfacet
facet normal -0.138608 0.989005 -0.0515373
  outer loop
    vertex -0.00132071957211716 0.002693640624104609 0.09507533008510925
    vertex 0.0003630501081109662 0.002977951413136322 0.09600282093583243
    vertex 0.0007320241921508255 0.002909319608105292 0.09369342436633832
  endloop
endfacet
facet normal -0.70629 0.707327 0.0290367
  outer loop
    vertex -0.001224170124086076 0.002738869749968969 0.09023719889566476
    vertex -0.001399049674224373 0.002653801049259849 0.08805567850889065
    vertex -0.002692673196880065 0.001322690838708612 0.08901508175515548
  endloop
endfacet
facet normal -0.0186668 0.991625 -0.127791
  outer loop
    vertex -0.00124253019996684 0.00273058944225791 0.07193905608882151
    vertex -3.741461336184748e-05 0.002999766682044953 0.07385176756617695
    vertex 0.001148050297095276 0.002771638597533858 0.07190838859475591
  endloop
endfacet
facet normal 0.396936 -0.907128 0.139858
  outer loop
    vertex 0.002218749999999893 -0.002019194997393881 0.07375000000000001
    vertex 4.701249414690116e-05 -0.002999631614947757 0.07355450910886134
    vertex 0.001148050297095263 -0.002771638597533863 0.0719083885947561
  endloop
endfacet
facet normal -0.998483 0.0477152 -0.027469
  outer loop
    vertex -0.002867979565242976 -0.0008801665827266508 0.09420164026985899
    vertex -0.00282460102967297 0.001010756658731663 0.09590949506204013
    vertex -0.002747032934336565 0.001205740460327281 0.09342863504537247
  endloop
endfacet
facet normal -0.9874 0.00686889 -0.158094
  outer loop
    vertex -0.002739823008245029 -0.001222035140039418 0.07205292195297353
    vertex -0.002995703136614822 -0.0001605076860344135 0.07369717815446743
    vertex -0.002764574566112016 0.001164958140194984 0.07231122144566172
  endloop
endfacet
facet normal 0.3801 -0.914959 -0.135551
  outer loop
    vertex 0.001149999961960845 -0.002770830216287179 0.09832659284200987
    vertex 3.240050633702668e-05 -0.002999825029429067 0.09673841098620213
    vertex 0.002218749999996974 -0.002019194997397089 0.09625
  endloop
endfacet
facet normal 0.955844 0.293874 -0
  outer loop
    vertex 0.003 -7.347638122934264e-19 0.09250000000000001
    vertex 0.002481829693355626 0.001685384636567666 0.09375000000000001
    vertex 0.003 -7.347638122934264e-19 0.09500000000000001
  endloop
endfacet
facet normal 0.473315 0.88043 0.0285565
  outer loop
    vertex 0.002218750000001526 0.002019194997392086 0.09125000000000001
    vertex 0.0006215274565716231 0.00293491117765557 0.08949086944752797
    vertex 0.0004408465620136206 0.002967432275345264 0.09148293777926768
  endloop
endfacet
facet normal -0.972071 0.229477 0.0491717
  outer loop
    vertex -0.002539532907533762 0.001597113838006896 0.07451262687458422
    vertex -0.002995703136614822 -0.0001605076860344135 0.07369717815446743
    vertex -0.00296543324915686 -0.0004540987170153468 0.07566572313877797
  endloop
endfacet
facet normal -0.14043 0.990072 0.00604061
  outer loop
    vertex -0.001271011329847657 0.002717449208246383 0.09265913409934212
    vertex 0.0004408465620136206 0.002967432275345264 0.09148293777926768
    vertex -0.001224170124086076 0.002738869749968969 0.09023719889566476
  endloop
endfacet
facet normal 0.944848 -0.318599 -0.0758797
  outer loop
    vertex 0.003 -7.347638122934264e-19 0.0975
    vertex 0.002490156870193413 -0.00167305671207779 0.0981761925779896
    vertex 0.002218749999996974 -0.002019194997397089 0.09625
  endloop
endfacet
facet normal 0.535541 0.844509 -0.000685404
  outer loop
    vertex 0.002223112288264039 0.002014391162056027 0.0837395136656095
    vertex 0.0008772674113108023 0.002868867701559632 0.08499079159524336
    vertex 0.002218750000000397 0.002019194997393328 0.08625000000000001
  endloop
endfacet
facet normal 0.94575 0.313792 -0.0842089
  outer loop
    vertex 0.002218750000000013 0.002019194997393749 0.09625
    vertex 0.002537592065064269 0.001600195772811208 0.09826957860672164
    vertex 0.003 -7.347638122934264e-19 0.0975
  endloop
endfacet
facet normal 0.94575 -0.313792 0.0842089
  outer loop
    vertex 0.002218749999999893 -0.002019194997393881 0.07375000000000001
    vertex 0.002537592065064265 -0.001600195772811215 0.07173042139327838
    vertex 0.003 -7.347638122934264e-19 0.07250000000000001
  endloop
endfacet
facet normal -0.2381 0.961455 0.137526
  outer loop
    vertex -0.00132071957211716 0.002693640624104609 0.09507533008510925
    vertex -0.001882821785252917 0.002335590316167846 0.09660531684718814
    vertex 0.0003630501081109662 0.002977951413136322 0.09600282093583243
  endloop
endfacet
facet normal 0.946074 0.311935 0.0874101
  outer loop
    vertex 0.003 -7.347638122934264e-19 0.07250000000000001
    vertex 0.002552401258295844 0.001576466877752206 0.07171869818714023
    vertex 0.002218749999999551 0.002019194997394258 0.07375000000000001
  endloop
endfacet
facet normal 0.498677 0.866787 0.00103548
  outer loop
    vertex 0.0006284832728994254 0.002933429524581361 0.08738128405307698
    vertex 0.0006215274565716231 0.00293491117765557 0.08949086944752797
    vertex 0.002223112288264042 0.002014391162056023 0.0887395136656095
  endloop
endfacet
facet normal 0.55711 0.830439 6.64508e-12
  outer loop
    vertex 0.002218749999999551 0.002019194997394258 0.07375000000000001
    vertex 0.001026868653393773 0.00281878356187155 0.07522882337069253
    vertex 0.002218750000046293 0.002019194997342895 0.07625000000000001
  endloop
endfacet
facet normal 0.537795 0.843075 0.000684463
  outer loop
    vertex 0.002218749999999547 0.002019194997394262 0.08125
    vertex 0.0008922102963221074 0.00286425571259565 0.08264701128193423
    vertex 0.002223112288264039 0.002014391162056027 0.0837395136656095
  endloop
endfacet
facet normal 0.466563 0.879933 -0.0896521
  outer loop
    vertex 0.002218750000000013 0.002019194997393749 0.09625
    vertex 0.0003630501081109662 0.002977951413136322 0.09600282093583243
    vertex 0.001127170403434859 0.002780195475433427 0.09803844974571518
  endloop
endfacet
facet normal -0.0227278 -0.98811 -0.152058
  outer loop
    vertex 0.001148050297095263 -0.002771638597533863 0.0719083885947561
    vertex 4.701249414690116e-05 -0.002999631614947757 0.07355450910886134
    vertex -0.001200120348178035 -0.00274949288958692 0.07211545581627918
  endloop
endfacet
facet normal -0.0426881 0.999077 0.00471974
  outer loop
    vertex -0.0009280807450357529 0.002852834753485362 0.07814702221057013
    vertex 0.0006608122704876458 0.002926316309487572 0.07696329837255492
    vertex -0.0008864038973689192 0.002866057942667801 0.0757248825547911
  endloop
endfacet
facet normal -0.0547007 0.998497 0.00352463
  outer loop
    vertex -0.0009592814031656681 0.00284249524002073 0.08059189470173567
    vertex 0.0006273994877730244 0.002933661514684703 0.07938987175371366
    vertex -0.0009280807450357529 0.002852834753485362 0.07814702221057013
  endloop
endfacet
facet normal -0.0489458 0.998795 -0.0036973
  outer loop
    vertex -0.0009280807450357529 0.002852834753485362 0.07814702221057013
    vertex 0.0006273994877730244 0.002933661514684703 0.07938987175371366
    vertex 0.0006608122704876458 0.002926316309487572 0.07696329837255492
  endloop
endfacet
facet normal -0.713377 0.700705 0.0102931
  outer loop
    vertex -0.002692673196880065 0.001322690838708612 0.08901508175515548
    vertex -0.001399049674224373 0.002653801049259849 0.08805567850889065
    vertex -0.002653621297290128 0.001399390585422189 0.08650026146166365
  endloop
endfacet
facet normal -0.771539 0.621007 -0.138127
  outer loop
    vertex -0.00282460102967297 0.001010756658731663 0.09590949506204013
    vertex -0.001882821785252917 0.002335590316167846 0.09660531684718814
    vertex -0.00132071957211716 0.002693640624104609 0.09507533008510925
  endloop
endfacet
facet normal -0.27461 -0.960394 -0.0472455
  outer loop
    vertex 0.0003589112567954844 -0.002978453073282419 0.09440615344570022
    vertex 3.240050633702668e-05 -0.002999825029429067 0.09673841098620213
    vertex -0.001716978848298463 -0.002460077973255255 0.09593466821443264
  endloop
endfacet
facet normal 0.385374 0.905258 -0.178868
  outer loop
    vertex -3.741461336184748e-05 0.002999766682044953 0.07385176756617695
    vertex 0.001026868653393773 0.00281878356187155 0.07522882337069253
    vertex 0.002218749999999551 0.002019194997394258 0.07375000000000001
  endloop
endfacet
facet normal -0.70148 0.697864 0.144611
  outer loop
    vertex -0.001080481879332862 0.002798670918209808 0.09826258029649054
    vertex -0.001882821785252917 0.002335590316167846 0.09660531684718814
    vertex -0.002771638597533855 0.001148050297095283 0.09802467483085817
  endloop
endfacet
facet normal 0.636195 -0.769988 0.0487255
  outer loop
    vertex 0.002218749999996974 -0.002019194997397089 0.09625
    vertex 0.002490156870193413 -0.00167305671207779 0.0981761925779896
    vertex 0.001149999961960845 -0.002770830216287179 0.09832659284200987
  endloop
endfacet
facet normal 0.642104 0.76418 -0.0610866
  outer loop
    vertex 0.002218749999999551 0.002019194997394258 0.07375000000000001
    vertex 0.002552401258295844 0.001576466877752206 0.07171869818714023
    vertex 0.001148050297095276 0.002771638597533858 0.07190838859475591
  endloop
endfacet
facet normal 0.639093 -0.766923 -0.0582154
  outer loop
    vertex 0.001148050297095263 -0.002771638597533863 0.0719083885947561
    vertex 0.002537592065064265 -0.001600195772811215 0.07173042139327838
    vertex 0.002218749999999893 -0.002019194997393881 0.07375000000000001
  endloop
endfacet
facet normal 0.634768 0.770399 0.0596193
  outer loop
    vertex 0.001127170403434859 0.002780195475433427 0.09803844974571518
    vertex 0.002537592065064269 0.001600195772811208 0.09826957860672164
    vertex 0.002218750000000013 0.002019194997393749 0.09625
  endloop
endfacet
facet normal 0.537164 0.843476 0.00176496
  outer loop
    vertex 0.002223112288264039 0.002014391162056027 0.0837395136656095
    vertex 0.0008922102963221074 0.00286425571259565 0.08264701128193423
    vertex 0.0008772674113108023 0.002868867701559632 0.08499079159524336
  endloop
endfacet
facet normal -0.0202284 -0.987453 0.156612
  outer loop
    vertex -0.001148050297095281 -0.002771638597533856 0.09802467483085815
    vertex 3.240050633702668e-05 -0.002999825029429067 0.09673841098620213
    vertex 0.001149999961960845 -0.002770830216287179 0.09832659284200987
  endloop
endfacet
facet normal -0.263904 -0.961891 -0.0715524
  outer loop
    vertex -0.001716978848298463 -0.002460077973255255 0.09593466821443264
    vertex 3.240050633702668e-05 -0.002999825029429067 0.09673841098620213
    vertex -0.001148050297095281 -0.002771638597533856 0.09802467483085815
  endloop
endfacet
facet normal 0.628119 -0.775515 -0.0635825
  outer loop
    vertex 0.001149999961960845 -0.002770830216287179 0.09832659284200987
    vertex 0.002490156870193413 -0.00167305671207779 0.0981761925779896
    vertex 0.002121320343559639 -0.002121320343559647 0.1
  endloop
endfacet
facet normal 0.652159 0.754308 0.0755538
  outer loop
    vertex 0.001148050297095276 0.002771638597533858 0.07190838859475591
    vertex 0.002552401258295844 0.001576466877752206 0.07171869818714023
    vertex 0.002121320343559645 0.00212132034355964 0.07000000000000001
  endloop
endfacet
facet normal 0.648265 -0.757972 0.0723196
  outer loop
    vertex 0.002121320343559639 -0.002121320343559647 0.07000000000000001
    vertex 0.002537592065064265 -0.001600195772811215 0.07173042139327838
    vertex 0.001148050297095263 -0.002771638597533863 0.0719083885947561
  endloop
endfacet
facet normal 0.64697 0.759018 -0.0729461
  outer loop
    vertex 0.002121320343559645 0.00212132034355964 0.1
    vertex 0.002537592065064269 0.001600195772811208 0.09826957860672164
    vertex 0.001127170403434859 0.002780195475433427 0.09803844974571518
  endloop
endfacet
facet normal -0.810507 0.585462 -0.0177071
  outer loop
    vertex -0.002771638597533855 0.001148050297095283 0.09802467483085817
    vertex -0.001882821785252917 0.002335590316167846 0.09660531684718814
    vertex -0.00282460102967297 0.001010756658731663 0.09590949506204013
  endloop
endfacet
facet normal 0.0487003 0.994469 0.0930617
  outer loop
    vertex -0.0008864038973689192 0.002866057942667801 0.0757248825547911
    vertex 0.001026868653393773 0.00281878356187155 0.07522882337069253
    vertex -3.741461336184748e-05 0.002999766682044953 0.07385176756617695
  endloop
endfacet
facet normal -0.116275 0.992857 -0.0267549
  outer loop
    vertex 0.0004408465620136206 0.002967432275345264 0.09148293777926768
    vertex 0.0006215274565716231 0.00293491117765557 0.08949086944752797
    vertex -0.001224170124086076 0.002738869749968969 0.09023719889566476
  endloop
endfacet
facet normal 0.00911745 0.998159 -0.059959
  outer loop
    vertex 0.0006608122704876458 0.002926316309487572 0.07696329837255492
    vertex 0.001026868653393773 0.00281878356187155 0.07522882337069253
    vertex -0.0008864038973689192 0.002866057942667801 0.0757248825547911
  endloop
endfacet
facet normal 0.521833 0.851116 0.0573647
  outer loop
    vertex 0.002218750000046293 0.002019194997342895 0.07625000000000001
    vertex 0.001026868653393773 0.00281878356187155 0.07522882337069253
    vertex 0.0006608122704876458 0.002926316309487572 0.07696329837255492
  endloop
endfacet
facet normal -0 0 1
  outer loop
    vertex -0.003 1.901912871984934e-17 0.1
    vertex -0.0005461185577807978 -0.001353239617795884 0.1
    vertex -0.0008062974521905142 0.0003339793400041892 0.1
  endloop
endfacet
facet normal -0 0 1
  outer loop
    vertex -0.002121320343559634 0.002121320343559652 0.1
    vertex 0.0005707207747751516 0.00134304904585238 0.1
    vertex 9.509564359924672e-18 0.003 0.1
  endloop
endfacet
facet normal 0 -0 1
  outer loop
    vertex -0.002121320343559654 -0.002121320343559631 0.1
    vertex -0.0005461185577807978 -0.001353239617795884 0.1
    vertex -0.003 1.901912871984934e-17 0.1
  endloop
endfacet
facet normal 0 -0 1
  outer loop
    vertex -0.0008062974521905142 0.0003339793400041892 0.1
    vertex 0.0005707207747751516 0.00134304904585238 0.1
    vertex -0.002121320343559634 0.002121320343559652 0.1
  endloop
endfacet
facet normal 0 0 1
  outer loop
    vertex 0.002121320343559645 0.00212132034355964 0.1
    vertex 0.0005707207747751516 0.00134304904585238 0.1
    vertex 0.003 -7.347638122934264e-19 0.1
  endloop
endfacet
facet normal 0 0 1
  outer loop
    vertex 0.002121320343559639 -0.002121320343559647 0.1
    vertex -0.0005461185577807978 -0.001353239617795884 0.1
    vertex -8.544678636521197e-18 -0.003 0.1
  endloop
endfacet
facet normal 0 0 1
  outer loop
    vertex 0.003 -7.347638122934264e-19 0.1
    vertex 0.0005707207747751516 0.00134304904585238 0.1
    vertex 0.001089833082607066 -0.0004514236435387259 0.1
  endloop
endfacet
facet normal 0 0 1
  outer loop
    vertex 0.001089833082607066 -0.0004514236435387259 0.1
    vertex -0.0005461185577807978 -0.001353239617795884 0.1
    vertex 0.002121320343559639 -0.002121320343559647 0.1
  endloop
endfacet
facet normal 0 0 1
  outer loop
    vertex -0.003 1.901912871984934e-17 0.1
    vertex -0.0008062974521905142 0.0003339793400041892 0.1
    vertex -0.002121320343559634 0.002121320343559652 0.1
  endloop
endfacet
facet normal 0 0 1
  outer loop
    vertex 0.003 -7.347638122934264e-19 0.1
    vertex 0.001089833082607066 -0.0004514236435387259 0.1
    vertex 0.002121320343559639 -0.002121320343559647 0.1
  endloop
endfacet
facet normal 0 0 1
  outer loop
    vertex -8.544678636521197e-18 -0.003 0.1
    vertex -0.0005461185577807978 -0.001353239617795884 0.1
    vertex -0.002121320343559654 -0.002121320343559631 0.1
  endloop
endfacet
facet normal 0 0 1
  outer loop
    vertex 9.509564359924672e-18 0.003 0.1
    vertex 0.0005707207747751516 0.00134304904585238 0.1
    vertex 0.002121320343559645 0.00212132034355964 0.1
  endloop
endfacet
facet normal 0 0 1
  outer loop
    vertex -0.0008062974521905142 0.0003339793400041892 0.1
    vertex -0.0005461185577807978 -0.001353239617795884 0.1
    vertex 0.001089833082607066 -0.0004514236435387259 0.1
  endloop
endfacet
facet normal 0 0 1
  outer loop
    vertex 0.001089833082607066 -0.0004514236435387259 0.1
    vertex 0.0005707207747751516 0.00134304904585238 0.1
    vertex -0.0008062974521905142 0.0003339793400041892 0.1
  endloop
endfacet
facet normal 0 0 -1
  outer loop
    vertex -0.003 1.901912871984934e-17 0.07000000000000001
    vertex -0.0008062974521905142 0.0003339793400041892 0.07000000000000001
    vertex -0.0005461185577807978 -0.001353239617795884 0.07000000000000001
  endloop
endfacet
facet normal 0 0 -1
  outer loop
    vertex -0.002121320343559634 0.002121320343559652 0.07000000000000001
    vertex 9.509564359924672e-18 0.003 0.07000000000000001
    vertex 0.0005707207747751516 0.00134304904585238 0.07000000000000001
  endloop
endfacet
facet normal 0 0 -1
  outer loop
    vertex -0.002121320343559654 -0.002121320343559631 0.07000000000000001
    vertex -0.003 1.901912871984934e-17 0.07000000000000001
    vertex -0.0005461185577807978 -0.001353239617795884 0.07000000000000001
  endloop
endfacet
facet normal 0 0 -1
  outer loop
    vertex -0.0008062974521905142 0.0003339793400041892 0.07000000000000001
    vertex -0.002121320343559634 0.002121320343559652 0.07000000000000001
    vertex 0.0005707207747751516 0.00134304904585238 0.07000000000000001
  endloop
endfacet
facet normal 0 -0 -1
  outer loop
    vertex 0.002121320343559645 0.00212132034355964 0.07000000000000001
    vertex 0.003 -7.347638122934264e-19 0.07000000000000001
    vertex 0.0005707207747751516 0.00134304904585238 0.07000000000000001
  endloop
endfacet
facet normal -0 0 -1
  outer loop
    vertex 0.002121320343559639 -0.002121320343559647 0.07000000000000001
    vertex -8.544678636521197e-18 -0.003 0.07000000000000001
    vertex -0.0005461185577807978 -0.001353239617795884 0.07000000000000001
  endloop
endfacet
facet normal -0 0 -1
  outer loop
    vertex 0.003 -7.347638122934264e-19 0.07000000000000001
    vertex 0.001089833082607066 -0.0004514236435387259 0.07000000000000001
    vertex 0.0005707207747751516 0.00134304904585238 0.07000000000000001
  endloop
endfacet
facet normal 0 -0 -1
  outer loop
    vertex 0.001089833082607066 -0.0004514236435387259 0.07000000000000001
    vertex 0.002121320343559639 -0.002121320343559647 0.07000000000000001
    vertex -0.0005461185577807978 -0.001353239617795884 0.07000000000000001
  endloop
endfacet
facet normal 0 0 -1
  outer loop
    vertex -0.003 1.901912871984934e-17 0.07000000000000001
    vertex -0.002121320343559634 0.002121320343559652 0.07000000000000001
    vertex -0.0008062974521905142 0.0003339793400041892 0.07000000000000001
  endloop
endfacet
facet normal 0 0 -1
  outer loop
    vertex 0.003 -7.347638122934264e-19 0.07000000000000001
    vertex 0.002121320343559639 -0.002121320343559647 0.07000000000000001
    vertex 0.001089833082607066 -0.0004514236435387259 0.07000000000000001
  endloop
endfacet
facet normal 0 0 -1
  outer loop
    vertex -8.544678636521197e-18 -0.003 0.07000000000000001
    vertex -0.002121320343559654 -0.002121320343559631 0.07000000000000001
    vertex -0.0005461185577807978 -0.001353239617795884 0.07000000000000001
  endloop
endfacet
facet normal 0 0 -1
  outer loop
    vertex 9.509564359924672e-18 0.003 0.07000000000000001
    vertex 0.002121320343559645 0.00212132034355964 0.07000000000000001
    vertex 0.0005707207747751516 0.00134304904585238 0.07000000000000001
  endloop
endfacet
facet normal 0 0 -1
  outer loop
    vertex -0.0008062974521905142 0.0003339793400041892 0.07000000000000001
    vertex 0.001089833082607066 -0.0004514236435387259 0.07000000000000001
    vertex -0.0005461185577807978 -0.001353239617795884 0.07000000000000001
  endloop
endfacet
facet normal 0 0 -1
  outer loop
    vertex 0.001089833082607066 -0.0004514236435387259 0.07000000000000001
    vertex -0.0008062974521905142 0.0003339793400041892 0.07000000000000001
    vertex 0.0005707207747751516 0.00134304904585238 0.07000000000000001
  endloop
endfacet
endsolid Created by Gmsh
