v -0.000590187053 -0.000866230273 0.0726597818
v 2.45699385e-10 6.91137234e-11 -1.01124804e-09
v 0.0123606804 1.48457884e-10 0.00195773819
v 0.0235114109 -3.06572516e-11 0.00763931821
v 0.0331430087 -0.00023890872 0.0151886156
v 0.038766977 -0.000381594308 0.0258840072
v 0.040461918 -0.000535661181 0.0378575018
v 0.0381703459 -0.000729376556 0.0499501865
v 0.0321422381 -0.000902068873 0.0607301676
v 0.0232840057 -0.000994907412 0.0691391853
v 0.0121090994 -0.000982279613 0.074075225
v -2.33040899e-05 -0.0140499092 0.0736663557
v 0.0346779354 0.0109591436 0.02029073
v 0.0257026405 0.0103493123 0.0653529275
v 0.0383169199 0.0103678652 0.0437929962
v 0.0383194716 -0.0116323969 0.0436795979
v 0.0279418682 -0.0112058103 0.0114789932
v 0.00602530256 -0.0107926893 0.00195773839
v 0.0268347053 -0.0118614897 0.0640752785
v 0.00551493059 0.0102583081 0.0740337084
v 0.0113896145 -0.0134265433 0.0724806928
v 0.033752391 0.0106553841 0.0556997983
v 0.0265560113 0.0208789923 0.0582094392
v 0.017730001 0.0201162798 0.0660786115
v 0.0385533136 0.010809191 0.0320258379
v 0.0327289833 0.0210829107 0.0273692682
v 0.00602530236 0.0107926888 0.00195773856
v 0.027335515 0.0207958934 0.0169506132
v 0.0187412135 0.0108997769 0.00638509393
v 0.0121311421 0.0203429005 0.00776644668
v 0.0238047448 0.0297024367 0.0244192883
v 0.02807017 0.0287353241 0.0364678891
v 0.0167712643 0.0278928753 0.0145954185
v 0.0171129703 -0.0105219482 0.00541047859
v 0.0109998934 -0.0214982306 0.00811224975
v 0.0384869314 -0.0114490288 0.0317417571
v 0.0344879374 -0.0217099203 0.0371290556
v 0.0325965847 -0.0215362615 0.0483745408
v 0.0268850129 -0.0303645773 0.0423777514
v 0.0277254797 -0.0292675256 0.0305953427
v 0.0186087419 -0.0364955565 0.0357808222
v 0.0125032137 0.0355536332 0.023181054
v -0.000191616101 0.0222890359 0.0067861127
v -0.00644031703 0.0107092022 0.0020021659
v -0.00163131778 -0.0200015136 0.00539828827
v 0.00287953835 -0.0296988822 0.010831603
v 0.0167233081 0.028953984 0.0585789637
v 0.0167135629 -0.0358767505 0.0476862948
v 0.00741242424 -0.0405111724 0.0405324632
v -0.00978412654 -0.0286868637 0.0110056788
v 0.00506205073 -0.0377570609 0.0519669835
v -0.00462901307 -0.0403488265 0.0445900702
v -0.00685982949 -0.0357127601 0.0558427144
v -0.0139237075 -0.0172534857 0.00670663996
v 0.00707621516 0.027393767 0.0649095144
v 0.00567099474 0.0345116138 0.0561618623
v -0.0162333946 -0.0363135254 0.0476701958
v -0.0129863369 0.0211766732 0.00864870423
v -0.0179821868 -0.0300673562 0.058252374
v -0.00461385489 0.0311591841 0.0613967439
v -0.02653209 -0.0291658209 0.0493610374
v -0.0270786627 -0.0212938649 0.0588984244
v -0.0344920486 -0.0191630043 0.0493233563
v -0.0336341792 -0.0106824195 0.0576361084
v -0.0395734694 -0.00614698373 0.0460131179
v -0.00589940834 0.0369882073 0.051549342
v -0.0159215594 0.0313219178 0.0563562301
v -0.016850757 0.0358294743 0.0451027124
v -0.0214431859 -0.0233280338 0.0123863005
v -0.0153083536 0.0249275189 0.0642340066
v -0.0256603225 -0.0115946943 0.0092297002
v -0.0259460169 0.0286320559 0.0493777938
v -0.0255667807 0.0314773253 0.0373359419
v -0.0315796244 -0.0171107384 0.0178186399
v -0.0332997449 -0.00517686449 0.0148771487
v -0.033532932 0.0228043011 0.0409830604
v -0.0319311248 0.0241377592 0.0295733347
v -0.0180068874 -0.0330056321 0.0208590253
v -0.0145105062 0.0374942362 0.0329609493
v -0.0333758269 0.0182102639 0.0514401141
v -0.038274518 0.0142134526 0.0333596796
v -0.0247054981 -0.0117643297 0.0665778094
v -0.00623457707 0.0308921483 0.013518187
v -0.00795716216 -0.0278914424 0.0652403311
v -0.0323943624 -0.0257081569 0.0387758153
v -0.0296399525 -0.000280550856 0.064361451
v -0.019877589 -0.00157912562 0.071536533
v 0.00459387674 0.0392193572 0.0448978435
v 0.0139165414 -0.0313433829 0.0586443219
v -0.0383686254 -0.00790661944 0.0245691788
v -0.0183134777 0.00920714412 0.00565112469
v -0.0241817082 0.0181728044 0.0117651926
v -0.0342981087 0.0145052691 0.02070471
v -0.00154357473 -0.0407569846 0.030672215
v 0.0150290618 -0.0294856653 0.0145574613
v -0.029534804 0.00636656963 0.011078484
v -0.0116733886 -0.000655211788 0.00174685922
v -0.0135643488 -0.0128123492 0.0720312018
v 0.00646569938 -0.0365579586 0.0203392684
v -0.0235610114 0.00977921068 0.0677933335
v -0.012298659 0.00858126687 0.0733169835
v 0.024072365 0.0296174087 0.0490053991
v -0.00371737546 0.0139489092 0.0732592387
v -0.0395100333 0.00413746303 0.0273471666
v -0.0408092203 0.00448924121 0.038851526
v 0.0345392342 -0.0117413607 0.0542085442
v 0.0212356576 -0.0201748952 0.0106396781
v 0.026439678 -0.0247098115 0.0190206076
v 0.0349242733 -0.0108889074 0.0201741898
v 0.0181539904 -0.0344199202 0.0247417717
v 0.0173646144 0.00775739706 0.0714139507
v -0.0343320294 -0.0209797051 0.027960586
v -0.0389392361 -0.0136508941 0.0365177257
v -0.0383018885 0.00585168662 0.050165687
v -0.026888992 -0.0305055868 0.0295906019
v 0.0271920671 0.0102311941 0.0110425481
v 0.0328189722 0.0201083415 0.0482246552
v 0.0180295216 0.0357041503 0.0407818911
v 0.00580423997 0.0318626204 0.0145182692
v -0.000724368983 0.0380608581 0.0242200469
v -0.0124944014 0.0348132792 0.0215749492
v -0.00274484866 0.0400622722 0.0354377628
v 0.00878218417 0.03889486 0.033505927
v -0.0225974384 0.031606891 0.0259092326
v -0.0179486227 0.0283507564 0.0158957694
v -0.00500380559 -0.0362567622 0.0192227367
v 0.0237384103 -0.0284721063 0.0535792414
v 0.020620168 -0.0213284049 0.0640518113
v 0.00872422904 -0.0246482914 0.0674088122
v 0.00305198496 -0.0332968856 0.0601737099
v -0.0010563745 -0.0214012069 0.0705210994
v -0.00405015668 0.0237788128 0.0683534131
v 0.0101639791 -0.0391983289 0.0302776701
v -0.0254506499 0.0231914399 0.058047165
v -0.0133674313 -0.0392555591 0.036835739
v -0.0194718023 -0.0216784095 0.0651682346
v -0.0128271446 -0.001165757 0.0738394016
v 0.0354746436 0.0189992393 0.0376343373
v 0.0338810597 -0.0204727158 0.0277015508
v -0.0233924355 -0.0341173569 0.0387114371
v -0.00635163914 -0.00907876679 0.00156521352
v -0.0313944516 0.0103954575 0.0603428153
v -0.0207499775 -0.000433769821 0.00580569597
v -0.0114786361 -0.0383411977 0.0267386993
v -0.0275049437 0.024295744 0.0202205035
v 0.0287302691 -0.0200116889 0.0571469519
v -0.0380736137 0.0134578635 0.0431383107
v 0.0143727938 0.0347882212 0.0506247399
v -0.0269887322 -0.0259117304 0.020681055
v 0.0186793036 0.0350222552 0.0311322669
v 0.00797737177 0.019393855 0.0701968141
v -0.0358375115 0.00396017479 0.018248918
v 0.0210577824 0.0184114157 0.0102634977
v -0.0356941751 -0.000739079588 0.0568632665
v 0.020271716 -0.00930431274 0.0698870292
v -0.0408192346 -0.00423234575 0.0339666325
v -0.0282166167 -0.00211280018 0.00959149046
v -0.00783424289 0.0391025823 0.0430617021
v -0.0168965516 -0.00861180978 0.00478149092
v -0.0191649255 -0.0360845774 0.0303996211
v -0.01605396 0.0161920149 0.0695174743
v -0.0224378455 0.0176583663 0.0650614298
f 39 127 48
f 64 86 154
f 66 158 68
f 80 142 134
f 97 159 143
f 64 154 65
f 115 160 140
f 134 142 162
f 71 157 143
f 66 68 67
f 24 151 111
f 68 158 79
f 71 143 159
f 5 116 13
f 38 127 39
f 63 64 65
f 86 142 154
f 28 153 33
f 74 90 75
f 27 30 29
f 102 118 148
f 114 154 142
f 38 146 127
f 103 151 132
f 70 162 161
f 61 85 140
f 135 140 160
f 71 75 157
f 19 146 106
f 70 134 162
f 78 144 160
f 80 114 142
f 80 147 114
f 61 62 63
f 135 160 144
f 17 108 107
f 29 30 153
f 4 116 5
f 49 52 94
f 70 161 132
f 65 105 156
f 12 98 131
f 30 33 153
f 48 127 89
f 75 96 157
f 65 154 114
f 60 66 67
f 81 105 147
f 16 106 38
f 71 74 75
f 67 134 70
f 76 81 147
f 34 107 35
f 103 132 161
f 13 116 28
f 38 106 146
f 28 116 153
f 95 110 99
f 43 44 58
f 66 88 158
f 94 135 144
f 48 51 49
f 29 153 116
f 2 18 141
f 88 148 118
f 62 64 63
f 77 124 145
f 52 135 94
f 54 71 159
f 5 13 6
f 62 82 64
f 57 140 135
f 79 121 124
f 58 125 83
f 14 23 24
f 23 102 47
f 105 114 147
f 67 72 134
f 59 136 62
f 60 67 70
f 85 115 140
f 7 16 36
f 49 51 52
f 56 88 66
f 121 125 124
f 60 70 132
f 6 25 7
f 16 38 37
f 65 114 105
f 95 107 108
f 35 107 95
f 18 35 45
f 2 141 97
f 18 34 35
f 67 68 72
f 97 141 159
f 79 158 122
f 108 109 139
f 124 125 145
f 9 19 106
f 16 37 36
f 17 109 108
f 73 79 124
f 100 162 142
f 84 98 136
f 74 112 90
f 84 131 98
f 54 69 71
f 79 120 121
f 94 99 133
f 59 62 61
f 82 87 86
f 22 117 23
f 20 111 151
f 62 136 82
f 65 156 113
f 73 124 77
f 56 66 60
f 61 63 85
f 76 147 80
f 76 77 81
f 32 102 117
f 82 98 87
f 57 61 140
f 48 89 51
f 10 11 155
f 2 3 18
f 112 149 115
f 20 151 103
f 28 33 31
f 82 136 98
f 101 137 103
f 127 146 128
f 27 43 30
f 1 20 137
f 2 27 3
f 27 44 43
f 89 127 128
f 104 156 105
f 79 122 120
f 77 145 93
f 23 47 24
f 84 130 129
f 10 111 11
f 32 118 102
f 14 24 111
f 14 22 23
f 88 122 158
f 5 109 17
f 32 117 138
f 4 5 17
f 3 27 29
f 75 152 96
f 49 94 133
f 55 132 151
f 88 118 123
f 6 13 25
f 51 53 52
f 26 28 31
f 23 117 102
f 101 103 161
f 41 48 49
f 44 97 91
f 8 9 106
f 74 149 112
f 94 144 126
f 78 160 115
f 68 79 73
f 4 29 116
f 83 121 120
f 13 28 26
f 90 156 104
f 33 119 42
f 51 130 53
f 8 106 16
f 15 138 117
f 86 100 142
f 2 97 44
f 1 21 11
f 90 113 156
f 56 148 88
f 40 110 108
f 50 69 54
f 17 107 34
f 7 25 15
f 42 120 123
f 58 92 125
f 75 90 152
f 84 129 131
f 40 41 110
f 47 102 148
f 99 110 133
f 63 65 113
f 78 126 144
f 69 74 71
f 46 95 99
f 91 97 143
f 55 60 132
f 89 129 130
f 6 7 36
f 52 57 135
f 12 137 98
f 96 143 157
f 1 137 12
f 118 150 123
f 39 41 40
f 72 80 134
f 11 111 20
f 51 89 130
f 42 119 120
f 92 96 93
f 81 104 105
f 45 46 50
f 15 117 22
f 88 123 122
f 2 44 27
f 37 38 39
f 43 58 83
f 18 45 141
f 10 155 19
f 85 112 115
f 86 87 100
f 59 84 136
f 100 161 162
f 53 130 84
f 90 112 113
f 31 33 42
f 42 123 150
f 36 37 139
f 54 159 141
f 94 126 99
f 120 122 123
f 5 6 109
f 41 49 133
f 8 22 9
f 44 91 58
f 77 93 81
f 7 8 16
f 9 10 19
f 87 101 100
f 20 103 137
f 1 12 21
f 68 73 72
f 78 115 149
f 63 113 85
f 90 104 152
f 30 119 33
f 72 76 80
f 15 25 138
f 24 55 151
f 50 126 78
f 41 133 110
f 12 131 21
f 45 50 54
f 73 77 76
f 3 29 4
f 100 101 161
f 21 131 129
f 55 56 60
f 89 128 129
f 1 11 20
f 83 120 119
f 57 59 61
f 19 128 146
f 11 21 155
f 3 34 18
f 40 108 139
f 26 31 32
f 69 149 74
f 13 26 25
f 9 22 14
f 26 32 138
f 8 15 22
f 45 54 141
f 6 36 109
f 24 47 55
f 30 43 119
f 87 98 137
f 50 78 69
f 4 17 34
f 91 143 96
f 93 96 152
f 85 113 112
f 7 15 8
f 72 73 76
f 32 150 118
f 52 53 57
f 10 14 111
f 37 39 40
f 9 14 10
f 31 42 150
f 3 4 34
f 43 83 119
f 46 99 126
f 81 93 104
f 58 91 92
f 47 148 56
f 46 126 50
f 25 26 138
f 69 78 149
f 53 59 57
f 53 84 59
f 91 96 92
f 47 56 55
f 31 150 32
f 37 40 139
f 87 137 101
f 93 152 104
f 19 155 128
f 21 128 155
f 21 129 128
f 39 48 41
f 64 82 86
f 95 108 110
f 35 95 46
f 83 125 121
f 36 139 109
f 92 145 125
f 35 46 45
f 92 93 145
