v -2.500000 0.500000 0
v -2.500000 0.450000 0
v -2.500000 0.400000 0
v -2.500000 0.350000 0
v -2.500000 0.300000 0
v -2.500000 0.250000 0
v -2.500000 0.200000 0
v -2.500000 0.150000 0
v -2.500000 0.100000 0
v -2.500000 0.050000 0
v -2.500000 0.000000 0
v -2.500000 -0.050000 0
v -2.500000 -0.100000 0
v -2.500000 -0.150000 0
v -2.500000 -0.200000 0
v -2.500000 -0.250000 0
v -2.500000 -0.300000 0
v -2.500000 -0.350000 0
v -2.500000 -0.400000 0
v -2.500000 -0.450000 0
v -2.500000 -0.500000 0
v -2.450000 -0.500000 0
v -2.400000 -0.500000 0
v -2.350000 -0.500000 0
v -2.300000 -0.500000 0
v -2.250000 -0.500000 0
v -2.200000 -0.500000 0
v -2.150000 -0.500000 0
v -2.100000 -0.500000 0
v -2.050000 -0.500000 0
v -2.000000 -0.500000 0
v -1.950000 -0.500000 0
v -1.900000 -0.500000 0
v -1.850000 -0.500000 0
v -1.800000 -0.500000 0
v -1.750000 -0.500000 0
v -1.700000 -0.500000 0
v -1.650000 -0.500000 0
v -1.600000 -0.500000 0
v -1.550000 -0.500000 0
v -1.500000 -0.500000 0
v -1.450000 -0.500000 0
v -1.400000 -0.500000 0
v -1.350000 -0.500000 0
v -1.300000 -0.500000 0
v -1.250000 -0.500000 0
v -1.200000 -0.500000 0
v -1.150000 -0.500000 0
v -1.100000 -0.500000 0
v -1.050000 -0.500000 0
v -1.000000 -0.500000 0
v -0.950000 -0.500000 0
v -0.900000 -0.500000 0
v -0.850000 -0.500000 0
v -0.800000 -0.500000 0
v -0.750000 -0.500000 0
v -0.700000 -0.500000 0
v -0.650000 -0.500000 0
v -0.600000 -0.500000 0
v -0.550000 -0.500000 0
v -0.500000 -0.500000 0
v -0.450000 -0.500000 0
v -0.400000 -0.500000 0
v -0.350000 -0.500000 0
v -0.300000 -0.500000 0
v -0.250000 -0.500000 0
v -0.200000 -0.500000 0
v -0.150000 -0.500000 0
v -0.100000 -0.500000 0
v -0.050000 -0.500000 0
v 0.000000 -0.500000 0
v 0.050000 -0.500000 0
v 0.100000 -0.500000 0
v 0.150000 -0.500000 0
v 0.200000 -0.500000 0
v 0.250000 -0.500000 0
v 0.300000 -0.500000 0
v 0.350000 -0.500000 0
v 0.400000 -0.500000 0
v 0.450000 -0.500000 0
v 0.500000 -0.500000 0
v 0.550000 -0.500000 0
v 0.600000 -0.500000 0
v 0.650000 -0.500000 0
v 0.700000 -0.500000 0
v 0.750000 -0.500000 0
v 0.800000 -0.500000 0
v 0.850000 -0.500000 0
v 0.900000 -0.500000 0
v 0.950000 -0.500000 0
v 1.000000 -0.500000 0
v 1.050000 -0.500000 0
v 1.100000 -0.500000 0
v 1.150000 -0.500000 0
v 1.200000 -0.500000 0
v 1.250000 -0.500000 0
v 1.300000 -0.500000 0
v 1.350000 -0.500000 0
v 1.400000 -0.500000 0
v 1.450000 -0.500000 0
v 1.500000 -0.500000 0
v 1.550000 -0.500000 0
v 1.600000 -0.500000 0
v 1.650000 -0.500000 0
v 1.700000 -0.500000 0
v 1.750000 -0.500000 0
v 1.800000 -0.500000 0
v 1.850000 -0.500000 0
v 1.900000 -0.500000 0
v 1.950000 -0.500000 0
v 2.000000 -0.500000 0
v 2.050000 -0.500000 0
v 2.100000 -0.500000 0
v 2.150000 -0.500000 0
v 2.200000 -0.500000 0
v 2.250000 -0.500000 0
v 2.300000 -0.500000 0
v 2.350000 -0.500000 0
v 2.400000 -0.500000 0
v 2.450000 -0.500000 0
v 2.500000 -0.500000 0
v 2.500000 -0.450000 0
v 2.500000 -0.400000 0
v 2.500000 -0.350000 0
v 2.500000 -0.300000 0
v 2.500000 -0.250000 0
v 2.500000 -0.200000 0
v 2.500000 -0.150000 0
v 2.500000 -0.100000 0
v 2.500000 -0.050000 0
v 2.500000 0.000000 0
v 2.500000 0.050000 0
v 2.500000 0.100000 0
v 2.500000 0.150000 0
v 2.500000 0.200000 0
v 2.500000 0.250000 0
v 2.500000 0.300000 0
v 2.500000 0.350000 0
v 2.500000 0.400000 0
v 2.500000 0.450000 0
v 2.500000 0.500000 0
v 2.450000 0.500000 0
v 2.400000 0.500000 0
v 2.350000 0.500000 0
v 2.300000 0.500000 0
v 2.250000 0.500000 0
v 2.200000 0.500000 0
v 2.150000 0.500000 0
v 2.100000 0.500000 0
v 2.050000 0.500000 0
v 2.000000 0.500000 0
v 1.950000 0.500000 0
v 1.900000 0.500000 0
v 1.850000 0.500000 0
v 1.800000 0.500000 0
v 1.750000 0.500000 0
v 1.700000 0.500000 0
v 1.650000 0.500000 0
v 1.600000 0.500000 0
v 1.550000 0.500000 0
v 1.500000 0.500000 0
v 1.450000 0.500000 0
v 1.400000 0.500000 0
v 1.350000 0.500000 0
v 1.300000 0.500000 0
v 1.250000 0.500000 0
v 1.200000 0.500000 0
v 1.150000 0.500000 0
v 1.100000 0.500000 0
v 1.050000 0.500000 0
v 1.000000 0.500000 0
v 0.950000 0.500000 0
v 0.900000 0.500000 0
v 0.850000 0.500000 0
v 0.800000 0.500000 0
v 0.750000 0.500000 0
v 0.700000 0.500000 0
v 0.650000 0.500000 0
v 0.600000 0.500000 0
v 0.550000 0.500000 0
v 0.500000 0.500000 0
v 0.450000 0.500000 0
v 0.400000 0.500000 0
v 0.350000 0.500000 0
v 0.300000 0.500000 0
v 0.250000 0.500000 0
v 0.200000 0.500000 0
v 0.150000 0.500000 0
v 0.100000 0.500000 0
v 0.050000 0.500000 0
v 0.000000 0.500000 0
v -0.050000 0.500000 0
v -0.100000 0.500000 0
v -0.150000 0.500000 0
v -0.200000 0.500000 0
v -0.250000 0.500000 0
v -0.300000 0.500000 0
v -0.350000 0.500000 0
v -0.400000 0.500000 0
v -0.450000 0.500000 0
v -0.500000 0.500000 0
v -0.550000 0.500000 0
v -0.600000 0.500000 0
v -0.650000 0.500000 0
v -0.700000 0.500000 0
v -0.750000 0.500000 0
v -0.800000 0.500000 0
v -0.850000 0.500000 0
v -0.900000 0.500000 0
v -0.950000 0.500000 0
v -1.000000 0.500000 0
v -1.050000 0.500000 0
v -1.100000 0.500000 0
v -1.150000 0.500000 0
v -1.200000 0.500000 0
v -1.250000 0.500000 0
v -1.300000 0.500000 0
v -1.350000 0.500000 0
v -1.400000 0.500000 0
v -1.450000 0.500000 0
v -1.500000 0.500000 0
v -1.550000 0.500000 0
v -1.600000 0.500000 0
v -1.650000 0.500000 0
v -1.700000 0.500000 0
v -1.750000 0.500000 0
v -1.800000 0.500000 0
v -1.850000 0.500000 0
v -1.900000 0.500000 0
v -1.950000 0.500000 0
v -2.000000 0.500000 0
v -2.050000 0.500000 0
v -2.100000 0.500000 0
v -2.150000 0.500000 0
v -2.200000 0.500000 0
v -2.250000 0.500000 0
v -2.300000 0.500000 0
v -2.350000 0.500000 0
v -2.400000 0.500000 0
v -2.450000 0.500000 0
v -0.527947 -0.000135 0
v 1.530744 0.000343 0
v -1.559513 -0.000081 0
v 0.089345 0.000185 0
v 0.735077 0.000370 0
v -1.046775 0.003609 0
v 2.016495 -0.020974 0
v -2.032477 0.004312 0
v 1.135789 -0.082808 0
v 0.411798 0.146834 0
v -0.222678 -0.143039 0
v 0.416623 -0.178974 0
v -0.192288 0.175217 0
v -0.790154 -0.180605 0
v -1.308739 0.188647 0
v -0.785944 0.190940 0
v -1.301026 -0.171760 0
v 0.976390 0.192101 0
v 1.282795 0.195088 0
v -1.806862 -0.197650 0
v 1.763033 0.192677 0
v -1.786256 0.204195 0
v 1.758053 -0.206381 0
v 2.198244 0.206142 0
v 2.219210 -0.220453 0
v -2.218304 -0.220978 0
v -2.199369 0.222772 0
v 0.878108 -0.229951 0
v 1.377769 -0.235207 0
v 0.140795 -0.247271 0
v -0.438861 0.236386 0
v -1.044153 -0.248676 0
v -0.463674 -0.242648 0
v 0.682291 0.250421 0
v 0.067144 0.248905 0
v -1.039022 0.247257 0
v -1.553309 -0.257489 0
v -1.544450 0.242557 0
v 1.527241 0.245817 0
v 0.644378 -0.242963 0
v -2.262369 -0.001852 0
v 1.985920 -0.241352 0
v 1.975308 0.257469 0
v 2.277184 -0.000821 0
v -2.010149 -0.287398 0
v -1.982975 0.279269 0
v -0.072898 -0.288461 0
v 1.095040 -0.294071 0
v 0.938584 -0.015185 0
v 0.265414 0.292118 0
v 1.809605 -0.010683 0
v 0.530927 -0.011682 0
v -0.625150 0.303646 0
v -0.321625 0.026295 0
v 0.287507 -0.004819 0
v 1.321439 0.003487 0
v -1.798185 0.009737 0
v 1.574239 -0.265008 0
v -1.238660 0.010789 0
v -0.732737 -0.000361 0
v 1.135285 0.315469 0
v -0.293093 -0.315657 0
v 0.489874 0.317646 0
v -0.092701 -0.005290 0
v -0.640462 -0.320682 0
v -1.205676 -0.324607 0
v 1.131516 0.106676 0
v -0.090372 0.322212 0
v 0.850309 0.326454 0
v -0.282336 0.329756 0
v -0.892667 -0.329082 0
v -1.396122 -0.317286 0
v 0.341107 -0.332504 0
v 1.378486 0.332437 0
v 2.319008 0.335106 0
v -0.891144 0.058155 0
v 0.818281 0.146230 0
v -1.185970 0.336095 0
v -0.631653 0.128593 0
v -0.884963 0.320337 0
v -1.402930 0.041450 0
v -2.333787 0.311826 0
v -1.678189 0.330829 0
v -1.708571 -0.340265 0
v 1.685325 0.331926 0
v 1.849429 -0.337026 0
v -1.659954 -0.123889 0
v 0.177703 0.132538 0
v -2.335222 -0.341649 0
v 1.249485 -0.341121 0
v 2.115438 -0.342850 0
v 0.013146 -0.138057 0
v -0.948800 -0.120131 0
v -1.405869 0.342346 0
v 2.112763 0.344415 0
v 2.346546 -0.324197 0
v -0.595028 -0.139922 0
v 0.519092 -0.346171 0
v 1.419686 0.124985 0
v 2.063798 0.124806 0
v 0.564806 0.143043 0
v -1.153728 -0.131001 0
v 0.780591 -0.347443 0
v 1.900973 0.111230 0
v -1.671743 0.103759 0
v 2.349496 0.171381 0
v -2.087446 -0.143736 0
v -2.117309 0.350036 0
v -2.350233 0.136797 0
v 1.673163 0.072208 0
v 1.629537 -0.125331 0
v -1.444923 -0.128811 0
v 1.856221 0.350100 0
v 1.699840 -0.347918 0
v 0.266199 -0.165530 0
v -0.019699 0.127213 0
v -1.935301 0.117719 0
v -0.378364 -0.111687 0
v -1.862225 -0.352135 0
v 1.014068 -0.166305 0
v -2.339116 -0.138309 0
v -1.128459 0.124117 0
v -1.934552 -0.127958 0
v 2.357457 -0.173806 0
v 0.992197 0.349722 0
v 1.906740 -0.121606 0
v 2.098207 -0.138752 0
v -2.082653 0.140870 0
v -2.157508 -0.358480 0
v 1.419727 -0.098230 0
v 1.253960 -0.158774 0
v 1.450140 -0.359902 0
v -1.861521 0.347084 0
v 0.749093 -0.154764 0
v 0.043530 -0.358998 0
v 0.148579 0.361299 0
v -0.498002 0.365521 0
v 0.972962 -0.349257 0
v 0.618254 0.368283 0
v 0.212638 -0.370385 0
v 0.563382 -0.137668 0
v -0.428363 -0.372338 0
v -0.914390 0.186990 0
v -0.754664 0.315109 0
v 1.504927 0.373276 0
v -0.344849 0.151343 0
v 0.692974 0.124239 0
v -0.765315 -0.313901 0
v -1.454801 0.155759 0
v 1.251637 0.358469 0
v 0.379392 0.372792 0
v 2.168672 0.058095 0
v -1.078576 -0.367005 0
v 1.986238 -0.377678 0
v 2.236300 -0.377864 0
v -1.570915 -0.379389 0
v -0.841140 -0.057061 0
v -0.176313 -0.353743 0
v 0.407395 -0.028873 0
v -0.992616 0.376705 0
v -0.457971 0.099029 0
v 0.027578 0.370414 0
v 0.739170 0.375945 0
v 1.560024 0.117582 0
v 0.167769 -0.096239 0
v -0.211250 -0.020640 0
v 0.291006 0.170542 0
v -1.537000 0.381696 0
v -0.106272 -0.165124 0
v -2.190949 0.093785 0
v 2.211788 -0.103646 0
v 1.984254 0.374009 0
v 1.052662 0.001944 0
v -2.230056 0.373717 0
v -2.387606 0.027220 0
v -1.349013 -0.066287 0
v 2.385784 0.046934 0
v -1.013232 0.129918 0
v -1.290763 0.380964 0
v 0.383297 0.256913 0
v -0.551204 0.217274 0
v 1.652774 0.220352 0
v 1.486709 -0.189451 0
v -2.189873 -0.095822 0
v 0.830008 -0.058726 0
v -1.680765 -0.007453 0
v -2.009496 0.388946 0
v -1.909084 0.000654 0
v 1.246031 0.084351 0
v -0.897777 -0.218694 0
v -0.488961 -0.109793 0
v 2.217882 0.377599 0
v 0.619295 -0.390589 0
v -0.684849 -0.210918 0
v 0.637102 -0.047968 0
v 1.579373 -0.373848 0
v -1.173314 0.228240 0
v -0.382282 0.369921 0
v -0.541560 -0.392619 0
v -0.326029 -0.213267 0
v -1.678607 -0.237036 0
v 1.690272 -0.033868 0
v -1.294736 -0.393334 0
v 1.871475 0.234573 0
v 0.921462 0.101505 0
v 2.262693 0.111253 0
v -0.975992 -0.393943 0
v -1.558580 0.137447 0
v -1.994779 -0.394941 0
v 1.151865 -0.186745 0
v -2.092968 0.247890 0
v 1.427498 0.018206 0
v 1.422187 0.229338 0
v 1.219099 -0.017051 0
v -0.082983 0.218694 0
v -2.396724 -0.240412 0
v 2.360819 -0.061611 0
v -1.838737 -0.085304 0
v -0.155299 0.076918 0
v 1.858508 -0.230467 0
v -1.149061 -0.238212 0
v -2.148148 -0.000168 0
v -0.719308 -0.102588 0
v 1.170639 0.218896 0
v -1.094686 0.389054 0
v -1.643691 0.215853 0
v 1.778566 0.087242 0
v -1.885658 0.246796 0
v -0.665674 0.398967 0
v -0.190805 0.375019 0
v -0.080627 -0.399824 0
v 1.122453 -0.400609 0
v -1.556162 -0.155804 0
v -2.392661 0.394732 0
v 0.618685 0.055581 0
v -1.894885 -0.247219 0
v 0.516816 -0.245228 0
v 0.416357 -0.399641 0
v 0.581269 0.242234 0
v -1.456627 -0.397365 0
v -0.690355 0.221516 0
v -0.728527 0.102771 0
v -0.197106 -0.255751 0
v 1.350539 -0.353877 0
v 0.906301 -0.134234 0
v 0.477615 0.072585 0
v 0.876568 -0.372709 0
v 0.270958 0.391070 0
v 0.079136 0.122691 0
v 1.073894 0.237748 0
v -0.634583 -0.007411 0
v 0.341891 0.077030 0
v -0.577364 -0.245434 0
v 0.184830 0.022737 0
v 2.090722 0.249098 0
v 0.164958 0.229517 0
v -1.452494 -0.226254 0
v 0.475290 0.220989 0
v 1.803315 -0.119896 0
v 1.034107 0.102306 0
f 273 358 431
f 287 409 483
f 409 251 483
f 480 312 277
f 257 342 299
f 461 342 257
f 497 312 257
f 352 497 257
f 312 497 277
f 416 257 299
f 416 352 257
f 441 327 260
f 497 473 277
f 473 497 352
f 473 441 277
f 441 473 327
f 473 352 243
f 327 473 243
f 327 458 260
f 458 363 260
f 363 458 428
f 458 297 428
f 324 441 260
f 441 324 277
f 406 358 251
f 409 406 251
f 440 358 273
f 251 440 483
f 358 440 251
f 406 304 459
f 304 406 409
f 192 402 191
f 358 241 431
f 336 364 265
f 364 336 126
f 332 409 287
f 270 332 287
f 304 332 244
f 332 304 409
f 471 375 287
f 375 270 287
f 375 471 71
f 391 420 303
f 420 391 290
f 10 11 415
f 9 10 415
f 347 285 363
f 285 347 266
f 329 369 266
f 369 285 266
f 285 369 449
f 361 281 415
f 410 281 462
f 14 456 361
f 456 329 266
f 361 456 266
f 480 443 312
f 443 480 43
f 396 480 277
f 324 396 277
f 396 41 480
f 362 255 299
f 362 437 255
f 246 342 333
f 362 246 418
f 342 246 299
f 246 362 299
f 426 345 297
f 458 426 297
f 426 458 327
f 426 327 243
f 345 426 243
f 359 449 33
f 359 324 260
f 359 285 449
f 396 38 39
f 38 396 324
f 493 273 431
f 439 305 58
f 493 439 273
f 439 493 305
f 233 234 348
f 194 195 470
f 195 196 470
f 402 190 191
f 189 190 402
f 376 189 402
f 290 376 496
f 376 275 496
f 275 376 402
f 193 194 470
f 489 328 496
f 275 489 496
f 494 489 244
f 489 494 328
f 356 489 275
f 304 356 459
f 356 304 244
f 489 356 244
f 455 356 275
f 356 455 459
f 294 406 459
f 406 294 358
f 294 386 401
f 294 241 358
f 241 294 401
f 316 246 333
f 246 316 418
f 438 197 198
f 319 241 401
f 207 320 384
f 394 331 282
f 112 331 394
f 367 331 265
f 331 367 282
f 135 136 346
f 417 133 346
f 446 417 346
f 417 446 284
f 364 411 265
f 411 367 265
f 404 279 339
f 279 453 339
f 385 163 314
f 453 385 314
f 385 453 279
f 478 338 313
f 338 477 313
f 280 338 433
f 338 280 477
f 79 80 478
f 472 288 378
f 288 330 450
f 330 288 472
f 391 488 290
f 488 376 290
f 182 391 303
f 349 9 415
f 349 410 267
f 7 349 6
f 281 349 415
f 349 281 410
f 234 414 348
f 474 414 237
f 414 267 348
f 4 474 3
f 474 2 3
f 297 357 428
f 410 368 267
f 368 357 286
f 368 410 462
f 30 31 449
f 369 26 27
f 26 369 329
f 23 24 329
f 29 30 449
f 369 29 449
f 11 12 415
f 12 361 415
f 281 424 462
f 347 424 266
f 424 347 462
f 424 361 266
f 424 281 361
f 17 456 16
f 17 18 329
f 456 17 329
f 456 15 16
f 15 456 14
f 334 389 255
f 448 345 243
f 345 448 466
f 352 321 243
f 416 321 352
f 321 448 243
f 448 321 389
f 321 416 299
f 255 321 299
f 389 321 255
f 443 45 46
f 480 42 43
f 41 42 480
f 40 396 39
f 40 41 396
f 306 393 461
f 306 461 257
f 312 306 257
f 443 306 312
f 393 272 461
f 342 272 333
f 272 342 461
f 34 359 33
f 476 359 260
f 359 476 285
f 363 476 260
f 285 476 363
f 37 324 36
f 37 38 324
f 471 70 71
f 398 68 471
f 398 287 483
f 398 471 287
f 319 491 241
f 439 382 273
f 61 382 439
f 376 188 189
f 308 193 470
f 193 308 192
f 192 308 402
f 308 275 402
f 308 455 275
f 455 253 459
f 253 294 459
f 294 253 386
f 253 308 470
f 308 253 455
f 293 469 384
f 386 271 401
f 481 293 384
f 208 320 207
f 320 208 209
f 400 320 209
f 336 125 126
f 124 125 336
f 117 118 336
f 123 124 336
f 111 112 394
f 395 336 265
f 331 395 265
f 395 117 336
f 395 114 115
f 114 395 331
f 133 134 346
f 134 135 346
f 132 417 131
f 417 132 133
f 446 392 284
f 392 411 284
f 367 392 247
f 411 392 367
f 344 291 247
f 127 364 126
f 417 457 131
f 129 457 364
f 457 417 284
f 411 457 284
f 457 411 364
f 453 259 339
f 259 453 314
f 452 339 296
f 370 452 296
f 452 404 339
f 436 101 102
f 101 436 372
f 394 326 109
f 326 394 282
f 72 375 71
f 375 380 270
f 74 380 375
f 355 380 313
f 380 355 270
f 380 77 313
f 80 81 478
f 81 338 478
f 280 381 477
f 355 405 270
f 332 405 244
f 405 332 270
f 405 494 244
f 405 295 494
f 295 405 355
f 78 79 478
f 77 78 313
f 78 478 313
f 330 95 96
f 95 330 472
f 484 99 372
f 487 87 88
f 487 88 89
f 83 84 433
f 84 85 433
f 488 185 186
f 494 492 328
f 295 492 494
f 381 252 477
f 477 252 313
f 252 355 313
f 349 8 9
f 8 349 7
f 349 322 6
f 322 349 267
f 414 322 267
f 322 414 474
f 235 414 234
f 238 474 237
f 238 239 474
f 2 240 1
f 240 2 474
f 239 240 474
f 267 451 348
f 368 451 267
f 451 286 348
f 451 368 286
f 357 248 428
f 368 248 357
f 248 368 462
f 347 248 462
f 248 363 428
f 248 347 363
f 357 468 286
f 468 373 286
f 449 32 33
f 31 32 449
f 24 25 329
f 25 26 329
f 28 369 27
f 28 29 369
f 13 14 361
f 12 13 361
f 226 373 323
f 225 226 323
f 419 334 255
f 223 408 222
f 44 443 43
f 44 45 443
f 47 443 46
f 47 306 443
f 272 430 333
f 34 35 359
f 324 35 36
f 359 35 324
f 68 69 471
f 69 70 471
f 440 302 483
f 302 398 483
f 302 440 273
f 382 302 273
f 302 382 64
f 302 66 398
f 241 337 431
f 491 337 241
f 337 493 431
f 482 491 319
f 481 482 319
f 397 316 333
f 305 57 58
f 388 57 305
f 60 61 439
f 382 63 64
f 187 488 186
f 488 187 376
f 187 188 376
f 253 310 386
f 310 271 386
f 271 310 438
f 310 253 470
f 438 310 197
f 197 310 196
f 196 310 470
f 199 438 198
f 199 200 438
f 377 469 293
f 469 377 203
f 200 377 438
f 377 271 438
f 421 319 401
f 271 421 401
f 481 421 293
f 421 481 319
f 421 377 293
f 377 421 271
f 210 400 209
f 465 400 212
f 276 362 418
f 362 276 437
f 400 276 320
f 465 276 400
f 110 394 109
f 110 111 394
f 116 395 115
f 395 116 117
f 113 331 112
f 113 114 331
f 432 315 145
f 315 137 138
f 137 315 136
f 136 315 346
f 340 344 247
f 392 340 247
f 283 340 495
f 340 283 344
f 467 261 350
f 467 291 344
f 261 467 344
f 444 283 353
f 261 444 353
f 283 444 344
f 444 261 344
f 422 404 350
f 261 422 350
f 404 422 279
f 128 129 364
f 127 128 364
f 457 130 131
f 130 457 129
f 339 429 296
f 259 429 339
f 163 164 314
f 464 301 490
f 464 429 259
f 168 390 167
f 390 168 301
f 390 164 165
f 164 390 314
f 390 259 314
f 390 464 259
f 464 390 301
f 385 162 163
f 301 365 490
f 379 180 303
f 99 100 372
f 100 101 372
f 404 242 350
f 452 242 404
f 242 452 370
f 242 370 423
f 298 423 372
f 436 298 372
f 298 436 354
f 436 104 354
f 106 107 354
f 107 326 354
f 460 326 282
f 73 74 375
f 72 73 375
f 75 380 74
f 82 83 433
f 338 82 433
f 81 82 338
f 381 435 292
f 93 94 472
f 94 95 472
f 90 91 378
f 487 90 378
f 90 487 89
f 92 472 378
f 91 92 378
f 92 93 472
f 97 330 96
f 97 484 330
f 423 269 372
f 269 484 372
f 370 269 423
f 484 269 330
f 268 487 378
f 184 488 391
f 184 185 488
f 492 407 328
f 328 407 496
f 407 290 496
f 407 420 290
f 399 492 295
f 399 381 292
f 399 252 381
f 399 295 355
f 252 399 355
f 322 5 6
f 4 5 474
f 5 322 474
f 414 236 237
f 235 236 414
f 229 373 228
f 427 230 231
f 286 427 348
f 373 427 286
f 232 427 231
f 427 229 230
f 229 427 373
f 427 232 233
f 427 233 348
f 262 345 466
f 323 262 466
f 345 262 297
f 373 262 323
f 468 262 373
f 262 357 297
f 262 468 357
f 22 20 21
f 20 22 23
f 18 19 329
f 19 23 329
f 19 20 23
f 224 225 323
f 408 224 323
f 224 408 223
f 373 227 228
f 226 227 373
f 419 215 216
f 218 219 334
f 419 218 334
f 219 220 334
f 220 408 334
f 334 278 389
f 408 278 334
f 278 448 389
f 448 278 466
f 278 323 466
f 278 408 323
f 49 50 393
f 48 49 393
f 306 48 393
f 47 48 306
f 447 272 393
f 447 51 52
f 53 447 52
f 447 50 51
f 50 447 393
f 398 67 68
f 66 67 398
f 65 302 64
f 302 65 66
f 493 434 305
f 337 434 493
f 434 388 305
f 482 256 316
f 320 256 384
f 256 481 384
f 256 482 481
f 482 300 491
f 300 482 316
f 397 300 316
f 55 56 388
f 56 57 388
f 311 55 388
f 311 447 53
f 430 311 388
f 311 430 272
f 447 311 272
f 59 439 58
f 59 60 439
f 62 382 61
f 62 63 382
f 205 206 469
f 206 207 384
f 469 206 384
f 204 469 203
f 204 205 469
f 201 377 200
f 400 211 212
f 210 211 400
f 213 465 212
f 465 213 214
f 437 318 255
f 318 419 255
f 276 318 437
f 318 276 465
f 318 215 419
f 215 318 214
f 318 465 214
f 122 120 121
f 120 122 123
f 119 120 123
f 118 119 336
f 119 123 336
f 142 140 141
f 140 142 143
f 139 140 143
f 139 315 138
f 315 139 143
f 315 144 145
f 144 315 143
f 264 446 346
f 315 264 346
f 264 392 446
f 264 315 432
f 340 264 495
f 264 340 392
f 264 335 495
f 335 264 432
f 147 148 432
f 335 148 149
f 148 335 432
f 146 432 145
f 146 147 432
f 412 153 353
f 283 412 353
f 412 283 495
f 335 412 495
f 155 156 353
f 153 154 353
f 154 155 353
f 249 454 413
f 429 454 296
f 168 169 301
f 365 169 170
f 169 365 301
f 289 500 445
f 500 289 413
f 390 166 167
f 166 390 165
f 159 160 385
f 158 325 157
f 325 156 157
f 156 325 353
f 325 261 353
f 325 422 261
f 325 385 279
f 422 325 279
f 159 325 158
f 325 159 385
f 160 161 385
f 161 162 385
f 176 177 403
f 379 177 178
f 177 379 403
f 175 176 403
f 175 309 174
f 309 175 403
f 365 258 490
f 258 500 490
f 500 258 445
f 309 258 365
f 258 317 445
f 258 309 317
f 179 379 178
f 179 180 379
f 181 182 303
f 180 181 303
f 479 379 303
f 407 250 420
f 250 407 492
f 351 242 423
f 298 351 423
f 103 436 102
f 103 104 436
f 105 106 354
f 104 105 354
f 326 108 109
f 107 108 326
f 366 460 282
f 366 367 247
f 367 366 282
f 291 366 247
f 326 263 354
f 460 263 326
f 263 298 354
f 263 351 298
f 380 76 77
f 75 76 380
f 435 475 292
f 484 98 99
f 97 98 484
f 330 371 450
f 269 371 330
f 371 249 450
f 371 454 249
f 371 269 370
f 371 370 296
f 454 371 296
f 317 425 445
f 425 289 445
f 289 425 485
f 268 343 487
f 343 280 433
f 343 85 86
f 85 343 433
f 87 343 86
f 487 343 87
f 268 360 485
f 360 288 450
f 288 360 378
f 360 268 378
f 249 360 450
f 360 249 413
f 289 360 413
f 360 289 485
f 182 183 391
f 183 184 391
f 217 419 216
f 217 218 419
f 408 221 222
f 220 221 408
f 254 430 388
f 434 254 388
f 430 254 333
f 254 397 333
f 316 383 418
f 256 383 316
f 383 256 320
f 383 276 418
f 276 383 320
f 311 54 55
f 54 311 53
f 377 202 203
f 201 202 377
f 454 307 413
f 307 454 429
f 307 500 413
f 464 307 429
f 307 464 490
f 500 307 490
f 171 365 170
f 171 172 365
f 309 173 174
f 172 173 365
f 173 309 365
f 379 274 403
f 479 274 379
f 274 309 403
f 309 274 317
f 479 498 341
f 498 479 303
f 420 498 303
f 250 498 420
f 399 486 492
f 486 250 492
f 486 399 292
f 475 486 292
f 486 475 341
f 498 486 341
f 486 498 250
f 242 442 350
f 351 442 242
f 442 467 350
f 467 442 291
f 366 499 460
f 499 263 460
f 499 366 291
f 442 499 291
f 263 499 351
f 499 442 351
f 245 425 317
f 245 475 435
f 374 268 485
f 425 374 485
f 343 374 280
f 374 343 268
f 374 381 280
f 374 435 381
f 374 245 435
f 245 374 425
f 463 300 397
f 254 463 397
f 463 254 434
f 463 434 337
f 463 337 491
f 300 463 491
f 150 151 412
f 150 335 149
f 150 412 335
f 412 152 153
f 151 152 412
f 387 245 317
f 245 387 475
f 274 387 317
f 475 387 341
f 387 479 341
f 387 274 479
