v -0.000585313355 -0.000819449512 0.0672984313
v 2.79254153e-10 9.41761593e-11 -1.15547497e-09
v 0.0123606805 1.81241387e-10 0.00195773802
v 0.0235114111 -3.80510219e-11 0.00763931786
v 0.0333089348 -0.000313512424 0.0149322157
v 0.0389680273 -0.000510749082 0.0255232331
v 0.0406690984 -0.000713435559 0.0373841127
v 0.0383435859 -0.000960149053 0.0493967065
v 0.032269094 -0.00120314383 0.0600427505
v 0.0235380087 -0.00132513456 0.0682893145
v 0.0124046454 -0.00132242487 0.0728365322
v -7.17686513e-05 -0.0146748381 0.0724005569
v 0.034862309 0.0109155421 0.0199792805
v 0.0258636032 0.0101249545 0.064576732
v 0.0384878651 0.0102150496 0.043310849
v 0.0385258412 -0.0119004241 0.0431688228
v 0.0280713237 -0.0112971415 0.0112246624
v 0.00602530263 -0.0107926893 0.00195773825
v 0.026935253 -0.0122354825 0.0632875647
v 0.00564452193 0.0100709164 0.0723398488
v 0.0116666502 -0.0140206992 0.0714647565
v 0.0338922848 0.0104630753 0.0551274511
v 0.0266541813 0.0207426997 0.0576358322
v 0.0177950644 0.0199439518 0.0653414843
v 0.0387554314 0.0107379684 0.0316157546
v 0.0328738839 0.0210704303 0.027037849
v 0.00602530236 0.0107926887 0.00195773846
v 0.0274702265 0.0208480049 0.0166955589
v 0.0187412136 0.0108997769 0.00638509368
v 0.0121311421 0.0203429007 0.00776644649
v 0.0239180128 0.0297599637 0.0241168404
v 0.0281929783 0.0287211175 0.0360989485
v 0.0168368945 0.0279751902 0.0143791698
v 0.0171129704 -0.0105219482 0.0054104783
v 0.0109998935 -0.0214982307 0.00811224941
v 0.0386464897 -0.0116690399 0.0313023113
v 0.0346571818 -0.0220184711 0.036591697
v 0.0327645911 -0.0218934456 0.047781582
v 0.027005602 -0.0307434058 0.041768227
v 0.0278585186 -0.0295872999 0.0300382169
v 0.0186657039 -0.0368476616 0.0352063418
v 0.0125620901 0.0356477349 0.0228961955
v -0.000191616108 0.0222890361 0.0067861125
v -0.00644031695 0.0107092023 0.00200216578
v -0.00163131779 -0.0200015138 0.00539828791
v 0.00289924584 -0.0298158297 0.010453324
v 0.0167583886 0.0288522978 0.0580029581
v 0.0167581496 -0.0362993138 0.0470512312
v 0.00743128999 -0.0409568478 0.0398827219
v -0.00981076327 -0.0288810216 0.0106613504
v 0.00501963241 -0.0382290347 0.0511949802
v -0.00471283741 -0.0408073819 0.0438554383
v -0.00695441404 -0.0361891054 0.0550506544
v -0.0139237076 -0.0172534859 0.00670663962
v 0.00706692334 0.0273416346 0.064227072
v 0.00565558574 0.0344426872 0.0556108801
v -0.0163477226 -0.0367258231 0.0469199538
v -0.0129863371 0.0211766732 0.00864870405
v -0.0181396017 -0.030541447 0.0574712305
v -0.00468732779 0.0310468462 0.0607723846
v -0.0266984597 -0.02959196 0.0486722986
v -0.0272713918 -0.0217125319 0.0581063038
v -0.0347316477 -0.0195281561 0.0486870805
v -0.0338915001 -0.0110411275 0.0569455578
v -0.0397977346 -0.00641543799 0.0453853977
v -0.00600139642 0.0369162129 0.0510897403
v -0.0160508215 0.0312008661 0.0558034344
v -0.0170168565 0.0358039901 0.0446693601
v -0.0215136252 -0.0234521453 0.0119507943
v -0.0154747685 0.0247743552 0.0635719507
v -0.025833005 -0.0116519432 0.00894697165
v -0.0261372143 0.0285343059 0.0489209701
v -0.0257445062 0.0314380564 0.0369305035
v -0.0317501283 -0.0172804581 0.0173602773
v -0.0334934259 -0.00525243476 0.0145079778
v -0.0337459142 0.0227237166 0.040507292
v -0.0321413789 0.0240947476 0.0291395152
v -0.0181174347 -0.0332407603 0.0203254272
v -0.0145923606 0.037515054 0.0326317368
v -0.0336023646 0.0180602491 0.0508799167
v -0.0385099771 0.01413199 0.0328912372
v -0.0249119622 -0.01216465 0.065709325
v -0.00626351649 0.030973273 0.013361937
v -0.00805908844 -0.0284376631 0.0643503435
v -0.0325924884 -0.0260187003 0.0381654597
v -0.0299108508 -0.00059468699 0.0635104057
v -0.0202669019 -0.00197596375 0.0704999489
v 0.00455867134 0.0392290294 0.0445141077
v 0.0139539038 -0.0317911768 0.0578884201
v -0.0385985736 -0.00806144951 0.0240675307
v -0.0183134778 0.00920714422 0.00565112441
v -0.0242899163 0.0182041822 0.0115616816
v -0.0344945841 0.0144766982 0.0202600512
v -0.00157242076 -0.0411030196 0.0300854323
v 0.0150768672 -0.0296957096 0.0141900143
v -0.0296781455 0.00636779285 0.0107569269
v -0.0116733885 -0.000655211779 0.00174685906
v -0.0137379023 -0.0133643333 0.0709357095
v 0.0064489672 -0.0368209433 0.0198307953
v -0.0238258938 0.00948724305 0.0669508181
v -0.0125939016 0.00833501016 0.0721365095
v 0.0241626533 0.0295489871 0.0485411856
v -0.00383150733 0.0137081891 0.0720813011
v -0.0397224258 0.00403486097 0.0268687168
v -0.0410639469 0.00430349847 0.0383053455
v 0.0346897356 -0.0120682154 0.0535839919
v 0.0213602431 -0.0203142551 0.0103750667
v 0.0265728478 -0.0249389439 0.0185820836
v 0.0351002932 -0.0110395427 0.0198071887
v 0.0182097245 -0.0347272159 0.0242362127
v 0.0175854298 0.00748586352 0.0703875758
v -0.0345321119 -0.0212181421 0.0273934439
v -0.0391595015 -0.0139171967 0.035936572
v -0.038557899 0.00563612014 0.04954372
v -0.0270583539 -0.0307871213 0.0290091943
v 0.0273243053 0.0102617001 0.0108862982
v 0.0329486734 0.0199895805 0.0477514472
v 0.0180851826 0.0357162985 0.0404053315
v 0.00581974131 0.0319547894 0.0143396118
v -0.000755599763 0.0381448756 0.0239235434
v -0.0125907274 0.0348783334 0.0213247391
v -0.00279884865 0.0400657399 0.0351127318
v 0.00877933862 0.0388904887 0.033179729
v -0.0227438774 0.031641348 0.0255964932
v -0.0180395598 0.0284063756 0.015685475
v -0.00503467264 -0.0365056244 0.0187327287
v 0.0238374741 -0.0288826551 0.0528909045
v 0.0207000844 -0.0217652523 0.0632209782
v 0.00872950083 -0.0251457761 0.066506212
v 0.00302958243 -0.033820241 0.0593481543
v -0.00111327309 -0.02195131 0.0694565613
v -0.00414593565 0.023625696 0.0675269529
v 0.0101804391 -0.0395395882 0.0296933297
v -0.0256276128 0.0230179506 0.0574924665
v -0.0134889052 -0.0396514763 0.0361340851
v -0.0196699645 -0.0221762004 0.064306341
v -0.0132232635 -0.00150129471 0.0722482107
v 0.0356383669 0.0189255568 0.0372355213
v 0.0340694855 -0.020727882 0.0272096994
v -0.0235567787 -0.0344659035 0.03803861
v -0.00635163921 -0.00907876683 0.00156521325
v -0.0316536645 0.0101624063 0.0596587539
v -0.0207499777 -0.00043376985 0.00580569579
v -0.0115657951 -0.038669146 0.0261309437
v -0.027670886 0.0243291949 0.0198967204
v 0.0288417818 -0.0203914115 0.0564607122
v -0.0382924475 0.0133040079 0.042596419
v 0.0144185198 0.0347507389 0.0501437861
v -0.0271075579 -0.0261143221 0.0201611005
v 0.0187446278 0.0350556563 0.0308089791
v 0.00796339888 0.0193123895 0.0691762755
v -0.0360517267 0.00390419868 0.0178126013
v 0.0211395883 0.0184309935 0.0101225554
v -0.0359809486 -0.00102350052 0.0561772076
v 0.0204397302 -0.00969833512 0.0690202081
v -0.0410584443 -0.00444579673 0.0334197839
v -0.0283519762 -0.00213472689 0.00934188064
v -0.00792543503 0.039095259 0.0427070685
v -0.0168965517 -0.0086118098 0.00478149077
v -0.0192947596 -0.0364063712 0.0297686803
v -0.0162495846 0.0159818443 0.0686704884
v -0.0226460596 0.0174097179 0.0643338754
f 39 127 48
f 64 86 154
f 66 158 68
f 80 142 134
f 97 159 143
f 64 154 65
f 115 160 140
f 134 142 162
f 71 157 143
f 66 68 67
f 24 151 111
f 68 158 79
f 71 143 159
f 5 116 13
f 38 127 39
f 63 64 65
f 86 142 154
f 28 153 33
f 74 90 75
f 27 30 29
f 102 118 148
f 114 154 142
f 38 146 127
f 103 151 132
f 70 162 161
f 61 85 140
f 135 140 160
f 71 75 157
f 19 146 106
f 70 134 162
f 78 144 160
f 80 114 142
f 80 147 114
f 61 62 63
f 135 160 144
f 17 108 107
f 29 30 153
f 4 116 5
f 49 52 94
f 70 161 132
f 65 105 156
f 12 98 131
f 30 33 153
f 48 127 89
f 75 96 157
f 65 154 114
f 60 66 67
f 81 105 147
f 16 106 38
f 71 74 75
f 67 134 70
f 76 81 147
f 34 107 35
f 103 132 161
f 13 116 28
f 38 106 146
f 28 116 153
f 95 110 99
f 43 44 58
f 66 88 158
f 94 135 144
f 48 51 49
f 29 153 116
f 2 18 141
f 88 148 118
f 62 64 63
f 77 124 145
f 52 135 94
f 54 71 159
f 5 13 6
f 62 82 64
f 57 140 135
f 79 121 124
f 58 125 83
f 14 23 24
f 23 102 47
f 105 114 147
f 67 72 134
f 59 136 62
f 60 67 70
f 85 115 140
f 7 16 36
f 49 51 52
f 56 88 66
f 121 125 124
f 60 70 132
f 6 25 7
f 16 38 37
f 65 114 105
f 95 107 108
f 35 107 95
f 18 35 45
f 2 141 97
f 18 34 35
f 67 68 72
f 97 141 159
f 79 158 122
f 108 109 139
f 124 125 145
f 9 19 106
f 16 37 36
f 17 109 108
f 73 79 124
f 100 162 142
f 84 98 136
f 74 112 90
f 84 131 98
f 54 69 71
f 79 120 121
f 94 99 133
f 59 62 61
f 82 87 86
f 22 117 23
f 20 111 151
f 62 136 82
f 65 156 113
f 73 124 77
f 56 66 60
f 61 63 85
f 76 147 80
f 76 77 81
f 32 102 117
f 82 98 87
f 57 61 140
f 48 89 51
f 10 11 155
f 2 3 18
f 112 149 115
f 20 151 103
f 28 33 31
f 82 136 98
f 101 137 103
f 127 146 128
f 27 43 30
f 1 20 137
f 2 27 3
f 27 44 43
f 89 127 128
f 104 156 105
f 79 122 120
f 77 145 93
f 23 47 24
f 84 130 129
f 10 111 11
f 32 118 102
f 14 24 111
f 14 22 23
f 88 122 158
f 5 109 17
f 32 117 138
f 4 5 17
f 3 27 29
f 75 152 96
f 49 94 133
f 55 132 151
f 88 118 123
f 6 13 25
f 51 53 52
f 26 28 31
f 23 117 102
f 101 103 161
f 41 48 49
f 44 97 91
f 8 9 106
f 74 149 112
f 94 144 126
f 78 160 115
f 68 79 73
f 4 29 116
f 83 121 120
f 13 28 26
f 90 156 104
f 33 119 42
f 51 130 53
f 8 106 16
f 15 138 117
f 86 100 142
f 2 97 44
f 1 21 11
f 90 113 156
f 56 148 88
f 40 110 108
f 50 69 54
f 17 107 34
f 7 25 15
f 42 120 123
f 58 92 125
f 75 90 152
f 84 129 131
f 40 41 110
f 47 102 148
f 99 110 133
f 63 65 113
f 78 126 144
f 69 74 71
f 46 95 99
f 91 97 143
f 55 60 132
f 89 129 130
f 6 7 36
f 52 57 135
f 12 137 98
f 96 143 157
f 1 137 12
f 118 150 123
f 39 41 40
f 72 80 134
f 11 111 20
f 51 89 130
f 42 119 120
f 92 96 93
f 81 104 105
f 45 46 50
f 15 117 22
f 88 123 122
f 2 44 27
f 37 38 39
f 43 58 83
f 18 45 141
f 10 155 19
f 85 112 115
f 86 87 100
f 59 84 136
f 100 161 162
f 53 130 84
f 90 112 113
f 31 33 42
f 42 123 150
f 36 37 139
f 54 159 141
f 94 126 99
f 120 122 123
f 5 6 109
f 41 49 133
f 8 22 9
f 44 91 58
f 77 93 81
f 7 8 16
f 9 10 19
f 87 101 100
f 20 103 137
f 1 12 21
f 68 73 72
f 78 115 149
f 63 113 85
f 90 104 152
f 30 119 33
f 72 76 80
f 15 25 138
f 24 55 151
f 50 126 78
f 41 133 110
f 12 131 21
f 45 50 54
f 73 77 76
f 3 29 4
f 100 101 161
f 21 131 129
f 55 56 60
f 89 128 129
f 1 11 20
f 83 120 119
f 57 59 61
f 19 128 146
f 11 21 155
f 3 34 18
f 40 108 139
f 26 31 32
f 69 149 74
f 13 26 25
f 9 22 14
f 26 32 138
f 8 15 22
f 45 54 141
f 6 36 109
f 24 47 55
f 30 43 119
f 87 98 137
f 50 78 69
f 4 17 34
f 91 143 96
f 93 96 152
f 85 113 112
f 7 15 8
f 72 73 76
f 32 150 118
f 52 53 57
f 10 14 111
f 37 39 40
f 9 14 10
f 31 42 150
f 3 4 34
f 43 83 119
f 46 99 126
f 81 93 104
f 58 91 92
f 47 148 56
f 46 126 50
f 25 26 138
f 69 78 149
f 53 59 57
f 53 84 59
f 91 96 92
f 47 56 55
f 31 150 32
f 37 40 139
f 87 137 101
f 93 152 104
f 19 155 128
f 21 128 155
f 21 129 128
f 39 48 41
f 64 82 86
f 95 108 110
f 35 95 46
f 83 125 121
f 36 139 109
f 92 145 125
f 35 46 45
f 92 93 145
