v -0.000781949858 -0.000582326398 0.0616638284
v 3.01621299e-10 7.05255492e-11 -1.1698532e-09
v 0.0123606805 1.79580957e-10 0.00195773806
v 0.023511411 -7.4900744e-11 0.0076393179
v 0.0335021889 -0.000348799011 0.0146171523
v 0.0392103455 -0.000470557984 0.0250934454
v 0.0408962856 -0.000541486536 0.0368330165
v 0.038512942 -0.000630758924 0.0487683785
v 0.0323429148 -0.000750043163 0.0592665561
v 0.0236996344 -0.000808123646 0.0672704546
v 0.0124577754 -0.000972924506 0.0712190111
v -0.000125666996 -0.0140506264 0.0714925656
v 0.0351295144 0.0110005715 0.0194667661
v 0.0261608544 0.0108167466 0.063393231
v 0.0387113662 0.0105313146 0.0425808906
v 0.0387382285 -0.011724077 0.0427467504
v 0.0281786129 -0.0113929951 0.0110061756
v 0.00602530262 -0.0107926893 0.00195773831
v 0.0270058305 -0.0118310212 0.062503666
v 0.00547877537 0.00994200715 0.067948953
v 0.0118329314 -0.0135175861 0.0706213307
v 0.0340556583 0.0109523443 0.0542434016
v 0.0267954969 0.0213990534 0.0565768885
v 0.0178861955 0.0207805355 0.0640690211
v 0.0390166993 0.010947516 0.0309822982
v 0.0331155525 0.0213101476 0.0263513073
v 0.00602530241 0.0107926886 0.00195773848
v 0.0277015653 0.0210239492 0.0161446016
v 0.0187412136 0.0108997769 0.00638509368
v 0.0121311421 0.0203429008 0.00776644635
v 0.0241356065 0.0300672326 0.023348413
v 0.0283990858 0.0291137297 0.0352202062
v 0.0169844943 0.028218621 0.0138149303
v 0.0171129704 -0.0105219482 0.00541047838
v 0.0109998934 -0.0214982307 0.00811224955
v 0.0388105927 -0.0116408981 0.0309334374
v 0.0348065863 -0.02198317 0.036259821
v 0.0329065671 -0.0217198326 0.0474040266
v 0.0270955348 -0.0306835891 0.0414945922
v 0.0279518611 -0.0296346268 0.0297627573
v 0.0186726257 -0.0368232929 0.035066997
v 0.0126781546 0.0360197469 0.0220476165
v -0.000191616128 0.0222890361 0.00678611237
v -0.00644031693 0.0107092023 0.00200216575
v -0.00163131779 -0.0200015137 0.00539828801
v 0.00289047023 -0.0298671686 0.0102979057
v 0.0168272796 0.029604972 0.0567819359
v 0.0167626404 -0.0361703228 0.0468854107
v 0.00741692306 -0.0409522266 0.0397743773
v -0.00983217659 -0.0289950204 0.0105241333
v 0.00493875816 -0.0380285967 0.0509724933
v -0.00482208335 -0.0407374907 0.0436810198
v -0.00705122907 -0.0358654349 0.0548146386
v -0.0139237076 -0.0172534859 0.0067066397
v 0.00701901806 0.0284830695 0.0628031526
v 0.00563848021 0.0352628667 0.0542573733
v -0.0164498287 -0.0365389508 0.0466849102
v -0.0129863371 0.0211766732 0.00864870391
v -0.0182377854 -0.030187394 0.0571670676
v -0.00488728912 0.0320666265 0.0593201011
v -0.0268460549 -0.0294217094 0.048422138
v -0.0274198321 -0.0213318117 0.0576195704
v -0.0349722173 -0.0193142295 0.0483138191
v -0.0341529617 -0.0106790096 0.0563784402
v -0.0400377344 -0.00618291101 0.0447838432
v -0.00617010497 0.0376401001 0.0497998242
v -0.0163071897 0.0319345664 0.0544608208
v -0.0172847185 0.0364134865 0.0434719477
v -0.0215718 -0.023509875 0.0116938332
v -0.0158766985 0.0257385441 0.0621971245
v -0.0260019512 -0.0116994799 0.00867823171
v -0.0264713727 0.0291163003 0.0477981044
v -0.0260218327 0.0318401315 0.0358925214
v -0.0319230644 -0.0173699429 0.0170179216
v -0.0337113227 -0.00528591255 0.0141117656
v -0.0340607585 0.0230976704 0.0395147104
v -0.0324476366 0.0243329047 0.0282029122
v -0.0182150557 -0.0332954007 0.0201422502
v -0.014714864 0.0379509532 0.0316224768
v -0.0339421553 0.0185643379 0.0498548626
v -0.0388232657 0.014361433 0.0320720279
v -0.0250813223 -0.0115684054 0.0649736859
v -0.00629215921 0.0312053521 0.0128494361
v -0.00812251443 -0.027896254 0.0639297468
v -0.0327847328 -0.0259207919 0.0378972959
v -0.030150284 -2.03944699e-05 0.0625620944
v -0.0204464245 -0.00119921371 0.0693735468
v 0.00453616126 0.03989564 0.04336623
v 0.0139328226 -0.0314553011 0.0575853256
v -0.0388583737 -0.0080459496 0.023585572
v -0.0183134778 0.00920714424 0.00565112432
v -0.0244777851 0.0182799765 0.0111074018
v -0.0347549407 0.0145675081 0.0194755349
v -0.00161706528 -0.0411128048 0.0300077997
v 0.0150762314 -0.0298197404 0.0140314042
v -0.0298743202 0.0063776914 0.0102631027
v -0.0116733885 -0.000655211803 0.00174685904
v -0.01389107 -0.0127312438 0.0700468473
v 0.00640240093 -0.036901213 0.0197089882
v -0.024225434 0.010208548 0.0657078696
v -0.0129608467 0.00949547489 0.0703966996
v 0.0243132188 0.0301253716 0.0474838521
v -0.00422700665 0.0150466896 0.0701753496
v -0.0399979989 0.00412953438 0.0262280669
v -0.0413978856 0.00449938281 0.0375779599
v 0.0348185655 -0.0117572865 0.0530228571
v 0.0214500586 -0.020441786 0.0101784902
v 0.0266565777 -0.0250624064 0.0183213252
v 0.0352728448 -0.011094028 0.0194828378
v 0.0182042342 -0.0348069401 0.0240966038
v 0.0180028801 0.00812289189 0.0687097484
v -0.0347253479 -0.0212138283 0.027045295
v -0.0393978584 -0.0138465188 0.0354933777
v -0.0388951958 0.00599832691 0.0486984267
v -0.0272177253 -0.030775683 0.0288037375
v 0.0275178218 0.0103191159 0.0106161483
v 0.0331272776 0.0204487568 0.0468582976
v 0.0182194641 0.0362696279 0.0393604747
v 0.00588223619 0.0322153063 0.0137633282
v -0.000767015559 0.0385167165 0.0230016544
v -0.0127073995 0.0351758313 0.0205514513
v -0.00285346874 0.0405373782 0.0340546263
v 0.00882527609 0.0393068374 0.0321847706
v -0.0229673395 0.0319524934 0.0247465272
v -0.018181116 0.0286247262 0.0151190442
v -0.00507868447 -0.0365872685 0.0186177723
v 0.0239068348 -0.0286740653 0.052529775
v 0.0206970817 -0.0213376407 0.0625775912
v 0.00869492941 -0.0245785688 0.0659764271
v 0.00297760128 -0.0334529947 0.059043452
v -0.00116314237 -0.0212796478 0.0688348963
v -0.00449782169 0.0248844009 0.0659427897
v 0.0101541577 -0.0395756316 0.0295807843
v -0.0259476975 0.0236953441 0.0563178132
v -0.0136214177 -0.0396380022 0.0359477991
v -0.0198202334 -0.0216736018 0.0637739488
v -0.0133080488 -0.000554271142 0.0701861594
v 0.0358790297 0.0192462463 0.0364784581
v 0.0342331147 -0.0207774294 0.0268791225
v -0.0237056407 -0.0343641917 0.0378313843
v -0.00635163922 -0.00907876683 0.00156521329
v -0.0320348329 0.0107409288 0.0586194802
v -0.0207499777 -0.000433769875 0.00580569578
v -0.0116522783 -0.0387295704 0.0259769482
v -0.0278983799 0.0245180973 0.0191502493
v 0.0289332526 -0.0200990681 0.0559508887
v -0.0385988175 0.013618448 0.0416940364
v 0.0145228297 0.0354458397 0.0489463976
v -0.0272192075 -0.0261736238 0.0199045891
v 0.018881597 0.0354481206 0.0298789203
v 0.00783622866 0.0206588889 0.0674512409
v -0.0363273594 0.00392514497 0.0172120588
v 0.0212967107 0.0185002754 0.009812423
v -0.0363195718 -0.000594320745 0.0554275874
v 0.0205881277 -0.00922014041 0.0681132948
v -0.041355725 -0.00437194568 0.0328582413
v -0.0285193341 -0.00215613465 0.00902780288
v -0.00807499073 0.0397246869 0.0415705561
v -0.0168965516 -0.00861180985 0.00478149082
v -0.0194216304 -0.0364160501 0.0295876825
v -0.0167215838 0.0170416437 0.0672500669
v -0.0230700679 0.0181826343 0.0630409424
f 39 127 48
f 64 86 154
f 66 158 68
f 80 142 134
f 97 159 143
f 64 154 65
f 115 160 140
f 134 142 162
f 71 157 143
f 66 68 67
f 24 151 111
f 68 158 79
f 71 143 159
f 5 116 13
f 38 127 39
f 63 64 65
f 86 142 154
f 28 153 33
f 74 90 75
f 27 30 29
f 102 118 148
f 114 154 142
f 38 146 127
f 103 151 132
f 70 162 161
f 61 85 140
f 135 140 160
f 71 75 157
f 19 146 106
f 70 134 162
f 78 144 160
f 80 114 142
f 80 147 114
f 61 62 63
f 135 160 144
f 17 108 107
f 29 30 153
f 4 116 5
f 49 52 94
f 70 161 132
f 65 105 156
f 12 98 131
f 30 33 153
f 48 127 89
f 75 96 157
f 65 154 114
f 60 66 67
f 81 105 147
f 16 106 38
f 71 74 75
f 67 134 70
f 76 81 147
f 34 107 35
f 103 132 161
f 13 116 28
f 38 106 146
f 28 116 153
f 95 110 99
f 43 44 58
f 66 88 158
f 94 135 144
f 48 51 49
f 29 153 116
f 2 18 141
f 88 148 118
f 62 64 63
f 77 124 145
f 52 135 94
f 54 71 159
f 5 13 6
f 62 82 64
f 57 140 135
f 79 121 124
f 58 125 83
f 14 23 24
f 23 102 47
f 105 114 147
f 67 72 134
f 59 136 62
f 60 67 70
f 85 115 140
f 7 16 36
f 49 51 52
f 56 88 66
f 121 125 124
f 60 70 132
f 6 25 7
f 16 38 37
f 65 114 105
f 95 107 108
f 35 107 95
f 18 35 45
f 2 141 97
f 18 34 35
f 67 68 72
f 97 141 159
f 79 158 122
f 108 109 139
f 124 125 145
f 9 19 106
f 16 37 36
f 17 109 108
f 73 79 124
f 100 162 142
f 84 98 136
f 74 112 90
f 84 131 98
f 54 69 71
f 79 120 121
f 94 99 133
f 59 62 61
f 82 87 86
f 22 117 23
f 20 111 151
f 62 136 82
f 65 156 113
f 73 124 77
f 56 66 60
f 61 63 85
f 76 147 80
f 76 77 81
f 32 102 117
f 82 98 87
f 57 61 140
f 48 89 51
f 10 11 155
f 2 3 18
f 112 149 115
f 20 151 103
f 28 33 31
f 82 136 98
f 101 137 103
f 127 146 128
f 27 43 30
f 1 20 137
f 2 27 3
f 27 44 43
f 89 127 128
f 104 156 105
f 79 122 120
f 77 145 93
f 23 47 24
f 84 130 129
f 10 111 11
f 32 118 102
f 14 24 111
f 14 22 23
f 88 122 158
f 5 109 17
f 32 117 138
f 4 5 17
f 3 27 29
f 75 152 96
f 49 94 133
f 55 132 151
f 88 118 123
f 6 13 25
f 51 53 52
f 26 28 31
f 23 117 102
f 101 103 161
f 41 48 49
f 44 97 91
f 8 9 106
f 74 149 112
f 94 144 126
f 78 160 115
f 68 79 73
f 4 29 116
f 83 121 120
f 13 28 26
f 90 156 104
f 33 119 42
f 51 130 53
f 8 106 16
f 15 138 117
f 86 100 142
f 2 97 44
f 1 21 11
f 90 113 156
f 56 148 88
f 40 110 108
f 50 69 54
f 17 107 34
f 7 25 15
f 42 120 123
f 58 92 125
f 75 90 152
f 84 129 131
f 40 41 110
f 47 102 148
f 99 110 133
f 63 65 113
f 78 126 144
f 69 74 71
f 46 95 99
f 91 97 143
f 55 60 132
f 89 129 130
f 6 7 36
f 52 57 135
f 12 137 98
f 96 143 157
f 1 137 12
f 118 150 123
f 39 41 40
f 72 80 134
f 11 111 20
f 51 89 130
f 42 119 120
f 92 96 93
f 81 104 105
f 45 46 50
f 15 117 22
f 88 123 122
f 2 44 27
f 37 38 39
f 43 58 83
f 18 45 141
f 10 155 19
f 85 112 115
f 86 87 100
f 59 84 136
f 100 161 162
f 53 130 84
f 90 112 113
f 31 33 42
f 42 123 150
f 36 37 139
f 54 159 141
f 94 126 99
f 120 122 123
f 5 6 109
f 41 49 133
f 8 22 9
f 44 91 58
f 77 93 81
f 7 8 16
f 9 10 19
f 87 101 100
f 20 103 137
f 1 12 21
f 68 73 72
f 78 115 149
f 63 113 85
f 90 104 152
f 30 119 33
f 72 76 80
f 15 25 138
f 24 55 151
f 50 126 78
f 41 133 110
f 12 131 21
f 45 50 54
f 73 77 76
f 3 29 4
f 100 101 161
f 21 131 129
f 55 56 60
f 89 128 129
f 1 11 20
f 83 120 119
f 57 59 61
f 19 128 146
f 11 21 155
f 3 34 18
f 40 108 139
f 26 31 32
f 69 149 74
f 13 26 25
f 9 22 14
f 26 32 138
f 8 15 22
f 45 54 141
f 6 36 109
f 24 47 55
f 30 43 119
f 87 98 137
f 50 78 69
f 4 17 34
f 91 143 96
f 93 96 152
f 85 113 112
f 7 15 8
f 72 73 76
f 32 150 118
f 52 53 57
f 10 14 111
f 37 39 40
f 9 14 10
f 31 42 150
f 3 4 34
f 43 83 119
f 46 99 126
f 81 93 104
f 58 91 92
f 47 148 56
f 46 126 50
f 25 26 138
f 69 78 149
f 53 59 57
f 53 84 59
f 91 96 92
f 47 56 55
f 31 150 32
f 37 40 139
f 87 137 101
f 93 152 104
f 19 155 128
f 21 128 155
f 21 129 128
f 39 48 41
f 64 82 86
f 95 108 110
f 35 95 46
f 83 125 121
f 36 139 109
f 92 145 125
f 35 46 45
f 92 93 145
