v -0.00058825943 -0.000858933951 0.0748433234
v 2.16813507e-10 5.84724916e-11 -9.29475946e-10
v 0.0123606803 1.3509723e-10 0.00195773828
v 0.0235114109 -2.47564722e-11 0.00763931836
v 0.0330717304 -0.000209011285 0.0153009269
v 0.0386871773 -0.000332781615 0.0260407552
v 0.040388869 -0.000471294388 0.0380673919
v 0.0381244381 -0.000648130327 0.0502001345
v 0.0321280997 -0.000797627672 0.0610513615
v 0.0232150541 -0.000896077947 0.0695515522
v 0.012014759 -0.000911774693 0.0747140091
v 9.00576915e-05 -0.0137420898 0.0743249382
v 0.0345970592 0.0109701064 0.0204333005
v 0.025680303 0.0104077775 0.0657257691
v 0.0382628228 0.0104152854 0.0440135714
v 0.0382550285 -0.0115291841 0.0439008265
v 0.0278849198 -0.0111656489 0.0115873796
v 0.00602530253 -0.0107926893 0.00195773845
v 0.0268502739 -0.0117239757 0.0644442513
v 0.00549067592 0.0101666308 0.0747562006
v 0.0113111527 -0.0131505538 0.0730169476
v 0.0337236622 0.0107103306 0.0559676423
v 0.0265466461 0.0208990815 0.0584891374
v 0.0177444619 0.0201429611 0.0664405328
v 0.0384739416 0.010824914 0.0322123678
v 0.0326707318 0.0210726019 0.0275283316
v 0.00602530235 0.0107926888 0.00195773862
v 0.0272746638 0.0207623753 0.0170751828
v 0.0187412135 0.010899777 0.00638509406
v 0.0121311421 0.0203429004 0.00776644678
v 0.0237569784 0.0296576776 0.0245738602
v 0.02802644 0.0287174236 0.0366515473
v 0.016739885 0.0278422159 0.0147088134
v 0.0171129703 -0.0105219481 0.00541047873
v 0.0109998933 -0.0214982305 0.00811224992
v 0.0384334547 -0.0113600655 0.0319285357
v 0.0344370493 -0.0215825781 0.0373609413
v 0.0325579257 -0.0213927512 0.0486368313
v 0.0268644885 -0.0302059049 0.0426494985
v 0.0276876239 -0.0291312719 0.0308397701
v 0.0186146652 -0.0363474763 0.0360405867
v 0.0124801828 0.0354877373 0.0233366209
v -0.000191616098 0.0222890359 0.00678611282
v -0.00644031707 0.0107092021 0.00200216598
v -0.00163131778 -0.0200015134 0.00539828845
v 0.00288008163 -0.0296455437 0.0110049315
v 0.0167418372 0.0289540639 0.058869092
v 0.0167382991 -0.035701418 0.0479804651
v 0.00744461589 -0.0403225663 0.0408372084
v -0.00976027699 -0.0285975105 0.0111676333
v 0.00513549495 -0.0375554068 0.0523425466
v -0.00454068934 -0.0401594812 0.0449459851
v -0.0067514366 -0.0355114427 0.056241307
v -0.0139237074 -0.0172534855 0.00670664016
v 0.00712263032 0.0273582536 0.0652540805
v 0.00571200645 0.0344956167 0.056449335
v -0.0161249585 -0.0361543821 0.0480451196
v -0.0129863369 0.0211766731 0.00864870435
v -0.0178347212 -0.0298793173 0.0586539695
v -0.00454213496 0.0311655075 0.0617206983
v -0.0263976018 -0.0290066537 0.0497161092
v -0.0269223484 -0.0211432052 0.059308491
v -0.0343251342 -0.019035463 0.0496584793
v -0.0334519148 -0.0105673006 0.0580050445
v -0.0394199866 -0.00606921537 0.0463534446
v -0.00582191654 0.0369752547 0.0517998058
v -0.0158258998 0.0313263248 0.0566568051
v -0.0167470495 0.0357954041 0.0453501513
v -0.0213941934 -0.0232781586 0.0126019889
v -0.0151880088 0.0249438357 0.0645828281
v -0.0255675455 -0.0115735356 0.00937401285
v -0.0258240212 0.0286261073 0.0496383731
v -0.0254609626 0.0314518546 0.0375725254
v -0.0314751543 -0.0170497173 0.0180548326
v -0.0331906056 -0.00515953279 0.0150753866
v -0.033403809 0.0227931711 0.0412562101
v -0.0318126232 0.0241202426 0.0298238385
v -0.0179287413 -0.0329112537 0.0211185721
v -0.0144585063 0.0374468782 0.033156162
v -0.0332285672 0.0182252964 0.0517527739
v -0.0381363204 0.014208588 0.0336276017
v -0.0245388489 -0.0116241663 0.0670306363
v -0.00621960326 0.0308392388 0.0136138094
v -0.00782666264 -0.0276387237 0.0656957209
v -0.0322553156 -0.0255981974 0.0390920157
v -0.0294350304 -0.000188998259 0.0648133706
v -0.0195751199 -0.00144288021 0.0720752746
v 0.00463235665 0.0391750694 0.0451085031
v 0.0139517199 -0.0311519441 0.0590089686
v -0.0382328795 -0.0078651951 0.0248380634
v -0.0183134776 0.00920714405 0.00565112487
v -0.024121037 0.0181422423 0.0118844661
v -0.0341890004 0.0144890807 0.0209549033
v -0.0014966611 -0.0406121977 0.0309490526
v 0.0150172099 -0.0293927942 0.0147210975
v -0.0294556847 0.00635145701 0.0112549318
v -0.0116733886 -0.00065521179 0.00174685931
v -0.013405119 -0.0125823376 0.072592149
v 0.00649301679 -0.0364438996 0.0205725368
v -0.0233744551 0.00985465557 0.0682328746
v -0.0120708593 0.00863126482 0.0738974752
v 0.0240566567 0.029614056 0.0492391118
v -0.00361226874 0.0140079984 0.0738232779
v -0.0393849969 0.00414896727 0.0276130983
v -0.0406530522 0.00452955223 0.0391545015
v 0.0345163848 -0.0116177168 0.0544882415
v 0.0211804693 -0.0201124596 0.0107542769
v 0.0263894594 -0.0246098299 0.0192110518
v 0.0348522598 -0.0108266436 0.0203297596
v 0.0181494406 -0.0342881599 0.0249673382
v 0.0173267176 0.00780757492 0.0719001022
v -0.0342043681 -0.0208978125 0.028253253
v -0.0387959412 -0.0135653002 0.0368268657
v -0.0381355331 0.0058983414 0.05050717
v -0.0267726261 -0.0304009289 0.0298844605
v 0.0271310507 0.0102146762 0.0111146929
v 0.0327857828 0.0201338286 0.0484501326
v 0.018021068 0.0356665544 0.0409790047
v 0.00579656974 0.0318055214 0.0146201325
v -0.000703751142 0.0379970394 0.0243905454
v -0.012443534 0.0347581954 0.0217253413
v -0.00270530432 0.0400270803 0.0356249215
v 0.00879544471 0.0388686212 0.0336851012
v -0.022516463 0.0315576924 0.0260954588
v -0.0178997733 0.0283053891 0.0160201842
v -0.00496812446 -0.0361493831 0.0194521721
v 0.0237405298 -0.0283052254 0.0538968861
v 0.0206337423 -0.0211437291 0.0644491031
v 0.00879128436 -0.0244146464 0.0678642443
v 0.00312641408 -0.0330606106 0.0605851565
v -0.000944809324 -0.0211326029 0.0710739858
v -0.00396173237 0.0238003113 0.0687642603
v 0.0101858262 -0.0390537326 0.0305459503
v -0.0253247302 0.0232152402 0.0583511722
v -0.0132675949 -0.0390929415 0.0371776368
v -0.0193027387 -0.0214784122 0.0656117511
v -0.0124880248 -0.00107379335 0.074623798
v 0.0354158413 0.0190116154 0.0378217503
v 0.0338121233 -0.0203649997 0.0279127441
v -0.0232676202 -0.0339826331 0.0390512633
v -0.0063516391 -0.00907876676 0.00156521367
v -0.031219445 0.0104447433 0.0607106673
v -0.0207499774 -0.000433769814 0.00580569607
v -0.0114064014 -0.0382054965 0.027030283
v -0.0274151446 0.0242524193 0.0204101563
v 0.0287297717 -0.0198623609 0.0574599757
v -0.0379352583 0.0134793436 0.0434428359
v 0.0143787142 0.0347646755 0.0508736289
v -0.0269061871 -0.0258366763 0.0209434321
v 0.0186585066 0.0349826976 0.0313028731
v 0.00803376771 0.019363638 0.0706887854
v -0.0357181885 0.003961122 0.0184882004
v 0.0210187429 0.0183991924 0.0103332192
v -0.0355012036 -0.0006609993 0.0572346504
v 0.0202620913 -0.00916535951 0.0703088233
v -0.040671178 -0.00417239243 0.034264314
v -0.0281410077 -0.0021123582 0.00972611275
v -0.00777049461 0.0390649499 0.0432652902
v -0.0168965516 -0.00861180976 0.00478149101
v -0.0190671078 -0.0359566683 0.0307097821
v -0.0159117406 0.0162318577 0.069952528
v -0.0222905303 0.0177148206 0.0654440458
f 39 127 48
f 64 86 154
f 66 158 68
f 80 142 134
f 97 159 143
f 64 154 65
f 115 160 140
f 134 142 162
f 71 157 143
f 66 68 67
f 24 151 111
f 68 158 79
f 71 143 159
f 5 116 13
f 38 127 39
f 63 64 65
f 86 142 154
f 28 153 33
f 74 90 75
f 27 30 29
f 102 118 148
f 114 154 142
f 38 146 127
f 103 151 132
f 70 162 161
f 61 85 140
f 135 140 160
f 71 75 157
f 19 146 106
f 70 134 162
f 78 144 160
f 80 114 142
f 80 147 114
f 61 62 63
f 135 160 144
f 17 108 107
f 29 30 153
f 4 116 5
f 49 52 94
f 70 161 132
f 65 105 156
f 12 98 131
f 30 33 153
f 48 127 89
f 75 96 157
f 65 154 114
f 60 66 67
f 81 105 147
f 16 106 38
f 71 74 75
f 67 134 70
f 76 81 147
f 34 107 35
f 103 132 161
f 13 116 28
f 38 106 146
f 28 116 153
f 95 110 99
f 43 44 58
f 66 88 158
f 94 135 144
f 48 51 49
f 29 153 116
f 2 18 141
f 88 148 118
f 62 64 63
f 77 124 145
f 52 135 94
f 54 71 159
f 5 13 6
f 62 82 64
f 57 140 135
f 79 121 124
f 58 125 83
f 14 23 24
f 23 102 47
f 105 114 147
f 67 72 134
f 59 136 62
f 60 67 70
f 85 115 140
f 7 16 36
f 49 51 52
f 56 88 66
f 121 125 124
f 60 70 132
f 6 25 7
f 16 38 37
f 65 114 105
f 95 107 108
f 35 107 95
f 18 35 45
f 2 141 97
f 18 34 35
f 67 68 72
f 97 141 159
f 79 158 122
f 108 109 139
f 124 125 145
f 9 19 106
f 16 37 36
f 17 109 108
f 73 79 124
f 100 162 142
f 84 98 136
f 74 112 90
f 84 131 98
f 54 69 71
f 79 120 121
f 94 99 133
f 59 62 61
f 82 87 86
f 22 117 23
f 20 111 151
f 62 136 82
f 65 156 113
f 73 124 77
f 56 66 60
f 61 63 85
f 76 147 80
f 76 77 81
f 32 102 117
f 82 98 87
f 57 61 140
f 48 89 51
f 10 11 155
f 2 3 18
f 112 149 115
f 20 151 103
f 28 33 31
f 82 136 98
f 101 137 103
f 127 146 128
f 27 43 30
f 1 20 137
f 2 27 3
f 27 44 43
f 89 127 128
f 104 156 105
f 79 122 120
f 77 145 93
f 23 47 24
f 84 130 129
f 10 111 11
f 32 118 102
f 14 24 111
f 14 22 23
f 88 122 158
f 5 109 17
f 32 117 138
f 4 5 17
f 3 27 29
f 75 152 96
f 49 94 133
f 55 132 151
f 88 118 123
f 6 13 25
f 51 53 52
f 26 28 31
f 23 117 102
f 101 103 161
f 41 48 49
f 44 97 91
f 8 9 106
f 74 149 112
f 94 144 126
f 78 160 115
f 68 79 73
f 4 29 116
f 83 121 120
f 13 28 26
f 90 156 104
f 33 119 42
f 51 130 53
f 8 106 16
f 15 138 117
f 86 100 142
f 2 97 44
f 1 21 11
f 90 113 156
f 56 148 88
f 40 110 108
f 50 69 54
f 17 107 34
f 7 25 15
f 42 120 123
f 58 92 125
f 75 90 152
f 84 129 131
f 40 41 110
f 47 102 148
f 99 110 133
f 63 65 113
f 78 126 144
f 69 74 71
f 46 95 99
f 91 97 143
f 55 60 132
f 89 129 130
f 6 7 36
f 52 57 135
f 12 137 98
f 96 143 157
f 1 137 12
f 118 150 123
f 39 41 40
f 72 80 134
f 11 111 20
f 51 89 130
f 42 119 120
f 92 96 93
f 81 104 105
f 45 46 50
f 15 117 22
f 88 123 122
f 2 44 27
f 37 38 39
f 43 58 83
f 18 45 141
f 10 155 19
f 85 112 115
f 86 87 100
f 59 84 136
f 100 161 162
f 53 130 84
f 90 112 113
f 31 33 42
f 42 123 150
f 36 37 139
f 54 159 141
f 94 126 99
f 120 122 123
f 5 6 109
f 41 49 133
f 8 22 9
f 44 91 58
f 77 93 81
f 7 8 16
f 9 10 19
f 87 101 100
f 20 103 137
f 1 12 21
f 68 73 72
f 78 115 149
f 63 113 85
f 90 104 152
f 30 119 33
f 72 76 80
f 15 25 138
f 24 55 151
f 50 126 78
f 41 133 110
f 12 131 21
f 45 50 54
f 73 77 76
f 3 29 4
f 100 101 161
f 21 131 129
f 55 56 60
f 89 128 129
f 1 11 20
f 83 120 119
f 57 59 61
f 19 128 146
f 11 21 155
f 3 34 18
f 40 108 139
f 26 31 32
f 69 149 74
f 13 26 25
f 9 22 14
f 26 32 138
f 8 15 22
f 45 54 141
f 6 36 109
f 24 47 55
f 30 43 119
f 87 98 137
f 50 78 69
f 4 17 34
f 91 143 96
f 93 96 152
f 85 113 112
f 7 15 8
f 72 73 76
f 32 150 118
f 52 53 57
f 10 14 111
f 37 39 40
f 9 14 10
f 31 42 150
f 3 4 34
f 43 83 119
f 46 99 126
f 81 93 104
f 58 91 92
f 47 148 56
f 46 126 50
f 25 26 138
f 69 78 149
f 53 59 57
f 53 84 59
f 91 96 92
f 47 56 55
f 31 150 32
f 37 40 139
f 87 137 101
f 93 152 104
f 19 155 128
f 21 128 155
f 21 129 128
f 39 48 41
f 64 82 86
f 95 108 110
f 35 95 46
f 83 125 121
f 36 139 109
f 92 145 125
f 35 46 45
f 92 93 145
