v -0.00118774939 -0.000455818263 0.0465901549
v 5.97154881e-10 3.92252412e-11 -2.04770451e-09
v 0.0123606811 3.29709776e-10 0.00195773696
v 0.0235114116 -8.50471408e-11 0.00763931552
v 0.0345500111 -0.000332307286 0.0127634116
v 0.0406202626 -0.000336853786 0.022540954
v 0.0425111918 -0.000321456748 0.0335952111
v 0.0399923441 -0.000264898149 0.0451840191
v 0.0336801819 -0.000306813285 0.0550684637
v 0.024706049 -0.000515013223 0.0617816378
v 0.0129324438 -0.00103939802 0.0606057754
v 8.84070409e-05 -0.0134696535 0.0612246032
v 0.0364071298 0.011469465 0.01701176
v 0.027679826 0.0115199662 0.0585229193
v 0.0402180673 0.0111488543 0.0390862317
v 0.0403390401 -0.0117978187 0.0397362961
v 0.0289564779 -0.0116922961 0.00941841817
v 0.00602530306 -0.0107926894 0.00195773775
v 0.0278787794 -0.0117289292 0.057690365
v 0.00591452716 0.00919067243 0.0515986445
v 0.0118078296 -0.0129859752 0.0636335601
v 0.0356834525 0.0118043072 0.0503423335
v 0.0279691171 0.0224371495 0.0528051003
v 0.0189391577 0.0215508137 0.0597544665
v 0.0405205429 0.0116612136 0.0279072055
v 0.034214283 0.0222379307 0.0235531499
v 0.00602530251 0.0107926878 0.0019577378
v 0.0285554422 0.0218886186 0.0139348712
v 0.0187412144 0.0108997766 0.00638509186
v 0.0121311422 0.0203429028 0.00776644436
v 0.0249799993 0.031296441 0.0206513983
v 0.0294665014 0.030260048 0.0321408665
v 0.0173969902 0.0291375578 0.0118447181
v 0.0171129706 -0.0105219486 0.00541047682
v 0.010999894 -0.0214982312 0.00811224785
v 0.0400067287 -0.0118628988 0.0282746457
v 0.0360704446 -0.0224794628 0.0333000512
v 0.0342239817 -0.0220980651 0.0441134124
v 0.0281545959 -0.0314434316 0.0383249937
v 0.0289522433 -0.0303957022 0.0268800395
v 0.0193063772 -0.037629959 0.032272184
v 0.0131311721 0.037329527 0.0194696639
v -0.000191616152 0.0222890371 0.00678611058
v -0.00644031645 0.0107092029 0.00200216456
v -0.00163131786 -0.0200015146 0.00539828622
v 0.00301764466 -0.0302248286 0.00850645781
v 0.017681073 0.0306868669 0.0530369356
v 0.0174466104 -0.0370650295 0.0437538528
v 0.00786243006 -0.0421579061 0.0367945949
v -0.00992778667 -0.0297256154 0.00895880672
v 0.00511499838 -0.0388839751 0.0471194781
v -0.00496484913 -0.0418233433 0.0402850282
v -0.0072205574 -0.0367171834 0.0508739194
v -0.0139237082 -0.0172534869 0.00670663798
v 0.00784963911 0.0293955403 0.058905457
v 0.0062812701 0.0363328937 0.050783039
v -0.0167968962 -0.037268353 0.0431266204
v -0.0129863377 0.0211766743 0.00864870233
v -0.018803102 -0.0309357502 0.0532603242
v -0.00442365388 0.0331207414 0.0554736773
v -0.0274720256 -0.0301648735 0.0451542372
v -0.0282321524 -0.0217518737 0.0535910975
v -0.0360347585 -0.0196711967 0.0452658879
v -0.0351903496 -0.0106961192 0.0528858075
v -0.0409342105 -0.00605462704 0.0416070992
v -0.00608158522 0.0387737985 0.0466800188
v -0.0163487012 0.0330866517 0.0509818151
v -0.0177292586 0.0377836477 0.0404526309
v -0.0218945913 -0.0237850038 0.00962718172
v -0.0158487111 0.0267949483 0.0583004958
v -0.026820739 -0.0117681241 0.00721118524
v -0.0269823032 0.0302121298 0.0449280812
v -0.0266655081 0.032934762 0.0331305219
v -0.0327825405 -0.0176628729 0.0147263066
v -0.0346168767 -0.00516633917 0.0121829265
v -0.0348908558 0.0241014708 0.036595671
v -0.0333457211 0.0251450954 0.0253937756
v -0.0187192775 -0.03386259 0.0177852938
v -0.0147757102 0.0391494295 0.0291044709
v -0.0346983749 0.0194964985 0.0466351932
v -0.0398170302 0.0151122663 0.0293644917
v -0.0260537031 -0.0114136578 0.0602825163
v -0.00637627511 0.0319084899 0.0114607295
v -0.00830525453 -0.0286733129 0.0588613049
v -0.0337244734 -0.0263273905 0.0350879937
v -0.0306369402 0.000565094421 0.0582316154
v -0.0202599345 -0.000838837603 0.0637975221
v 0.00486022699 0.0412982772 0.0405263758
v 0.0146508813 -0.0319990307 0.0535772297
v -0.0400085415 -0.00795382531 0.0209889081
v -0.018313479 0.00920714502 0.00565112221
v -0.0250009293 0.018748088 0.00971036238
v -0.0355904278 0.0151427468 0.0167827039
v -0.00156424989 -0.0420146243 0.0274754657
v 0.0154002609 -0.0305505795 0.0121470779
v -0.0304789989 0.00669732495 0.00837935432
v -0.0116733881 -0.000655211863 0.0017468581
v -0.0144411532 -0.0130584165 0.0627509983
v 0.00643322121 -0.0377110625 0.0173955431
v -0.0248479195 0.0108127771 0.0611239704
v -0.0133139607 0.0102669789 0.0638291814
v 0.0253646797 0.0312563999 0.0440721485
v -0.00363151191 0.0156586753 0.0635099283
v -0.0409299452 0.00458045302 0.0236538989
v -0.0425109396 0.00486967463 0.0346845079
v 0.0361997343 -0.0117876956 0.0494017934
v 0.0220839525 -0.0209531367 0.00868228276
v 0.0274963713 -0.0257400213 0.0159663129
v 0.0364761507 -0.0113194679 0.0171953982
v 0.0187058558 -0.035714072 0.0216358024
v 0.0194828905 0.00841377035 0.0627373469
v -0.0357083135 -0.021514058 0.0243356825
v -0.0404350925 -0.0140198972 0.0326528936
v -0.0398106599 0.00648177918 0.045417548
v -0.028028716 -0.0313074967 0.0262034351
v 0.0283657791 0.0107632248 0.0093481685
v 0.0344209756 0.0213848999 0.0433915355
v 0.0188938204 0.0375587934 0.0363765925
v 0.00601905126 0.0330672473 0.0120669181
v -0.000729817585 0.0397086773 0.0204330865
v -0.0130245108 0.0361600062 0.0185151952
v -0.00275527109 0.0416613798 0.0314297029
v 0.00910390202 0.0403078605 0.0295001777
v -0.0234953366 0.033013112 0.0224709622
v -0.0185326843 0.0293285769 0.0135225138
v -0.00516313981 -0.0373524523 0.0164904978
v 0.0249651121 -0.0293286898 0.0488634028
v 0.0216364865 -0.0213732628 0.0578728905
v 0.0092526861 -0.0249075148 0.0605249306
v 0.00331351073 -0.0343377606 0.0546708931
v -0.000922893099 -0.0214754259 0.0609714363
v -0.00388598044 0.025766449 0.0611421174
v 0.0104737042 -0.0405019458 0.0269009812
v -0.0262591185 0.0246538769 0.0531202737
v -0.0140682387 -0.0406508792 0.0327694872
v -0.0207358551 -0.0222641712 0.059215114
v -0.013220727 0.000183317289 0.0601334469
v 0.0372161018 0.0201341002 0.0333493161
v 0.0355134422 -0.0213072644 0.0241177927
v -0.0244319137 -0.0350337898 0.0347449248
v -0.00635163968 -0.00907876706 0.00156521178
v -0.0328890897 0.0115327145 0.0549014849
v -0.0207499791 -0.000433769894 0.00580569472
v -0.011978149 -0.0396573858 0.0233135198
v -0.028575131 0.0253461943 0.0169555619
v 0.0302483333 -0.0204999926 0.0520845188
v -0.039391546 0.0142515859 0.0386542837
v 0.0153401729 0.0366957445 0.0455532328
v -0.0277979747 -0.0265488335 0.0175156012
v 0.0194949276 0.0366693443 0.0270938561
v 0.00866534411 0.0212225838 0.0622419622
v -0.0372969289 0.0042935619 0.0147866152
v 0.0218056079 0.0188074567 0.00858187599
v -0.0373152569 -0.000238402667 0.0519818159
v 0.0212986622 -0.00911521832 0.0627973829
v -0.0424520245 -0.00432458365 0.0300733369
v -0.0291423556 -0.0020166171 0.00764666611
v -0.00801754961 0.0410390094 0.0389366108
v -0.0168965518 -0.00861181009 0.00478149004
v -0.0199827813 -0.0371767588 0.0267975827
v -0.0167885791 0.0179107024 0.0625001445
v -0.0233919692 0.0188452873 0.0589551154
f 39 127 48
f 64 86 154
f 66 158 68
f 80 142 134
f 97 159 143
f 64 154 65
f 115 160 140
f 134 142 162
f 71 157 143
f 66 68 67
f 24 151 111
f 68 158 79
f 71 143 159
f 5 116 13
f 38 127 39
f 63 64 65
f 86 142 154
f 28 153 33
f 74 90 75
f 27 30 29
f 102 118 148
f 114 154 142
f 38 146 127
f 103 151 132
f 70 162 161
f 61 85 140
f 135 140 160
f 71 75 157
f 19 146 106
f 70 134 162
f 78 144 160
f 80 114 142
f 80 147 114
f 61 62 63
f 135 160 144
f 17 108 107
f 29 30 153
f 4 116 5
f 49 52 94
f 70 161 132
f 65 105 156
f 12 98 131
f 30 33 153
f 48 127 89
f 75 96 157
f 65 154 114
f 60 66 67
f 81 105 147
f 16 106 38
f 71 74 75
f 67 134 70
f 76 81 147
f 34 107 35
f 103 132 161
f 13 116 28
f 38 106 146
f 28 116 153
f 95 110 99
f 43 44 58
f 66 88 158
f 94 135 144
f 48 51 49
f 29 153 116
f 2 18 141
f 88 148 118
f 62 64 63
f 77 124 145
f 52 135 94
f 54 71 159
f 5 13 6
f 62 82 64
f 57 140 135
f 79 121 124
f 58 125 83
f 14 23 24
f 23 102 47
f 105 114 147
f 67 72 134
f 59 136 62
f 60 67 70
f 85 115 140
f 7 16 36
f 49 51 52
f 56 88 66
f 121 125 124
f 60 70 132
f 6 25 7
f 16 38 37
f 65 114 105
f 95 107 108
f 35 107 95
f 18 35 45
f 2 141 97
f 18 34 35
f 67 68 72
f 97 141 159
f 79 158 122
f 108 109 139
f 124 125 145
f 9 19 106
f 16 37 36
f 17 109 108
f 73 79 124
f 100 162 142
f 84 98 136
f 74 112 90
f 84 131 98
f 54 69 71
f 79 120 121
f 94 99 133
f 59 62 61
f 82 87 86
f 22 117 23
f 20 111 151
f 62 136 82
f 65 156 113
f 73 124 77
f 56 66 60
f 61 63 85
f 76 147 80
f 76 77 81
f 32 102 117
f 82 98 87
f 57 61 140
f 48 89 51
f 10 11 155
f 2 3 18
f 112 149 115
f 20 151 103
f 28 33 31
f 82 136 98
f 101 137 103
f 127 146 128
f 27 43 30
f 1 20 137
f 2 27 3
f 27 44 43
f 89 127 128
f 104 156 105
f 79 122 120
f 77 145 93
f 23 47 24
f 84 130 129
f 10 111 11
f 32 118 102
f 14 24 111
f 14 22 23
f 88 122 158
f 5 109 17
f 32 117 138
f 4 5 17
f 3 27 29
f 75 152 96
f 49 94 133
f 55 132 151
f 88 118 123
f 6 13 25
f 51 53 52
f 26 28 31
f 23 117 102
f 101 103 161
f 41 48 49
f 44 97 91
f 8 9 106
f 74 149 112
f 94 144 126
f 78 160 115
f 68 79 73
f 4 29 116
f 83 121 120
f 13 28 26
f 90 156 104
f 33 119 42
f 51 130 53
f 8 106 16
f 15 138 117
f 86 100 142
f 2 97 44
f 1 21 11
f 90 113 156
f 56 148 88
f 40 110 108
f 50 69 54
f 17 107 34
f 7 25 15
f 42 120 123
f 58 92 125
f 75 90 152
f 84 129 131
f 40 41 110
f 47 102 148
f 99 110 133
f 63 65 113
f 78 126 144
f 69 74 71
f 46 95 99
f 91 97 143
f 55 60 132
f 89 129 130
f 6 7 36
f 52 57 135
f 12 137 98
f 96 143 157
f 1 137 12
f 118 150 123
f 39 41 40
f 72 80 134
f 11 111 20
f 51 89 130
f 42 119 120
f 92 96 93
f 81 104 105
f 45 46 50
f 15 117 22
f 88 123 122
f 2 44 27
f 37 38 39
f 43 58 83
f 18 45 141
f 10 155 19
f 85 112 115
f 86 87 100
f 59 84 136
f 100 161 162
f 53 130 84
f 90 112 113
f 31 33 42
f 42 123 150
f 36 37 139
f 54 159 141
f 94 126 99
f 120 122 123
f 5 6 109
f 41 49 133
f 8 22 9
f 44 91 58
f 77 93 81
f 7 8 16
f 9 10 19
f 87 101 100
f 20 103 137
f 1 12 21
f 68 73 72
f 78 115 149
f 63 113 85
f 90 104 152
f 30 119 33
f 72 76 80
f 15 25 138
f 24 55 151
f 50 126 78
f 41 133 110
f 12 131 21
f 45 50 54
f 73 77 76
f 3 29 4
f 100 101 161
f 21 131 129
f 55 56 60
f 89 128 129
f 1 11 20
f 83 120 119
f 57 59 61
f 19 128 146
f 11 21 155
f 3 34 18
f 40 108 139
f 26 31 32
f 69 149 74
f 13 26 25
f 9 22 14
f 26 32 138
f 8 15 22
f 45 54 141
f 6 36 109
f 24 47 55
f 30 43 119
f 87 98 137
f 50 78 69
f 4 17 34
f 91 143 96
f 93 96 152
f 85 113 112
f 7 15 8
f 72 73 76
f 32 150 118
f 52 53 57
f 10 14 111
f 37 39 40
f 9 14 10
f 31 42 150
f 3 4 34
f 43 83 119
f 46 99 126
f 81 93 104
f 58 91 92
f 47 148 56
f 46 126 50
f 25 26 138
f 69 78 149
f 53 59 57
f 53 84 59
f 91 96 92
f 47 56 55
f 31 150 32
f 37 40 139
f 87 137 101
f 93 152 104
f 19 155 128
f 21 128 155
f 21 129 128
f 39 48 41
f 64 82 86
f 95 108 110
f 35 95 46
f 83 125 121
f 36 139 109
f 92 145 125
f 35 46 45
f 92 93 145
