v 2.457456 1.720729 0
v 2.418758 1.773507 0
v 2.380060 1.826284 0
v 2.339097 1.877324 0
v 2.298133 1.928363 0
v 2.254982 1.977567 0
v 2.211832 2.026771 0
v 2.166576 2.074046 0
v 2.121320 2.121320 0
v 2.074046 2.166576 0
v 2.026771 2.211832 0
v 1.977567 2.254982 0
v 1.928363 2.298133 0
v 1.877324 2.339097 0
v 1.826284 2.380060 0
v 1.773507 2.418758 0
v 1.720729 2.457456 0
v 1.666314 2.493815 0
v 1.611899 2.530174 0
v 1.555949 2.564125 0
v 1.500000 2.598076 0
v 1.442623 2.629554 0
v 1.385246 2.661033 0
v 1.326550 2.689978 0
v 1.267855 2.718923 0
v 1.207952 2.745281 0
v 1.148050 2.771639 0
v 1.087055 2.795358 0
v 1.026060 2.819078 0
v 0.964089 2.840114 0
v 0.902117 2.861151 0
v 0.839287 2.879464 0
v 0.776457 2.897778 0
v 0.712888 2.913333 0
v 0.649319 2.928888 0
v 0.585132 2.941656 0
v 0.520945 2.954423 0
v 0.456262 2.964379 0
v 0.391579 2.974335 0
v 0.326523 2.981459 0
v 0.261467 2.988584 0
v 0.196163 2.992864 0
v 0.130858 2.997145 0
v 0.065429 2.998572 0
v 0.000000 3.000000 0
v -0.065429 2.998572 0
v -0.130858 2.997145 0
v -0.196163 2.992864 0
v -0.261467 2.988584 0
v -0.326523 2.981459 0
v -0.391579 2.974335 0
v -0.456262 2.964379 0
v -0.520945 2.954423 0
v -0.585132 2.941656 0
v -0.649319 2.928888 0
v -0.712888 2.913333 0
v -0.776457 2.897778 0
v -0.839287 2.879464 0
v -0.902117 2.861151 0
v -0.964089 2.840114 0
v -1.026060 2.819078 0
v -1.087055 2.795358 0
v -1.148050 2.771639 0
v -1.207952 2.745281 0
v -1.267855 2.718923 0
v -1.326550 2.689978 0
v -1.385246 2.661033 0
v -1.442623 2.629554 0
v -1.500000 2.598076 0
v -1.555949 2.564125 0
v -1.611899 2.530174 0
v -1.666314 2.493815 0
v -1.720729 2.457456 0
v -1.773507 2.418758 0
v -1.826284 2.380060 0
v -1.877324 2.339097 0
v -1.928363 2.298133 0
v -1.977567 2.254982 0
v -2.026771 2.211832 0
v -2.074046 2.166576 0
v -2.121320 2.121320 0
v -2.166576 2.074046 0
v -2.211832 2.026771 0
v -2.254982 1.977567 0
v -2.298133 1.928363 0
v -2.339097 1.877324 0
v -2.380060 1.826284 0
v -2.418758 1.773507 0
v -2.457456 1.720729 0
v -2.493815 1.666314 0
v -2.530174 1.611899 0
v -2.564125 1.555949 0
v -2.598076 1.500000 0
v -2.629554 1.442623 0
v -2.661033 1.385246 0
v -2.689978 1.326550 0
v -2.718923 1.267855 0
v -2.745281 1.207952 0
v -2.771639 1.148050 0
v -2.795358 1.087055 0
v -2.819078 1.026060 0
v -2.840114 0.964089 0
v -2.861151 0.902117 0
v -2.879464 0.839287 0
v -2.897778 0.776457 0
v -2.913333 0.712888 0
v -2.928888 0.649319 0
v -2.941656 0.585132 0
v -2.954423 0.520945 0
v -2.964379 0.456262 0
v -2.974335 0.391579 0
v -2.981459 0.326523 0
v -2.988584 0.261467 0
v -2.992864 0.196163 0
v -2.997145 0.130858 0
v -2.998572 0.065429 0
v -3.000000 0.000000 0
v -2.998572 -0.065429 0
v -2.997145 -0.130858 0
v -2.992864 -0.196163 0
v -2.988584 -0.261467 0
v -2.981459 -0.326523 0
v -2.974335 -0.391579 0
v -2.964379 -0.456262 0
v -2.954423 -0.520945 0
v -2.941656 -0.585132 0
v -2.928888 -0.649319 0
v -2.913333 -0.712888 0
v -2.897778 -0.776457 0
v -2.879464 -0.839287 0
v -2.861151 -0.902117 0
v -2.840114 -0.964089 0
v -2.819078 -1.026060 0
v -2.795358 -1.087055 0
v -2.771639 -1.148050 0
v -2.745281 -1.207952 0
v -2.718923 -1.267855 0
v -2.689978 -1.326550 0
v -2.661033 -1.385246 0
v -2.629554 -1.442623 0
v -2.598076 -1.500000 0
v -2.564125 -1.555949 0
v -2.530174 -1.611899 0
v -2.493815 -1.666314 0
v -2.457456 -1.720729 0
v -2.418758 -1.773507 0
v -2.380060 -1.826284 0
v -2.339097 -1.877324 0
v -2.298133 -1.928363 0
v -2.254982 -1.977567 0
v -2.211832 -2.026771 0
v -2.166576 -2.074046 0
v -2.121320 -2.121320 0
v -2.074046 -2.166576 0
v -2.026771 -2.211832 0
v -1.977567 -2.254982 0
v -1.928363 -2.298133 0
v -1.877324 -2.339097 0
v -1.826284 -2.380060 0
v -1.773507 -2.418758 0
v -1.720729 -2.457456 0
v -1.666314 -2.493815 0
v -1.611899 -2.530174 0
v -1.555949 -2.564125 0
v -1.500000 -2.598076 0
v -1.442623 -2.629554 0
v -1.385246 -2.661033 0
v -1.326550 -2.689978 0
v -1.267855 -2.718923 0
v -1.207952 -2.745281 0
v -1.148050 -2.771639 0
v -1.087055 -2.795358 0
v -1.026060 -2.819078 0
v -0.964089 -2.840114 0
v -0.902117 -2.861151 0
v -0.839287 -2.879464 0
v -0.776457 -2.897778 0
v -0.712888 -2.913333 0
v -0.649319 -2.928888 0
v -0.585132 -2.941656 0
v -0.520945 -2.954423 0
v -0.456262 -2.964379 0
v -0.391579 -2.974335 0
v -0.326523 -2.981459 0
v -0.261467 -2.988584 0
v -0.196163 -2.992864 0
v -0.130858 -2.997145 0
v -0.065429 -2.998572 0
v -0.000000 -3.000000 0
v 0.065429 -2.998572 0
v 0.130858 -2.997145 0
v 0.196163 -2.992864 0
v 0.261467 -2.988584 0
v 0.326523 -2.981459 0
v 0.391579 -2.974335 0
v 0.456262 -2.964379 0
v 0.520945 -2.954423 0
v 0.585132 -2.941656 0
v 0.649319 -2.928888 0
v 0.712888 -2.913333 0
v 0.776457 -2.897778 0
v 0.839287 -2.879464 0
v 0.902117 -2.861151 0
v 0.964089 -2.840114 0
v 1.026060 -2.819078 0
v 1.087055 -2.795358 0
v 1.148050 -2.771639 0
v 1.207952 -2.745281 0
v 1.267855 -2.718923 0
v 1.326550 -2.689978 0
v 1.385246 -2.661033 0
v 1.442623 -2.629554 0
v 1.500000 -2.598076 0
v 1.555949 -2.564125 0
v 1.611899 -2.530174 0
v 1.666314 -2.493815 0
v 1.720729 -2.457456 0
v 1.773507 -2.418758 0
v 1.826284 -2.380060 0
v 1.877324 -2.339097 0
v 1.928363 -2.298133 0
v 1.977567 -2.254982 0
v 2.026771 -2.211832 0
v 2.074046 -2.166576 0
v 2.121320 -2.121320 0
v 2.166576 -2.074046 0
v 2.211832 -2.026771 0
v 2.254982 -1.977567 0
v 2.298133 -1.928363 0
v 2.339097 -1.877324 0
v 2.380060 -1.826284 0
v 2.418758 -1.773507 0
v 2.457456 -1.720729 0
v 2.493815 -1.666314 0
v 2.530174 -1.611899 0
v 2.564125 -1.555949 0
v 2.598076 -1.500000 0
v 2.629554 -1.442623 0
v 2.661033 -1.385246 0
v 2.689978 -1.326550 0
v 2.718923 -1.267855 0
v 2.745281 -1.207952 0
v 2.771639 -1.148050 0
v 2.795358 -1.087055 0
v 2.819078 -1.026060 0
v 2.840114 -0.964089 0
v 2.861151 -0.902117 0
v 2.879464 -0.839287 0
v 2.897778 -0.776457 0
v 2.913333 -0.712888 0
v 2.928888 -0.649319 0
v 2.941656 -0.585132 0
v 2.954423 -0.520945 0
v 2.964379 -0.456262 0
v 2.974335 -0.391579 0
v 2.981459 -0.326523 0
v 2.988584 -0.261467 0
v 2.992864 -0.196163 0
v 2.997145 -0.130858 0
v 2.998572 -0.065429 0
v 3.000000 0.000000 0
v 2.998572 0.065429 0
v 2.997145 0.130858 0
v 2.992864 0.196163 0
v 2.988584 0.261467 0
v 2.981459 0.326523 0
v 2.974335 0.391579 0
v 2.964379 0.456262 0
v 2.954423 0.520945 0
v 2.941656 0.585132 0
v 2.928888 0.649319 0
v 2.913333 0.712888 0
v 2.897778 0.776457 0
v 2.879464 0.839287 0
v 2.861151 0.902117 0
v 2.840114 0.964089 0
v 2.819078 1.026060 0
v 2.795358 1.087055 0
v 2.771639 1.148050 0
v 2.745281 1.207952 0
v 2.718923 1.267855 0
v 2.689978 1.326550 0
v 2.661033 1.385246 0
v 2.629554 1.442623 0
v 2.598076 1.500000 0
v 2.564125 1.555949 0
v 2.530174 1.611899 0
v 2.493815 1.666314 0
v 1.638304 1.147153 0
v 1.586707 1.217523 0
v 1.532089 1.285575 0
v 1.474555 1.351180 0
v 1.414214 1.414214 0
v 1.351180 1.474555 0
v 1.285575 1.532089 0
v 1.217523 1.586707 0
v 1.147153 1.638304 0
v 1.074599 1.686783 0
v 1.000000 1.732051 0
v 0.923497 1.774022 0
v 0.845237 1.812616 0
v 0.765367 1.847759 0
v 0.684040 1.879385 0
v 0.601412 1.907434 0
v 0.517638 1.931852 0
v 0.432879 1.952592 0
v 0.347296 1.969615 0
v 0.261052 1.982890 0
v 0.174311 1.992389 0
v 0.087239 1.998096 0
v 0.000000 2.000000 0
v -0.087239 1.998096 0
v -0.174311 1.992389 0
v -0.261052 1.982890 0
v -0.347296 1.969615 0
v -0.432879 1.952592 0
v -0.517638 1.931852 0
v -0.601412 1.907434 0
v -0.684040 1.879385 0
v -0.765367 1.847759 0
v -0.845237 1.812616 0
v -0.923497 1.774022 0
v -1.000000 1.732051 0
v -1.074599 1.686783 0
v -1.147153 1.638304 0
v -1.217523 1.586707 0
v -1.285575 1.532089 0
v -1.351180 1.474555 0
v -1.414214 1.414214 0
v -1.474555 1.351180 0
v -1.532089 1.285575 0
v -1.586707 1.217523 0
v -1.638304 1.147153 0
v -1.686783 1.074599 0
v -1.732051 1.000000 0
v -1.774022 0.923497 0
v -1.812616 0.845237 0
v -1.847759 0.765367 0
v -1.879385 0.684040 0
v -1.907434 0.601412 0
v -1.931852 0.517638 0
v -1.952592 0.432879 0
v -1.969615 0.347296 0
v -1.982890 0.261052 0
v -1.992389 0.174311 0
v -1.998096 0.087239 0
v -2.000000 0.000000 0
v -1.998096 -0.087239 0
v -1.992389 -0.174311 0
v -1.982890 -0.261052 0
v -1.969615 -0.347296 0
v -1.952592 -0.432879 0
v -1.931852 -0.517638 0
v -1.907434 -0.601412 0
v -1.879385 -0.684040 0
v -1.847759 -0.765367 0
v -1.812616 -0.845237 0
v -1.774022 -0.923497 0
v -1.732051 -1.000000 0
v -1.686783 -1.074599 0
v -1.638304 -1.147153 0
v -1.586707 -1.217523 0
v -1.532089 -1.285575 0
v -1.474555 -1.351180 0
v -1.414214 -1.414214 0
v -1.351180 -1.474555 0
v -1.285575 -1.532089 0
v -1.217523 -1.586707 0
v -1.147153 -1.638304 0
v -1.074599 -1.686783 0
v -1.000000 -1.732051 0
v -0.923497 -1.774022 0
v -0.845237 -1.812616 0
v -0.765367 -1.847759 0
v -0.684040 -1.879385 0
v -0.601412 -1.907434 0
v -0.517638 -1.931852 0
v -0.432879 -1.952592 0
v -0.347296 -1.969615 0
v -0.261052 -1.982890 0
v -0.174311 -1.992389 0
v -0.087239 -1.998096 0
v -0.000000 -2.000000 0
v 0.087239 -1.998096 0
v 0.174311 -1.992389 0
v 0.261052 -1.982890 0
v 0.347296 -1.969615 0
v 0.432879 -1.952592 0
v 0.517638 -1.931852 0
v 0.601412 -1.907434 0
v 0.684040 -1.879385 0
v 0.765367 -1.847759 0
v 0.845237 -1.812616 0
v 0.923497 -1.774022 0
v 1.000000 -1.732051 0
v 1.074599 -1.686783 0
v 1.147153 -1.638304 0
v 1.217523 -1.586707 0
v 1.285575 -1.532089 0
v 1.351180 -1.474555 0
v 1.414214 -1.414214 0
v 1.474555 -1.351180 0
v 1.532089 -1.285575 0
v 1.586707 -1.217523 0
v 1.638304 -1.147153 0
v 1.686783 -1.074599 0
v 1.732051 -1.000000 0
v 1.774022 -0.923497 0
v 1.812616 -0.845237 0
v 1.847759 -0.765367 0
v 1.879385 -0.684040 0
v 1.907434 -0.601412 0
v 1.931852 -0.517638 0
v 1.952592 -0.432879 0
v 1.969615 -0.347296 0
v 1.982890 -0.261052 0
v 1.992389 -0.174311 0
v 1.998096 -0.087239 0
v 2.000000 -0.000000 0
v 1.998096 0.087239 0
v 1.992389 0.174311 0
v 1.982890 0.261052 0
v 1.969615 0.347296 0
v 1.952592 0.432879 0
v 1.931852 0.517638 0
v 1.907434 0.601412 0
v 1.879385 0.684040 0
v 1.847759 0.765367 0
v 1.812616 0.845237 0
v 1.774022 0.923497 0
v 1.732051 1.000000 0
v 1.686783 1.074599 0
v -2.399131 -0.695749 0
v 1.653413 -1.872557 0
v -0.898406 -2.330451 0
v -1.449450 2.038845 0
v -2.028323 -1.458123 0
v -0.030677 -2.497760 0
v 2.490912 0.229881 0
v 2.284683 1.005308 0
v 0.745921 -2.384264 0
v -1.867264 1.657806 0
v -0.115155 2.499291 0
v 2.460332 -0.430267 0
v 0.444431 2.457452 0
v -2.228419 1.123719 0
v -0.902265 2.334492 0
v -1.619258 -1.899591 0
v 0.933231 2.314002 0
v 1.530867 1.970568 0
v 2.231432 -1.138675 0
v -2.491845 0.092600 0
v 1.251562 -2.171865 0
v 1.918615 1.585587 0
v -2.403384 0.637132 0
v 1.990846 -1.527968 0
v -0.465038 -2.375953 0
v -2.331970 -1.106370 0
v -1.299420 -2.164862 0
v 2.492624 0.652035 0
v -0.525580 2.538065 0
v -2.571850 -0.325507 0
v 0.336724 -2.382646 0
v 2.266313 -0.740290 0
v 1.310154 2.286059 0
v 2.228353 1.362935 0
v 2.635604 -0.132747 0
v -1.241700 2.310578 0
v -1.977207 1.344787 0
v -1.922886 -1.784871 0
v 0.156010 2.311956 0
v 2.315894 -0.133971 0
v -1.554377 1.720395 0
v -1.811344 1.971245 0
v -2.644307 0.370577 0
v 1.172141 1.996526 0
v -2.524282 0.925170 0
v -0.689141 -2.599314 0
v 1.058627 -2.415610 0
v 1.849372 1.887732 0
v 1.583427 -2.175418 0
v 1.966720 -1.835341 0
v 2.007670 1.139778 0
v -1.731741 -1.543547 0
v -0.295130 -2.675448 0
v 0.521626 -2.640790 0
v 0.169955 2.616884 0
v -2.257108 1.480416 0
v 2.488475 -0.983531 0
v 0.772876 2.567496 0
v -2.299680 -0.200410 0
v -0.591350 2.221853 0
v -1.147208 1.992467 0
v -2.142904 0.840602 0
v -2.296324 0.314470 0
v 0.916211 -2.143963 0
v 1.631237 1.645610 0
v 1.323940 -1.887908 0
v 2.571863 -0.705495 0
v -2.026915 -1.061755 0
f 434 482 456
f 454 483 466
f 437 500 458
f 142 437 458
f 470 155 448
f 402 434 456
f 402 401 434
f 497 480 450
f 480 497 454
f 476 296 450
f 296 497 450
f 497 296 295
f 301 476 449
f 302 301 449
f 361 500 437
f 500 433 458
f 484 470 448
f 470 484 437
f 484 361 437
f 470 152 153
f 151 152 470
f 135 136 458
f 136 137 458
f 137 136 135
f 138 139 458
f 137 138 458
f 139 140 458
f 154 470 153
f 154 155 470
f 170 171 435
f 169 170 435
f 170 169 171
f 459 168 435
f 168 169 435
f 168 459 167
f 239 451 238
f 226 482 225
f 226 227 482
f 444 255 467
f 472 444 467
f 482 224 225
f 223 224 482
f 453 498 496
f 479 453 496
f 210 479 209
f 479 210 211
f 459 369 448
f 372 459 435
f 188 187 189
f 438 188 189
f 190 438 189
f 438 190 191
f 193 486 438
f 409 451 464
f 484 366 365
f 366 484 448
f 262 467 261
f 262 263 467
f 5 480 454
f 287 288 466
f 288 1 466
f 1 2 466
f 2 1 3
f 2 454 466
f 454 2 3
f 282 283 466
f 280 279 281
f 10 480 9
f 480 10 11
f 480 8 9
f 8 480 7
f 497 293 292
f 432 431 483
f 497 291 454
f 291 290 454
f 291 497 292
f 301 300 476
f 477 98 99
f 98 97 99
f 97 98 477
f 27 28 449
f 305 304 449
f 445 305 449
f 445 487 471
f 487 44 45
f 44 487 43
f 487 443 471
f 443 492 314
f 16 17 450
f 15 16 450
f 16 15 17
f 480 14 450
f 14 15 450
f 26 27 449
f 25 26 449
f 26 25 27
f 495 346 345
f 141 140 139
f 141 142 458
f 140 141 458
f 147 470 437
f 146 147 437
f 171 172 435
f 175 478 174
f 180 485 478
f 188 485 187
f 485 188 438
f 233 234 456
f 234 235 456
f 235 451 456
f 451 235 236
f 237 239 238
f 451 237 238
f 237 451 236
f 235 237 236
f 243 489 242
f 451 489 464
f 227 228 482
f 232 233 456
f 482 231 456
f 230 231 482
f 231 232 456
f 232 231 233
f 444 254 255
f 467 260 261
f 259 260 467
f 498 395 496
f 479 206 207
f 209 208 207
f 208 479 207
f 479 208 209
f 375 374 435
f 370 369 459
f 192 438 191
f 192 193 438
f 194 193 195
f 486 194 195
f 194 486 193
f 486 463 438
f 385 463 386
f 393 392 496
f 473 330 329
f 369 368 448
f 431 430 483
f 430 429 483
f 265 267 266
f 269 268 267
f 275 277 276
f 274 460 273
f 460 272 273
f 275 460 274
f 460 271 272
f 460 275 276
f 271 460 270
f 277 460 276
f 460 269 270
f 269 460 268
f 4 454 3
f 4 5 454
f 480 6 7
f 6 5 7
f 5 6 480
f 286 287 466
f 285 286 466
f 286 285 287
f 283 284 466
f 284 285 466
f 285 284 283
f 289 432 483
f 454 289 483
f 290 289 454
f 476 299 298
f 300 299 476
f 100 477 99
f 104 105 477
f 442 488 469
f 442 473 474
f 442 474 83
f 442 330 473
f 443 461 492
f 80 474 79
f 80 81 474
f 474 82 83
f 81 82 474
f 468 436 493
f 473 436 474
f 436 473 493
f 29 31 30
f 303 302 449
f 304 303 449
f 445 306 305
f 487 38 39
f 445 38 487
f 40 487 39
f 41 40 39
f 40 41 487
f 487 42 43
f 41 42 487
f 46 487 45
f 46 443 487
f 443 46 47
f 12 480 11
f 24 465 23
f 476 465 449
f 465 25 449
f 465 24 25
f 465 476 450
f 465 18 19
f 17 465 450
f 18 465 17
f 361 360 500
f 355 433 500
f 433 133 458
f 132 133 433
f 130 433 129
f 462 127 433
f 491 462 433
f 452 475 115
f 491 452 462
f 475 452 495
f 452 346 495
f 346 452 347
f 452 491 347
f 455 475 495
f 105 455 477
f 364 484 365
f 364 363 484
f 484 362 361
f 363 362 484
f 142 143 437
f 143 144 437
f 141 143 142
f 145 146 437
f 144 145 437
f 145 147 146
f 173 175 174
f 478 173 174
f 173 478 435
f 172 173 435
f 478 176 177
f 175 176 478
f 181 485 180
f 178 478 177
f 185 184 183
f 184 485 183
f 485 184 185
f 485 186 187
f 186 485 185
f 159 160 448
f 160 159 161
f 160 459 448
f 160 161 459
f 459 166 167
f 161 162 459
f 489 241 242
f 241 243 242
f 239 240 451
f 240 489 451
f 240 241 489
f 244 489 243
f 250 499 249
f 499 444 464
f 489 499 464
f 499 489 246
f 247 499 246
f 229 228 227
f 229 230 482
f 228 229 482
f 472 418 417
f 419 418 472
f 420 419 472
f 499 251 252
f 251 499 250
f 254 253 255
f 253 254 444
f 253 499 252
f 499 253 444
f 255 256 467
f 256 257 467
f 257 256 255
f 258 259 467
f 257 258 467
f 202 486 201
f 441 479 496
f 479 441 204
f 441 203 204
f 202 441 486
f 441 202 203
f 441 463 486
f 390 441 496
f 399 498 434
f 394 393 496
f 395 394 496
f 397 396 498
f 396 395 498
f 401 400 434
f 400 399 434
f 212 479 211
f 479 212 453
f 214 481 453
f 218 481 217
f 498 481 434
f 481 498 453
f 219 218 217
f 481 219 220
f 219 481 218
f 203 205 204
f 205 479 204
f 205 206 479
f 373 372 435
f 374 373 435
f 372 371 459
f 371 370 459
f 379 457 380
f 457 485 438
f 485 457 478
f 378 457 379
f 478 457 435
f 383 382 438
f 197 198 486
f 486 200 201
f 384 383 438
f 463 384 438
f 384 463 385
f 391 390 496
f 392 391 496
f 416 472 417
f 444 414 464
f 414 413 464
f 451 406 456
f 407 406 451
f 409 408 451
f 408 407 451
f 367 366 448
f 368 367 448
f 439 420 472
f 439 472 467
f 439 265 266
f 267 439 266
f 265 439 264
f 268 439 267
f 460 439 268
f 263 439 467
f 264 439 263
f 297 476 298
f 297 296 476
f 101 102 477
f 100 101 477
f 442 86 488
f 442 331 330
f 332 331 469
f 331 442 469
f 488 446 469
f 446 335 469
f 446 97 477
f 446 96 97
f 96 446 95
f 446 488 95
f 461 53 54
f 461 447 492
f 447 468 493
f 320 447 493
f 461 56 57
f 474 78 79
f 65 64 63
f 64 65 468
f 64 447 63
f 447 64 468
f 468 66 67
f 65 66 468
f 69 70 468
f 436 72 73
f 72 436 468
f 74 436 73
f 323 322 493
f 324 323 493
f 473 325 493
f 325 324 493
f 317 316 492
f 322 321 493
f 321 320 493
f 318 317 492
f 309 308 471
f 308 307 471
f 307 445 471
f 307 306 445
f 38 37 39
f 36 37 445
f 37 38 445
f 490 36 445
f 490 32 33
f 490 445 449
f 490 31 32
f 31 490 30
f 490 29 30
f 28 490 449
f 29 490 28
f 310 309 471
f 311 310 471
f 313 443 314
f 443 312 471
f 312 311 471
f 313 312 443
f 50 49 51
f 49 50 443
f 461 50 51
f 50 461 443
f 48 443 47
f 48 49 443
f 13 14 480
f 12 13 480
f 13 12 11
f 22 21 23
f 465 22 23
f 22 465 21
f 21 20 19
f 20 465 19
f 465 20 21
f 359 358 500
f 360 359 500
f 356 355 500
f 134 135 458
f 133 134 458
f 131 132 433
f 130 131 433
f 131 133 132
f 124 462 123
f 125 124 123
f 124 125 462
f 433 128 129
f 127 128 433
f 125 126 462
f 126 127 462
f 462 122 123
f 122 121 123
f 121 122 462
f 120 462 119
f 120 121 462
f 462 118 119
f 452 118 462
f 118 452 117
f 116 115 117
f 452 116 117
f 116 452 115
f 108 109 475
f 106 455 105
f 455 106 475
f 112 475 111
f 113 112 111
f 112 113 475
f 475 114 115
f 113 114 475
f 150 151 470
f 149 150 470
f 150 149 151
f 147 148 470
f 148 149 470
f 485 182 183
f 182 181 183
f 181 182 485
f 179 180 478
f 178 179 478
f 155 156 448
f 156 157 448
f 157 156 155
f 158 159 448
f 157 158 448
f 164 165 459
f 165 166 459
f 166 165 167
f 245 247 246
f 489 245 246
f 244 245 489
f 499 248 249
f 248 499 247
f 398 397 498
f 399 398 498
f 213 214 453
f 212 213 453
f 213 212 211
f 481 216 217
f 481 222 434
f 222 482 434
f 222 223 482
f 222 221 223
f 221 481 220
f 221 222 481
f 377 457 378
f 382 381 438
f 381 457 438
f 457 381 380
f 196 486 195
f 197 196 195
f 196 197 486
f 198 199 486
f 199 200 486
f 463 387 386
f 388 387 463
f 441 389 463
f 389 388 463
f 389 441 390
f 410 409 464
f 411 410 464
f 413 412 464
f 412 411 464
f 415 414 444
f 415 444 472
f 416 415 472
f 403 402 456
f 404 403 456
f 405 404 456
f 406 405 456
f 429 428 483
f 421 439 422
f 439 421 420
f 294 497 295
f 294 293 497
f 101 103 102
f 102 103 477
f 103 104 477
f 488 94 95
f 89 90 488
f 88 89 488
f 84 442 83
f 335 334 469
f 455 494 477
f 494 446 477
f 344 495 345
f 344 343 495
f 52 461 51
f 53 52 51
f 52 53 461
f 61 447 60
f 58 461 57
f 55 461 54
f 55 56 461
f 76 77 474
f 77 78 474
f 78 77 79
f 68 468 67
f 69 68 67
f 68 69 468
f 70 71 468
f 71 72 468
f 69 71 70
f 75 74 73
f 75 76 474
f 436 75 474
f 74 75 436
f 328 473 329
f 328 327 473
f 327 326 473
f 326 325 473
f 492 315 314
f 316 315 492
f 319 318 492
f 447 319 492
f 319 447 320
f 34 490 33
f 358 357 500
f 357 356 500
f 353 352 433
f 352 491 433
f 491 352 351
f 355 354 433
f 354 353 433
f 491 348 347
f 349 348 491
f 350 491 351
f 350 349 491
f 475 110 111
f 110 109 111
f 109 110 475
f 107 108 475
f 106 107 475
f 163 165 164
f 163 164 459
f 162 163 459
f 215 481 214
f 215 216 481
f 213 215 214
f 376 375 435
f 457 376 435
f 377 376 457
f 426 425 460
f 425 424 460
f 423 439 460
f 424 423 460
f 439 423 422
f 92 93 488
f 93 94 488
f 94 93 95
f 88 87 89
f 86 87 488
f 87 88 488
f 85 86 442
f 84 85 442
f 85 84 83
f 333 332 469
f 334 333 469
f 337 494 338
f 446 336 335
f 494 336 446
f 337 336 494
f 494 339 338
f 341 494 455
f 447 62 63
f 61 62 447
f 59 61 60
f 447 59 60
f 59 447 461
f 58 59 461
f 490 35 36
f 34 35 490
f 440 426 460
f 440 427 426
f 483 440 466
f 428 440 483
f 427 440 428
f 440 280 281
f 280 440 279
f 440 282 466
f 282 440 281
f 279 440 278
f 440 277 278
f 440 460 277
f 91 93 92
f 91 92 488
f 90 91 488
f 342 455 495
f 342 341 455
f 343 342 495
f 340 339 494
f 341 340 494
