v -0.00108465491 -0.000558183462 0.0521524771
v 4.44695917e-10 3.9426209e-11 -1.65736253e-09
v 0.0123606808 2.37566765e-10 0.00195773752
v 0.0235114113 -1.37117167e-10 0.00763931665
v 0.0341278473 -0.000334965014 0.0135389945
v 0.0400651256 -0.000348702891 0.0235856259
v 0.0418831236 -0.000308514162 0.0349218873
v 0.0394487001 -0.000249446041 0.0466552769
v 0.0332265385 -0.000251452388 0.0568117269
v 0.0245082581 -0.000396635423 0.064095055
v 0.0128403732 -0.000883827666 0.0651598664
v 7.95422521e-05 -0.0135447573 0.0663471019
v 0.0359174141 0.0113084166 0.0179828254
v 0.0273493391 0.0115888575 0.0604186074
v 0.0396793598 0.0110365753 0.0404528921
v 0.0397193279 -0.0116269832 0.0410205055
v 0.0286297497 -0.0115770955 0.0101188047
v 0.00602530283 -0.0107926894 0.00195773807
v 0.0276093731 -0.0115499578 0.0597494001
v 0.00587316791 0.00920209771 0.0576169173
v 0.0120003739 -0.013044371 0.0669284606
v 0.0351286574 0.011670127 0.0518483678
v 0.0276389688 0.0222915899 0.0542099209
v 0.0186901516 0.0216328039 0.0614196499
v 0.0399467098 0.0114338607 0.0291160559
v 0.0338230139 0.0219217019 0.0246049654
v 0.00602530248 0.0107926881 0.00195773811
v 0.0282511406 0.0215629431 0.0147733935
v 0.0187412141 0.0108997767 0.00638509271
v 0.0121311422 0.0203429018 0.00776644516
v 0.0246901884 0.0308503357 0.0216407852
v 0.029104177 0.0299056655 0.0332548848
v 0.0172698804 0.028803635 0.0125785447
v 0.0171129705 -0.0105219484 0.00541047765
v 0.0109998936 -0.021498231 0.00811224882
v 0.039538706 -0.0116917501 0.029410532
v 0.0355622811 -0.0221536312 0.0346244367
v 0.0337179653 -0.0217628227 0.0455797125
v 0.0277402277 -0.030966159 0.0398034652
v 0.028532731 -0.0299759311 0.0282243483
v 0.0190502167 -0.0371411687 0.033656948
v 0.0129899391 0.0368581184 0.0203930768
v -0.000191616155 0.0222890367 0.00678611132
v -0.00644031671 0.0107092026 0.0020021651
v -0.00163131785 -0.0200015142 0.00539828725
v 0.0029538158 -0.0300626857 0.00940106267
v 0.0174747461 0.0305511278 0.0544247378
v 0.0171996595 -0.0364764847 0.0452910183
v 0.00770387115 -0.0414539979 0.0383151304
v -0.0098806378 -0.0293716423 0.00976572778
v 0.00511063289 -0.0382712055 0.0490337642
v -0.00483634456 -0.0411395472 0.0420151201
v -0.00704051989 -0.0360707418 0.0528407513
v -0.0139237078 -0.0172534864 0.00670663898
v 0.00762734678 0.0295525967 0.0603406888
v 0.00612506633 0.0362313007 0.0520170807
v -0.0165528938 -0.0367165386 0.0449381158
v -0.0129863374 0.0211766737 0.00864870299
v -0.0184315156 -0.030325525 0.055198067
v -0.00453718636 0.0330775958 0.0569024394
v -0.0270964855 -0.0295975272 0.0468233423
v -0.0277318592 -0.021276343 0.0555473758
v -0.0354495076 -0.0192862759 0.0467901743
v -0.0345913611 -0.0104233024 0.0545468184
v -0.0404433524 -0.00591883139 0.043116733
v -0.00602298324 0.0385715921 0.0477893349
v -0.0162495441 0.0328922231 0.0522866633
v -0.0174706394 0.0374170137 0.0415657412
v -0.0217496995 -0.0236455792 0.0106680943
v -0.0158106466 0.0267388148 0.0598155157
v -0.0264514494 -0.0117363476 0.00792277051
v -0.0266956317 0.0299790571 0.0460250503
v -0.0263311702 0.0326179839 0.0341930649
v -0.032376988 -0.0174919158 0.0158711591
v -0.0342046906 -0.00519689394 0.0131044758
v -0.0344657725 0.0238315225 0.0377862365
v -0.0329242918 0.0248969875 0.0265421153
v -0.0184684853 -0.0335389982 0.0190097948
v -0.0146925966 0.038775472 0.0300211205
v -0.03429003 0.0193261586 0.0479734851
v -0.0393343275 0.0149011988 0.0305336482
v -0.0254554847 -0.011164295 0.0624653807
v -0.00632806154 0.031658534 0.011968656
v -0.00811300004 -0.0280368412 0.0613469387
v -0.0332260053 -0.0259780526 0.0365330116
v -0.0303309524 0.000609093262 0.060157563
v -0.0203594704 -0.00063153746 0.0663012087
v 0.0048228495 0.0409248015 0.0414965318
v 0.0144126913 -0.0315150189 0.0555060598
v -0.0394547076 -0.00792094625 0.0222531381
v -0.0183134785 0.00920714463 0.00565112324
v -0.0247921248 0.0185602648 0.0102861828
v -0.0352157431 0.0149413447 0.0179449277
v -0.00155664973 -0.0414878039 0.0287994558
v 0.01525533 -0.0302111034 0.0130725589
v -0.030229731 0.00656301928 0.00921660853
v -0.0116733883 -0.000655211864 0.00174685858
v -0.0140751465 -0.0126324513 0.0662392897
v 0.00642888462 -0.0372870901 0.0185791698
v -0.0244688412 0.0109030666 0.0630707071
v -0.0130458093 0.010399401 0.0665779282
v 0.0250435415 0.0310067513 0.0453016204
v -0.00384099803 0.0160224156 0.0663021821
v -0.040489778 0.00446315488 0.0248341952
v -0.0419559517 0.0048570775 0.0360027401
v 0.0356743648 -0.0115696147 0.0509469862
v 0.0218123945 -0.0207390221 0.0093633764
v 0.0271300113 -0.025420669 0.017055978
v 0.0359802757 -0.0112039383 0.0181809735
v 0.0184841937 -0.035236681 0.0228627954
v 0.0193774369 0.00867350536 0.0650697788
v -0.0352106524 -0.0212712572 0.0257121452
v -0.0398976517 -0.0138023325 0.0340616987
v -0.0393265161 0.00649298446 0.046877879
v -0.0276146674 -0.0309477298 0.0275637294
v 0.0280401458 0.0105822948 0.00985394559
v 0.0339956274 0.021186923 0.0446789696
v 0.0187182313 0.0371987801 0.0374166243
v 0.00598954562 0.0327659024 0.0126706782
v -0.000696176717 0.0392949741 0.021364019
v -0.0128579445 0.0358199218 0.0192670918
v -0.00272587016 0.0413450815 0.0323468042
v 0.00906898402 0.0400336481 0.030434989
v -0.0232418056 0.0326544332 0.0233430601
v -0.0183763115 0.0290806645 0.0141381291
v -0.00511605903 -0.0369497735 0.0176003794
v 0.0245776694 -0.0288391913 0.0505554809
v 0.021277321 -0.0210937186 0.0599731115
v 0.00911336408 -0.0244810061 0.0631245296
v 0.00325538789 -0.0336662261 0.0568133294
v -0.000935416848 -0.0210931525 0.0648757756
v -0.00410786941 0.0259285979 0.0630418131
v 0.0103491996 -0.0399778861 0.0282675815
v -0.0260454172 0.0245410259 0.0543736882
v -0.0138181198 -0.0400369064 0.03441334
v -0.0201849943 -0.0216968402 0.0614000745
v -0.0131542423 0.000150112083 0.0645961025
v 0.0367430186 0.0198821027 0.0345201026
v 0.034978109 -0.0210173144 0.0253528443
v -0.0240371551 -0.0345581308 0.0363469331
v -0.00635163945 -0.00907876695 0.00156521261
v -0.0324241122 0.0114742735 0.0564954772
v -0.0207499784 -0.000433769907 0.00580569527
v -0.0118035962 -0.0391389998 0.0247045101
v -0.0282656342 0.0250427823 0.0178438546
v 0.0297425102 -0.0201075284 0.0537918387
v -0.0389759245 0.0141542536 0.0399636761
v 0.0151217131 0.0364303906 0.0467692896
v -0.0275149928 -0.026320347 0.0187436665
v 0.0193111502 0.0362666886 0.0280739164
v 0.00847302568 0.0217001052 0.0643431383
v -0.0368625441 0.0041661547 0.0158952245
v 0.0216275996 0.0186972969 0.00905085554
v -0.0367816924 -0.000136552622 0.0535447489
v 0.0211759724 -0.0089573341 0.0650827726
v -0.0419140989 -0.00422653626 0.0314065349
v -0.028875596 -0.00207745139 0.0082839071
v -0.00797039259 0.0407002184 0.0398520857
v -0.0168965517 -0.00861181006 0.0047814905
v -0.0196886417 -0.036710456 0.0282555724
v -0.0167114505 0.0179917007 0.0644512721
v -0.0231849895 0.0189248048 0.0606243484
f 39 127 48
f 64 86 154
f 66 158 68
f 80 142 134
f 97 159 143
f 64 154 65
f 115 160 140
f 134 142 162
f 71 157 143
f 66 68 67
f 24 151 111
f 68 158 79
f 71 143 159
f 5 116 13
f 38 127 39
f 63 64 65
f 86 142 154
f 28 153 33
f 74 90 75
f 27 30 29
f 102 118 148
f 114 154 142
f 38 146 127
f 103 151 132
f 70 162 161
f 61 85 140
f 135 140 160
f 71 75 157
f 19 146 106
f 70 134 162
f 78 144 160
f 80 114 142
f 80 147 114
f 61 62 63
f 135 160 144
f 17 108 107
f 29 30 153
f 4 116 5
f 49 52 94
f 70 161 132
f 65 105 156
f 12 98 131
f 30 33 153
f 48 127 89
f 75 96 157
f 65 154 114
f 60 66 67
f 81 105 147
f 16 106 38
f 71 74 75
f 67 134 70
f 76 81 147
f 34 107 35
f 103 132 161
f 13 116 28
f 38 106 146
f 28 116 153
f 95 110 99
f 43 44 58
f 66 88 158
f 94 135 144
f 48 51 49
f 29 153 116
f 2 18 141
f 88 148 118
f 62 64 63
f 77 124 145
f 52 135 94
f 54 71 159
f 5 13 6
f 62 82 64
f 57 140 135
f 79 121 124
f 58 125 83
f 14 23 24
f 23 102 47
f 105 114 147
f 67 72 134
f 59 136 62
f 60 67 70
f 85 115 140
f 7 16 36
f 49 51 52
f 56 88 66
f 121 125 124
f 60 70 132
f 6 25 7
f 16 38 37
f 65 114 105
f 95 107 108
f 35 107 95
f 18 35 45
f 2 141 97
f 18 34 35
f 67 68 72
f 97 141 159
f 79 158 122
f 108 109 139
f 124 125 145
f 9 19 106
f 16 37 36
f 17 109 108
f 73 79 124
f 100 162 142
f 84 98 136
f 74 112 90
f 84 131 98
f 54 69 71
f 79 120 121
f 94 99 133
f 59 62 61
f 82 87 86
f 22 117 23
f 20 111 151
f 62 136 82
f 65 156 113
f 73 124 77
f 56 66 60
f 61 63 85
f 76 147 80
f 76 77 81
f 32 102 117
f 82 98 87
f 57 61 140
f 48 89 51
f 10 11 155
f 2 3 18
f 112 149 115
f 20 151 103
f 28 33 31
f 82 136 98
f 101 137 103
f 127 146 128
f 27 43 30
f 1 20 137
f 2 27 3
f 27 44 43
f 89 127 128
f 104 156 105
f 79 122 120
f 77 145 93
f 23 47 24
f 84 130 129
f 10 111 11
f 32 118 102
f 14 24 111
f 14 22 23
f 88 122 158
f 5 109 17
f 32 117 138
f 4 5 17
f 3 27 29
f 75 152 96
f 49 94 133
f 55 132 151
f 88 118 123
f 6 13 25
f 51 53 52
f 26 28 31
f 23 117 102
f 101 103 161
f 41 48 49
f 44 97 91
f 8 9 106
f 74 149 112
f 94 144 126
f 78 160 115
f 68 79 73
f 4 29 116
f 83 121 120
f 13 28 26
f 90 156 104
f 33 119 42
f 51 130 53
f 8 106 16
f 15 138 117
f 86 100 142
f 2 97 44
f 1 21 11
f 90 113 156
f 56 148 88
f 40 110 108
f 50 69 54
f 17 107 34
f 7 25 15
f 42 120 123
f 58 92 125
f 75 90 152
f 84 129 131
f 40 41 110
f 47 102 148
f 99 110 133
f 63 65 113
f 78 126 144
f 69 74 71
f 46 95 99
f 91 97 143
f 55 60 132
f 89 129 130
f 6 7 36
f 52 57 135
f 12 137 98
f 96 143 157
f 1 137 12
f 118 150 123
f 39 41 40
f 72 80 134
f 11 111 20
f 51 89 130
f 42 119 120
f 92 96 93
f 81 104 105
f 45 46 50
f 15 117 22
f 88 123 122
f 2 44 27
f 37 38 39
f 43 58 83
f 18 45 141
f 10 155 19
f 85 112 115
f 86 87 100
f 59 84 136
f 100 161 162
f 53 130 84
f 90 112 113
f 31 33 42
f 42 123 150
f 36 37 139
f 54 159 141
f 94 126 99
f 120 122 123
f 5 6 109
f 41 49 133
f 8 22 9
f 44 91 58
f 77 93 81
f 7 8 16
f 9 10 19
f 87 101 100
f 20 103 137
f 1 12 21
f 68 73 72
f 78 115 149
f 63 113 85
f 90 104 152
f 30 119 33
f 72 76 80
f 15 25 138
f 24 55 151
f 50 126 78
f 41 133 110
f 12 131 21
f 45 50 54
f 73 77 76
f 3 29 4
f 100 101 161
f 21 131 129
f 55 56 60
f 89 128 129
f 1 11 20
f 83 120 119
f 57 59 61
f 19 128 146
f 11 21 155
f 3 34 18
f 40 108 139
f 26 31 32
f 69 149 74
f 13 26 25
f 9 22 14
f 26 32 138
f 8 15 22
f 45 54 141
f 6 36 109
f 24 47 55
f 30 43 119
f 87 98 137
f 50 78 69
f 4 17 34
f 91 143 96
f 93 96 152
f 85 113 112
f 7 15 8
f 72 73 76
f 32 150 118
f 52 53 57
f 10 14 111
f 37 39 40
f 9 14 10
f 31 42 150
f 3 4 34
f 43 83 119
f 46 99 126
f 81 93 104
f 58 91 92
f 47 148 56
f 46 126 50
f 25 26 138
f 69 78 149
f 53 59 57
f 53 84 59
f 91 96 92
f 47 56 55
f 31 150 32
f 37 40 139
f 87 137 101
f 93 152 104
f 19 155 128
f 21 128 155
f 21 129 128
f 39 48 41
f 64 82 86
f 95 108 110
f 35 95 46
f 83 125 121
f 36 139 109
f 92 145 125
f 35 46 45
f 92 93 145
