v -0.00120621151 -0.000437197149 0.0475671294
v 5.57740508e-10 3.58748185e-11 -1.93419424e-09
v 0.012360681 3.0217522e-10 0.00195773711
v 0.0235114115 -9.30770511e-11 0.00763931581
v 0.0344762467 -0.000326264565 0.012902043
v 0.0405258749 -0.000330790258 0.0227257076
v 0.0424094788 -0.00031135949 0.0338334965
v 0.0399173469 -0.000256896317 0.0454512081
v 0.0336350953 -0.00029192888 0.055394928
v 0.0247303934 -0.000513367659 0.0622362219
v 0.0129614294 -0.00106139748 0.0614583996
v 0.000105483318 -0.0135005642 0.0621423874
v 0.0363233644 0.0114473672 0.0171861481
v 0.0276512958 0.0115282063 0.0589004699
v 0.0401397518 0.0111340642 0.0393371535
v 0.04024305 -0.0117595523 0.0399623607
v 0.0289016969 -0.0116669163 0.00954332685
v 0.006025303 -0.0107926894 0.00195773785
v 0.0278708939 -0.0117003223 0.058073941
v 0.00594361381 0.00918394519 0.0525935759
v 0.0118542399 -0.0130053727 0.0642577372
v 0.0356127318 0.0117830878 0.0506273074
v 0.0279429163 0.0224084016 0.0530825771
v 0.0189368911 0.0215615979 0.0601037065
v 0.0404277212 0.011624997 0.028125238
v 0.0341540268 0.0221856519 0.0237447503
v 0.00602530248 0.0107926879 0.00195773787
v 0.0285043963 0.0218341695 0.0140872322
v 0.0187412143 0.0108997767 0.00638509208
v 0.0121311422 0.0203429026 0.00776644457
v 0.0249378774 0.0312193668 0.0208361212
v 0.0294194413 0.0301984527 0.0323502731
v 0.0173790906 0.0290790809 0.0119814214
v 0.0171129705 -0.0105219485 0.00541047704
v 0.0109998939 -0.0214982311 0.0081122481
v 0.0399332278 -0.0118212615 0.0284740377
v 0.035990026 -0.0224089738 0.0335341299
v 0.0341490367 -0.0220285496 0.0443727664
v 0.0280928972 -0.0313452027 0.0385878769
v 0.028884397 -0.030306233 0.0271218387
v 0.0192711282 -0.0375280577 0.0325187354
v 0.0131185994 0.0372452907 0.0196478536
v -0.000191616147 0.022289037 0.00678611079
v -0.00644031652 0.0107092028 0.0020021647
v -0.00163131786 -0.0200015145 0.0053982865
v 0.00300648221 -0.0301930521 0.00867336589
v 0.0176832753 0.0306582999 0.0533246548
v 0.017418123 -0.036946746 0.0440262901
v 0.00784409296 -0.0420118803 0.0370685452
v -0.00991909813 -0.0296537559 0.0091144758
v 0.00513170523 -0.0387585304 0.0474618325
v -0.00492722336 -0.0416748266 0.0406016428
v -0.00717161986 -0.0365888137 0.0512267078
v -0.0139237081 -0.0172534867 0.00670663826
v 0.00785699349 0.0294256006 0.0592161455
v 0.0062942174 0.0363170612 0.0510481304
v -0.0167384171 -0.037142465 0.0434623235
v -0.0129863376 0.0211766741 0.00864870252
v -0.0187240336 -0.0308074864 0.0536133749
v -0.00439464526 0.0331115133 0.0557818139
v -0.0273862632 -0.0300303921 0.0454658346
v -0.0281219638 -0.0216399117 0.053960353
v -0.0359059083 -0.0195710535 0.0455584423
v -0.0350543257 -0.0106155614 0.0532035574
v -0.0408224263 -0.00599806408 0.0419038383
v -0.00602554251 0.0387421654 0.0469203731
v -0.0162836854 0.0330637041 0.0512600876
v -0.0176401116 0.0377285279 0.0406893001
v -0.0218690588 -0.0237504465 0.00983025573
v -0.0157881045 0.0267954598 0.0586210122
v -0.0267496629 -0.011754645 0.00735346331
v -0.0268863761 0.0301883389 0.0451630305
v -0.0265680928 0.0328957245 0.0333547493
v -0.0327018544 -0.0176103352 0.0149530811
v -0.0345318036 -0.00515396326 0.0123691418
v -0.0347770765 0.024077225 0.0368447953
v -0.0332402353 0.0251215762 0.0256329536
v -0.0186697054 -0.0337853513 0.0180205424
v -0.0147285815 0.0390919078 0.029296991
v -0.0345853121 0.0194910156 0.0469127631
v -0.0397012535 0.0151004968 0.0296065118
v -0.02592308 -0.0113500197 0.060697295
v -0.00635851572 0.0318633427 0.0115625885
v -0.0082579522 -0.0285719933 0.059311503
v -0.0336193192 -0.0262351894 0.0353653059
v -0.0305686583 0.000596481706 0.0586063065
v -0.020332484 -0.000795971771 0.0643022111
v 0.00488884134 0.0412305093 0.0407309382
v 0.0146300557 -0.0319082602 0.0539187689
v -0.0398922744 -0.0079209839 0.0212419587
v -0.0183134789 0.00920714491 0.0056511225
v -0.0249547954 0.0187232037 0.00982911225
v -0.0355032829 0.0151276553 0.0170207064
v -0.00155567459 -0.0419013315 0.0277193926
v 0.0153788985 -0.0304818045 0.0123159304
v -0.0304253704 0.00668481918 0.00854818797
v -0.0116733881 -0.000655211863 0.00174685824
v -0.0143551634 -0.0129814649 0.0633938554
v 0.00643756256 -0.0376214026 0.0176140184
v -0.0247372373 0.0108504143 0.0615155193
v -0.0132576749 0.0103191603 0.0644063003
v 0.0253361869 0.031211479 0.0443146734
v -0.00361266028 0.0157340437 0.0641110616
v -0.0408293712 0.00458672288 0.0238946687
v -0.0423811411 0.0048989727 0.0349531205
v 0.0361297534 -0.0117419386 0.0496807675
v 0.0220371137 -0.0209090377 0.00880582181
v 0.0274352868 -0.0256716853 0.0161627505
v 0.0363919197 -0.0112897644 0.0173701368
v 0.0186737501 -0.0356142776 0.0218567855
v 0.0195151802 0.00842700797 0.0632211597
v -0.0356054262 -0.0214417552 0.0246065897
v -0.0403184574 -0.0139483068 0.0329307653
v -0.0396897998 0.00651544137 0.0457128175
v -0.0279441447 -0.0312168579 0.0264649536
v 0.02830874 0.0107346826 0.00943864536
v 0.034371472 0.0213527844 0.0436350269
v 0.0188864138 0.0374921384 0.0365852725
v 0.00602074803 0.0330138513 0.0121827546
v -0.000703717454 0.039636604 0.0206200517
v -0.0129741315 0.0361057588 0.0186696069
v -0.00271926636 0.0416100964 0.0316212051
v 0.00912201286 0.0402621517 0.0296892201
v -0.023422077 0.0329620373 0.0226535062
v -0.0184910171 0.0292895363 0.0136483547
v -0.00515206077 -0.0372658002 0.0167005068
v 0.0249144393 -0.0292312175 0.0491660582
v 0.0215987354 -0.0213193037 0.0582628067
v 0.00925672209 -0.0248461546 0.0609969692
v 0.00332209069 -0.0342145722 0.0550525096
v -0.000904529932 -0.0214293537 0.0616643295
v -0.00387097876 0.0257969259 0.0615527438
v 0.0104595727 -0.040390836 0.0271488539
v -0.0261765627 0.0246540204 0.0533871983
v -0.0140124546 -0.0405165543 0.0330775862
v -0.0206198502 -0.0221529547 0.0596217015
v -0.0132731659 0.000205373958 0.0610254817
v 0.0371474223 0.0200926283 0.033564058
v 0.0354231356 -0.0212431943 0.0243379185
v -0.0243490507 -0.0349233233 0.0350466575
v -0.00635163962 -0.00907876703 0.00156521201
v -0.0327643545 0.011549363 0.0552260331
v -0.0207499789 -0.00043376989 0.00580569487
v -0.0119413482 -0.0395432982 0.0235771886
v -0.0284979286 0.0253057878 0.0171404965
v 0.0301836839 -0.0204250094 0.0523930762
v -0.0392835468 0.0142636196 0.0389240685
v 0.0153338628 0.0366464796 0.04580504
v -0.0277420707 -0.0264857867 0.0177552554
v 0.0194795747 0.0365988255 0.0272848526
v 0.00868704203 0.0213148797 0.0627127916
v -0.0372018507 0.00429182131 0.0150129986
v 0.0217742896 0.018789357 0.00866688405
v -0.0371877173 -0.000190478355 0.052287804
v 0.0213298666 -0.00911467559 0.0632396598
v -0.0423323249 -0.00427494165 0.0303402706
v -0.0290892431 -0.00201833104 0.00777430765
v -0.00797004879 0.0409837505 0.0391341279
v -0.0168965517 -0.00861181007 0.00478149016
v -0.0199215147 -0.037068866 0.0270748798
v -0.0167187157 0.017939907 0.0629028018
v -0.0233050672 0.018881151 0.0593029773
f 39 127 48
f 64 86 154
f 66 158 68
f 80 142 134
f 97 159 143
f 64 154 65
f 115 160 140
f 134 142 162
f 71 157 143
f 66 68 67
f 24 151 111
f 68 158 79
f 71 143 159
f 5 116 13
f 38 127 39
f 63 64 65
f 86 142 154
f 28 153 33
f 74 90 75
f 27 30 29
f 102 118 148
f 114 154 142
f 38 146 127
f 103 151 132
f 70 162 161
f 61 85 140
f 135 140 160
f 71 75 157
f 19 146 106
f 70 134 162
f 78 144 160
f 80 114 142
f 80 147 114
f 61 62 63
f 135 160 144
f 17 108 107
f 29 30 153
f 4 116 5
f 49 52 94
f 70 161 132
f 65 105 156
f 12 98 131
f 30 33 153
f 48 127 89
f 75 96 157
f 65 154 114
f 60 66 67
f 81 105 147
f 16 106 38
f 71 74 75
f 67 134 70
f 76 81 147
f 34 107 35
f 103 132 161
f 13 116 28
f 38 106 146
f 28 116 153
f 95 110 99
f 43 44 58
f 66 88 158
f 94 135 144
f 48 51 49
f 29 153 116
f 2 18 141
f 88 148 118
f 62 64 63
f 77 124 145
f 52 135 94
f 54 71 159
f 5 13 6
f 62 82 64
f 57 140 135
f 79 121 124
f 58 125 83
f 14 23 24
f 23 102 47
f 105 114 147
f 67 72 134
f 59 136 62
f 60 67 70
f 85 115 140
f 7 16 36
f 49 51 52
f 56 88 66
f 121 125 124
f 60 70 132
f 6 25 7
f 16 38 37
f 65 114 105
f 95 107 108
f 35 107 95
f 18 35 45
f 2 141 97
f 18 34 35
f 67 68 72
f 97 141 159
f 79 158 122
f 108 109 139
f 124 125 145
f 9 19 106
f 16 37 36
f 17 109 108
f 73 79 124
f 100 162 142
f 84 98 136
f 74 112 90
f 84 131 98
f 54 69 71
f 79 120 121
f 94 99 133
f 59 62 61
f 82 87 86
f 22 117 23
f 20 111 151
f 62 136 82
f 65 156 113
f 73 124 77
f 56 66 60
f 61 63 85
f 76 147 80
f 76 77 81
f 32 102 117
f 82 98 87
f 57 61 140
f 48 89 51
f 10 11 155
f 2 3 18
f 112 149 115
f 20 151 103
f 28 33 31
f 82 136 98
f 101 137 103
f 127 146 128
f 27 43 30
f 1 20 137
f 2 27 3
f 27 44 43
f 89 127 128
f 104 156 105
f 79 122 120
f 77 145 93
f 23 47 24
f 84 130 129
f 10 111 11
f 32 118 102
f 14 24 111
f 14 22 23
f 88 122 158
f 5 109 17
f 32 117 138
f 4 5 17
f 3 27 29
f 75 152 96
f 49 94 133
f 55 132 151
f 88 118 123
f 6 13 25
f 51 53 52
f 26 28 31
f 23 117 102
f 101 103 161
f 41 48 49
f 44 97 91
f 8 9 106
f 74 149 112
f 94 144 126
f 78 160 115
f 68 79 73
f 4 29 116
f 83 121 120
f 13 28 26
f 90 156 104
f 33 119 42
f 51 130 53
f 8 106 16
f 15 138 117
f 86 100 142
f 2 97 44
f 1 21 11
f 90 113 156
f 56 148 88
f 40 110 108
f 50 69 54
f 17 107 34
f 7 25 15
f 42 120 123
f 58 92 125
f 75 90 152
f 84 129 131
f 40 41 110
f 47 102 148
f 99 110 133
f 63 65 113
f 78 126 144
f 69 74 71
f 46 95 99
f 91 97 143
f 55 60 132
f 89 129 130
f 6 7 36
f 52 57 135
f 12 137 98
f 96 143 157
f 1 137 12
f 118 150 123
f 39 41 40
f 72 80 134
f 11 111 20
f 51 89 130
f 42 119 120
f 92 96 93
f 81 104 105
f 45 46 50
f 15 117 22
f 88 123 122
f 2 44 27
f 37 38 39
f 43 58 83
f 18 45 141
f 10 155 19
f 85 112 115
f 86 87 100
f 59 84 136
f 100 161 162
f 53 130 84
f 90 112 113
f 31 33 42
f 42 123 150
f 36 37 139
f 54 159 141
f 94 126 99
f 120 122 123
f 5 6 109
f 41 49 133
f 8 22 9
f 44 91 58
f 77 93 81
f 7 8 16
f 9 10 19
f 87 101 100
f 20 103 137
f 1 12 21
f 68 73 72
f 78 115 149
f 63 113 85
f 90 104 152
f 30 119 33
f 72 76 80
f 15 25 138
f 24 55 151
f 50 126 78
f 41 133 110
f 12 131 21
f 45 50 54
f 73 77 76
f 3 29 4
f 100 101 161
f 21 131 129
f 55 56 60
f 89 128 129
f 1 11 20
f 83 120 119
f 57 59 61
f 19 128 146
f 11 21 155
f 3 34 18
f 40 108 139
f 26 31 32
f 69 149 74
f 13 26 25
f 9 22 14
f 26 32 138
f 8 15 22
f 45 54 141
f 6 36 109
f 24 47 55
f 30 43 119
f 87 98 137
f 50 78 69
f 4 17 34
f 91 143 96
f 93 96 152
f 85 113 112
f 7 15 8
f 72 73 76
f 32 150 118
f 52 53 57
f 10 14 111
f 37 39 40
f 9 14 10
f 31 42 150
f 3 4 34
f 43 83 119
f 46 99 126
f 81 93 104
f 58 91 92
f 47 148 56
f 46 126 50
f 25 26 138
f 69 78 149
f 53 59 57
f 53 84 59
f 91 96 92
f 47 56 55
f 31 150 32
f 37 40 139
f 87 137 101
f 93 152 104
f 19 155 128
f 21 128 155
f 21 129 128
f 39 48 41
f 64 82 86
f 95 108 110
f 35 95 46
f 83 125 121
f 36 139 109
f 92 145 125
f 35 46 45
f 92 93 145
