v -0.00118457573 -0.000461118599 0.0465925075
v 5.98225019e-10 3.9553986e-11 -2.04923864e-09
v 0.0123606811 3.30453375e-10 0.00195773696
v 0.0235114116 -8.51472173e-11 0.00763931552
v 0.0345506819 -0.000335503786 0.0127612008
v 0.040619468 -0.000340952728 0.0225385837
v 0.0425080423 -0.00032549847 0.0335914014
v 0.039986508 -0.000268183701 0.0451782655
v 0.033670571 -0.000310155427 0.055059038
v 0.0246973467 -0.000513524801 0.0617670875
v 0.0129253003 -0.00103291538 0.060599938
v 8.36242223e-05 -0.0134630099 0.0612226496
v 0.0364070293 0.0114664344 0.0170090786
v 0.0276766563 0.0115221322 0.058505142
v 0.04021348 0.0111459351 0.0390801919
v 0.0403347996 -0.011802373 0.0397327179
v 0.0289559797 -0.0116950415 0.00941632809
v 0.00602530306 -0.0107926894 0.00195773775
v 0.027870848 -0.011731846 0.0576797641
v 0.00591069386 0.00919138844 0.0516107584
v 0.0118099599 -0.0129871166 0.0636205748
v 0.0356759294 0.0118020475 0.0503320955
v 0.0279618117 0.0224385526 0.0527915642
v 0.0189301511 0.0215558756 0.0597340195
v 0.0405182851 0.0116583658 0.027903435
v 0.0342123997 0.0222357537 0.0235487376
v 0.00602530251 0.0107926878 0.0019577378
v 0.0285555335 0.0218870621 0.0139316484
v 0.0187412144 0.0108997766 0.00638509186
v 0.0121311422 0.0203429028 0.00776644436
v 0.0249780954 0.0312951543 0.0206457034
v 0.0294623712 0.0302588322 0.0321333807
v 0.0173966698 0.0291375319 0.011840509
v 0.0171129706 -0.0105219486 0.00541047682
v 0.010999894 -0.0214982312 0.00811224785
v 0.0400039795 -0.011868147 0.0282718262
v 0.0360670645 -0.0224853538 0.0332964249
v 0.034219117 -0.022103171 0.0441091024
v 0.028150199 -0.0314496708 0.0383206983
v 0.0289491283 -0.0304019683 0.0268755943
v 0.0193017399 -0.0376360956 0.0322685448
v 0.0131281579 0.0373296458 0.0194618267
v -0.000191616153 0.0222890371 0.00678611058
v -0.00644031644 0.0107092029 0.00200216456
v -0.00163131786 -0.0200015147 0.00539828621
v 0.00301661059 -0.0302265428 0.00850190825
v 0.0176717592 0.0306905403 0.0530195772
v 0.0174407229 -0.0370707979 0.0437500487
v 0.00785748842 -0.0421652507 0.0367907172
v -0.00992901504 -0.0297295013 0.00895314805
v 0.00510794279 -0.0388890442 0.0471154322
v -0.00497139684 -0.0418314597 0.0402797774
v -0.00722703959 -0.0367211251 0.0508704802
v -0.0139237082 -0.0172534869 0.00670663798
v 0.00783700092 0.0294049945 0.0588829736
v 0.00627024482 0.0363368026 0.0507628883
v -0.0168032275 -0.0372760856 0.0431205298
v -0.0129863377 0.0211766743 0.00864870232
v -0.0188081909 -0.0309407469 0.0532558793
v -0.0044385005 0.03312632 0.055451289
v -0.0274792757 -0.0301741202 0.0451478346
v -0.0282396136 -0.0217589462 0.0535831673
v -0.036043808 -0.019680012 0.0452574375
v -0.0352008503 -0.0107044626 0.0528763474
v -0.0409430319 -0.0060632587 0.0415959183
v -0.00609495942 0.0387750229 0.0466612056
v -0.0163636363 0.0330859381 0.0509626418
v -0.0177426096 0.0377824531 0.0404357215
v -0.0218958059 -0.0237882569 0.00961945383
v -0.0158666389 0.0267960656 0.0582803793
v -0.0268236655 -0.0117704392 0.00720485271
v -0.0269966102 0.0302087415 0.0449114773
v -0.0266773707 0.0329305025 0.0331155789
v -0.0327866147 -0.0176696491 0.0147171817
v -0.0346216371 -0.00517167923 0.0121742296
v -0.0349029154 0.0240953452 0.0365804703
v -0.0333556211 0.0251395234 0.025379343
v -0.0187227722 -0.0338688229 0.017777738
v -0.014785337 0.0391476426 0.0290911994
v -0.0347113767 0.0194906279 0.0466196203
v -0.039826854 0.0151052614 0.0293509408
v -0.0260629007 -0.0114178186 0.0602728239
v -0.00637888271 0.0319092523 0.011455026
v -0.00830963861 -0.0286694771 0.0588563181
v -0.0337311868 -0.0263360192 0.035079955
v -0.030644494 0.000559308805 0.0582197116
v -0.0202557594 -0.000839389635 0.0637831673
v 0.0048506888 0.0413005494 0.0405110467
v 0.0146436867 -0.0320022003 0.0535730701
v -0.0400152108 -0.00796173791 0.0209780568
v -0.018313479 0.00920714502 0.00565112221
v -0.0250044248 0.0187456308 0.0097033004
v -0.0355972612 0.0151365973 0.0167701709
v -0.00156856743 -0.0420214077 0.0274706119
v 0.0153980274 -0.0305548754 0.0121435249
v -0.0304828353 0.00669391807 0.0083711011
v -0.0116733881 -0.000655211863 0.00174685809
v -0.0144492254 -0.0130566158 0.0627448152
v 0.00642988717 -0.0377166744 0.0173906605
v -0.0248614232 0.0108081137 0.0611082317
v -0.0133177066 0.0102634486 0.0638004703
v 0.025357742 0.0312571758 0.0440599789
v -0.00364949728 0.0156657386 0.0634758904
v -0.040937622 0.0045727837 0.0236419926
v -0.0425212546 0.00486116941 0.0346714641
v 0.0361939192 -0.0117916789 0.0493953656
v 0.0220841245 -0.0209566015 0.00867982703
v 0.0274947252 -0.0257453893 0.015962477
v 0.0364751873 -0.0113239408 0.017192781
v 0.0187021671 -0.0357201594 0.0216320761
v 0.0194818754 0.00842381864 0.0627097623
v -0.0357141588 -0.0215224571 0.0243258669
v -0.0404428307 -0.0140291564 0.0326425289
v -0.0398222102 0.00647373738 0.0454040958
v -0.0280341041 -0.0313154685 0.0261954568
v 0.0283663659 0.010761848 0.00934720526
v 0.0344142454 0.0213833381 0.0433825114
v 0.01888858 0.0375604647 0.0363644319
v 0.00601749433 0.0330675811 0.0120618835
v -0.000735338165 0.0397084928 0.0204228478
v -0.0130306856 0.0361585156 0.0185056951
v -0.00276394696 0.0416609495 0.0314162938
v 0.00909774409 0.0403075274 0.0294889255
v -0.0235042222 0.0330099278 0.0224590294
v -0.0185372418 0.0293277412 0.0135150709
v -0.00516575683 -0.0373578415 0.0164845531
v 0.0249590633 -0.0293338892 0.0488578764
v 0.0216293038 -0.0213773227 0.0578622264
v 0.0092451126 -0.0249051308 0.0605185331
v 0.00330678551 -0.0343390632 0.0546672478
v -0.00092842918 -0.0214680827 0.0609697665
v -0.00390360911 0.0257741429 0.0611153987
v 0.0104693463 -0.0405085456 0.02689675
v -0.0262735698 0.0246503489 0.0531026904
v -0.0140739236 -0.0406586857 0.032762469
v -0.0207419684 -0.0222661822 0.0592079198
v -0.0132083517 0.000173734075 0.0601196038
v 0.0372126057 0.0201320616 0.0333436044
v 0.0355115516 -0.0213129465 0.0241141973
v -0.0244377234 -0.0350414344 0.0347376867
v -0.00635163968 -0.00907876706 0.00156521177
v -0.0329029345 0.0115265244 0.0548864844
v -0.0207499791 -0.000433769895 0.00580569472
v -0.0119820928 -0.0396646654 0.023306291
v -0.0285823088 0.025342499 0.0169441506
v 0.030241404 -0.0205037739 0.0520776343
v -0.0394026275 0.0142439403 0.0386399097
v 0.0153324861 0.0366987272 0.0455372055
v -0.0278013911 -0.0265556511 0.0175069792
v 0.0194907211 0.0366687952 0.027084571
v 0.00865173205 0.0212353408 0.0622109233
v -0.0373033128 0.00428737025 0.0147754422
v 0.0218063033 0.018806836 0.00858006614
v -0.0373266213 -0.000245871011 0.0519706557
v 0.0212932894 -0.00911344363 0.0627829218
v -0.0424603207 -0.00433358523 0.0300617806
v -0.0291451733 -0.00201934708 0.00764079059
v -0.00802904978 0.0410394363 0.038920797
v -0.0168965518 -0.00861181009 0.00478149004
v -0.0199877027 -0.037184562 0.0267898754
v -0.0168075904 0.0179114935 0.0624807844
v -0.0234085738 0.0188419867 0.0589366826
f 39 127 48
f 64 86 154
f 66 158 68
f 80 142 134
f 97 159 143
f 64 154 65
f 115 160 140
f 134 142 162
f 71 157 143
f 66 68 67
f 24 151 111
f 68 158 79
f 71 143 159
f 5 116 13
f 38 127 39
f 63 64 65
f 86 142 154
f 28 153 33
f 74 90 75
f 27 30 29
f 102 118 148
f 114 154 142
f 38 146 127
f 103 151 132
f 70 162 161
f 61 85 140
f 135 140 160
f 71 75 157
f 19 146 106
f 70 134 162
f 78 144 160
f 80 114 142
f 80 147 114
f 61 62 63
f 135 160 144
f 17 108 107
f 29 30 153
f 4 116 5
f 49 52 94
f 70 161 132
f 65 105 156
f 12 98 131
f 30 33 153
f 48 127 89
f 75 96 157
f 65 154 114
f 60 66 67
f 81 105 147
f 16 106 38
f 71 74 75
f 67 134 70
f 76 81 147
f 34 107 35
f 103 132 161
f 13 116 28
f 38 106 146
f 28 116 153
f 95 110 99
f 43 44 58
f 66 88 158
f 94 135 144
f 48 51 49
f 29 153 116
f 2 18 141
f 88 148 118
f 62 64 63
f 77 124 145
f 52 135 94
f 54 71 159
f 5 13 6
f 62 82 64
f 57 140 135
f 79 121 124
f 58 125 83
f 14 23 24
f 23 102 47
f 105 114 147
f 67 72 134
f 59 136 62
f 60 67 70
f 85 115 140
f 7 16 36
f 49 51 52
f 56 88 66
f 121 125 124
f 60 70 132
f 6 25 7
f 16 38 37
f 65 114 105
f 95 107 108
f 35 107 95
f 18 35 45
f 2 141 97
f 18 34 35
f 67 68 72
f 97 141 159
f 79 158 122
f 108 109 139
f 124 125 145
f 9 19 106
f 16 37 36
f 17 109 108
f 73 79 124
f 100 162 142
f 84 98 136
f 74 112 90
f 84 131 98
f 54 69 71
f 79 120 121
f 94 99 133
f 59 62 61
f 82 87 86
f 22 117 23
f 20 111 151
f 62 136 82
f 65 156 113
f 73 124 77
f 56 66 60
f 61 63 85
f 76 147 80
f 76 77 81
f 32 102 117
f 82 98 87
f 57 61 140
f 48 89 51
f 10 11 155
f 2 3 18
f 112 149 115
f 20 151 103
f 28 33 31
f 82 136 98
f 101 137 103
f 127 146 128
f 27 43 30
f 1 20 137
f 2 27 3
f 27 44 43
f 89 127 128
f 104 156 105
f 79 122 120
f 77 145 93
f 23 47 24
f 84 130 129
f 10 111 11
f 32 118 102
f 14 24 111
f 14 22 23
f 88 122 158
f 5 109 17
f 32 117 138
f 4 5 17
f 3 27 29
f 75 152 96
f 49 94 133
f 55 132 151
f 88 118 123
f 6 13 25
f 51 53 52
f 26 28 31
f 23 117 102
f 101 103 161
f 41 48 49
f 44 97 91
f 8 9 106
f 74 149 112
f 94 144 126
f 78 160 115
f 68 79 73
f 4 29 116
f 83 121 120
f 13 28 26
f 90 156 104
f 33 119 42
f 51 130 53
f 8 106 16
f 15 138 117
f 86 100 142
f 2 97 44
f 1 21 11
f 90 113 156
f 56 148 88
f 40 110 108
f 50 69 54
f 17 107 34
f 7 25 15
f 42 120 123
f 58 92 125
f 75 90 152
f 84 129 131
f 40 41 110
f 47 102 148
f 99 110 133
f 63 65 113
f 78 126 144
f 69 74 71
f 46 95 99
f 91 97 143
f 55 60 132
f 89 129 130
f 6 7 36
f 52 57 135
f 12 137 98
f 96 143 157
f 1 137 12
f 118 150 123
f 39 41 40
f 72 80 134
f 11 111 20
f 51 89 130
f 42 119 120
f 92 96 93
f 81 104 105
f 45 46 50
f 15 117 22
f 88 123 122
f 2 44 27
f 37 38 39
f 43 58 83
f 18 45 141
f 10 155 19
f 85 112 115
f 86 87 100
f 59 84 136
f 100 161 162
f 53 130 84
f 90 112 113
f 31 33 42
f 42 123 150
f 36 37 139
f 54 159 141
f 94 126 99
f 120 122 123
f 5 6 109
f 41 49 133
f 8 22 9
f 44 91 58
f 77 93 81
f 7 8 16
f 9 10 19
f 87 101 100
f 20 103 137
f 1 12 21
f 68 73 72
f 78 115 149
f 63 113 85
f 90 104 152
f 30 119 33
f 72 76 80
f 15 25 138
f 24 55 151
f 50 126 78
f 41 133 110
f 12 131 21
f 45 50 54
f 73 77 76
f 3 29 4
f 100 101 161
f 21 131 129
f 55 56 60
f 89 128 129
f 1 11 20
f 83 120 119
f 57 59 61
f 19 128 146
f 11 21 155
f 3 34 18
f 40 108 139
f 26 31 32
f 69 149 74
f 13 26 25
f 9 22 14
f 26 32 138
f 8 15 22
f 45 54 141
f 6 36 109
f 24 47 55
f 30 43 119
f 87 98 137
f 50 78 69
f 4 17 34
f 91 143 96
f 93 96 152
f 85 113 112
f 7 15 8
f 72 73 76
f 32 150 118
f 52 53 57
f 10 14 111
f 37 39 40
f 9 14 10
f 31 42 150
f 3 4 34
f 43 83 119
f 46 99 126
f 81 93 104
f 58 91 92
f 47 148 56
f 46 126 50
f 25 26 138
f 69 78 149
f 53 59 57
f 53 84 59
f 91 96 92
f 47 56 55
f 31 150 32
f 37 40 139
f 87 137 101
f 93 152 104
f 19 155 128
f 21 128 155
f 21 129 128
f 39 48 41
f 64 82 86
f 95 108 110
f 35 95 46
f 83 125 121
f 36 139 109
f 92 145 125
f 35 46 45
f 92 93 145
