v -0.00118999495 -0.000451374394 0.0465891429
v 5.96301585e-10 3.89931691e-11 -2.04650054e-09
v 0.0123606811 3.29183353e-10 0.00195773696
v 0.0235114116 -8.50139813e-11 0.00763931552
v 0.0345499715 -0.000330420096 0.0127644214
v 0.0406215085 -0.000334448912 0.0225417793
v 0.0425141438 -0.00031905078 0.0335969884
v 0.0399973949 -0.000262994049 0.0451870802
v 0.0336881905 -0.000304799101 0.0550742132
v 0.0247137825 -0.00051656134 0.0617912015
v 0.0129388215 -0.00104513455 0.0606112995
v 9.28246253e-05 -0.0134758117 0.061228104
v 0.0364078479 0.0114712274 0.0170128835
v 0.027683751 0.0115186253 0.0585342047
v 0.0402222699 0.0111505548 0.0390893982
v 0.0403427395 -0.0117950683 0.0397377978
v 0.0289570466 -0.0116906367 0.0094194583
v 0.00602530306 -0.0107926894 0.00195773775
v 0.0278857264 -0.011727508 0.057697074
v 0.00591841572 0.00919054845 0.0515931013
v 0.0118076176 -0.0129864658 0.0636428017
v 0.0356898482 0.011805676 0.0503482555
v 0.027975708 0.022436469 0.0528129569
v 0.0189470386 0.0215484288 0.0597667665
v 0.0405229355 0.0116627324 0.0279089011
v 0.0342165322 0.0222391076 0.0235552155
v 0.00602530251 0.0107926878 0.0019577378
v 0.0285561049 0.0218894667 0.0139363441
v 0.0187412144 0.0108997766 0.00638509186
v 0.0121311422 0.0203429028 0.00776644436
v 0.0249822942 0.0312970816 0.0206542581
v 0.0294704678 0.0302607158 0.0321447427
v 0.0173978077 0.0291374606 0.0118469799
v 0.0171129706 -0.0105219486 0.00541047682
v 0.010999894 -0.0214982312 0.00811224785
v 0.0400093305 -0.0118596684 0.0282757176
v 0.0360733694 -0.0224757184 0.0333018041
v 0.0342281203 -0.0220948894 0.0441155543
v 0.0281582452 -0.0314394279 0.0383272964
v 0.0289547845 -0.0303916038 0.0268825751
v 0.0193100322 -0.0376259371 0.0322741919
v 0.0131341689 0.0373293378 0.0194739095
v -0.000191616152 0.0222890371 0.00678611058
v -0.00644031645 0.0107092029 0.00200216456
v -0.00163131786 -0.0200015146 0.00539828622
v 0.00301842775 -0.0302236974 0.00850966332
v 0.0176890063 0.0306851225 0.0530469374
v 0.0174513304 -0.0370612924 0.0437558794
v 0.00786626601 -0.0421528945 0.0367969964
v -0.00992686161 -0.0297228738 0.00896290349
v 0.00512055906 -0.0388805932 0.0471219577
v -0.00495975297 -0.041817659 0.0402885158
v -0.00721536871 -0.0367145679 0.0508759773
v -0.0139237082 -0.0172534869 0.00670663799
v 0.00785960429 0.0293908326 0.0589185842
v 0.00629019228 0.036331327 0.0507946621
v -0.016791923 -0.0372627958 0.043130863
v -0.0129863377 0.0211766743 0.00864870233
v -0.0187989084 -0.0309320988 0.0532632282
v -0.00441256779 0.0331188015 0.0554868197
v -0.027466377 -0.0301581231 0.0451586224
v -0.0282261669 -0.0217466484 0.0535963955
v -0.0360277478 -0.0196647571 0.045271618
v -0.0351823041 -0.0106899393 0.0528918593
v -0.0409276063 -0.00604836535 0.0416145059
v -0.00607135591 0.0387739881 0.0466909052
v -0.016337633 0.0330881645 0.0509930953
v -0.0177192304 0.0377851555 0.0404626957
v -0.0218936321 -0.0237828385 0.00963284305
v -0.015836004 0.0267959314 0.0583123863
v -0.0268184584 -0.011766534 0.00721600668
v -0.0269717952 0.0302152441 0.0449381285
v -0.0266566042 0.0329381018 0.0331397648
v -0.0327794376 -0.0176581909 0.0147329214
v -0.0346133137 -0.00516269314 0.0121891692
v -0.0348818611 0.024106094 0.0366053064
v -0.0333383715 0.0251492074 0.0254031267
v -0.0187165813 -0.0338583595 0.0177907258
v -0.0147683124 0.0391510911 0.0291123332
v -0.0346887968 0.0195011493 0.0466449148
v -0.0398097758 0.0151173797 0.0293733666
v -0.0260463388 -0.0114105729 0.0602885817
v -0.0063741306 0.0319080906 0.0114641114
v -0.00830154572 -0.0286765254 0.0588646505
v -0.0337192686 -0.0263212277 0.0350936316
v -0.0306318328 0.000569490758 0.0582386123
v -0.0202650672 -0.000838122898 0.0638063397
v 0.00486799042 0.0412974299 0.0405349891
v 0.0146567233 -0.0319973423 0.0535794917
v -0.0400035635 -0.00794831601 0.0209964875
v -0.018313479 0.00920714501 0.00565112222
v -0.024998449 0.0187497575 0.00971510976
v -0.0355854464 0.0151470919 0.0167911844
v -0.00156093062 -0.0420100516 0.0274786792
v 0.0154019321 -0.0305476816 0.0121493918
v -0.0304762626 0.00669960385 0.00838516371
v -0.0116733881 -0.000655211863 0.0017468581
v -0.0144344149 -0.0130594539 0.062755033
v 0.00643575659 -0.0377072954 0.0173988001
v -0.0248383416 0.0108169868 0.0611333532
v -0.0133119678 0.0102717031 0.0638465665
v 0.0253708617 0.0312561312 0.0440789152
v -0.00361880251 0.0156565441 0.0635309858
v -0.0409242719 0.00458586323 0.0236619823
v -0.0425033264 0.00487582092 0.0346931295
v 0.036204822 -0.0117853112 0.0494053701
v 0.0220838927 -0.0209508631 0.008683803
v 0.027497737 -0.02573652 0.0159685954
v 0.0364772906 -0.0113167627 0.0171964901
v 0.0187086747 -0.0357100271 0.021638017
v 0.0194852898 0.00840684958 0.0627540336
v -0.0357038113 -0.0215081411 0.0243426933
v -0.0404291798 -0.0140133359 0.0326600716
v -0.0398022366 0.00648786427 0.045426143
v -0.028024575 -0.0313019343 0.0262091591
v 0.0283656488 0.0107640285 0.00934850426
v 0.0344268539 0.0213858781 0.043396485
v 0.0188987998 0.0375579743 0.0363832057
v 0.00602066842 0.0330671292 0.0120696438
v -0.000725186996 0.0397089931 0.0204389528
v -0.0130197117 0.0361613277 0.0185208757
v -0.00274830645 0.0416621434 0.0314373588
v 0.00910928491 0.0403083956 0.0295063379
v -0.0234886456 0.0330155513 0.022478419
v -0.0185292641 0.0293293218 0.0135272164
v -0.00516112727 -0.037348774 0.0164946424
v 0.0249700976 -0.0293254326 0.0488665026
v 0.0216425363 -0.0213711009 0.0578798082
v 0.00925900907 -0.0249101809 0.0605291519
v 0.00331889068 -0.034337232 0.0546730636
v -0.000918148039 -0.0214817026 0.0609734627
v -0.00387341329 0.0257636935 0.0611582123
v 0.0104770476 -0.0404975157 0.0269036557
v -0.0262485656 0.0246572555 0.0531307781
v -0.014063866 -0.0406454313 0.0327744518
v -0.0207306401 -0.0222626018 0.0592197657
v -0.0132320315 0.000191140615 0.060143817
v 0.0372195642 0.0201352004 0.0333521253
v 0.0355151691 -0.0213036545 0.0241196277
v -0.02442741 -0.0350283912 0.0347500649
v -0.00635163968 -0.00907876706 0.00156521178
v -0.032878873 0.0115376404 0.0549107151
v -0.0207499791 -0.000433769894 0.00580569472
v -0.0119751284 -0.0396524047 0.0233186372
v -0.0285697957 0.0253488691 0.0169630358
v 0.0302541111 -0.0204978177 0.0520885148
v -0.0393833873 0.0142572966 0.0386635045
v 0.0153469271 0.0366943942 0.0455622661
v -0.0277953142 -0.0265441535 0.0175218427
v 0.0194989492 0.036669682 0.0270987944
v 0.00867591328 0.0212160854 0.0622606037
v -0.037292288 0.00429784925 0.0147943697
v 0.0218054002 0.0188077581 0.00858284804
v -0.0373069431 -0.000232746228 0.0519886621
v 0.0213040865 -0.00911737718 0.0628067848
v -0.0424458943 -0.00431822656 0.0300811888
v -0.0291402574 -0.00201482272 0.00765093121
v -0.00800875543 0.0410394852 0.0389457028
v -0.0168965518 -0.00861181009 0.00478149004
v -0.0199789975 -0.0371713494 0.0268030867
v -0.0167751875 0.0179122361 0.062511589
v -0.0233801547 0.0188488841 0.0589662197
f 39 127 48
f 64 86 154
f 66 158 68
f 80 142 134
f 97 159 143
f 64 154 65
f 115 160 140
f 134 142 162
f 71 157 143
f 66 68 67
f 24 151 111
f 68 158 79
f 71 143 159
f 5 116 13
f 38 127 39
f 63 64 65
f 86 142 154
f 28 153 33
f 74 90 75
f 27 30 29
f 102 118 148
f 114 154 142
f 38 146 127
f 103 151 132
f 70 162 161
f 61 85 140
f 135 140 160
f 71 75 157
f 19 146 106
f 70 134 162
f 78 144 160
f 80 114 142
f 80 147 114
f 61 62 63
f 135 160 144
f 17 108 107
f 29 30 153
f 4 116 5
f 49 52 94
f 70 161 132
f 65 105 156
f 12 98 131
f 30 33 153
f 48 127 89
f 75 96 157
f 65 154 114
f 60 66 67
f 81 105 147
f 16 106 38
f 71 74 75
f 67 134 70
f 76 81 147
f 34 107 35
f 103 132 161
f 13 116 28
f 38 106 146
f 28 116 153
f 95 110 99
f 43 44 58
f 66 88 158
f 94 135 144
f 48 51 49
f 29 153 116
f 2 18 141
f 88 148 118
f 62 64 63
f 77 124 145
f 52 135 94
f 54 71 159
f 5 13 6
f 62 82 64
f 57 140 135
f 79 121 124
f 58 125 83
f 14 23 24
f 23 102 47
f 105 114 147
f 67 72 134
f 59 136 62
f 60 67 70
f 85 115 140
f 7 16 36
f 49 51 52
f 56 88 66
f 121 125 124
f 60 70 132
f 6 25 7
f 16 38 37
f 65 114 105
f 95 107 108
f 35 107 95
f 18 35 45
f 2 141 97
f 18 34 35
f 67 68 72
f 97 141 159
f 79 158 122
f 108 109 139
f 124 125 145
f 9 19 106
f 16 37 36
f 17 109 108
f 73 79 124
f 100 162 142
f 84 98 136
f 74 112 90
f 84 131 98
f 54 69 71
f 79 120 121
f 94 99 133
f 59 62 61
f 82 87 86
f 22 117 23
f 20 111 151
f 62 136 82
f 65 156 113
f 73 124 77
f 56 66 60
f 61 63 85
f 76 147 80
f 76 77 81
f 32 102 117
f 82 98 87
f 57 61 140
f 48 89 51
f 10 11 155
f 2 3 18
f 112 149 115
f 20 151 103
f 28 33 31
f 82 136 98
f 101 137 103
f 127 146 128
f 27 43 30
f 1 20 137
f 2 27 3
f 27 44 43
f 89 127 128
f 104 156 105
f 79 122 120
f 77 145 93
f 23 47 24
f 84 130 129
f 10 111 11
f 32 118 102
f 14 24 111
f 14 22 23
f 88 122 158
f 5 109 17
f 32 117 138
f 4 5 17
f 3 27 29
f 75 152 96
f 49 94 133
f 55 132 151
f 88 118 123
f 6 13 25
f 51 53 52
f 26 28 31
f 23 117 102
f 101 103 161
f 41 48 49
f 44 97 91
f 8 9 106
f 74 149 112
f 94 144 126
f 78 160 115
f 68 79 73
f 4 29 116
f 83 121 120
f 13 28 26
f 90 156 104
f 33 119 42
f 51 130 53
f 8 106 16
f 15 138 117
f 86 100 142
f 2 97 44
f 1 21 11
f 90 113 156
f 56 148 88
f 40 110 108
f 50 69 54
f 17 107 34
f 7 25 15
f 42 120 123
f 58 92 125
f 75 90 152
f 84 129 131
f 40 41 110
f 47 102 148
f 99 110 133
f 63 65 113
f 78 126 144
f 69 74 71
f 46 95 99
f 91 97 143
f 55 60 132
f 89 129 130
f 6 7 36
f 52 57 135
f 12 137 98
f 96 143 157
f 1 137 12
f 118 150 123
f 39 41 40
f 72 80 134
f 11 111 20
f 51 89 130
f 42 119 120
f 92 96 93
f 81 104 105
f 45 46 50
f 15 117 22
f 88 123 122
f 2 44 27
f 37 38 39
f 43 58 83
f 18 45 141
f 10 155 19
f 85 112 115
f 86 87 100
f 59 84 136
f 100 161 162
f 53 130 84
f 90 112 113
f 31 33 42
f 42 123 150
f 36 37 139
f 54 159 141
f 94 126 99
f 120 122 123
f 5 6 109
f 41 49 133
f 8 22 9
f 44 91 58
f 77 93 81
f 7 8 16
f 9 10 19
f 87 101 100
f 20 103 137
f 1 12 21
f 68 73 72
f 78 115 149
f 63 113 85
f 90 104 152
f 30 119 33
f 72 76 80
f 15 25 138
f 24 55 151
f 50 126 78
f 41 133 110
f 12 131 21
f 45 50 54
f 73 77 76
f 3 29 4
f 100 101 161
f 21 131 129
f 55 56 60
f 89 128 129
f 1 11 20
f 83 120 119
f 57 59 61
f 19 128 146
f 11 21 155
f 3 34 18
f 40 108 139
f 26 31 32
f 69 149 74
f 13 26 25
f 9 22 14
f 26 32 138
f 8 15 22
f 45 54 141
f 6 36 109
f 24 47 55
f 30 43 119
f 87 98 137
f 50 78 69
f 4 17 34
f 91 143 96
f 93 96 152
f 85 113 112
f 7 15 8
f 72 73 76
f 32 150 118
f 52 53 57
f 10 14 111
f 37 39 40
f 9 14 10
f 31 42 150
f 3 4 34
f 43 83 119
f 46 99 126
f 81 93 104
f 58 91 92
f 47 148 56
f 46 126 50
f 25 26 138
f 69 78 149
f 53 59 57
f 53 84 59
f 91 96 92
f 47 56 55
f 31 150 32
f 37 40 139
f 87 137 101
f 93 152 104
f 19 155 128
f 21 128 155
f 21 129 128
f 39 48 41
f 64 82 86
f 95 108 110
f 35 95 46
f 83 125 121
f 36 139 109
f 92 145 125
f 35 46 45
f 92 93 145
