v -0.00120314592 -0.000438876363 0.0468332336
v 5.81459096e-10 3.71288659e-11 -2.00002726e-09
v 0.0123606811 3.18847222e-10 0.00195773702
v 0.0235114116 -8.69877539e-11 0.00763931563
v 0.0345325518 -0.000327967086 0.0127978862
v 0.0405999968 -0.000331964539 0.0225860741
v 0.0424919776 -0.000315789009 0.0336555045
v 0.0399843766 -0.000261123568 0.045253733
v 0.0336860508 -0.000301141913 0.0551586176
v 0.0247334532 -0.000520818703 0.0619143046
v 0.0129593282 -0.00106035653 0.0608364608
v 0.000103989543 -0.0134919413 0.0614657323
v 0.0363884883 0.011466521 0.0170553923
v 0.0276832486 0.011518129 0.058637338
v 0.0402074889 0.0111468012 0.0391524783
v 0.0403224801 -0.0117847121 0.0397922099
v 0.0289445739 -0.0116834675 0.00944938727
v 0.00602530304 -0.0107926894 0.00195773779
v 0.0278929019 -0.0117215607 0.0577970792
v 0.00593366283 0.00918914004 0.0518431192
v 0.0118217408 -0.0129921816 0.0638080841
v 0.0356792519 0.011799701 0.0504221849
v 0.0279771873 0.0224270353 0.0528869664
v 0.0189562412 0.0215484479 0.059863549
v 0.0405027204 0.0116536574 0.027962568
v 0.0342045493 0.0222260505 0.0236027575
v 0.00602530249 0.0107926878 0.00195773783
v 0.0285449081 0.0218762305 0.013973875
v 0.0187412144 0.0108997766 0.00638509194
v 0.0121311422 0.0203429027 0.00776644444
v 0.0249748843 0.0312776024 0.0207010086
v 0.0294634527 0.0302446235 0.0321981606
v 0.0173949056 0.0291226165 0.0118815964
v 0.0171129706 -0.0105219486 0.0054104769
v 0.0109998939 -0.0214982311 0.00811224794
v 0.0399941746 -0.0118477628 0.0283233023
v 0.0360562585 -0.0224560814 0.0333586752
v 0.0342134417 -0.0220759769 0.0441789735
v 0.0281463152 -0.0314124069 0.0383919711
v 0.0289402181 -0.0303664172 0.0269423158
v 0.0193047397 -0.037597896 0.0323344442
v 0.0131347502 0.037307573 0.0195201792
v -0.000191616149 0.0222890371 0.00678611066
v -0.00644031648 0.0107092029 0.00200216462
v -0.00163131786 -0.0200015146 0.00539828632
v 0.00301638228 -0.0302149755 0.00855196971
v 0.0176987619 0.0306751853 0.0531254334
v 0.0174487209 -0.0370292826 0.0438225317
v 0.0078652495 -0.042112687 0.0368646926
v -0.00992395795 -0.0297031806 0.00900338702
v 0.00513016031 -0.0388465594 0.0472068547
v -0.00494530202 -0.0417756362 0.0403678681
v -0.00719755733 -0.0366806427 0.0509633213
v -0.0139237082 -0.0172534868 0.00670663809
v 0.00787251256 0.0293949832 0.0590057425
v 0.00630327028 0.0363254867 0.0508686119
v -0.0167721159 -0.0372264536 0.0432161423
v -0.0129863376 0.0211766742 0.0086487024
v -0.0187741618 -0.0308968916 0.053351928
v -0.00439383634 0.0331151472 0.0555729826
v -0.0274389083 -0.0301185813 0.0452380938
v -0.0281915505 -0.0217141266 0.0536916587
v -0.0359881572 -0.0196345486 0.0453476702
v -0.0351396982 -0.0106647655 0.052974255
v -0.0408931238 -0.00602924914 0.0416928654
v -0.0060467474 0.0387658022 0.0467580333
v -0.0163102877 0.033083419 0.0510700288
v -0.0176867601 0.0377721126 0.0405282343
v -0.0218864148 -0.0237725113 0.00968646742
v -0.0158084366 0.026797482 0.0584006648
v -0.0267989873 -0.0117616542 0.00725463495
v -0.0269374929 0.0302117969 0.0450033392
v -0.0266234335 0.0329308351 0.0332018773
v -0.0327564925 -0.0176412518 0.0147934475
v -0.0345889271 -0.00515658819 0.0122397424
v -0.0348445127 0.0241036623 0.0366738912
v -0.0333049329 0.0251467203 0.0254690861
v -0.0187018763 -0.0338358173 0.0178518296
v -0.0147489863 0.0391380412 0.0291651921
v -0.0346511409 0.0195035275 0.0467206112
v -0.0397740197 0.0151187252 0.0294395024
v -0.0260049754 -0.0113923864 0.0603961238
v -0.00636729262 0.0318965178 0.0114913729
v -0.00828497882 -0.0286555326 0.0589788013
v -0.0336877931 -0.0262932537 0.0351656776
v -0.0306107275 0.000580339578 0.0583363017
v -0.0202931541 -0.000827475411 0.0639408905
v 0.0048837535 0.0412791347 0.0405913491
v 0.0146573739 -0.0319741858 0.0536637301
v -0.0399699978 -0.00793568893 0.0210642659
v -0.018313479 0.00920714497 0.00565112233
v -0.0249847511 0.0187450326 0.00974788703
v -0.0355589443 0.015147027 0.0168561206
v -0.00155575845 -0.0419787175 0.0275395772
v 0.0153982159 -0.0305287157 0.0121912474
v -0.030460488 0.00669846457 0.00843099736
v -0.0116733881 -0.000655211863 0.00174685815
v -0.0144046134 -0.0130416823 0.0629196164
v 0.00643915178 -0.0376823549 0.0174535397
v -0.0248015848 0.0108299638 0.0612376242
v -0.0132978584 0.0102921817 0.064005917
v 0.0253709476 0.0312432813 0.0441430869
v -0.0036010497 0.0156765717 0.0637004183
v -0.0408938433 0.00459194304 0.0237272763
v -0.0424636374 0.0048881444 0.0347656604
v 0.0361929905 -0.0117733678 0.0494751066
v 0.0220725851 -0.020938509 0.00871423631
v 0.0274839841 -0.0257172221 0.0160169869
v 0.0364580503 -0.0113080454 0.0172383108
v 0.0187033306 -0.0356823847 0.0216923048
v 0.0195021058 0.00840153893 0.0628893354
v -0.0356737593 -0.0214851739 0.0244144799
v -0.0403942048 -0.0139901643 0.0327337093
v -0.0397640044 0.00650131101 0.0455052729
v -0.0279996722 -0.031274923 0.0262772125
v 0.0283519392 0.0107575503 0.00937034086
v 0.0344211099 0.0213772136 0.0434591675
v 0.0189031632 0.0375396679 0.0364386779
v 0.00602320897 0.0330536582 0.0120995868
v -0.000713539455 0.0396909138 0.0204889177
v -0.013002207 0.0361489109 0.0185627692
v -0.002731803 0.0416496298 0.0314897413
v 0.00912001073 0.0402969178 0.0295568079
v -0.0234637997 0.0330048561 0.022528832
v -0.0185155895 0.0293204533 0.0135615181
v -0.00515651587 -0.0373244938 0.0165482686
v 0.024962125 -0.0292989083 0.0489416883
v 0.0216392689 -0.0213571045 0.057981616
v 0.00926767063 -0.0248992051 0.0606501504
v 0.00332672116 -0.0343065625 0.0547678491
v -0.000907160559 -0.0214784294 0.0611497892
v -0.00385693542 0.0257706221 0.0612737329
v 0.0104766063 -0.0404666601 0.0269650452
v -0.0262175694 0.0246601728 0.0532042793
v -0.014045791 -0.0406075533 0.0328531889
v -0.0206948978 -0.0222337831 0.0593240102
v -0.013261943 0.000205582676 0.0603799331
v 0.0372067369 0.0201244726 0.0334058533
v 0.0354943839 -0.0212854886 0.0241733025
v -0.0244022146 -0.0349964455 0.0348275749
v -0.00635163966 -0.00907876705 0.00156521187
v -0.0328376987 0.0115457712 0.0549978174
v -0.020749979 -0.000433769892 0.00580569478
v -0.0119632899 -0.0396202747 0.0233863036
v -0.028545378 0.0253411556 0.0170141741
v 0.0302438384 -0.0204784619 0.0521662857
v -0.0393486254 0.0142650474 0.0387368155
v 0.0153533957 0.0366799158 0.0456307396
v -0.0277789176 -0.0265246526 0.0175850093
v 0.0194999328 0.0366515557 0.0271485891
v 0.00869394437 0.0212355236 0.062394858
v -0.0372643776 0.00430104353 0.0148559887
v 0.0217978962 0.0188033352 0.00860394627
v -0.0372669599 -0.000216296269 0.0520687171
v 0.0213229055 -0.00912301821 0.062925977
v -0.0424101078 -0.00430069271 0.0301525194
v -0.0291252881 -0.0020137044 0.0076855774
v -0.00798779744 0.0410257144 0.0390006001
v -0.0168965518 -0.00861181008 0.00478149009
v -0.0199602545 -0.0371402657 0.026874612
v -0.0167446901 0.0179223307 0.0626205392
v -0.0233470231 0.0188614278 0.0590610371
f 39 127 48
f 64 86 154
f 66 158 68
f 80 142 134
f 97 159 143
f 64 154 65
f 115 160 140
f 134 142 162
f 71 157 143
f 66 68 67
f 24 151 111
f 68 158 79
f 71 143 159
f 5 116 13
f 38 127 39
f 63 64 65
f 86 142 154
f 28 153 33
f 74 90 75
f 27 30 29
f 102 118 148
f 114 154 142
f 38 146 127
f 103 151 132
f 70 162 161
f 61 85 140
f 135 140 160
f 71 75 157
f 19 146 106
f 70 134 162
f 78 144 160
f 80 114 142
f 80 147 114
f 61 62 63
f 135 160 144
f 17 108 107
f 29 30 153
f 4 116 5
f 49 52 94
f 70 161 132
f 65 105 156
f 12 98 131
f 30 33 153
f 48 127 89
f 75 96 157
f 65 154 114
f 60 66 67
f 81 105 147
f 16 106 38
f 71 74 75
f 67 134 70
f 76 81 147
f 34 107 35
f 103 132 161
f 13 116 28
f 38 106 146
f 28 116 153
f 95 110 99
f 43 44 58
f 66 88 158
f 94 135 144
f 48 51 49
f 29 153 116
f 2 18 141
f 88 148 118
f 62 64 63
f 77 124 145
f 52 135 94
f 54 71 159
f 5 13 6
f 62 82 64
f 57 140 135
f 79 121 124
f 58 125 83
f 14 23 24
f 23 102 47
f 105 114 147
f 67 72 134
f 59 136 62
f 60 67 70
f 85 115 140
f 7 16 36
f 49 51 52
f 56 88 66
f 121 125 124
f 60 70 132
f 6 25 7
f 16 38 37
f 65 114 105
f 95 107 108
f 35 107 95
f 18 35 45
f 2 141 97
f 18 34 35
f 67 68 72
f 97 141 159
f 79 158 122
f 108 109 139
f 124 125 145
f 9 19 106
f 16 37 36
f 17 109 108
f 73 79 124
f 100 162 142
f 84 98 136
f 74 112 90
f 84 131 98
f 54 69 71
f 79 120 121
f 94 99 133
f 59 62 61
f 82 87 86
f 22 117 23
f 20 111 151
f 62 136 82
f 65 156 113
f 73 124 77
f 56 66 60
f 61 63 85
f 76 147 80
f 76 77 81
f 32 102 117
f 82 98 87
f 57 61 140
f 48 89 51
f 10 11 155
f 2 3 18
f 112 149 115
f 20 151 103
f 28 33 31
f 82 136 98
f 101 137 103
f 127 146 128
f 27 43 30
f 1 20 137
f 2 27 3
f 27 44 43
f 89 127 128
f 104 156 105
f 79 122 120
f 77 145 93
f 23 47 24
f 84 130 129
f 10 111 11
f 32 118 102
f 14 24 111
f 14 22 23
f 88 122 158
f 5 109 17
f 32 117 138
f 4 5 17
f 3 27 29
f 75 152 96
f 49 94 133
f 55 132 151
f 88 118 123
f 6 13 25
f 51 53 52
f 26 28 31
f 23 117 102
f 101 103 161
f 41 48 49
f 44 97 91
f 8 9 106
f 74 149 112
f 94 144 126
f 78 160 115
f 68 79 73
f 4 29 116
f 83 121 120
f 13 28 26
f 90 156 104
f 33 119 42
f 51 130 53
f 8 106 16
f 15 138 117
f 86 100 142
f 2 97 44
f 1 21 11
f 90 113 156
f 56 148 88
f 40 110 108
f 50 69 54
f 17 107 34
f 7 25 15
f 42 120 123
f 58 92 125
f 75 90 152
f 84 129 131
f 40 41 110
f 47 102 148
f 99 110 133
f 63 65 113
f 78 126 144
f 69 74 71
f 46 95 99
f 91 97 143
f 55 60 132
f 89 129 130
f 6 7 36
f 52 57 135
f 12 137 98
f 96 143 157
f 1 137 12
f 118 150 123
f 39 41 40
f 72 80 134
f 11 111 20
f 51 89 130
f 42 119 120
f 92 96 93
f 81 104 105
f 45 46 50
f 15 117 22
f 88 123 122
f 2 44 27
f 37 38 39
f 43 58 83
f 18 45 141
f 10 155 19
f 85 112 115
f 86 87 100
f 59 84 136
f 100 161 162
f 53 130 84
f 90 112 113
f 31 33 42
f 42 123 150
f 36 37 139
f 54 159 141
f 94 126 99
f 120 122 123
f 5 6 109
f 41 49 133
f 8 22 9
f 44 91 58
f 77 93 81
f 7 8 16
f 9 10 19
f 87 101 100
f 20 103 137
f 1 12 21
f 68 73 72
f 78 115 149
f 63 113 85
f 90 104 152
f 30 119 33
f 72 76 80
f 15 25 138
f 24 55 151
f 50 126 78
f 41 133 110
f 12 131 21
f 45 50 54
f 73 77 76
f 3 29 4
f 100 101 161
f 21 131 129
f 55 56 60
f 89 128 129
f 1 11 20
f 83 120 119
f 57 59 61
f 19 128 146
f 11 21 155
f 3 34 18
f 40 108 139
f 26 31 32
f 69 149 74
f 13 26 25
f 9 22 14
f 26 32 138
f 8 15 22
f 45 54 141
f 6 36 109
f 24 47 55
f 30 43 119
f 87 98 137
f 50 78 69
f 4 17 34
f 91 143 96
f 93 96 152
f 85 113 112
f 7 15 8
f 72 73 76
f 32 150 118
f 52 53 57
f 10 14 111
f 37 39 40
f 9 14 10
f 31 42 150
f 3 4 34
f 43 83 119
f 46 99 126
f 81 93 104
f 58 91 92
f 47 148 56
f 46 126 50
f 25 26 138
f 69 78 149
f 53 59 57
f 53 84 59
f 91 96 92
f 47 56 55
f 31 150 32
f 37 40 139
f 87 137 101
f 93 152 104
f 19 155 128
f 21 128 155
f 21 129 128
f 39 48 41
f 64 82 86
f 95 108 110
f 35 95 46
f 83 125 121
f 36 139 109
f 92 145 125
f 35 46 45
f 92 93 145
