v 0.00095224421 0.000332574054 0.0635144829
v -9.23734708e-05 -8.12589965e-05 -0.0110843819
v 0.0103029335 -0.000106176946 -0.0093204342
v 0.0199629216 6.41366878e-05 -0.00434046804
v 0.03104374 7.72827396e-05 0.00240611663
v 0.0393872048 9.50652474e-05 0.0119107472
v 0.0419791471 0.000343999402 0.0234692271
v 0.0401329572 0.000378314313 0.0358330333
v 0.0341409008 0.00033101483 0.0469183673
v 0.0250966258 0.000289818055 0.0556134919
v 0.0137363324 0.000253290661 0.0612521599
v 0.00204996169 -0.0123990618 0.0610902412
v 0.0345155294 0.0109762066 0.00618642804
v 0.0275166631 0.0117615779 0.0514983018
v 0.0399180379 0.011468363 0.0293206954
v 0.0403525663 -0.0109452033 0.0297511614
v 0.0241068643 -0.00962758098 -2.57230186e-06
v 0.00505696755 -0.0090695309 -0.00896519636
v 0.0288888406 -0.0107031065 0.0503535933
v 0.00711786622 0.0112532113 0.0614428835
v 0.0131861643 -0.0119366924 0.059587538
v 0.035671353 0.0120667095 0.0415917683
v 0.0282748318 0.0224266296 0.0442260394
v 0.0193056458 0.0215835834 0.0522677903
v 0.0396165354 0.0119195515 0.0174465249
v 0.0331867367 0.0216314343 0.0130774521
v 0.00513967448 0.00850974576 -0.00909873004
v 0.0269636882 0.0202283507 0.00338713187
v 0.0157586072 0.0091865686 -0.00573879127
v 0.0104005882 0.0175864415 -0.00419428271
v 0.0239485866 0.0300956596 0.010186525
v 0.0292171473 0.0300332582 0.0221381084
v 0.0158846997 0.0256048401 0.00195272209
v 0.014123799 -0.00855724329 -0.00655852099
v 0.0095109553 -0.0186699145 -0.0034045474
v 0.0394388387 -0.0110915596 0.0177879538
v 0.0361145016 -0.0214520639 0.0234358312
v 0.0346898205 -0.0208956703 0.0347874358
v 0.0286883136 -0.0302218368 0.0291077228
v 0.0287321614 -0.0286980263 0.0169071845
v 0.0200208872 -0.0365205935 0.0228260912
v 0.0127611973 0.0354418917 0.00916786503
v -0.000217363171 0.0181225591 -0.00583667771
v -0.00553199354 0.00896295993 -0.0090468855
v -0.00172084438 -0.016236465 -0.0066879396
v 0.00307501102 -0.025554516 -0.000436867854
v 0.0181023156 0.0304731508 0.0445346632
v 0.0186150729 -0.0359597483 0.0350637075
v 0.00892631176 -0.0410894613 0.0281472732
v -0.00814865857 -0.0245834102 0.000399237205
v 0.00655542091 -0.0374510175 0.0392353656
v -0.0034626422 -0.0404864879 0.031975603
v -0.00542224636 -0.0353900592 0.0434705467
v -0.0113236606 -0.0143553883 -0.0054442587
v 0.00850515004 0.0288121483 0.0513763385
v 0.00680068542 0.035926412 0.0422645544
v -0.0150773852 -0.0361643047 0.0353281647
v -0.0113187806 0.0183858258 -0.00313312364
v -0.0167197754 -0.0297197816 0.0462758723
v -0.00341049083 0.0326637946 0.0477512027
v -0.025638118 -0.0292477421 0.0373633327
v -0.0259722383 -0.0208863935 0.0467175338
v -0.0340689946 -0.0190843587 0.037540359
v -0.0329113088 -0.0101320338 0.0454346089
v -0.0392338535 -0.00573079608 0.0336453659
v -0.0052498563 0.0385486113 0.0377530638
v -0.0150162121 0.032809127 0.0426743639
v -0.0165376171 0.0371177466 0.0312171931
v -0.0188917907 -0.0206560168 0.00125882637
v -0.014213744 0.0264516963 0.0509311196
v -0.022159687 -0.0100743965 -0.00103657396
v -0.0256127796 0.0300523472 0.0363683032
v -0.025368737 0.0321759524 0.023844094
v -0.0302904398 -0.0164867963 0.00567594493
v -0.0315616646 -0.004898835 0.00317925032
v -0.0334075734 0.0237182316 0.0280342227
v -0.032056483 0.0243795443 0.0162999859
v -0.0169497452 -0.031759242 0.00891366456
v -0.0140122984 0.0385066043 0.0190128325
v -0.033030951 0.0193398503 0.0386334871
v -0.0384977015 0.0147706937 0.0208297046
v -0.0235442453 -0.0107759736 0.0542210479
v -0.00557650624 0.0272568105 0.00142043751
v -0.00622701077 -0.0270086883 0.0528100239
v -0.0320657765 -0.0257065617 0.0268482394
v -0.0284979086 0.000758136223 0.0519135576
v -0.018173667 -0.000379230628 0.059156243
v 0.00537387878 0.0408564572 0.0310152107
v 0.0159312818 -0.0306318108 0.0457402204
v -0.0380286513 -0.00770804386 0.0120546043
v -0.0150436324 0.00742213232 -0.00677806253
v -0.0205697493 0.0157449146 0.000175346628
v -0.0337068941 0.0142541513 0.00794225926
v -0.000630593399 -0.0407205717 0.018348206
v 0.0146633312 -0.0277399855 0.00215933955
v -0.0248138055 0.00535712671 -8.59783148e-05
v -0.00981679385 -0.000685697638 -0.00896499683
v -0.0119417753 -0.0114154924 0.0595372059
v 0.00666548365 -0.03548229 0.00777839958
v -0.022407712 0.0110192199 0.0550657818
v -0.0106105363 0.00978581971 0.0604879816
v 0.0254742043 0.0310742722 0.0347295472
v -0.00209135479 0.0151741193 0.0600803686
v -0.039064102 0.00430532323 0.0148433079
v -0.0409091128 0.00479924619 0.0263954625
v 0.0367000216 -0.0108006819 0.0402946516
v 0.017961303 -0.0174187342 -0.000949199722
v 0.0261361782 -0.0236124226 0.00566055708
v 0.0342295695 -0.0100389909 0.0066554449
v 0.0185551705 -0.0339118246 0.0117981337
v 0.0191369856 0.00912907938 0.0580021347
v -0.0336816995 -0.0206587543 0.01561036
v -0.0386920144 -0.0137065199 0.0243223443
v -0.0380807619 0.00656328285 0.0377617719
v -0.0264812026 -0.030550624 0.0177114898
v 0.0234510931 0.00872966306 -0.000608878091
v 0.0344151177 0.0215366658 0.0339772542
v 0.0189624802 0.0371562837 0.0266369193
v 0.00516298808 0.0278483487 0.00220744988
v -0.000454992976 0.0382943078 0.0101543031
v -0.0122896594 0.0346588412 0.00814116035
v -0.00227221124 0.0410442892 0.0214775739
v 0.00920419068 0.0396001409 0.0193061291
v -0.0225041077 0.0320249944 0.0125057455
v -0.0171499293 0.0269371402 0.00351112885
v -0.00416968492 -0.0345686442 0.007219807
v 0.0258339417 -0.0278598628 0.0403028896
v 0.0227052313 -0.0202541646 0.0507848463
v 0.0107893624 -0.0235025107 0.0545882514
v 0.00489091202 -0.0327089745 0.0475265357
v 0.00086583353 -0.0200268931 0.0577872748
v -0.00263902914 0.0252190041 0.055000148
v 0.0110274869 -0.0391383217 0.017542328
v -0.0246877103 0.0245892193 0.0451005476
v -0.0125989601 -0.0394389159 0.024245439
v -0.0181015215 -0.0208776021 0.0529358937
v -0.0107348451 2.2590457e-05 0.0617532213
v 0.0368351547 0.0202237657 0.0233340645
v 0.034599165 -0.0198632621 0.0137877646
v -0.0227913305 -0.0341713159 0.0264857989
v -0.00527263917 -0.0076767468 -0.00961256001
v -0.0306447961 0.0115459488 0.0476919563
v -0.0176173224 -0.000257559645 -0.00611058698
v -0.0105973862 -0.0379999489 0.0142184045
v -0.0269695292 0.023694662 0.00751627171
v 0.0309345668 -0.019207845 0.0435861776
v -0.0379277455 0.0140801119 0.0304857082
v 0.0155823688 0.036281929 0.0364465295
v -0.0256516499 -0.0250989841 0.00883925274
v 0.0193256228 0.0360356268 0.0169624823
v 0.00958422812 0.0205844223 0.0567839943
v -0.0337295542 0.00438344442 0.00569204806
v 0.0183438525 0.0163208685 -0.00115010848
v -0.035131591 1.37763275e-05 0.0446241683
v 0.0223172533 -0.00804560021 0.0565386294
v -0.0407787528 -0.00428873187 0.021549103
v -0.0245179245 -0.00245396382 -0.00121200768
v -0.00737278467 0.0404990405 0.0292872878
v -0.0144813585 -0.00772045356 -0.00688481632
v -0.018443551 -0.0360875158 0.0180630808
v -0.0147953216 0.0175234925 0.0564910422
v -0.021410096 0.0189570803 0.0520906085
f 39 127 48
f 64 86 154
f 66 158 68
f 80 142 134
f 97 159 143
f 64 154 65
f 115 160 140
f 134 142 162
f 71 157 143
f 66 68 67
f 24 151 111
f 68 158 79
f 71 143 159
f 5 116 13
f 38 127 39
f 63 64 65
f 86 142 154
f 28 153 33
f 74 90 75
f 27 30 29
f 102 118 148
f 114 154 142
f 38 146 127
f 103 151 132
f 70 162 161
f 61 85 140
f 135 140 160
f 71 75 157
f 19 146 106
f 70 134 162
f 78 144 160
f 80 114 142
f 80 147 114
f 61 62 63
f 135 160 144
f 17 108 107
f 29 30 153
f 4 116 5
f 49 52 94
f 70 161 132
f 65 105 156
f 12 98 131
f 30 33 153
f 48 127 89
f 75 96 157
f 65 154 114
f 60 66 67
f 81 105 147
f 16 106 38
f 71 74 75
f 67 134 70
f 76 81 147
f 34 107 35
f 103 132 161
f 13 116 28
f 38 106 146
f 28 116 153
f 95 110 99
f 43 44 58
f 66 88 158
f 94 135 144
f 48 51 49
f 29 153 116
f 2 18 141
f 88 148 118
f 62 64 63
f 77 124 145
f 52 135 94
f 54 71 159
f 5 13 6
f 62 82 64
f 57 140 135
f 79 121 124
f 58 125 83
f 14 23 24
f 23 102 47
f 105 114 147
f 67 72 134
f 59 136 62
f 60 67 70
f 85 115 140
f 7 16 36
f 49 51 52
f 56 88 66
f 121 125 124
f 60 70 132
f 6 25 7
f 16 38 37
f 65 114 105
f 95 107 108
f 35 107 95
f 18 35 45
f 2 141 97
f 18 34 35
f 67 68 72
f 97 141 159
f 79 158 122
f 108 109 139
f 124 125 145
f 9 19 106
f 16 37 36
f 17 109 108
f 73 79 124
f 100 162 142
f 84 98 136
f 74 112 90
f 84 131 98
f 54 69 71
f 79 120 121
f 94 99 133
f 59 62 61
f 82 87 86
f 22 117 23
f 20 111 151
f 62 136 82
f 65 156 113
f 73 124 77
f 56 66 60
f 61 63 85
f 76 147 80
f 76 77 81
f 32 102 117
f 82 98 87
f 57 61 140
f 48 89 51
f 10 11 155
f 2 3 18
f 112 149 115
f 20 151 103
f 28 33 31
f 82 136 98
f 101 137 103
f 127 146 128
f 27 43 30
f 1 20 137
f 2 27 3
f 27 44 43
f 89 127 128
f 104 156 105
f 79 122 120
f 77 145 93
f 23 47 24
f 84 130 129
f 10 111 11
f 32 118 102
f 14 24 111
f 14 22 23
f 88 122 158
f 5 109 17
f 32 117 138
f 4 5 17
f 3 27 29
f 75 152 96
f 49 94 133
f 55 132 151
f 88 118 123
f 6 13 25
f 51 53 52
f 26 28 31
f 23 117 102
f 101 103 161
f 41 48 49
f 44 97 91
f 8 9 106
f 74 149 112
f 94 144 126
f 78 160 115
f 68 79 73
f 4 29 116
f 83 121 120
f 13 28 26
f 90 156 104
f 33 119 42
f 51 130 53
f 8 106 16
f 15 138 117
f 86 100 142
f 2 97 44
f 1 21 11
f 90 113 156
f 56 148 88
f 40 110 108
f 50 69 54
f 17 107 34
f 7 25 15
f 42 120 123
f 58 92 125
f 75 90 152
f 84 129 131
f 40 41 110
f 47 102 148
f 99 110 133
f 63 65 113
f 78 126 144
f 69 74 71
f 46 95 99
f 91 97 143
f 55 60 132
f 89 129 130
f 6 7 36
f 52 57 135
f 12 137 98
f 96 143 157
f 1 137 12
f 118 150 123
f 39 41 40
f 72 80 134
f 11 111 20
f 51 89 130
f 42 119 120
f 92 96 93
f 81 104 105
f 45 46 50
f 15 117 22
f 88 123 122
f 2 44 27
f 37 38 39
f 43 58 83
f 18 45 141
f 10 155 19
f 85 112 115
f 86 87 100
f 59 84 136
f 100 161 162
f 53 130 84
f 90 112 113
f 31 33 42
f 42 123 150
f 36 37 139
f 54 159 141
f 94 126 99
f 120 122 123
f 5 6 109
f 41 49 133
f 8 22 9
f 44 91 58
f 77 93 81
f 7 8 16
f 9 10 19
f 87 101 100
f 20 103 137
f 1 12 21
f 68 73 72
f 78 115 149
f 63 113 85
f 90 104 152
f 30 119 33
f 72 76 80
f 15 25 138
f 24 55 151
f 50 126 78
f 41 133 110
f 12 131 21
f 45 50 54
f 73 77 76
f 3 29 4
f 100 101 161
f 21 131 129
f 55 56 60
f 89 128 129
f 1 11 20
f 83 120 119
f 57 59 61
f 19 128 146
f 11 21 155
f 3 34 18
f 40 108 139
f 26 31 32
f 69 149 74
f 13 26 25
f 9 22 14
f 26 32 138
f 8 15 22
f 45 54 141
f 6 36 109
f 24 47 55
f 30 43 119
f 87 98 137
f 50 78 69
f 4 17 34
f 91 143 96
f 93 96 152
f 85 113 112
f 7 15 8
f 72 73 76
f 32 150 118
f 52 53 57
f 10 14 111
f 37 39 40
f 9 14 10
f 31 42 150
f 3 4 34
f 43 83 119
f 46 99 126
f 81 93 104
f 58 91 92
f 47 148 56
f 46 126 50
f 25 26 138
f 69 78 149
f 53 59 57
f 53 84 59
f 91 96 92
f 47 56 55
f 31 150 32
f 37 40 139
f 87 137 101
f 93 152 104
f 19 155 128
f 21 128 155
f 21 129 128
f 39 48 41
f 64 82 86
f 95 108 110
f 35 95 46
f 83 125 121
f 36 139 109
f 92 145 125
f 35 46 45
f 92 93 145
