v -0.000954460014 -0.00066232964 0.0542303261
v 4.85263763e-10 5.92390301e-11 -1.82709094e-09
v 0.0123606809 2.58415239e-10 0.00195773735
v 0.0235114115 -1.67891347e-10 0.00763931637
v 0.0339659141 -0.000435656781 0.0138564109
v 0.0398356322 -0.000512809208 0.0240199651
v 0.0415807802 -0.000485739493 0.0354575095
v 0.0391314721 -0.000437938688 0.0472167879
v 0.0329016065 -0.000457943132 0.0574359121
v 0.024228949 -0.00050545606 0.0649019481
v 0.0126538818 -0.000823565274 0.0672950849
v 7.01455409e-09 -0.0134198729 0.0683856721
v 0.0357281562 0.011113155 0.0183847669
v 0.0270439979 0.0114079303 0.0610071795
v 0.0393881861 0.0108079983 0.0409794159
v 0.0393891411 -0.0117549155 0.0415219248
v 0.02848475 -0.0115931637 0.0103949243
v 0.00602530288 -0.0107926894 0.00195773794
v 0.027383493 -0.0116569545 0.0605299033
v 0.00573319338 0.00939521556 0.0600138575
v 0.0120006416 -0.0130425531 0.0681699564
v 0.0347624979 0.0114151809 0.0523730935
v 0.0274059382 0.0220905338 0.0545803656
v 0.0184652744 0.0215877854 0.0616651318
v 0.0396964576 0.0111827829 0.0296046301
v 0.0336714161 0.0216587484 0.0250294825
v 0.00602530255 0.010792688 0.00195773803
v 0.0281603249 0.021336783 0.0151223945
v 0.0187412142 0.0108997767 0.00638509246
v 0.0121311423 0.0203429021 0.00776644488
v 0.0245949242 0.0305641964 0.0220094759
v 0.0289340643 0.029637093 0.0336507316
v 0.0172413032 0.0286129551 0.0128696222
v 0.0171129706 -0.0105219485 0.00541047744
v 0.0109998937 -0.0214982312 0.00811224857
v 0.0393061475 -0.0118055722 0.0298616023
v 0.0352895482 -0.0222170664 0.0351423583
v 0.033416287 -0.0218250344 0.0461564287
v 0.0274724814 -0.030955141 0.0403843704
v 0.0283037167 -0.0299791236 0.0287338712
v 0.0188626997 -0.0371168107 0.0341729138
v 0.0129416833 0.0366053141 0.0206987408
v -0.000191616166 0.0222890368 0.00678611102
v -0.00644031663 0.0107092027 0.00200216494
v -0.00163131787 -0.0200015144 0.00539828699
v 0.00292886727 -0.0300390319 0.00968566934
v 0.0172484535 0.0304334555 0.0546319361
v 0.0169815122 -0.0364087776 0.0458796449
v 0.00755326489 -0.0413607611 0.0388665385
v -0.00986362695 -0.0293072677 0.00998838635
v 0.00497880644 -0.0381758546 0.0497671565
v -0.00488871838 -0.0410780965 0.0426112569
v -0.0070933226 -0.0359409233 0.0535678936
v -0.013923708 -0.0172534866 0.0067066387
v 0.00735195419 0.0295675494 0.0604330861
v 0.00590017652 0.0361391965 0.052121193
v -0.0165642382 -0.0367145763 0.0455225647
v -0.0129863376 0.0211766739 0.00864870268
v -0.0183854846 -0.0302576786 0.0558526302
v -0.00481111979 0.0330460447 0.0570406758
v -0.0270900971 -0.029626826 0.0473115304
v -0.0277168422 -0.0213167615 0.0560957113
v -0.0354048125 -0.019371748 0.047150694
v -0.0345996756 -0.0105577843 0.0549349541
v -0.0404442775 -0.00609796926 0.0434189831
v -0.00622455636 0.0384402005 0.0479026337
v -0.0164588107 0.0327230611 0.0524504959
v -0.0175770107 0.0371852928 0.0417208569
v -0.0216899969 -0.0236779495 0.0109449852
v -0.0160940587 0.0266537662 0.060004446
v -0.0263311542 -0.0117776747 0.00811388451
v -0.0268238923 0.0297642031 0.0461494939
v -0.0263892264 0.0323735185 0.0343633302
v -0.0322625251 -0.0175830399 0.0161423934
v -0.0341067036 -0.00533438723 0.0133068857
v -0.0345079626 0.0235709913 0.0379662635
v -0.0329158267 0.0246709849 0.0267518754
v -0.0183935733 -0.0335705846 0.0193469389
v -0.0148086813 0.0385608719 0.0301773695
v -0.0343817112 0.019099504 0.0481659041
v -0.0393179356 0.0146559361 0.0307235693
v -0.0254602876 -0.0112436754 0.0630467177
v -0.00633157105 0.0315569205 0.0121141591
v -0.00812815427 -0.0277326323 0.0622479801
v -0.0331418492 -0.0260695105 0.0368958325
v -0.0304578085 0.00043840002 0.060548135
v -0.0205297867 -0.000656792446 0.0668405265
v 0.004670772 0.0407584318 0.0416265669
v 0.0141534379 -0.0314244556 0.0562663175
v -0.0393474834 -0.00809862467 0.0225087318
v -0.0183134787 0.00920714475 0.00565112293
v -0.0247575884 0.0184350542 0.0104223719
v -0.0351879672 0.0147358052 0.0181918387
v -0.00160965616 -0.0414583808 0.0292295975
v 0.0151684181 -0.0301562695 0.0133963315
v -0.0301901679 0.00643840549 0.00942155843
v -0.0116733882 -0.000655211867 0.0017468584
v -0.0141497005 -0.0125062945 0.0673846012
v 0.00639272078 -0.0372510933 0.0189657508
v -0.0246715062 0.0108002733 0.0634146174
v -0.0132103431 0.0103464531 0.0669842769
v 0.0248371517 0.0308065017 0.0456286188
v -0.00422722527 0.0160656653 0.0666515711
v -0.0404487882 0.00423835759 0.0250470108
v -0.0419408959 0.00463956909 0.0362175216
v 0.035388491 -0.0117040361 0.0515306628
v 0.0216947491 -0.0207107153 0.00962699124
v 0.0269547132 -0.0254168923 0.0174656003
v 0.0357644451 -0.0112917772 0.0185676762
v 0.0183400384 -0.0351958639 0.0232989203
v 0.0189929694 0.00858049312 0.0655164802
v -0.0351057139 -0.0213927815 0.0260259366
v -0.0398284824 -0.0139550702 0.0343530456
v -0.0393900636 0.00629401645 0.047117101
v -0.0275168897 -0.0310138076 0.0279226049
v 0.0279050372 0.0104491311 0.0100761957
v 0.0337287845 0.0209401782 0.0451176052
v 0.0186153529 0.0370091962 0.037648573
v 0.00598713692 0.0326262216 0.0128861088
v -0.000737074599 0.0391008582 0.0216053912
v -0.0128758137 0.0356472186 0.0194352919
v -0.00283181961 0.0411613977 0.0325092404
v 0.00899755205 0.0398596446 0.0306434706
v -0.0232681306 0.0324237883 0.0235093607
v -0.018378679 0.028952401 0.0142905868
v -0.00511063521 -0.0369185969 0.0179256021
v 0.0242851496 -0.0288061705 0.0512228532
v 0.0209733679 -0.0211181651 0.0607732689
v 0.00887824832 -0.0242682653 0.0641344518
v 0.00309224294 -0.0334566504 0.057648048
v -0.00105987495 -0.020806215 0.0664344382
v -0.00446247276 0.0259749021 0.0632448266
v 0.0102354523 -0.0399398592 0.0287456519
v -0.0262261081 0.024360778 0.0545110214
v -0.0137948715 -0.0399927452 0.034923386
v -0.0201299629 -0.0215983591 0.0620721676
v -0.0132154567 1.45741462e-05 0.0657253693
v 0.0365190357 0.0196222872 0.0349710628
v 0.0347237458 -0.0210671237 0.0258300422
v -0.023962652 -0.034569964 0.0368179235
v -0.00635163951 -0.009078767 0.00156521237
v -0.0325387457 0.011272415 0.0567494066
v -0.0207499787 -0.000433769925 0.0058056951
v -0.0117731887 -0.039115999 0.0251105558
v -0.0282575214 0.0248410935 0.0180262969
v 0.0294029551 -0.020118569 0.0544491645
v -0.0390277367 0.0139295241 0.0401659976
v 0.0149409441 0.0362931116 0.0469549385
v -0.0274284468 -0.0264009126 0.0190540666
v 0.0192280303 0.0360176918 0.0283591232
v 0.00819408845 0.0217528547 0.064246989
v -0.0367978582 0.00397893273 0.0161210217
v 0.0215640029 0.0186138512 0.00926518877
v -0.0368449106 -0.000306402875 0.0538355264
v 0.0209910486 -0.00895910192 0.0659018449
v -0.041866865 -0.00441236975 0.0316533082
v -0.0288007649 -0.00216548202 0.00844793987
v -0.00813013177 0.0405060118 0.0399546984
v -0.0168965518 -0.00861181013 0.00478149035
v -0.0196288083 -0.0367264252 0.0286701442
v -0.0170100262 0.0179494452 0.0647370436
v -0.0234175066 0.0188216621 0.0608604759
f 39 127 48
f 64 86 154
f 66 158 68
f 80 142 134
f 97 159 143
f 64 154 65
f 115 160 140
f 134 142 162
f 71 157 143
f 66 68 67
f 24 151 111
f 68 158 79
f 71 143 159
f 5 116 13
f 38 127 39
f 63 64 65
f 86 142 154
f 28 153 33
f 74 90 75
f 27 30 29
f 102 118 148
f 114 154 142
f 38 146 127
f 103 151 132
f 70 162 161
f 61 85 140
f 135 140 160
f 71 75 157
f 19 146 106
f 70 134 162
f 78 144 160
f 80 114 142
f 80 147 114
f 61 62 63
f 135 160 144
f 17 108 107
f 29 30 153
f 4 116 5
f 49 52 94
f 70 161 132
f 65 105 156
f 12 98 131
f 30 33 153
f 48 127 89
f 75 96 157
f 65 154 114
f 60 66 67
f 81 105 147
f 16 106 38
f 71 74 75
f 67 134 70
f 76 81 147
f 34 107 35
f 103 132 161
f 13 116 28
f 38 106 146
f 28 116 153
f 95 110 99
f 43 44 58
f 66 88 158
f 94 135 144
f 48 51 49
f 29 153 116
f 2 18 141
f 88 148 118
f 62 64 63
f 77 124 145
f 52 135 94
f 54 71 159
f 5 13 6
f 62 82 64
f 57 140 135
f 79 121 124
f 58 125 83
f 14 23 24
f 23 102 47
f 105 114 147
f 67 72 134
f 59 136 62
f 60 67 70
f 85 115 140
f 7 16 36
f 49 51 52
f 56 88 66
f 121 125 124
f 60 70 132
f 6 25 7
f 16 38 37
f 65 114 105
f 95 107 108
f 35 107 95
f 18 35 45
f 2 141 97
f 18 34 35
f 67 68 72
f 97 141 159
f 79 158 122
f 108 109 139
f 124 125 145
f 9 19 106
f 16 37 36
f 17 109 108
f 73 79 124
f 100 162 142
f 84 98 136
f 74 112 90
f 84 131 98
f 54 69 71
f 79 120 121
f 94 99 133
f 59 62 61
f 82 87 86
f 22 117 23
f 20 111 151
f 62 136 82
f 65 156 113
f 73 124 77
f 56 66 60
f 61 63 85
f 76 147 80
f 76 77 81
f 32 102 117
f 82 98 87
f 57 61 140
f 48 89 51
f 10 11 155
f 2 3 18
f 112 149 115
f 20 151 103
f 28 33 31
f 82 136 98
f 101 137 103
f 127 146 128
f 27 43 30
f 1 20 137
f 2 27 3
f 27 44 43
f 89 127 128
f 104 156 105
f 79 122 120
f 77 145 93
f 23 47 24
f 84 130 129
f 10 111 11
f 32 118 102
f 14 24 111
f 14 22 23
f 88 122 158
f 5 109 17
f 32 117 138
f 4 5 17
f 3 27 29
f 75 152 96
f 49 94 133
f 55 132 151
f 88 118 123
f 6 13 25
f 51 53 52
f 26 28 31
f 23 117 102
f 101 103 161
f 41 48 49
f 44 97 91
f 8 9 106
f 74 149 112
f 94 144 126
f 78 160 115
f 68 79 73
f 4 29 116
f 83 121 120
f 13 28 26
f 90 156 104
f 33 119 42
f 51 130 53
f 8 106 16
f 15 138 117
f 86 100 142
f 2 97 44
f 1 21 11
f 90 113 156
f 56 148 88
f 40 110 108
f 50 69 54
f 17 107 34
f 7 25 15
f 42 120 123
f 58 92 125
f 75 90 152
f 84 129 131
f 40 41 110
f 47 102 148
f 99 110 133
f 63 65 113
f 78 126 144
f 69 74 71
f 46 95 99
f 91 97 143
f 55 60 132
f 89 129 130
f 6 7 36
f 52 57 135
f 12 137 98
f 96 143 157
f 1 137 12
f 118 150 123
f 39 41 40
f 72 80 134
f 11 111 20
f 51 89 130
f 42 119 120
f 92 96 93
f 81 104 105
f 45 46 50
f 15 117 22
f 88 123 122
f 2 44 27
f 37 38 39
f 43 58 83
f 18 45 141
f 10 155 19
f 85 112 115
f 86 87 100
f 59 84 136
f 100 161 162
f 53 130 84
f 90 112 113
f 31 33 42
f 42 123 150
f 36 37 139
f 54 159 141
f 94 126 99
f 120 122 123
f 5 6 109
f 41 49 133
f 8 22 9
f 44 91 58
f 77 93 81
f 7 8 16
f 9 10 19
f 87 101 100
f 20 103 137
f 1 12 21
f 68 73 72
f 78 115 149
f 63 113 85
f 90 104 152
f 30 119 33
f 72 76 80
f 15 25 138
f 24 55 151
f 50 126 78
f 41 133 110
f 12 131 21
f 45 50 54
f 73 77 76
f 3 29 4
f 100 101 161
f 21 131 129
f 55 56 60
f 89 128 129
f 1 11 20
f 83 120 119
f 57 59 61
f 19 128 146
f 11 21 155
f 3 34 18
f 40 108 139
f 26 31 32
f 69 149 74
f 13 26 25
f 9 22 14
f 26 32 138
f 8 15 22
f 45 54 141
f 6 36 109
f 24 47 55
f 30 43 119
f 87 98 137
f 50 78 69
f 4 17 34
f 91 143 96
f 93 96 152
f 85 113 112
f 7 15 8
f 72 73 76
f 32 150 118
f 52 53 57
f 10 14 111
f 37 39 40
f 9 14 10
f 31 42 150
f 3 4 34
f 43 83 119
f 46 99 126
f 81 93 104
f 58 91 92
f 47 148 56
f 46 126 50
f 25 26 138
f 69 78 149
f 53 59 57
f 53 84 59
f 91 96 92
f 47 56 55
f 31 150 32
f 37 40 139
f 87 137 101
f 93 152 104
f 19 155 128
f 21 128 155
f 21 129 128
f 39 48 41
f 64 82 86
f 95 108 110
f 35 95 46
f 83 125 121
f 36 139 109
f 92 145 125
f 35 46 45
f 92 93 145
