v -0.000745723313 -0.000681670634 0.0565282523
v 4.46856315e-10 6.72946428e-11 -1.71878627e-09
v 0.0123606808 2.36836347e-10 0.00195773751
v 0.0235114114 -1.87579568e-10 0.00763931672
v 0.0338180717 -0.000427941601 0.0141444574
v 0.0396301162 -0.000541079219 0.0244358768
v 0.0413302288 -0.000554738576 0.0359970508
v 0.0388710279 -0.000566556287 0.047829657
v 0.0326304365 -0.000641662545 0.0581572997
v 0.0238904089 -0.000653538784 0.0658367077
v 0.0124098746 -0.000821528266 0.0692132256
v -9.43726161e-05 -0.0137325397 0.0694781776
v 0.0355347681 0.0110337353 0.0187912753
v 0.0266945682 0.0111354749 0.0618644631
v 0.039135788 0.0106507011 0.0415882378
v 0.0391521031 -0.011795715 0.0419982191
v 0.0283941933 -0.0115294666 0.0106163607
v 0.00602530282 -0.0107926894 0.00195773801
v 0.0271924807 -0.0117490023 0.061320211
v 0.00572390141 0.00948143392 0.0626996419
v 0.0118673169 -0.0131973607 0.0691380479
v 0.0344556745 0.0111756457 0.0530646625
v 0.0271668068 0.0217909992 0.055252115
v 0.0182358863 0.0212776431 0.0624010033
v 0.0394646653 0.0110471809 0.0301292024
v 0.0334960293 0.0214873786 0.0255201907
v 0.00602530254 0.0107926881 0.00195773811
v 0.028025232 0.0211946579 0.0155010179
v 0.0187412141 0.0108997768 0.00638509272
v 0.0121311423 0.0203429018 0.00776644514
v 0.0244588715 0.0303483729 0.0224866049
v 0.028756505 0.0294081734 0.0342080196
v 0.017170458 0.0284552122 0.0132107065
v 0.0171129706 -0.0105219484 0.00541047767
v 0.0109998937 -0.0214982311 0.00811224885
v 0.0391400133 -0.0117891623 0.0302736242
v 0.0351286912 -0.0221795668 0.0355626423
v 0.03322864 -0.0218337665 0.0466380168
v 0.0273393092 -0.0308919339 0.0408005232
v 0.0282060784 -0.0298934342 0.029100386
v 0.0188226675 -0.0370577413 0.0344749992
v 0.0128715452 0.03637631 0.0211638155
v -0.000191616166 0.0222890367 0.00678611124
v -0.00644031668 0.0107092026 0.00200216512
v -0.00163131786 -0.0200015143 0.00539828724
v 0.0029467913 -0.0300046047 0.00985114193
v 0.0170703216 0.030120808 0.055287926
v 0.0169039715 -0.0363593793 0.0462308884
v 0.00753839852 -0.0412849063 0.0391370336
v -0.00982689249 -0.0292359751 0.0101184645
v 0.00497267062 -0.0381906631 0.0501490071
v -0.00483199886 -0.0410521705 0.0428977842
v -0.00707918701 -0.0360171012 0.0539152507
v -0.0139237079 -0.0172534865 0.00670663893
v 0.00718394852 0.0292110518 0.0611013157
v 0.00576876257 0.0358280399 0.0527386657
v -0.0165111121 -0.0367746711 0.0458075658
v -0.0129863375 0.0211766737 0.00864870286
v -0.0183583984 -0.0303741171 0.0561799361
v -0.00490965015 0.0326917318 0.0576812166
v -0.0270242034 -0.0296968908 0.0475586267
v -0.0276707046 -0.0214719762 0.0564570796
v -0.0352956 -0.0194866794 0.0473984586
v -0.0345144423 -0.0107428133 0.0552716403
v -0.0403582009 -0.00625593972 0.0437330743
v -0.0062722547 0.03812891 0.0484562033
v -0.0164858371 0.032390399 0.0530194452
v -0.0175435449 0.0368720983 0.0422366983
v -0.0216292506 -0.023667628 0.0111299666
v -0.0161214978 0.026290912 0.0606054789
v -0.0262279271 -0.0117771661 0.00826470283
v -0.026782357 0.0294706088 0.0466118492
v -0.0263204611 0.0321325488 0.034811205
v -0.0321379882 -0.0175847978 0.016353073
v -0.0339859476 -0.00537272685 0.0135129493
v -0.0344196585 0.0233309078 0.0383942888
v -0.0328034845 0.0244977787 0.0271693134
v -0.018293501 -0.0335519189 0.0195305823
v -0.0148147294 0.0383179379 0.0306230845
v -0.0343119793 0.0188214737 0.0486128858
v -0.0392014333 0.0144772522 0.0310808334
v -0.025427209 -0.0115047138 0.0635352619
v -0.00631870457 0.0314362316 0.0123626035
v -0.00816193456 -0.0279007085 0.0627462865
v -0.0330225278 -0.0261417753 0.0371042054
v -0.0304410803 0.000154529366 0.061040971
v -0.0206023873 -0.000967345263 0.0674773441
v 0.00459042631 0.0404472849 0.0421551869
v 0.0140472631 -0.0314532107 0.0567241032
v -0.0392011689 -0.00817216843 0.0227638786
v -0.0183134785 0.00920714466 0.00565112319
v -0.0246767159 0.0183676924 0.0106331399
v -0.0350769572 0.0146297399 0.018554405
v -0.00156460126 -0.0414171091 0.0294220424
v 0.0151696061 -0.0300587291 0.0135918326
v -0.0301025418 0.00639390406 0.0096619452
v -0.0116733883 -0.000655211865 0.00174685852
v -0.0141727485 -0.0127496305 0.0681236132
v 0.0064430432 -0.0371737733 0.0191705471
v -0.0246432319 0.0104952698 0.0640039245
v -0.0132333543 0.00997669885 0.0678159113
v 0.0246500531 0.0305380258 0.0462484699
v -0.0043061363 0.0156759142 0.0675558286
v -0.0403285381 0.00411912628 0.0253438072
v -0.0418131441 0.00448222828 0.0365485753
v 0.035169836 -0.011789457 0.0521101844
v 0.0216256356 -0.0206216672 0.00981585312
v 0.026880567 -0.0253143784 0.0177600229
v 0.0356100184 -0.0112478189 0.0189086047
v 0.0183314728 -0.035096972 0.0235520646
v 0.0185949503 0.00836892061 0.0666155371
v -0.0349747578 -0.0214394855 0.0262507257
v -0.0397040587 -0.0140412633 0.0346021933
v -0.0393016568 0.00607974797 0.0475048061
v -0.0273908673 -0.0310376861 0.0281128362
v 0.0277747505 0.0103865797 0.0102792026
v 0.03350104 0.0207094728 0.0457425571
v 0.01848729 0.0367372711 0.0381991159
v 0.00596445214 0.0324808988 0.0131942301
v -0.00075181838 0.0388880796 0.0220652426
v -0.012838208 0.0354707527 0.0197928808
v -0.00286618213 0.0409185863 0.0329941593
v 0.00893672341 0.0396436302 0.0311362515
v -0.0231989526 0.0322263633 0.0238868205
v -0.0183309354 0.0288301169 0.0145542679
v -0.00505019279 -0.0368596723 0.0180910742
v 0.0241252282 -0.0287727442 0.0517158965
v 0.0208082212 -0.0211906542 0.0614622001
v 0.00876498191 -0.0243866094 0.0647804086
v 0.00303911109 -0.0335156071 0.0580936312
v -0.00115956889 -0.0210477741 0.067254249
v -0.00455728017 0.0255838945 0.0639697081
v 0.0102509827 -0.0398676231 0.0289915687
v -0.0262178282 0.0240447272 0.0549971587
v -0.0136979982 -0.0399687648 0.0351715871
v -0.0200957649 -0.0217796686 0.0625084974
v -0.0132962087 -0.000320904726 0.0668513157
v 0.036298998 0.0194353315 0.0355300472
v 0.0345727456 -0.0209988943 0.026213859
v -0.0238541758 -0.0346088161 0.0370486587
v -0.00635163945 -0.00907876696 0.00156521258
v -0.0324581624 0.0109748379 0.0572225025
v -0.0207499785 -0.000433769937 0.00580569523
v -0.0116872073 -0.0390678727 0.0253137255
v -0.0281691891 0.0247005994 0.0183639428
v 0.0291882354 -0.0201267361 0.0550298788
v -0.0389472945 0.0137255109 0.0405611482
v 0.0147849724 0.0359922448 0.0475631471
v -0.0273281199 -0.0264057723 0.0192483985
v 0.0191242352 0.0357861423 0.0288698019
v 0.00802716673 0.0213891169 0.0650832758
v -0.0366683059 0.00390380234 0.0164097153
v 0.0214791584 0.0185614894 0.00947463091
v -0.0367546109 -0.000534535198 0.0542081936
v 0.0207289134 -0.00902279365 0.0667611452
v -0.0417317182 -0.00451145769 0.0319315762
v -0.0287137143 -0.00218739473 0.0086114833
v -0.00816401248 0.0402045953 0.0404418003
v -0.0168965517 -0.00861181011 0.00478149046
v -0.0195220099 -0.0367183369 0.0288781448
v -0.0170172944 0.017583549 0.065394958
v -0.0234025662 0.018511101 0.0614354109
f 39 127 48
f 64 86 154
f 66 158 68
f 80 142 134
f 97 159 143
f 64 154 65
f 115 160 140
f 134 142 162
f 71 157 143
f 66 68 67
f 24 151 111
f 68 158 79
f 71 143 159
f 5 116 13
f 38 127 39
f 63 64 65
f 86 142 154
f 28 153 33
f 74 90 75
f 27 30 29
f 102 118 148
f 114 154 142
f 38 146 127
f 103 151 132
f 70 162 161
f 61 85 140
f 135 140 160
f 71 75 157
f 19 146 106
f 70 134 162
f 78 144 160
f 80 114 142
f 80 147 114
f 61 62 63
f 135 160 144
f 17 108 107
f 29 30 153
f 4 116 5
f 49 52 94
f 70 161 132
f 65 105 156
f 12 98 131
f 30 33 153
f 48 127 89
f 75 96 157
f 65 154 114
f 60 66 67
f 81 105 147
f 16 106 38
f 71 74 75
f 67 134 70
f 76 81 147
f 34 107 35
f 103 132 161
f 13 116 28
f 38 106 146
f 28 116 153
f 95 110 99
f 43 44 58
f 66 88 158
f 94 135 144
f 48 51 49
f 29 153 116
f 2 18 141
f 88 148 118
f 62 64 63
f 77 124 145
f 52 135 94
f 54 71 159
f 5 13 6
f 62 82 64
f 57 140 135
f 79 121 124
f 58 125 83
f 14 23 24
f 23 102 47
f 105 114 147
f 67 72 134
f 59 136 62
f 60 67 70
f 85 115 140
f 7 16 36
f 49 51 52
f 56 88 66
f 121 125 124
f 60 70 132
f 6 25 7
f 16 38 37
f 65 114 105
f 95 107 108
f 35 107 95
f 18 35 45
f 2 141 97
f 18 34 35
f 67 68 72
f 97 141 159
f 79 158 122
f 108 109 139
f 124 125 145
f 9 19 106
f 16 37 36
f 17 109 108
f 73 79 124
f 100 162 142
f 84 98 136
f 74 112 90
f 84 131 98
f 54 69 71
f 79 120 121
f 94 99 133
f 59 62 61
f 82 87 86
f 22 117 23
f 20 111 151
f 62 136 82
f 65 156 113
f 73 124 77
f 56 66 60
f 61 63 85
f 76 147 80
f 76 77 81
f 32 102 117
f 82 98 87
f 57 61 140
f 48 89 51
f 10 11 155
f 2 3 18
f 112 149 115
f 20 151 103
f 28 33 31
f 82 136 98
f 101 137 103
f 127 146 128
f 27 43 30
f 1 20 137
f 2 27 3
f 27 44 43
f 89 127 128
f 104 156 105
f 79 122 120
f 77 145 93
f 23 47 24
f 84 130 129
f 10 111 11
f 32 118 102
f 14 24 111
f 14 22 23
f 88 122 158
f 5 109 17
f 32 117 138
f 4 5 17
f 3 27 29
f 75 152 96
f 49 94 133
f 55 132 151
f 88 118 123
f 6 13 25
f 51 53 52
f 26 28 31
f 23 117 102
f 101 103 161
f 41 48 49
f 44 97 91
f 8 9 106
f 74 149 112
f 94 144 126
f 78 160 115
f 68 79 73
f 4 29 116
f 83 121 120
f 13 28 26
f 90 156 104
f 33 119 42
f 51 130 53
f 8 106 16
f 15 138 117
f 86 100 142
f 2 97 44
f 1 21 11
f 90 113 156
f 56 148 88
f 40 110 108
f 50 69 54
f 17 107 34
f 7 25 15
f 42 120 123
f 58 92 125
f 75 90 152
f 84 129 131
f 40 41 110
f 47 102 148
f 99 110 133
f 63 65 113
f 78 126 144
f 69 74 71
f 46 95 99
f 91 97 143
f 55 60 132
f 89 129 130
f 6 7 36
f 52 57 135
f 12 137 98
f 96 143 157
f 1 137 12
f 118 150 123
f 39 41 40
f 72 80 134
f 11 111 20
f 51 89 130
f 42 119 120
f 92 96 93
f 81 104 105
f 45 46 50
f 15 117 22
f 88 123 122
f 2 44 27
f 37 38 39
f 43 58 83
f 18 45 141
f 10 155 19
f 85 112 115
f 86 87 100
f 59 84 136
f 100 161 162
f 53 130 84
f 90 112 113
f 31 33 42
f 42 123 150
f 36 37 139
f 54 159 141
f 94 126 99
f 120 122 123
f 5 6 109
f 41 49 133
f 8 22 9
f 44 91 58
f 77 93 81
f 7 8 16
f 9 10 19
f 87 101 100
f 20 103 137
f 1 12 21
f 68 73 72
f 78 115 149
f 63 113 85
f 90 104 152
f 30 119 33
f 72 76 80
f 15 25 138
f 24 55 151
f 50 126 78
f 41 133 110
f 12 131 21
f 45 50 54
f 73 77 76
f 3 29 4
f 100 101 161
f 21 131 129
f 55 56 60
f 89 128 129
f 1 11 20
f 83 120 119
f 57 59 61
f 19 128 146
f 11 21 155
f 3 34 18
f 40 108 139
f 26 31 32
f 69 149 74
f 13 26 25
f 9 22 14
f 26 32 138
f 8 15 22
f 45 54 141
f 6 36 109
f 24 47 55
f 30 43 119
f 87 98 137
f 50 78 69
f 4 17 34
f 91 143 96
f 93 96 152
f 85 113 112
f 7 15 8
f 72 73 76
f 32 150 118
f 52 53 57
f 10 14 111
f 37 39 40
f 9 14 10
f 31 42 150
f 3 4 34
f 43 83 119
f 46 99 126
f 81 93 104
f 58 91 92
f 47 148 56
f 46 126 50
f 25 26 138
f 69 78 149
f 53 59 57
f 53 84 59
f 91 96 92
f 47 56 55
f 31 150 32
f 37 40 139
f 87 137 101
f 93 152 104
f 19 155 128
f 21 128 155
f 21 129 128
f 39 48 41
f 64 82 86
f 95 108 110
f 35 95 46
f 83 125 121
f 36 139 109
f 92 145 125
f 35 46 45
f 92 93 145
