v -0.00117988384 -0.000462759804 0.0488045075
v 5.24569485e-10 3.54491581e-11 -1.85067549e-09
v 0.0123606809 2.81036323e-10 0.00195773723
v 0.0235114115 -1.04248768e-10 0.00763931605
v 0.0343837442 -0.000325236195 0.0130729801
v 0.0404042942 -0.000330339467 0.0229548449
v 0.042272575 -0.000304442083 0.0341243273
v 0.0398006328 -0.000248273643 0.0457735828
v 0.0335389338 -0.000273887779 0.0557774497
v 0.0246934392 -0.000483566164 0.0627441483
v 0.0129362066 -0.00103073892 0.0624584816
v 0.00010013385 -0.0135109999 0.063265611
v 0.036216311 0.0114146108 0.0173992328
v 0.0275905181 0.011553852 0.0593140536
v 0.0400242484 0.0111143611 0.039635684
v 0.0401098289 -0.0117178737 0.0402433671
v 0.0288303597 -0.0116410642 0.00969839899
v 0.00602530295 -0.0107926894 0.00195773792
v 0.0278185492 -0.011658395 0.058523484
v 0.00594462018 0.0091837867 0.05387575
v 0.0119086896 -0.0130282963 0.064984625
v 0.0354951134 0.0117595636 0.0509554437
v 0.0278763537 0.0223852027 0.0533892138
v 0.018890896 0.0215925512 0.0604724461
v 0.0403027126 0.0115782932 0.0283898491
v 0.0340689542 0.0221194633 0.0239741049
v 0.00602530248 0.0107926879 0.00195773794
v 0.0284377059 0.0217645708 0.0142707342
v 0.0187412143 0.0108997767 0.00638509226
v 0.0121311422 0.0203429024 0.00776644474
v 0.0248745968 0.0311240489 0.0210522529
v 0.0293417932 0.0301247549 0.032592695
v 0.0173517317 0.0290076722 0.0121419841
v 0.0171129705 -0.0105219485 0.00541047722
v 0.0109998938 -0.021498231 0.00811224831
v 0.0398316069 -0.0117797867 0.0287230597
v 0.0358801706 -0.0223336598 0.0338241956
v 0.034040919 -0.0219511422 0.0446930491
v 0.0280041475 -0.0312373054 0.0389115563
v 0.0287928699 -0.0302111887 0.0274175138
v 0.019215327 -0.0374170591 0.0328241433
v 0.013087943 0.0371441216 0.0198497996
v -0.000191616148 0.0222890369 0.00678611094
v -0.00644031658 0.0107092027 0.00200216482
v -0.00163131786 -0.0200015144 0.00539828672
v 0.00299114201 -0.0301578134 0.00887320865
v 0.0176442758 0.0306384387 0.0536313894
v 0.0173659862 -0.0368139343 0.044364132
v 0.00780931342 -0.0418521728 0.0374054883
v -0.00990993321 -0.0295747105 0.00929590328
v 0.00513210859 -0.0386184786 0.047883984
v -0.00489879758 -0.0415180536 0.0409864067
v -0.00713110854 -0.0364411374 0.0516620945
v -0.013923708 -0.0172534866 0.00670663848
v 0.00781362733 0.0294831261 0.0595344749
v 0.00626412122 0.0363074147 0.0513203693
v -0.0166845204 -0.0370138601 0.043865895
v -0.0129863375 0.021176674 0.00864870266
v -0.0186424437 -0.0306664932 0.0540432246
v -0.00441470311 0.0331102783 0.0561008408
v -0.0273029577 -0.0298971133 0.0458381038
v -0.0280114364 -0.0215270994 0.0543966215
v -0.0357758715 -0.0194778445 0.0458996693
v -0.03492082 -0.0105458028 0.0535736607
v -0.0407124156 -0.00595887678 0.0422424503
v -0.0060076122 0.0387050946 0.0471671653
v -0.0162566888 0.0330286477 0.0515521133
v -0.0175790264 0.0376540813 0.0409374473
v -0.0218389986 -0.0237181649 0.0100640329
v -0.0157747446 0.0267909266 0.0589611682
v -0.0266689013 -0.0117465754 0.00751326892
v -0.0268180884 0.0301439358 0.04540911
v -0.0264902886 0.0328315121 0.0335921537
v -0.0326131717 -0.0175684399 0.0152108726
v -0.0344408442 -0.00515710417 0.0125765019
v -0.0346787647 0.0240244813 0.0371121711
v -0.0331443009 0.025071984 0.025890368
v -0.0186158726 -0.0337100966 0.0182954481
v -0.0147070111 0.0390134797 0.0295007427
v -0.0344899507 0.019461175 0.0472138374
v -0.0395912652 0.0150600856 0.0298700384
v -0.0257936201 -0.0112870248 0.0611839372
v -0.00634756981 0.0318095024 0.0116746589
v -0.00821555146 -0.0284277806 0.0598592631
v -0.0335091637 -0.0261509051 0.035689446
v -0.0305018901 0.0006149241 0.0590377684
v -0.0203759321 -0.000744996917 0.0648711225
v 0.00488420062 0.0411542161 0.0409435875
v 0.0145809557 -0.0317992308 0.0543416531
v -0.0397687578 -0.00790776702 0.021527195
v -0.0183134787 0.00920714482 0.00565112272
v -0.0249087627 0.0186834454 0.00995759757
v -0.0354188814 0.0150872329 0.0172821662
v -0.00155484359 -0.041780454 0.0280151776
v 0.0153467782 -0.0304066065 0.0125218253
v -0.0303706208 0.00665726666 0.00873615581
v -0.0116733882 -0.000655211864 0.00174685834
v -0.0142792034 -0.0128804758 0.0641716042
v 0.00643550455 -0.0375256144 0.0178780565
v -0.0246445773 0.0108778972 0.0619544677
v -0.0131916675 0.0103530885 0.065029086
v 0.0252694198 0.0311636364 0.0445829907
v -0.00365455054 0.0158292427 0.0647450343
v -0.0407301418 0.00456697707 0.0241609367
v -0.0422545462 0.00490446646 0.0352506711
v 0.036018658 -0.0116888278 0.0500182236
v 0.0219781459 -0.020861893 0.00895671529
v 0.0273551411 -0.0255999639 0.0164031329
v 0.0362832422 -0.0112620626 0.0175872326
v 0.0186247784 -0.035506585 0.0221286977
v 0.0195150798 0.00849533497 0.0637348778
v -0.0354953843 -0.0213817643 0.0249166627
v -0.0401985725 -0.0138921836 0.0332478084
v -0.0395780734 0.00652704171 0.046041989
v -0.0278534482 -0.0311314954 0.0267703339
v 0.0282377265 0.0106958979 0.00955013436
v 0.0342819218 0.0213152687 0.0439152295
v 0.0188507344 0.0374182891 0.0368128031
v 0.00601433319 0.0329491088 0.0123147123
v -0.000694816447 0.0395479703 0.0208253495
v -0.012935706 0.0360331944 0.0188364353
v -0.00271008634 0.0415450365 0.0318234967
v 0.00911677493 0.0402062073 0.0298943477
v -0.0233639007 0.0328868527 0.0228478365
v -0.0184555297 0.0292366138 0.0137851309
v -0.00514339463 -0.03717443 0.0169494492
v 0.0248332818 -0.0291213546 0.0495359275
v 0.0215264713 -0.0212568488 0.0587201102
v 0.00922959071 -0.0247511767 0.0615656696
v 0.00331095189 -0.0340629378 0.0555238937
v -0.000907502827 -0.0213389186 0.0625199843
v -0.00391626631 0.0258444947 0.0619805776
v 0.0104317294 -0.0402716399 0.0274523203
v -0.0261241082 0.0246372836 0.0536690959
v -0.0139579589 -0.0403756063 0.0334448954
v -0.0204988699 -0.0220217965 0.0601067615
v -0.0132696168 0.000193880653 0.0620590727
v 0.0370456618 0.020041653 0.0338188783
v 0.0353064479 -0.0211766646 0.024609314
v -0.0242625333 -0.0348124393 0.0354046843
v -0.00635163957 -0.00907876701 0.00156521219
v -0.0326554925 0.0115454168 0.0555854684
v -0.0207499788 -0.000433769892 0.005805695
v -0.011904172 -0.0394244736 0.0238890211
v -0.0284278178 0.025241892 0.0173390128
v 0.0300781584 -0.0203356219 0.0527652653
v -0.0391872357 0.0142499875 0.0392192307
v 0.0152900701 0.0365964862 0.0460730857
v -0.0276811275 -0.0264309133 0.0180313044
v 0.0194404955 0.0365136493 0.0274989222
v 0.00865335916 0.0214538073 0.0631901681
v -0.037104562 0.00426784206 0.0152631787
v 0.0217355968 0.0187660057 0.00876936078
v -0.037065981 -0.000158588186 0.052638186
v 0.0213131129 -0.00907994439 0.063738646
v -0.0422109669 -0.00424523667 0.030640802
v -0.029031122 -0.00203004768 0.00791703999
v -0.00795586145 0.0409150008 0.039337241
v -0.0168965517 -0.00861181006 0.00478149026
v -0.019857602 -0.0369605831 0.0274016509
v -0.0166962701 0.0179656774 0.0633438633
v -0.0232530666 0.018907368 0.0596795603
f 39 127 48
f 64 86 154
f 66 158 68
f 80 142 134
f 97 159 143
f 64 154 65
f 115 160 140
f 134 142 162
f 71 157 143
f 66 68 67
f 24 151 111
f 68 158 79
f 71 143 159
f 5 116 13
f 38 127 39
f 63 64 65
f 86 142 154
f 28 153 33
f 74 90 75
f 27 30 29
f 102 118 148
f 114 154 142
f 38 146 127
f 103 151 132
f 70 162 161
f 61 85 140
f 135 140 160
f 71 75 157
f 19 146 106
f 70 134 162
f 78 144 160
f 80 114 142
f 80 147 114
f 61 62 63
f 135 160 144
f 17 108 107
f 29 30 153
f 4 116 5
f 49 52 94
f 70 161 132
f 65 105 156
f 12 98 131
f 30 33 153
f 48 127 89
f 75 96 157
f 65 154 114
f 60 66 67
f 81 105 147
f 16 106 38
f 71 74 75
f 67 134 70
f 76 81 147
f 34 107 35
f 103 132 161
f 13 116 28
f 38 106 146
f 28 116 153
f 95 110 99
f 43 44 58
f 66 88 158
f 94 135 144
f 48 51 49
f 29 153 116
f 2 18 141
f 88 148 118
f 62 64 63
f 77 124 145
f 52 135 94
f 54 71 159
f 5 13 6
f 62 82 64
f 57 140 135
f 79 121 124
f 58 125 83
f 14 23 24
f 23 102 47
f 105 114 147
f 67 72 134
f 59 136 62
f 60 67 70
f 85 115 140
f 7 16 36
f 49 51 52
f 56 88 66
f 121 125 124
f 60 70 132
f 6 25 7
f 16 38 37
f 65 114 105
f 95 107 108
f 35 107 95
f 18 35 45
f 2 141 97
f 18 34 35
f 67 68 72
f 97 141 159
f 79 158 122
f 108 109 139
f 124 125 145
f 9 19 106
f 16 37 36
f 17 109 108
f 73 79 124
f 100 162 142
f 84 98 136
f 74 112 90
f 84 131 98
f 54 69 71
f 79 120 121
f 94 99 133
f 59 62 61
f 82 87 86
f 22 117 23
f 20 111 151
f 62 136 82
f 65 156 113
f 73 124 77
f 56 66 60
f 61 63 85
f 76 147 80
f 76 77 81
f 32 102 117
f 82 98 87
f 57 61 140
f 48 89 51
f 10 11 155
f 2 3 18
f 112 149 115
f 20 151 103
f 28 33 31
f 82 136 98
f 101 137 103
f 127 146 128
f 27 43 30
f 1 20 137
f 2 27 3
f 27 44 43
f 89 127 128
f 104 156 105
f 79 122 120
f 77 145 93
f 23 47 24
f 84 130 129
f 10 111 11
f 32 118 102
f 14 24 111
f 14 22 23
f 88 122 158
f 5 109 17
f 32 117 138
f 4 5 17
f 3 27 29
f 75 152 96
f 49 94 133
f 55 132 151
f 88 118 123
f 6 13 25
f 51 53 52
f 26 28 31
f 23 117 102
f 101 103 161
f 41 48 49
f 44 97 91
f 8 9 106
f 74 149 112
f 94 144 126
f 78 160 115
f 68 79 73
f 4 29 116
f 83 121 120
f 13 28 26
f 90 156 104
f 33 119 42
f 51 130 53
f 8 106 16
f 15 138 117
f 86 100 142
f 2 97 44
f 1 21 11
f 90 113 156
f 56 148 88
f 40 110 108
f 50 69 54
f 17 107 34
f 7 25 15
f 42 120 123
f 58 92 125
f 75 90 152
f 84 129 131
f 40 41 110
f 47 102 148
f 99 110 133
f 63 65 113
f 78 126 144
f 69 74 71
f 46 95 99
f 91 97 143
f 55 60 132
f 89 129 130
f 6 7 36
f 52 57 135
f 12 137 98
f 96 143 157
f 1 137 12
f 118 150 123
f 39 41 40
f 72 80 134
f 11 111 20
f 51 89 130
f 42 119 120
f 92 96 93
f 81 104 105
f 45 46 50
f 15 117 22
f 88 123 122
f 2 44 27
f 37 38 39
f 43 58 83
f 18 45 141
f 10 155 19
f 85 112 115
f 86 87 100
f 59 84 136
f 100 161 162
f 53 130 84
f 90 112 113
f 31 33 42
f 42 123 150
f 36 37 139
f 54 159 141
f 94 126 99
f 120 122 123
f 5 6 109
f 41 49 133
f 8 22 9
f 44 91 58
f 77 93 81
f 7 8 16
f 9 10 19
f 87 101 100
f 20 103 137
f 1 12 21
f 68 73 72
f 78 115 149
f 63 113 85
f 90 104 152
f 30 119 33
f 72 76 80
f 15 25 138
f 24 55 151
f 50 126 78
f 41 133 110
f 12 131 21
f 45 50 54
f 73 77 76
f 3 29 4
f 100 101 161
f 21 131 129
f 55 56 60
f 89 128 129
f 1 11 20
f 83 120 119
f 57 59 61
f 19 128 146
f 11 21 155
f 3 34 18
f 40 108 139
f 26 31 32
f 69 149 74
f 13 26 25
f 9 22 14
f 26 32 138
f 8 15 22
f 45 54 141
f 6 36 109
f 24 47 55
f 30 43 119
f 87 98 137
f 50 78 69
f 4 17 34
f 91 143 96
f 93 96 152
f 85 113 112
f 7 15 8
f 72 73 76
f 32 150 118
f 52 53 57
f 10 14 111
f 37 39 40
f 9 14 10
f 31 42 150
f 3 4 34
f 43 83 119
f 46 99 126
f 81 93 104
f 58 91 92
f 47 148 56
f 46 126 50
f 25 26 138
f 69 78 149
f 53 59 57
f 53 84 59
f 91 96 92
f 47 56 55
f 31 150 32
f 37 40 139
f 87 137 101
f 93 152 104
f 19 155 128
f 21 128 155
f 21 129 128
f 39 48 41
f 64 82 86
f 95 108 110
f 35 95 46
f 83 125 121
f 36 139 109
f 92 145 125
f 35 46 45
f 92 93 145
