v -0.000664486937 -0.000556920451 0.0723390328
v 2.02046759e-10 4.13780379e-11 -8.58835465e-10
v 0.0123606803 1.2430443e-10 0.00195773837
v 0.0235114108 -2.14268705e-11 0.00763931853
v 0.0331013029 -0.000233510517 0.0152375472
v 0.0387006331 -0.000358754228 0.0259588666
v 0.0403755949 -0.000485657432 0.037945491
v 0.0380762989 -0.000647509829 0.0500373658
v 0.0320370524 -0.000785710461 0.0608119423
v 0.0232247058 -0.000840890654 0.0692355029
v 0.0120970199 -0.00079061188 0.0741750601
v -0.000132003055 -0.013829275 0.0739026841
v 0.0346322605 0.0109672571 0.0203379588
v 0.0255749485 0.0104783253 0.0654265315
v 0.0382284226 0.0104285791 0.0438651955
v 0.0382200404 -0.0115610907 0.0437868425
v 0.0279035689 -0.0111985304 0.0115318654
v 0.00602530249 -0.0107926892 0.00195773853
v 0.0267329276 -0.0117300457 0.0641899128
v 0.00539183307 0.0105532845 0.0741865776
v 0.0113273302 -0.0132404823 0.0726332487
v 0.0336452957 0.0107482718 0.0557714079
v 0.02645265 0.0209797465 0.0582525336
v 0.0176134825 0.0202478179 0.0661261659
v 0.0384844447 0.0108402968 0.0320890447
v 0.0326794664 0.0211030539 0.0274056593
v 0.00602530237 0.0107926888 0.00195773868
v 0.0273063748 0.0207951347 0.0169739408
v 0.0187412134 0.010899777 0.00638509417
v 0.012131142 0.0203429003 0.00776644684
v 0.0237673672 0.0297173423 0.0244316794
v 0.0280105674 0.0287754482 0.0364901027
v 0.0167573297 0.0278982052 0.0145965737
v 0.0171129703 -0.0105219481 0.00541047888
v 0.0109998932 -0.0214982304 0.00811225012
v 0.0384117738 -0.0114078713 0.0318400781
v 0.0343995418 -0.0216478864 0.0372529409
v 0.0324899882 -0.0214437022 0.0485051391
v 0.0267885967 -0.0302785557 0.0425209209
v 0.0276460514 -0.0292087507 0.0307215718
v 0.0185266967 -0.0364169688 0.0359196793
v 0.0124711565 0.0355725483 0.0231696605
v -0.000191616101 0.0222890358 0.00678611289
v -0.0064403171 0.0107092021 0.00200216604
v -0.00163131778 -0.0200015133 0.00539828863
v 0.00285744657 -0.0296753839 0.0108915211
v 0.0166272784 0.0290567567 0.0585976831
v 0.0166146976 -0.0357648414 0.0478378223
v 0.00733022775 -0.0404094202 0.0406799999
v -0.00979640671 -0.0286636711 0.0110480966
v 0.0049674938 -0.0376226411 0.0521322589
v -0.00470448482 -0.0402329589 0.0447376664
v -0.00694400651 -0.0355496299 0.0560029365
v -0.0139237073 -0.0172534854 0.00670664033
v 0.00696781435 0.0275290369 0.064922826
v 0.00558090248 0.0346119341 0.0561505957
v -0.0162985003 -0.0361886977 0.0478008983
v -0.0129863368 0.021176673 0.00864870442
v -0.0180456932 -0.0299002355 0.0583882415
v -0.0047117651 0.031276421 0.0613856487
v -0.0265902747 -0.0290440531 0.0494636473
v -0.0271379104 -0.0211417335 0.0589997817
v -0.0345449799 -0.0190545337 0.0493853317
v -0.033700165 -0.0105542631 0.0576844073
v -0.039626185 -0.00605798608 0.0460317235
v -0.00597717069 0.0370774912 0.0515147448
v -0.0160055334 0.0314237462 0.0563224235
v -0.0169112276 0.0358969665 0.0450527219
v -0.0214506863 -0.0233036737 0.0124208722
v -0.0154064219 0.0250557515 0.0642235614
v -0.0256619632 -0.011587388 0.00922876122
v -0.0260147475 0.0287164261 0.0493279078
v -0.0256154665 0.0315299688 0.0372816947
v -0.0315914907 -0.0170843979 0.0178415183
v -0.0333083066 -0.00516422794 0.0148717985
v -0.0335839444 0.0228657971 0.0409336014
v -0.0319631376 0.024172997 0.0295221759
v -0.0180304723 -0.0329555869 0.0209317729
v -0.0145555259 0.0375370783 0.0329093191
v -0.0334439875 0.0183032674 0.0514078488
v -0.0383101029 0.0142584109 0.0333181081
v -0.0247757702 -0.011592083 0.0666710191
v -0.00624295053 0.0309025037 0.0134905311
v -0.00804116399 -0.0276717472 0.0654080289
v -0.0324345034 -0.0256255916 0.0388457274
v -0.0297367276 -0.00014204472 0.064399169
v -0.0200220238 -0.00139363772 0.0716272615
v 0.00452878224 0.0392859171 0.0448710443
v 0.0138000959 -0.0311957111 0.0588086942
v -0.0383854757 -0.00787055499 0.02457695
v -0.0183134775 0.00920714401 0.00565112499
v -0.0241924684 0.0181790389 0.0117341362
v -0.0343136304 0.0145222445 0.0206647561
v -0.00160046528 -0.0406793573 0.0307948937
v 0.0149904034 -0.0294570054 0.0146294147
v -0.0295426571 0.00637077257 0.0110551231
v -0.0116733886 -0.0006552118 0.00174685939
v -0.0136529978 -0.012575515 0.072215987
v 0.00642396784 -0.0365092986 0.0204421147
v -0.0236590955 0.00993056877 0.0678185436
v -0.0124286881 0.00876909706 0.0734207302
v 0.0239887382 0.0296904542 0.0490246575
v -0.00384338951 0.014118781 0.0733381629
v -0.0395369591 0.00417237839 0.0273259948
v -0.0408519862 0.0045550568 0.0388350131
v 0.0344269261 -0.0116371297 0.0543178355
v 0.0212057984 -0.0201635159 0.0106882251
v 0.0263822923 -0.0246794142 0.0191131397
v 0.0348627324 -0.0108692687 0.0202559924
v 0.0180899858 -0.0343625048 0.0248590306
v 0.0172353373 0.00792285232 0.0715041189
v -0.0343543196 -0.0209251181 0.0280055944
v -0.0389758829 -0.0135826761 0.0365479441
v -0.0383644472 0.00594679174 0.0501567524
v -0.02691948 -0.0304375629 0.0296639234
v 0.0271702488 0.0102237074 0.011062737
v 0.0327304846 0.0201789262 0.0482728089
v 0.0179690215 0.0357573605 0.0407787812
v 0.00579400268 0.0318683404 0.014503489
v -0.000752949326 0.0380810237 0.0241884211
v -0.0125132536 0.0348291011 0.0215336233
v -0.00279290909 0.040109226 0.035397237
v 0.00873739821 0.038936603 0.033486863
v -0.0226284386 0.0316342799 0.0258590848
v -0.0179631405 0.0283663076 0.0158626788
v -0.00503608488 -0.0362102959 0.0193091479
v 0.023625461 -0.0283530032 0.0537276979
v 0.0205006912 -0.0211907848 0.0641918306
v 0.00860288997 -0.0244484669 0.0675829534
v 0.00294771096 -0.0331199557 0.0603449903
v -0.00116335479 -0.0211685993 0.0707346716
v -0.00416501901 0.0239240488 0.0683779585
v 0.0100975782 -0.0391267019 0.0304085922
v -0.0255352843 0.0233043116 0.0580167302
v -0.0134213028 -0.039160693 0.0369581983
v -0.0195337982 -0.0214805519 0.0652959992
v -0.0130152205 -0.000945721939 0.0740398616
v 0.0354050584 0.0190428044 0.0376832549
v 0.0338035394 -0.0204305274 0.0278119781
v -0.0234364306 -0.0340211565 0.0388133144
v -0.00635163907 -0.00907876673 0.00156521381
v -0.0314750576 0.0105180352 0.0603412262
v -0.0207499773 -0.00043376981 0.00580569615
v -0.0115170183 -0.0382712921 0.0268400676
v -0.0275237122 0.02431256 0.0201735021
v 0.0286119795 -0.0198901559 0.0572796689
v -0.0381277231 0.01353124 0.0431054503
v 0.0142923449 0.0348684513 0.0506246023
v -0.0270086507 -0.0258712408 0.0207305091
v 0.0186338191 0.0350536333 0.031129247
v 0.00785410585 0.0195603003 0.0702551172
v -0.0358507366 0.00397527338 0.0182282563
v 0.0210483027 0.0184115814 0.0102713773
v -0.0357646561 -0.000620579861 0.0568820442
v 0.0201992124 -0.00915239865 0.0700010986
v -0.0408536173 -0.00417464832 0.0339694683
v -0.0282233715 -0.00210818591 0.0095809611
v -0.00789599091 0.0391667231 0.0430146193
v -0.0168965515 -0.00861180975 0.0047814911
v -0.0192036242 -0.0360105092 0.0304956705
v -0.0161612863 0.0163422605 0.0695452869
v -0.0225329704 0.0177982452 0.0650628796
f 39 127 48
f 64 86 154
f 66 158 68
f 80 142 134
f 97 159 143
f 64 154 65
f 115 160 140
f 134 142 162
f 71 157 143
f 66 68 67
f 24 151 111
f 68 158 79
f 71 143 159
f 5 116 13
f 38 127 39
f 63 64 65
f 86 142 154
f 28 153 33
f 74 90 75
f 27 30 29
f 102 118 148
f 114 154 142
f 38 146 127
f 103 151 132
f 70 162 161
f 61 85 140
f 135 140 160
f 71 75 157
f 19 146 106
f 70 134 162
f 78 144 160
f 80 114 142
f 80 147 114
f 61 62 63
f 135 160 144
f 17 108 107
f 29 30 153
f 4 116 5
f 49 52 94
f 70 161 132
f 65 105 156
f 12 98 131
f 30 33 153
f 48 127 89
f 75 96 157
f 65 154 114
f 60 66 67
f 81 105 147
f 16 106 38
f 71 74 75
f 67 134 70
f 76 81 147
f 34 107 35
f 103 132 161
f 13 116 28
f 38 106 146
f 28 116 153
f 95 110 99
f 43 44 58
f 66 88 158
f 94 135 144
f 48 51 49
f 29 153 116
f 2 18 141
f 88 148 118
f 62 64 63
f 77 124 145
f 52 135 94
f 54 71 159
f 5 13 6
f 62 82 64
f 57 140 135
f 79 121 124
f 58 125 83
f 14 23 24
f 23 102 47
f 105 114 147
f 67 72 134
f 59 136 62
f 60 67 70
f 85 115 140
f 7 16 36
f 49 51 52
f 56 88 66
f 121 125 124
f 60 70 132
f 6 25 7
f 16 38 37
f 65 114 105
f 95 107 108
f 35 107 95
f 18 35 45
f 2 141 97
f 18 34 35
f 67 68 72
f 97 141 159
f 79 158 122
f 108 109 139
f 124 125 145
f 9 19 106
f 16 37 36
f 17 109 108
f 73 79 124
f 100 162 142
f 84 98 136
f 74 112 90
f 84 131 98
f 54 69 71
f 79 120 121
f 94 99 133
f 59 62 61
f 82 87 86
f 22 117 23
f 20 111 151
f 62 136 82
f 65 156 113
f 73 124 77
f 56 66 60
f 61 63 85
f 76 147 80
f 76 77 81
f 32 102 117
f 82 98 87
f 57 61 140
f 48 89 51
f 10 11 155
f 2 3 18
f 112 149 115
f 20 151 103
f 28 33 31
f 82 136 98
f 101 137 103
f 127 146 128
f 27 43 30
f 1 20 137
f 2 27 3
f 27 44 43
f 89 127 128
f 104 156 105
f 79 122 120
f 77 145 93
f 23 47 24
f 84 130 129
f 10 111 11
f 32 118 102
f 14 24 111
f 14 22 23
f 88 122 158
f 5 109 17
f 32 117 138
f 4 5 17
f 3 27 29
f 75 152 96
f 49 94 133
f 55 132 151
f 88 118 123
f 6 13 25
f 51 53 52
f 26 28 31
f 23 117 102
f 101 103 161
f 41 48 49
f 44 97 91
f 8 9 106
f 74 149 112
f 94 144 126
f 78 160 115
f 68 79 73
f 4 29 116
f 83 121 120
f 13 28 26
f 90 156 104
f 33 119 42
f 51 130 53
f 8 106 16
f 15 138 117
f 86 100 142
f 2 97 44
f 1 21 11
f 90 113 156
f 56 148 88
f 40 110 108
f 50 69 54
f 17 107 34
f 7 25 15
f 42 120 123
f 58 92 125
f 75 90 152
f 84 129 131
f 40 41 110
f 47 102 148
f 99 110 133
f 63 65 113
f 78 126 144
f 69 74 71
f 46 95 99
f 91 97 143
f 55 60 132
f 89 129 130
f 6 7 36
f 52 57 135
f 12 137 98
f 96 143 157
f 1 137 12
f 118 150 123
f 39 41 40
f 72 80 134
f 11 111 20
f 51 89 130
f 42 119 120
f 92 96 93
f 81 104 105
f 45 46 50
f 15 117 22
f 88 123 122
f 2 44 27
f 37 38 39
f 43 58 83
f 18 45 141
f 10 155 19
f 85 112 115
f 86 87 100
f 59 84 136
f 100 161 162
f 53 130 84
f 90 112 113
f 31 33 42
f 42 123 150
f 36 37 139
f 54 159 141
f 94 126 99
f 120 122 123
f 5 6 109
f 41 49 133
f 8 22 9
f 44 91 58
f 77 93 81
f 7 8 16
f 9 10 19
f 87 101 100
f 20 103 137
f 1 12 21
f 68 73 72
f 78 115 149
f 63 113 85
f 90 104 152
f 30 119 33
f 72 76 80
f 15 25 138
f 24 55 151
f 50 126 78
f 41 133 110
f 12 131 21
f 45 50 54
f 73 77 76
f 3 29 4
f 100 101 161
f 21 131 129
f 55 56 60
f 89 128 129
f 1 11 20
f 83 120 119
f 57 59 61
f 19 128 146
f 11 21 155
f 3 34 18
f 40 108 139
f 26 31 32
f 69 149 74
f 13 26 25
f 9 22 14
f 26 32 138
f 8 15 22
f 45 54 141
f 6 36 109
f 24 47 55
f 30 43 119
f 87 98 137
f 50 78 69
f 4 17 34
f 91 143 96
f 93 96 152
f 85 113 112
f 7 15 8
f 72 73 76
f 32 150 118
f 52 53 57
f 10 14 111
f 37 39 40
f 9 14 10
f 31 42 150
f 3 4 34
f 43 83 119
f 46 99 126
f 81 93 104
f 58 91 92
f 47 148 56
f 46 126 50
f 25 26 138
f 69 78 149
f 53 59 57
f 53 84 59
f 91 96 92
f 47 56 55
f 31 150 32
f 37 40 139
f 87 137 101
f 93 152 104
f 19 155 128
f 21 128 155
f 21 129 128
f 39 48 41
f 64 82 86
f 95 108 110
f 35 95 46
f 83 125 121
f 36 139 109
f 92 145 125
f 35 46 45
f 92 93 145
