v -0.000592359262 -0.000859033741 0.0700907762
v 2.71468403e-10 8.16915048e-11 -1.08357166e-09
v 0.0123606804 1.6150038e-10 0.00195773811
v 0.023511411 -3.72397968e-11 0.00763931805
v 0.0332208589 -0.000275490196 0.0150664887
v 0.0388569372 -0.000444448565 0.0257131505
v 0.0405492215 -0.000621698583 0.0376305256
v 0.0382343109 -0.000840756379 0.0496816848
v 0.03217669 -0.00104657332 0.0603896321
v 0.0233813257 -0.00114739925 0.0687097005
v 0.0122315506 -0.00112561682 0.0734261899
v -9.98293944e-05 -0.0143854799 0.0730044473
v 0.0347644958 0.0109386103 0.0201409713
v 0.0257497798 0.0102460979 0.0649656275
v 0.0383846912 0.0102952736 0.0435600475
v 0.0384015964 -0.0117629783 0.0434350538
v 0.0280034254 -0.011250788 0.0113579281
v 0.00602530259 -0.0107926893 0.00195773832
v 0.0268471873 -0.0120429357 0.0636821518
v 0.00556181697 0.0102494294 0.0732393355
v 0.0114992844 -0.0137427722 0.0719445824
v 0.0337981302 0.0105653573 0.0554194551
v 0.0265821118 0.0208204597 0.0579243547
v 0.0177356158 0.020042907 0.0657090556
v 0.0386429894 0.0107768175 0.0318287013
v 0.0327931911 0.0210796292 0.0272077397
v 0.00602530236 0.0107926887 0.00195773851
v 0.0273993614 0.0208234989 0.0168252414
v 0.0187412136 0.0108997769 0.00638509381
v 0.0121311421 0.0203429006 0.0077664466
v 0.0238558084 0.0297354546 0.0242683554
v 0.0281211576 0.0287334253 0.036285635
v 0.0168028085 0.0279372438 0.0144857029
v 0.0171129704 -0.0105219482 0.00541047845
v 0.0109998934 -0.0214982306 0.00811224958
v 0.038552274 -0.0115571796 0.0315334245
v 0.0345542698 -0.0218619926 0.0368702143
v 0.0326554729 -0.0217119018 0.048085516
v 0.0269227109 -0.0305522182 0.0420776576
v 0.0277761607 -0.0294257518 0.03032333
v 0.0186165976 -0.0366690866 0.0354949223
v 0.0125283667 0.0356072198 0.0230346126
v -0.000191616101 0.022289036 0.00678611261
v -0.00644031699 0.0107092023 0.00200216583
v -0.00163131778 -0.0200015137 0.00539828809
v 0.00288346883 -0.0297568928 0.0106421374
v 0.0167196114 0.0289147952 0.0582893245
v 0.0167077122 -0.0360852304 0.0473669237
v 0.00739634568 -0.0407301543 0.040202805
v -0.00980437723 -0.0287841132 0.0108305521
v 0.00500803135 -0.0379922701 0.0515697339
v -0.00470102631 -0.0405718877 0.044212138
v -0.00694517017 -0.0359480074 0.055429315
v -0.0139237075 -0.0172534858 0.00670663979
v 0.00704764618 0.0273840323 0.0645643793
v 0.00564334218 0.0344900365 0.0558806701
v -0.0163230606 -0.0365086097 0.0472794608
v -0.012986337 0.0211766732 0.00864870414
v -0.0181028463 -0.0302941597 0.0578418158
v -0.00467118478 0.0311134618 0.0610778093
v -0.0266476515 -0.0293642079 0.0489977638
v -0.0272112711 -0.0214868667 0.0584825998
v -0.0346422803 -0.0193294129 0.0489855707
v -0.0337965022 -0.0108421716 0.0572690909
v -0.0397119185 -0.00626244856 0.0456768946
v -0.00596743642 0.0369658008 0.0513107574
v -0.016005577 0.0312776385 0.0560673904
v -0.0169482471 0.0358319021 0.0448715035
v -0.021487385 -0.023386197 0.0121599611
v -0.0154136457 0.0248663115 0.0638916982
v -0.0257533568 -0.011620622 0.00908089425
v -0.0260591777 0.0286009892 0.0491326326
v -0.0256682437 0.0314738143 0.0371158061
v -0.031678678 -0.0171873885 0.0175767998
v -0.0334066432 -0.0052063829 0.0146790535
v -0.0336554925 0.022782597 0.0407247581
v -0.0320470943 0.0241309795 0.0293369375
v -0.0180781605 -0.0331170328 0.0205834178
v -0.0145599229 0.0375177404 0.0327826576
v -0.0335111405 0.0181553402 0.0511398645
v -0.0384073669 0.0141899531 0.0331040244
v -0.0248456451 -0.0119489994 0.0661233228
v -0.00625024202 0.030938048 0.0134323212
v -0.00805564301 -0.0281726694 0.064774979
v -0.0325197629 -0.0258496063 0.0384527953
v -0.0298166891 -0.000418775562 0.063913457
v -0.0201351988 -0.0017627061 0.0709980198
v 0.00456277763 0.0392351936 0.0446993969
v 0.0139027085 -0.0315695772 0.0582584181
v -0.0384988702 -0.00797065697 0.0243008286
v -0.0183134777 0.00920714417 0.00565112454
v -0.024240356 0.0181954511 0.0116530349
v -0.0344052124 0.0145033917 0.0204636011
v -0.00157884012 -0.0409253427 0.030373225
v 0.0150459577 -0.0295895896 0.014376313
v -0.0296122761 0.00637389066 0.010905267
v -0.0116733885 -0.000655211783 0.00174685913
v -0.0136927368 -0.0130825463 0.071466217
v 0.00644470857 -0.0366873617 0.0200839012
v -0.0237255672 0.0096532018 0.0673562068
v -0.0124920105 0.00847802381 0.0727245729
v 0.0241002489 0.029590912 0.0487735343
v -0.00380112376 0.013839062 0.072673421
v -0.0396300688 0.0041015694 0.0270879767
v -0.0409563785 0.00441519468 0.038556672
v 0.0345846167 -0.0119001654 0.053904126
v 0.0212957762 -0.020244084 0.0105117656
v 0.0264980561 -0.0248232935 0.018808004
v 0.0350043621 -0.0109628086 0.020000516
v 0.0181679242 -0.0345711134 0.0244918377
v 0.0174357932 0.00764312872 0.070903757
v -0.0344513944 -0.0210864541 0.0276612248
v -0.039071695 -0.0137680147 0.036207772
v -0.0384546902 0.00576461789 0.0498326625
v -0.0269954516 -0.0306354919 0.0292852581
v 0.0272562725 0.0102462673 0.0109670018
v 0.0328653813 0.0200544159 0.0479930773
v 0.0180455043 0.0357180703 0.0405920187
v 0.00581112743 0.031912964 0.0144245246
v -0.000744607722 0.0381106297 0.0240630293
v -0.0125463217 0.0348544145 0.0214383956
v -0.00278097847 0.0400743381 0.0352657907
v 0.00877245439 0.0389004779 0.03333793
v -0.0226778023 0.0316366416 0.0257377897
v -0.0179974268 0.0283859157 0.0157807102
v -0.00503249015 -0.036378486 0.0189739394
v 0.0237581704 -0.0286749648 0.0532353199
v 0.0206284377 -0.021550581 0.0636309005
v 0.00868512446 -0.0249109732 0.066940218
v 0.00300229322 -0.0335645738 0.0597453739
v -0.00113381667 -0.0216946168 0.0699633253
v -0.00412066468 0.0237123192 0.0679369144
v 0.0101534769 -0.039365699 0.0299841584
v -0.0255620943 0.0231239016 0.0577544191
v -0.0134542017 -0.039446582 0.0364735344
v -0.0196124016 -0.0219178896 0.0647177797
v -0.0131070431 -0.00131044663 0.0730391146
v 0.035543625 0.0189663867 0.0374411554
v 0.0339623943 -0.0205987505 0.0274654633
v -0.0235026783 -0.0342817502 0.0383585817
v -0.00635163918 -0.00907876681 0.00156521338
v -0.0315524558 0.0103001744 0.0599821296
v -0.0207499776 -0.00043376983 0.00580569587
v -0.0115414451 -0.0384989892 0.0264267349
v -0.0275945344 0.0243236992 0.0200427879
v 0.0287539735 -0.0201983288 0.0568075346
v -0.0382024524 0.013400573 0.0428456024
v 0.0143786311 0.0347797338 0.0503815649
v -0.0270638076 -0.0260045042 0.0204083634
v 0.018704339 0.0350450478 0.0309690526
v 0.00794283092 0.0193718257 0.0696879845
v -0.0359545241 0.00394329234 0.0180137911
v 0.0210977489 0.0184214542 0.0101934089
v -0.0358688998 -0.000860923035 0.0564979163
v 0.0203150253 -0.0094945586 0.0694468405
v -0.0409581751 -0.00432237845 0.0336726676
v -0.0282906181 -0.00211899617 0.00945738241
v -0.00789216114 0.0391113834 0.0428737875
v -0.0168965516 -0.00861180979 0.00478149085
v -0.0192520403 -0.0362371991 0.0300722921
v -0.016177574 0.0161028485 0.0690829164
v -0.0225676237 0.0175530964 0.0646839201
f 39 127 48
f 64 86 154
f 66 158 68
f 80 142 134
f 97 159 143
f 64 154 65
f 115 160 140
f 134 142 162
f 71 157 143
f 66 68 67
f 24 151 111
f 68 158 79
f 71 143 159
f 5 116 13
f 38 127 39
f 63 64 65
f 86 142 154
f 28 153 33
f 74 90 75
f 27 30 29
f 102 118 148
f 114 154 142
f 38 146 127
f 103 151 132
f 70 162 161
f 61 85 140
f 135 140 160
f 71 75 157
f 19 146 106
f 70 134 162
f 78 144 160
f 80 114 142
f 80 147 114
f 61 62 63
f 135 160 144
f 17 108 107
f 29 30 153
f 4 116 5
f 49 52 94
f 70 161 132
f 65 105 156
f 12 98 131
f 30 33 153
f 48 127 89
f 75 96 157
f 65 154 114
f 60 66 67
f 81 105 147
f 16 106 38
f 71 74 75
f 67 134 70
f 76 81 147
f 34 107 35
f 103 132 161
f 13 116 28
f 38 106 146
f 28 116 153
f 95 110 99
f 43 44 58
f 66 88 158
f 94 135 144
f 48 51 49
f 29 153 116
f 2 18 141
f 88 148 118
f 62 64 63
f 77 124 145
f 52 135 94
f 54 71 159
f 5 13 6
f 62 82 64
f 57 140 135
f 79 121 124
f 58 125 83
f 14 23 24
f 23 102 47
f 105 114 147
f 67 72 134
f 59 136 62
f 60 67 70
f 85 115 140
f 7 16 36
f 49 51 52
f 56 88 66
f 121 125 124
f 60 70 132
f 6 25 7
f 16 38 37
f 65 114 105
f 95 107 108
f 35 107 95
f 18 35 45
f 2 141 97
f 18 34 35
f 67 68 72
f 97 141 159
f 79 158 122
f 108 109 139
f 124 125 145
f 9 19 106
f 16 37 36
f 17 109 108
f 73 79 124
f 100 162 142
f 84 98 136
f 74 112 90
f 84 131 98
f 54 69 71
f 79 120 121
f 94 99 133
f 59 62 61
f 82 87 86
f 22 117 23
f 20 111 151
f 62 136 82
f 65 156 113
f 73 124 77
f 56 66 60
f 61 63 85
f 76 147 80
f 76 77 81
f 32 102 117
f 82 98 87
f 57 61 140
f 48 89 51
f 10 11 155
f 2 3 18
f 112 149 115
f 20 151 103
f 28 33 31
f 82 136 98
f 101 137 103
f 127 146 128
f 27 43 30
f 1 20 137
f 2 27 3
f 27 44 43
f 89 127 128
f 104 156 105
f 79 122 120
f 77 145 93
f 23 47 24
f 84 130 129
f 10 111 11
f 32 118 102
f 14 24 111
f 14 22 23
f 88 122 158
f 5 109 17
f 32 117 138
f 4 5 17
f 3 27 29
f 75 152 96
f 49 94 133
f 55 132 151
f 88 118 123
f 6 13 25
f 51 53 52
f 26 28 31
f 23 117 102
f 101 103 161
f 41 48 49
f 44 97 91
f 8 9 106
f 74 149 112
f 94 144 126
f 78 160 115
f 68 79 73
f 4 29 116
f 83 121 120
f 13 28 26
f 90 156 104
f 33 119 42
f 51 130 53
f 8 106 16
f 15 138 117
f 86 100 142
f 2 97 44
f 1 21 11
f 90 113 156
f 56 148 88
f 40 110 108
f 50 69 54
f 17 107 34
f 7 25 15
f 42 120 123
f 58 92 125
f 75 90 152
f 84 129 131
f 40 41 110
f 47 102 148
f 99 110 133
f 63 65 113
f 78 126 144
f 69 74 71
f 46 95 99
f 91 97 143
f 55 60 132
f 89 129 130
f 6 7 36
f 52 57 135
f 12 137 98
f 96 143 157
f 1 137 12
f 118 150 123
f 39 41 40
f 72 80 134
f 11 111 20
f 51 89 130
f 42 119 120
f 92 96 93
f 81 104 105
f 45 46 50
f 15 117 22
f 88 123 122
f 2 44 27
f 37 38 39
f 43 58 83
f 18 45 141
f 10 155 19
f 85 112 115
f 86 87 100
f 59 84 136
f 100 161 162
f 53 130 84
f 90 112 113
f 31 33 42
f 42 123 150
f 36 37 139
f 54 159 141
f 94 126 99
f 120 122 123
f 5 6 109
f 41 49 133
f 8 22 9
f 44 91 58
f 77 93 81
f 7 8 16
f 9 10 19
f 87 101 100
f 20 103 137
f 1 12 21
f 68 73 72
f 78 115 149
f 63 113 85
f 90 104 152
f 30 119 33
f 72 76 80
f 15 25 138
f 24 55 151
f 50 126 78
f 41 133 110
f 12 131 21
f 45 50 54
f 73 77 76
f 3 29 4
f 100 101 161
f 21 131 129
f 55 56 60
f 89 128 129
f 1 11 20
f 83 120 119
f 57 59 61
f 19 128 146
f 11 21 155
f 3 34 18
f 40 108 139
f 26 31 32
f 69 149 74
f 13 26 25
f 9 22 14
f 26 32 138
f 8 15 22
f 45 54 141
f 6 36 109
f 24 47 55
f 30 43 119
f 87 98 137
f 50 78 69
f 4 17 34
f 91 143 96
f 93 96 152
f 85 113 112
f 7 15 8
f 72 73 76
f 32 150 118
f 52 53 57
f 10 14 111
f 37 39 40
f 9 14 10
f 31 42 150
f 3 4 34
f 43 83 119
f 46 99 126
f 81 93 104
f 58 91 92
f 47 148 56
f 46 126 50
f 25 26 138
f 69 78 149
f 53 59 57
f 53 84 59
f 91 96 92
f 47 56 55
f 31 150 32
f 37 40 139
f 87 137 101
f 93 152 104
f 19 155 128
f 21 128 155
f 21 129 128
f 39 48 41
f 64 82 86
f 95 108 110
f 35 95 46
f 83 125 121
f 36 139 109
f 92 145 125
f 35 46 45
f 92 93 145
