v -0.00112332019 -0.000515641881 0.0476359367
v 6.03925114e-10 4.64653651e-11 -2.08643482e-09
v 0.0123606811 3.3562262e-10 0.00195773694
v 0.0235114116 -9.98036246e-11 0.00763931549
v 0.0344906351 -0.000375882082 0.0128785872
v 0.0405324939 -0.000394428505 0.0226908789
v 0.0423877738 -0.000370376911 0.0337773507
v 0.0398642487 -0.000302355978 0.0453663551
v 0.0335403655 -0.000335816586 0.0552631687
v 0.0246300943 -0.000486087095 0.06203353
v 0.0128622034 -0.000975740082 0.0614717136
v 5.16059251e-05 -0.0134348695 0.0622098019
v 0.0363376959 0.0113988317 0.0171466425
v 0.0276395419 0.0115702355 0.0586396732
v 0.0401045112 0.0110927835 0.0392419111
v 0.0402084813 -0.0118233301 0.039908732
v 0.0288977055 -0.0117072341 0.00952723907
v 0.00602530306 -0.0107926894 0.00195773773
v 0.0277987819 -0.011740264 0.0579398791
v 0.00589293994 0.00919674864 0.0528991608
v 0.0119028406 -0.0130405607 0.0641186718
v 0.0355388091 0.0117569715 0.0504685316
v 0.0278849947 0.0224505651 0.0528550149
v 0.0188557148 0.0216797345 0.0597530479
v 0.0404193927 0.011577408 0.0280646863
v 0.0341555096 0.0221500329 0.0236712662
v 0.00602530254 0.0107926878 0.0019577378
v 0.0285259264 0.0218057307 0.0140379952
v 0.0187412145 0.0108997766 0.00638509183
v 0.0121311422 0.0203429028 0.0077664443
v 0.024940243 0.0311964188 0.0207393388
v 0.0293945313 0.0301843479 0.0322210024
v 0.017390747 0.0290746986 0.011920788
v 0.0171129706 -0.0105219486 0.00541047679
v 0.010999894 -0.0214982312 0.00811224782
v 0.039915542 -0.0118964692 0.0284343109
v 0.0359617888 -0.0224896716 0.0334912364
v 0.0341076213 -0.0220982967 0.0443184364
v 0.0280532014 -0.0314282673 0.038542178
v 0.0288560104 -0.0303917415 0.0270777785
v 0.0192260207 -0.0376103722 0.0324858633
v 0.0131033934 0.0372467911 0.0195187986
v -0.000191616161 0.0222890371 0.00678611052
v -0.00644031643 0.0107092029 0.00200216455
v -0.00163131786 -0.0200015147 0.00539828618
v 0.00299691997 -0.0302201466 0.00864212501
v 0.0175928085 0.030750289 0.0530179899
v 0.0173624244 -0.0370227893 0.0439882278
v 0.00779613458 -0.0421061189 0.0370374784
v -0.00992951332 -0.0296991175 0.00907027881
v 0.00506335812 -0.0388264438 0.0474315203
v -0.00499083911 -0.0417834903 0.0405568024
v -0.00723479215 -0.0366428658 0.0511991661
v -0.0139237082 -0.0172534869 0.00670663793
v 0.00771000184 0.0296139596 0.0588177492
v 0.00617305642 0.0364173706 0.0506952195
v -0.0168020304 -0.0372460142 0.0434067696
v -0.0129863377 0.0211766742 0.00864870225
v -0.0187734333 -0.0308722242 0.0535685912
v -0.00458433556 0.0332557651 0.0553981252
v -0.0274654108 -0.0301505189 0.0453974598
v -0.0282049756 -0.0217308193 0.0538616161
v -0.0360066585 -0.0196825663 0.0454551274
v -0.0351780905 -0.0107198828 0.0530745845
v -0.0409285341 -0.00611038543 0.0417596626
v -0.00618974955 0.0388009325 0.0465977807
v -0.0164745679 0.0330896903 0.0509418692
v -0.0178072203 0.03773685 0.0404164345
v -0.0218794991 -0.0238016674 0.00976463297
v -0.0160330481 0.0268660237 0.0582839487
v -0.0267742947 -0.0117907322 0.0073041993
v -0.0270697648 0.0301646574 0.0448999006
v -0.026714784 0.0328488337 0.0331293154
v -0.032744005 -0.0177065903 0.0148650974
v -0.0345851676 -0.00523281981 0.0122792082
v -0.0349268005 0.0240019283 0.0366252566
v -0.0333642619 0.0250508224 0.0254360476
v -0.0186996967 -0.0338761948 0.0179536606
v -0.014846376 0.0390822591 0.0290855307
v -0.0347493333 0.0194254493 0.0466791652
v -0.0398229517 0.015007182 0.0294265769
v -0.0260286576 -0.0114034529 0.060558518
v -0.0063871365 0.0318792754 0.0114788288
v -0.00830126356 -0.0285250374 0.0592638384
v -0.0336885767 -0.0263504528 0.0352786437
v -0.0306697497 0.00053013336 0.0584187494
v -0.0203114787 -0.000786700181 0.0640713156
v 0.00478494326 0.0412948991 0.0404593614
v 0.014558498 -0.0319538102 0.0538785777
v -0.0399683 -0.00803298931 0.0211208133
v -0.0183134791 0.00920714504 0.00565112216
v -0.0250017071 0.0186854875 0.00974433389
v -0.0355938526 0.0150422825 0.0168716378
v -0.00159604812 -0.0419929455 0.027678112
v 0.0153555005 -0.0305347713 0.0122927906
v -0.0304767175 0.00663186661 0.00846368113
v -0.0116733881 -0.000655211863 0.00174685806
v -0.0144456279 -0.0129451937 0.0633288692
v 0.00640671319 -0.0376971777 0.0175745079
v -0.024915636 0.010820179 0.0612609552
v -0.0133112683 0.0103262239 0.0639401658
v 0.0252792515 0.0312439521 0.0441024748
v -0.0038638366 0.0158955839 0.0635376894
v -0.0409228853 0.00447859575 0.0237496797
v -0.0425071679 0.00478579592 0.0347815349
v 0.0360826926 -0.0117978501 0.0495931116
v 0.0220374364 -0.0209524561 0.00879105005
v 0.0274205692 -0.025744187 0.0161311122
v 0.0363903453 -0.011356562 0.017338241
v 0.0186365588 -0.035695907 0.0218257917
v 0.0194994679 0.00858011641 0.0627717579
v -0.0356664023 -0.0215591174 0.0245033289
v -0.0404042485 -0.01407433 0.0328097127
v -0.0398355801 0.00641769399 0.0455228167
v -0.0279957276 -0.0313278319 0.0263880168
v 0.0283190464 0.010709171 0.00942832533
v 0.0343127571 0.0213380223 0.0434848382
v 0.0188527737 0.0375378065 0.0363680233
v 0.00601384481 0.033024158 0.0121032284
v -0.00075893787 0.0396462963 0.0204553667
v -0.0130471852 0.0360974154 0.0185249405
v -0.00281612581 0.0416250271 0.0313947058
v 0.00906807232 0.0402756243 0.0294909299
v -0.0235315787 0.0329234535 0.0224800726
v -0.0185468201 0.0292802074 0.0135474599
v -0.00517451856 -0.0373391315 0.0166490762
v 0.0248586488 -0.0293012819 0.0491040874
v 0.0215289159 -0.0213777204 0.0581376452
v 0.00917526115 -0.0248222127 0.0609318278
v 0.00325365382 -0.0342336178 0.0550247182
v -0.000968338988 -0.0213434489 0.0617031602
v -0.00411203683 0.0259793358 0.0610955644
v 0.010417278 -0.0404792088 0.0271147248
v -0.0263635569 0.024633449 0.0531009336
v -0.0140667192 -0.0406208794 0.0330157198
v -0.0206798551 -0.0221740582 0.0595277033
v -0.0131284267 9.66861887e-05 0.0608797454
v 0.0371274877 0.0200613159 0.0334664736
v 0.0354102396 -0.0213230472 0.0242988075
v -0.0244065197 -0.0350272455 0.0349780279
v -0.00635163968 -0.00907876707 0.00156521173
v -0.0329351488 0.0114816583 0.0549951786
v -0.0207499792 -0.000433769908 0.00580569469
v -0.011976513 -0.0396428301 0.0235134384
v -0.0285891186 0.0252548638 0.0169907159
v 0.0301169557 -0.020476359 0.0523064259
v -0.0394220092 0.0141670876 0.0387226275
v 0.0152646726 0.0367247551 0.0455190486
v -0.0277733052 -0.0265845462 0.0176738067
v 0.0194546804 0.0365957421 0.0271221334
v 0.00852356453 0.0215457425 0.0621452127
v -0.0372816259 0.00420203027 0.0148865499
v 0.0217886654 0.0187771595 0.0086481534
v -0.0373299174 -0.000279517873 0.0521224691
v 0.0212812346 -0.00908988884 0.0630439178
v -0.0424330292 -0.00439877809 0.0302002166
v -0.029119963 -0.00206247864 0.00771841757
v -0.00811168623 0.0410192284 0.0388648374
v -0.0168965518 -0.00861181012 0.00478149002
v -0.0199671876 -0.0371759783 0.027004579
v -0.016977574 0.0180088351 0.0625763173
v -0.0235265567 0.0188760246 0.0590030261
f 39 127 48
f 64 86 154
f 66 158 68
f 80 142 134
f 97 159 143
f 64 154 65
f 115 160 140
f 134 142 162
f 71 157 143
f 66 68 67
f 24 151 111
f 68 158 79
f 71 143 159
f 5 116 13
f 38 127 39
f 63 64 65
f 86 142 154
f 28 153 33
f 74 90 75
f 27 30 29
f 102 118 148
f 114 154 142
f 38 146 127
f 103 151 132
f 70 162 161
f 61 85 140
f 135 140 160
f 71 75 157
f 19 146 106
f 70 134 162
f 78 144 160
f 80 114 142
f 80 147 114
f 61 62 63
f 135 160 144
f 17 108 107
f 29 30 153
f 4 116 5
f 49 52 94
f 70 161 132
f 65 105 156
f 12 98 131
f 30 33 153
f 48 127 89
f 75 96 157
f 65 154 114
f 60 66 67
f 81 105 147
f 16 106 38
f 71 74 75
f 67 134 70
f 76 81 147
f 34 107 35
f 103 132 161
f 13 116 28
f 38 106 146
f 28 116 153
f 95 110 99
f 43 44 58
f 66 88 158
f 94 135 144
f 48 51 49
f 29 153 116
f 2 18 141
f 88 148 118
f 62 64 63
f 77 124 145
f 52 135 94
f 54 71 159
f 5 13 6
f 62 82 64
f 57 140 135
f 79 121 124
f 58 125 83
f 14 23 24
f 23 102 47
f 105 114 147
f 67 72 134
f 59 136 62
f 60 67 70
f 85 115 140
f 7 16 36
f 49 51 52
f 56 88 66
f 121 125 124
f 60 70 132
f 6 25 7
f 16 38 37
f 65 114 105
f 95 107 108
f 35 107 95
f 18 35 45
f 2 141 97
f 18 34 35
f 67 68 72
f 97 141 159
f 79 158 122
f 108 109 139
f 124 125 145
f 9 19 106
f 16 37 36
f 17 109 108
f 73 79 124
f 100 162 142
f 84 98 136
f 74 112 90
f 84 131 98
f 54 69 71
f 79 120 121
f 94 99 133
f 59 62 61
f 82 87 86
f 22 117 23
f 20 111 151
f 62 136 82
f 65 156 113
f 73 124 77
f 56 66 60
f 61 63 85
f 76 147 80
f 76 77 81
f 32 102 117
f 82 98 87
f 57 61 140
f 48 89 51
f 10 11 155
f 2 3 18
f 112 149 115
f 20 151 103
f 28 33 31
f 82 136 98
f 101 137 103
f 127 146 128
f 27 43 30
f 1 20 137
f 2 27 3
f 27 44 43
f 89 127 128
f 104 156 105
f 79 122 120
f 77 145 93
f 23 47 24
f 84 130 129
f 10 111 11
f 32 118 102
f 14 24 111
f 14 22 23
f 88 122 158
f 5 109 17
f 32 117 138
f 4 5 17
f 3 27 29
f 75 152 96
f 49 94 133
f 55 132 151
f 88 118 123
f 6 13 25
f 51 53 52
f 26 28 31
f 23 117 102
f 101 103 161
f 41 48 49
f 44 97 91
f 8 9 106
f 74 149 112
f 94 144 126
f 78 160 115
f 68 79 73
f 4 29 116
f 83 121 120
f 13 28 26
f 90 156 104
f 33 119 42
f 51 130 53
f 8 106 16
f 15 138 117
f 86 100 142
f 2 97 44
f 1 21 11
f 90 113 156
f 56 148 88
f 40 110 108
f 50 69 54
f 17 107 34
f 7 25 15
f 42 120 123
f 58 92 125
f 75 90 152
f 84 129 131
f 40 41 110
f 47 102 148
f 99 110 133
f 63 65 113
f 78 126 144
f 69 74 71
f 46 95 99
f 91 97 143
f 55 60 132
f 89 129 130
f 6 7 36
f 52 57 135
f 12 137 98
f 96 143 157
f 1 137 12
f 118 150 123
f 39 41 40
f 72 80 134
f 11 111 20
f 51 89 130
f 42 119 120
f 92 96 93
f 81 104 105
f 45 46 50
f 15 117 22
f 88 123 122
f 2 44 27
f 37 38 39
f 43 58 83
f 18 45 141
f 10 155 19
f 85 112 115
f 86 87 100
f 59 84 136
f 100 161 162
f 53 130 84
f 90 112 113
f 31 33 42
f 42 123 150
f 36 37 139
f 54 159 141
f 94 126 99
f 120 122 123
f 5 6 109
f 41 49 133
f 8 22 9
f 44 91 58
f 77 93 81
f 7 8 16
f 9 10 19
f 87 101 100
f 20 103 137
f 1 12 21
f 68 73 72
f 78 115 149
f 63 113 85
f 90 104 152
f 30 119 33
f 72 76 80
f 15 25 138
f 24 55 151
f 50 126 78
f 41 133 110
f 12 131 21
f 45 50 54
f 73 77 76
f 3 29 4
f 100 101 161
f 21 131 129
f 55 56 60
f 89 128 129
f 1 11 20
f 83 120 119
f 57 59 61
f 19 128 146
f 11 21 155
f 3 34 18
f 40 108 139
f 26 31 32
f 69 149 74
f 13 26 25
f 9 22 14
f 26 32 138
f 8 15 22
f 45 54 141
f 6 36 109
f 24 47 55
f 30 43 119
f 87 98 137
f 50 78 69
f 4 17 34
f 91 143 96
f 93 96 152
f 85 113 112
f 7 15 8
f 72 73 76
f 32 150 118
f 52 53 57
f 10 14 111
f 37 39 40
f 9 14 10
f 31 42 150
f 3 4 34
f 43 83 119
f 46 99 126
f 81 93 104
f 58 91 92
f 47 148 56
f 46 126 50
f 25 26 138
f 69 78 149
f 53 59 57
f 53 84 59
f 91 96 92
f 47 56 55
f 31 150 32
f 37 40 139
f 87 137 101
f 93 152 104
f 19 155 128
f 21 128 155
f 21 129 128
f 39 48 41
f 64 82 86
f 95 108 110
f 35 95 46
f 83 125 121
f 36 139 109
f 92 145 125
f 35 46 45
f 92 93 145
