v -0.000540340723 -0.000751892658 0.0644088931
v 3.04279202e-10 9.42218253e-11 -1.33602133e-09
v 0.0123606806 2.1216926e-10 0.00195773786
v 0.0235114112 -7.29936339e-11 0.00763931753
v 0.0334337251 -0.000344557321 0.0147513051
v 0.0391321907 -0.000547778365 0.0252705808
v 0.0408412606 -0.000743690147 0.0370626843
v 0.0384956764 -0.000982130327 0.0490314748
v 0.0323962353 -0.00123539021 0.0596059139
v 0.0237087809 -0.00135890846 0.0677512399
v 0.0125551246 -0.00138796213 0.072139196
v 5.51383968e-06 -0.0147295088 0.0716947395
v 0.0350088569 0.0109206222 0.0197361544
v 0.0260457044 0.0101710768 0.0640126255
v 0.0386390101 0.0102223189 0.0429514164
v 0.0387085607 -0.0119679824 0.0428551281
v 0.028163235 -0.0113483983 0.011061399
v 0.0060253027 -0.0107926893 0.00195773815
v 0.0270646384 -0.0122972943 0.0628147024
v 0.00565112338 0.0098274085 0.0706108635
v 0.0118295658 -0.0140678061 0.0709192191
v 0.0340256155 0.0104862079 0.0547017327
v 0.0267551757 0.0208181019 0.0571668558
v 0.0178740563 0.0200407017 0.0647405634
v 0.0389196813 0.0107564309 0.0313056133
v 0.0330014524 0.0211168899 0.0267557926
v 0.00602530244 0.0107926885 0.00195773835
v 0.027582236 0.0209064168 0.0164770882
v 0.0187412138 0.0108997769 0.00638509341
v 0.0121311422 0.020342901 0.0077664461
v 0.0240191599 0.0298422171 0.0238348396
v 0.0283012009 0.028796186 0.0357625707
v 0.0168947103 0.0280536007 0.0141811699
v 0.0171129705 -0.0105219483 0.00541047809
v 0.0109998936 -0.0214982309 0.00811224922
v 0.0387893988 -0.0117449212 0.0310255425
v 0.0348143168 -0.0221299343 0.0362843085
v 0.0329307991 -0.0219971317 0.0474495918
v 0.0271445148 -0.0308787045 0.0414526264
v 0.0279924435 -0.0297218098 0.0297366214
v 0.0187681652 -0.0369908452 0.034928396
v 0.0126138108 0.0357517911 0.0226118199
v -0.000191616147 0.0222890362 0.00678611212
v -0.00644031686 0.0107092024 0.0020021656
v -0.0016313178 -0.0200015139 0.00539828766
v 0.00293597572 -0.0298831355 0.0102519366
v 0.0168033975 0.0289614942 0.0574869272
v 0.0168656942 -0.0364485399 0.0467509256
v 0.00752958927 -0.0411583827 0.0395835957
v -0.00979533513 -0.0289943529 0.0104812758
v 0.00508804074 -0.0383920186 0.0508351662
v -0.00466551707 -0.041021381 0.0435081713
v -0.00690516471 -0.0363576947 0.0546773657
v -0.0139237077 -0.0172534861 0.00670663936
v 0.00706214403 0.0275369395 0.063613496
v 0.00565267194 0.0345704103 0.0550810282
v -0.0163173345 -0.0369248916 0.0465527265
v -0.0129863372 0.0211766733 0.00864870366
v -0.0181235691 -0.0307398819 0.0570793287
v -0.00476515229 0.0312005957 0.0601825124
v -0.0267157093 -0.0298210529 0.0483252584
v -0.0273137286 -0.021905099 0.0576593219
v -0.0348172066 -0.0197285642 0.048332984
v -0.0339993939 -0.0112178745 0.056529072
v -0.0398992485 -0.00657599043 0.0449947893
v -0.00608622685 0.0370071952 0.050620033
v -0.0161656564 0.031254213 0.0552838161
v -0.0171517593 0.0358743913 0.0442463138
v -0.0215221726 -0.0235432433 0.0117159572
v -0.0156410683 0.0248705881 0.0629879209
v -0.0259223667 -0.0117018495 0.00878263595
v -0.0262923094 0.0285503577 0.0485005691
v -0.0258810487 0.0314485274 0.036561047
v -0.0318150632 -0.0174182332 0.0171000637
v -0.0335961536 -0.00533245666 0.0142840934
v -0.0338976692 0.0226942219 0.0401151799
v -0.0322918568 0.0240693567 0.0287845464
v -0.0181194689 -0.0333916085 0.0200581531
v -0.0146616084 0.0375767229 0.0323008913
v -0.0337601958 0.0180204358 0.0504337623
v -0.0386615925 0.0140719834 0.032541286
v -0.0249919931 -0.0122973432 0.0651729268
v -0.00628494188 0.0310436777 0.0132094911
v -0.00800529778 -0.028564504 0.0638951143
v -0.0326427604 -0.0262096715 0.0378478792
v -0.0300222688 -0.000694275365 0.0629408658
v -0.020373993 -0.00205498287 0.0697976625
v 0.0045359602 0.0393589704 0.0441105093
v 0.0140535533 -0.0318922016 0.0575209765
v -0.038716054 -0.00819170028 0.0237609203
v -0.018313478 0.00920714436 0.00565112403
v -0.0243688208 0.0182097931 0.0114016379
v -0.0346250006 0.0144342218 0.019935199
v -0.00150860756 -0.0412794485 0.0298120495
v 0.0151338697 -0.0298067949 0.0139910086
v -0.0297708117 0.00634411659 0.0105401426
v -0.0116733884 -0.000655211803 0.00174685888
v -0.0137887449 -0.0135188303 0.0702419831
v 0.00649323507 -0.0369583399 0.0195799127
v -0.0240127341 0.00944098296 0.0663123938
v -0.0127576909 0.00840943661 0.0711782618
v 0.0242519585 0.029641248 0.048121537
v -0.0039655401 0.0138708921 0.071092052
v -0.039847167 0.0039404576 0.0265481548
v -0.0412163688 0.00417736973 0.0379306436
v 0.034851724 -0.0121392457 0.053204985
v 0.0214418408 -0.0203904852 0.0102155802
v 0.0266827771 -0.0250514068 0.0183309604
v 0.0352388518 -0.0111043428 0.0195693951
v 0.018293713 -0.034874166 0.0239810769
v 0.0178086988 0.00748836112 0.0695925994
v -0.0346010086 -0.0213889952 0.0270795146
v -0.0392511013 -0.014101593 0.0355969099
v -0.0387128189 0.00552644673 0.0491059812
v -0.0270891143 -0.0309686137 0.0287201153
v 0.0274220567 0.0102895221 0.0107637488
v 0.0330685368 0.0200375636 0.0473631574
v 0.0181456104 0.0358345139 0.0400243815
v 0.00583704237 0.032038917 0.0141592345
v -0.000775331861 0.0382428003 0.0236231745
v -0.0126628792 0.0349434067 0.0210802145
v -0.00283954214 0.0401423295 0.0347650969
v 0.00878811655 0.0389637172 0.0328375073
v -0.0228556158 0.0316772995 0.025310506
v -0.0181096598 0.0284522413 0.0154995761
v -0.00499492467 -0.0366472105 0.0184908739
v 0.0239722502 -0.0289986928 0.0525354172
v 0.0207999637 -0.0218237357 0.0627659266
v 0.00881768194 -0.0251931447 0.0660429132
v 0.00311447679 -0.0339567208 0.0589546645
v -0.00104581102 -0.0220019078 0.0688925529
v -0.00427112473 0.0238156887 0.0667994871
v 0.0102600677 -0.0397016464 0.0294143912
v -0.0257684897 0.0230154985 0.0570074892
v -0.0134723367 -0.0398613851 0.0357941305
v -0.0197103348 -0.0223562093 0.0638223063
v -0.0132600499 -0.00153579157 0.0710452968
v 0.0357795242 0.0189644232 0.0369067465
v 0.034226717 -0.0208340486 0.0269187323
v -0.0235670726 -0.0346552458 0.0377111189
v -0.00635163927 -0.00907876688 0.00156521303
v -0.0318238148 0.0100959667 0.0591426072
v -0.020749978 -0.0004337699 0.0058056956
v -0.0115421435 -0.0388599568 0.0258342261
v -0.0277882423 0.0243424772 0.0196308094
v 0.0289811572 -0.0204766741 0.0560738965
v -0.0384344109 0.0132194979 0.0421895666
v 0.0144706059 0.0348778448 0.049677918
v -0.0271240136 -0.0262632188 0.0198900382
v 0.0188077512 0.0351443339 0.0304819555
v 0.00794994534 0.0195281723 0.0683013432
v -0.0361842496 0.00383562126 0.0175215274
v 0.0212065302 0.0184545392 0.0100062826
v -0.0361345179 -0.00115214476 0.0557245236
v 0.020596255 -0.00974094289 0.0684985016
v -0.0411861975 -0.00460531263 0.0330763298
v -0.0284275136 -0.00216980166 0.00918817336
v -0.00800512942 0.0391924832 0.0423260042
v -0.0168965517 -0.00861180989 0.00478149065
v -0.0192938135 -0.0365972646 0.0294601011
v -0.0164369147 0.0160704175 0.0679848307
v -0.0228235916 0.0173993823 0.0637372563
f 39 127 48
f 64 86 154
f 66 158 68
f 80 142 134
f 97 159 143
f 64 154 65
f 115 160 140
f 134 142 162
f 71 157 143
f 66 68 67
f 24 151 111
f 68 158 79
f 71 143 159
f 5 116 13
f 38 127 39
f 63 64 65
f 86 142 154
f 28 153 33
f 74 90 75
f 27 30 29
f 102 118 148
f 114 154 142
f 38 146 127
f 103 151 132
f 70 162 161
f 61 85 140
f 135 140 160
f 71 75 157
f 19 146 106
f 70 134 162
f 78 144 160
f 80 114 142
f 80 147 114
f 61 62 63
f 135 160 144
f 17 108 107
f 29 30 153
f 4 116 5
f 49 52 94
f 70 161 132
f 65 105 156
f 12 98 131
f 30 33 153
f 48 127 89
f 75 96 157
f 65 154 114
f 60 66 67
f 81 105 147
f 16 106 38
f 71 74 75
f 67 134 70
f 76 81 147
f 34 107 35
f 103 132 161
f 13 116 28
f 38 106 146
f 28 116 153
f 95 110 99
f 43 44 58
f 66 88 158
f 94 135 144
f 48 51 49
f 29 153 116
f 2 18 141
f 88 148 118
f 62 64 63
f 77 124 145
f 52 135 94
f 54 71 159
f 5 13 6
f 62 82 64
f 57 140 135
f 79 121 124
f 58 125 83
f 14 23 24
f 23 102 47
f 105 114 147
f 67 72 134
f 59 136 62
f 60 67 70
f 85 115 140
f 7 16 36
f 49 51 52
f 56 88 66
f 121 125 124
f 60 70 132
f 6 25 7
f 16 38 37
f 65 114 105
f 95 107 108
f 35 107 95
f 18 35 45
f 2 141 97
f 18 34 35
f 67 68 72
f 97 141 159
f 79 158 122
f 108 109 139
f 124 125 145
f 9 19 106
f 16 37 36
f 17 109 108
f 73 79 124
f 100 162 142
f 84 98 136
f 74 112 90
f 84 131 98
f 54 69 71
f 79 120 121
f 94 99 133
f 59 62 61
f 82 87 86
f 22 117 23
f 20 111 151
f 62 136 82
f 65 156 113
f 73 124 77
f 56 66 60
f 61 63 85
f 76 147 80
f 76 77 81
f 32 102 117
f 82 98 87
f 57 61 140
f 48 89 51
f 10 11 155
f 2 3 18
f 112 149 115
f 20 151 103
f 28 33 31
f 82 136 98
f 101 137 103
f 127 146 128
f 27 43 30
f 1 20 137
f 2 27 3
f 27 44 43
f 89 127 128
f 104 156 105
f 79 122 120
f 77 145 93
f 23 47 24
f 84 130 129
f 10 111 11
f 32 118 102
f 14 24 111
f 14 22 23
f 88 122 158
f 5 109 17
f 32 117 138
f 4 5 17
f 3 27 29
f 75 152 96
f 49 94 133
f 55 132 151
f 88 118 123
f 6 13 25
f 51 53 52
f 26 28 31
f 23 117 102
f 101 103 161
f 41 48 49
f 44 97 91
f 8 9 106
f 74 149 112
f 94 144 126
f 78 160 115
f 68 79 73
f 4 29 116
f 83 121 120
f 13 28 26
f 90 156 104
f 33 119 42
f 51 130 53
f 8 106 16
f 15 138 117
f 86 100 142
f 2 97 44
f 1 21 11
f 90 113 156
f 56 148 88
f 40 110 108
f 50 69 54
f 17 107 34
f 7 25 15
f 42 120 123
f 58 92 125
f 75 90 152
f 84 129 131
f 40 41 110
f 47 102 148
f 99 110 133
f 63 65 113
f 78 126 144
f 69 74 71
f 46 95 99
f 91 97 143
f 55 60 132
f 89 129 130
f 6 7 36
f 52 57 135
f 12 137 98
f 96 143 157
f 1 137 12
f 118 150 123
f 39 41 40
f 72 80 134
f 11 111 20
f 51 89 130
f 42 119 120
f 92 96 93
f 81 104 105
f 45 46 50
f 15 117 22
f 88 123 122
f 2 44 27
f 37 38 39
f 43 58 83
f 18 45 141
f 10 155 19
f 85 112 115
f 86 87 100
f 59 84 136
f 100 161 162
f 53 130 84
f 90 112 113
f 31 33 42
f 42 123 150
f 36 37 139
f 54 159 141
f 94 126 99
f 120 122 123
f 5 6 109
f 41 49 133
f 8 22 9
f 44 91 58
f 77 93 81
f 7 8 16
f 9 10 19
f 87 101 100
f 20 103 137
f 1 12 21
f 68 73 72
f 78 115 149
f 63 113 85
f 90 104 152
f 30 119 33
f 72 76 80
f 15 25 138
f 24 55 151
f 50 126 78
f 41 133 110
f 12 131 21
f 45 50 54
f 73 77 76
f 3 29 4
f 100 101 161
f 21 131 129
f 55 56 60
f 89 128 129
f 1 11 20
f 83 120 119
f 57 59 61
f 19 128 146
f 11 21 155
f 3 34 18
f 40 108 139
f 26 31 32
f 69 149 74
f 13 26 25
f 9 22 14
f 26 32 138
f 8 15 22
f 45 54 141
f 6 36 109
f 24 47 55
f 30 43 119
f 87 98 137
f 50 78 69
f 4 17 34
f 91 143 96
f 93 96 152
f 85 113 112
f 7 15 8
f 72 73 76
f 32 150 118
f 52 53 57
f 10 14 111
f 37 39 40
f 9 14 10
f 31 42 150
f 3 4 34
f 43 83 119
f 46 99 126
f 81 93 104
f 58 91 92
f 47 148 56
f 46 126 50
f 25 26 138
f 69 78 149
f 53 59 57
f 53 84 59
f 91 96 92
f 47 56 55
f 31 150 32
f 37 40 139
f 87 137 101
f 93 152 104
f 19 155 128
f 21 128 155
f 21 129 128
f 39 48 41
f 64 82 86
f 95 108 110
f 35 95 46
f 83 125 121
f 36 139 109
f 92 145 125
f 35 46 45
f 92 93 145
