v -0.00118004447 -0.000467767939 0.0465972456
v 5.99699188e-10 4.00415596e-11 -2.05139566e-09
v 0.0123606811 3.31550196e-10 0.00195773696
v 0.0235114116 -8.54726941e-11 0.00763931552
v 0.0345528168 -0.000341116688 0.0127563867
v 0.0406201161 -0.000348216868 0.0225325375
v 0.0425052572 -0.00033258738 0.0335828095
v 0.0399800745 -0.000274047562 0.0451664075
v 0.0336589859 -0.000315900892 0.0550416983
v 0.0246874387 -0.000512110694 0.0617422398
v 0.0129167279 -0.00102505657 0.0605938858
v 7.82851972e-05 -0.013455677 0.0612232452
v 0.036408661 0.0114611772 0.0170028088
v 0.0276756582 0.0115258541 0.0584743478
v 0.0402090914 0.0111408023 0.0390677201
v 0.040330268 -0.0118103399 0.0397242147
v 0.0289558525 -0.0116998609 0.00941211821
v 0.00602530306 -0.0107926894 0.00195773775
v 0.0278619565 -0.0117374475 0.057661014
v 0.00590722867 0.00919212097 0.0516337955
v 0.0118157261 -0.0129910809 0.0636000048
v 0.0356673221 0.0117982159 0.050312692
v 0.0279544113 0.0224415391 0.05276621
v 0.0189202869 0.0215662322 0.0596969987
v 0.0405170524 0.011653094 0.0278948405
v 0.0342119772 0.0222319204 0.0235390614
v 0.00602530251 0.0107926878 0.0019577378
v 0.0285575723 0.0218844121 0.0139245525
v 0.0187412144 0.0108997766 0.00638509185
v 0.0121311422 0.0203429028 0.00776644435
v 0.0249776791 0.0312930009 0.0206338782
v 0.0294589052 0.0302568919 0.0321181377
v 0.0173976675 0.0291375259 0.0118322369
v 0.0171129706 -0.0105219486 0.00541047681
v 0.010999894 -0.0214982312 0.00811224785
v 0.0400015507 -0.0118771993 0.0282648942
v 0.0360632945 -0.0224952863 0.0332885088
v 0.0342134913 -0.0221118564 0.0440998148
v 0.0281447818 -0.0314600263 0.0383120039
v 0.0289452284 -0.0304123119 0.0268670916
v 0.0192955164 -0.0376461466 0.0322613477
v 0.0131258149 0.0373300735 0.0194465564
v -0.000191616153 0.0222890371 0.00678611058
v -0.00644031644 0.0107092029 0.00200216456
v -0.00163131786 -0.0200015147 0.00539828621
v 0.0030150915 -0.0302294023 0.00849507005
v 0.017661121 0.0306982708 0.0529871951
v 0.0174330165 -0.0370802278 0.0437422256
v 0.00785063601 -0.0421767574 0.0367836203
v -0.00993086764 -0.0297353968 0.00894491959
v 0.00509842968 -0.0388970317 0.0471078362
v -0.0049804723 -0.04184379 0.0402708366
v -0.00723569321 -0.0367272156 0.0508637587
v -0.0139237082 -0.0172534869 0.00670663797
v 0.00782069054 0.0294234325 0.0588417785
v 0.00625654068 0.0363456338 0.0507257414
v -0.0168119594 -0.0372873552 0.0431106371
v -0.0129863377 0.0211766743 0.00864870232
v -0.0188148229 -0.0309476593 0.0532479056
v -0.00445907992 0.0331394109 0.0554106858
v -0.027489355 -0.0301873003 0.0451372479
v -0.0282495193 -0.0217686578 0.0535697479
v -0.0360563593 -0.0196923874 0.0452435557
v -0.0352154545 -0.0107158385 0.0528599238
v -0.0409556857 -0.00607533861 0.041577428
v -0.00611307989 0.0387797817 0.0466267268
v -0.0163846295 0.0330876635 0.0509279825
v -0.0177612114 0.0377827469 0.0404053918
v -0.0218976224 -0.0237934294 0.0096082531
v -0.0158930211 0.0268019931 0.0582440729
v -0.0268277181 -0.0117739806 0.00719617945
v -0.027017049 0.0302058347 0.0448821133
v -0.0266940101 0.0329254302 0.0330896032
v -0.0327926053 -0.0176798991 0.0147036797
v -0.0346286062 -0.00517973904 0.0121612114
v -0.0349200079 0.0240874056 0.036554628
v -0.0333698526 0.0251320915 0.0253553195
v -0.0187278312 -0.0338786042 0.017766397
v -0.014798377 0.0391464511 0.029067259
v -0.034729965 0.019483518 0.0465927155
v -0.0398411003 0.0150956442 0.0293286377
v -0.0260749446 -0.0114232135 0.0602555548
v -0.00638213013 0.0319110264 0.0114447223
v -0.00831513409 -0.0286643905 0.0588474363
v -0.0337406208 -0.0263485612 0.0350672822
v -0.0306562408 0.000551913041 0.0581978909
v -0.0202540141 -0.000838918038 0.0637577222
v 0.00483893333 0.0413061941 0.0404822012
v 0.0146344488 -0.0320079716 0.0535645037
v -0.0400249724 -0.00797345166 0.0209612625
v -0.018313479 0.00920714502 0.0056511222
v -0.0250098026 0.018742024 0.00969201567
v -0.0356074615 0.0151277885 0.0167502898
v -0.00157472031 -0.0420321759 0.0274624859
v 0.0153948366 -0.0305617375 0.0121376831
v -0.0304887283 0.00668872035 0.00835861327
v -0.0116733881 -0.000655211862 0.00174685809
v -0.0144591542 -0.0130525357 0.0627340496
v 0.00642511249 -0.0377257128 0.017382665
v -0.0248811414 0.0108036928 0.061079924
v -0.0133239219 0.0102630575 0.0637504703
v 0.0253505747 0.0312592656 0.0440365587
v -0.00367606078 0.0156821113 0.0634166576
v -0.040948839 0.00456168732 0.0236230586
v -0.0425362005 0.00484922823 0.0346500927
v 0.0361875899 -0.0117986688 0.0493825705
v 0.0220845809 -0.0209622499 0.0086756242
v 0.0274927944 -0.0257542857 0.0159554898
v 0.0364750272 -0.0113317742 0.0171867334
v 0.0186970303 -0.0357301015 0.0216252098
v 0.0194837392 0.00843953239 0.0626610115
v -0.0357224989 -0.0215348901 0.0243109339
v -0.040453787 -0.0140426398 0.0326261707
v -0.0398390148 0.00646313387 0.0453812896
v -0.0280418315 -0.0313274699 0.0261832885
v 0.0283680357 0.0107594933 0.00934479613
v 0.0344070237 0.0213808787 0.0433647545
v 0.0188839349 0.0375642388 0.0363408594
v 0.00601639897 0.0330687063 0.0120520965
v -0.000741874317 0.039709211 0.0204038044
v -0.0130389894 0.0361574241 0.0184886582
v -0.00277492598 0.0416618827 0.0313913831
v 0.00909105504 0.0403081851 0.0294672539
v -0.0235166966 0.0330061075 0.0224384646
v -0.0185436539 0.0293271138 0.0135024007
v -0.00516954949 -0.0373663464 0.0164753393
v 0.0249515388 -0.0293425663 0.0488470205
v 0.0216205631 -0.0213846636 0.0578438463
v 0.00923567371 -0.0249032211 0.0605071653
v 0.00329789531 -0.0343416419 0.0546600493
v -0.000935263955 -0.0214589125 0.0609681258
v -0.00392929318 0.0257915017 0.0610677633
v 0.010463218 -0.0405191379 0.026889306
v -0.0262942757 0.0246475706 0.0530712404
v -0.0140820137 -0.0406705524 0.0327514899
v -0.0207493184 -0.0222683103 0.0591951493
v -0.0131942955 0.000161855413 0.0601010331
v 0.0372099505 0.0201284004 0.0333314248
v 0.0355097485 -0.0213225556 0.0241067049
v -0.0244459632 -0.0350528039 0.0347263498
v -0.00635163968 -0.00907876706 0.00156521177
v -0.0329225816 0.0115190503 0.0548601737
v -0.0207499791 -0.000433769896 0.00580569471
v -0.0119878076 -0.0396760173 0.0232951591
v -0.0285926671 0.0253375185 0.0169253682
v 0.0302329709 -0.0205104553 0.0520644259
v -0.0394185898 0.0142336972 0.03861573
v 0.015324238 0.0367053043 0.0455069311
v -0.0278063044 -0.0265660946 0.0174941237
v 0.019487075 0.0366682825 0.027066248
v 0.00863382365 0.0212593622 0.0621550392
v -0.0373128573 0.00427822524 0.0147581489
v 0.0218080635 0.0188056695 0.00857652927
v -0.037343093 -0.000255655271 0.0519508781
v 0.0212886472 -0.00911232792 0.0627580824
v -0.0424724725 -0.00434667635 0.0300433201
v -0.0291493183 -0.00202362598 0.00763213315
v -0.00804462906 0.0410423828 0.0388916529
v -0.0168965518 -0.00861181009 0.00478149004
v -0.019994765 -0.0371964782 0.0267780644
v -0.0168357146 0.0179174116 0.0624457784
v -0.0234329217 0.0188403002 0.0589038749
f 39 127 48
f 64 86 154
f 66 158 68
f 80 142 134
f 97 159 143
f 64 154 65
f 115 160 140
f 134 142 162
f 71 157 143
f 66 68 67
f 24 151 111
f 68 158 79
f 71 143 159
f 5 116 13
f 38 127 39
f 63 64 65
f 86 142 154
f 28 153 33
f 74 90 75
f 27 30 29
f 102 118 148
f 114 154 142
f 38 146 127
f 103 151 132
f 70 162 161
f 61 85 140
f 135 140 160
f 71 75 157
f 19 146 106
f 70 134 162
f 78 144 160
f 80 114 142
f 80 147 114
f 61 62 63
f 135 160 144
f 17 108 107
f 29 30 153
f 4 116 5
f 49 52 94
f 70 161 132
f 65 105 156
f 12 98 131
f 30 33 153
f 48 127 89
f 75 96 157
f 65 154 114
f 60 66 67
f 81 105 147
f 16 106 38
f 71 74 75
f 67 134 70
f 76 81 147
f 34 107 35
f 103 132 161
f 13 116 28
f 38 106 146
f 28 116 153
f 95 110 99
f 43 44 58
f 66 88 158
f 94 135 144
f 48 51 49
f 29 153 116
f 2 18 141
f 88 148 118
f 62 64 63
f 77 124 145
f 52 135 94
f 54 71 159
f 5 13 6
f 62 82 64
f 57 140 135
f 79 121 124
f 58 125 83
f 14 23 24
f 23 102 47
f 105 114 147
f 67 72 134
f 59 136 62
f 60 67 70
f 85 115 140
f 7 16 36
f 49 51 52
f 56 88 66
f 121 125 124
f 60 70 132
f 6 25 7
f 16 38 37
f 65 114 105
f 95 107 108
f 35 107 95
f 18 35 45
f 2 141 97
f 18 34 35
f 67 68 72
f 97 141 159
f 79 158 122
f 108 109 139
f 124 125 145
f 9 19 106
f 16 37 36
f 17 109 108
f 73 79 124
f 100 162 142
f 84 98 136
f 74 112 90
f 84 131 98
f 54 69 71
f 79 120 121
f 94 99 133
f 59 62 61
f 82 87 86
f 22 117 23
f 20 111 151
f 62 136 82
f 65 156 113
f 73 124 77
f 56 66 60
f 61 63 85
f 76 147 80
f 76 77 81
f 32 102 117
f 82 98 87
f 57 61 140
f 48 89 51
f 10 11 155
f 2 3 18
f 112 149 115
f 20 151 103
f 28 33 31
f 82 136 98
f 101 137 103
f 127 146 128
f 27 43 30
f 1 20 137
f 2 27 3
f 27 44 43
f 89 127 128
f 104 156 105
f 79 122 120
f 77 145 93
f 23 47 24
f 84 130 129
f 10 111 11
f 32 118 102
f 14 24 111
f 14 22 23
f 88 122 158
f 5 109 17
f 32 117 138
f 4 5 17
f 3 27 29
f 75 152 96
f 49 94 133
f 55 132 151
f 88 118 123
f 6 13 25
f 51 53 52
f 26 28 31
f 23 117 102
f 101 103 161
f 41 48 49
f 44 97 91
f 8 9 106
f 74 149 112
f 94 144 126
f 78 160 115
f 68 79 73
f 4 29 116
f 83 121 120
f 13 28 26
f 90 156 104
f 33 119 42
f 51 130 53
f 8 106 16
f 15 138 117
f 86 100 142
f 2 97 44
f 1 21 11
f 90 113 156
f 56 148 88
f 40 110 108
f 50 69 54
f 17 107 34
f 7 25 15
f 42 120 123
f 58 92 125
f 75 90 152
f 84 129 131
f 40 41 110
f 47 102 148
f 99 110 133
f 63 65 113
f 78 126 144
f 69 74 71
f 46 95 99
f 91 97 143
f 55 60 132
f 89 129 130
f 6 7 36
f 52 57 135
f 12 137 98
f 96 143 157
f 1 137 12
f 118 150 123
f 39 41 40
f 72 80 134
f 11 111 20
f 51 89 130
f 42 119 120
f 92 96 93
f 81 104 105
f 45 46 50
f 15 117 22
f 88 123 122
f 2 44 27
f 37 38 39
f 43 58 83
f 18 45 141
f 10 155 19
f 85 112 115
f 86 87 100
f 59 84 136
f 100 161 162
f 53 130 84
f 90 112 113
f 31 33 42
f 42 123 150
f 36 37 139
f 54 159 141
f 94 126 99
f 120 122 123
f 5 6 109
f 41 49 133
f 8 22 9
f 44 91 58
f 77 93 81
f 7 8 16
f 9 10 19
f 87 101 100
f 20 103 137
f 1 12 21
f 68 73 72
f 78 115 149
f 63 113 85
f 90 104 152
f 30 119 33
f 72 76 80
f 15 25 138
f 24 55 151
f 50 126 78
f 41 133 110
f 12 131 21
f 45 50 54
f 73 77 76
f 3 29 4
f 100 101 161
f 21 131 129
f 55 56 60
f 89 128 129
f 1 11 20
f 83 120 119
f 57 59 61
f 19 128 146
f 11 21 155
f 3 34 18
f 40 108 139
f 26 31 32
f 69 149 74
f 13 26 25
f 9 22 14
f 26 32 138
f 8 15 22
f 45 54 141
f 6 36 109
f 24 47 55
f 30 43 119
f 87 98 137
f 50 78 69
f 4 17 34
f 91 143 96
f 93 96 152
f 85 113 112
f 7 15 8
f 72 73 76
f 32 150 118
f 52 53 57
f 10 14 111
f 37 39 40
f 9 14 10
f 31 42 150
f 3 4 34
f 43 83 119
f 46 99 126
f 81 93 104
f 58 91 92
f 47 148 56
f 46 126 50
f 25 26 138
f 69 78 149
f 53 59 57
f 53 84 59
f 91 96 92
f 47 56 55
f 31 150 32
f 37 40 139
f 87 137 101
f 93 152 104
f 19 155 128
f 21 128 155
f 21 129 128
f 39 48 41
f 64 82 86
f 95 108 110
f 35 95 46
f 83 125 121
f 36 139 109
f 92 145 125
f 35 46 45
f 92 93 145
