v -0.00117119221 -0.000476759848 0.046602871
v 6.03541663e-10 4.09824835e-11 -2.05959852e-09
v 0.0123606811 3.34110975e-10 0.00195773696
v 0.0235114116 -8.69427186e-11 0.0076393155
v 0.0345577933 -0.000350366057 0.0127472343
v 0.0406242579 -0.000360138798 0.0225195762
v 0.0425042671 -0.000343898154 0.0335651141
v 0.0399740248 -0.000283247242 0.0451429207
v 0.0336456784 -0.00032466167 0.0550095627
v 0.0246765724 -0.00051022345 0.0616986146
v 0.0129057283 -0.0010151175 0.0605903459
v 7.19574876e-05 -0.0134479804 0.0612289928
v 0.0364141575 0.0114528779 0.0169898811
v 0.0276788609 0.0115332568 0.058420113
v 0.0402063409 0.0111329858 0.0390430755
v 0.0403266374 -0.011823212 0.0397061173
v 0.0289568244 -0.0117079326 0.00940476443
v 0.00602530306 -0.0107926894 0.00195773775
v 0.0278532376 -0.0117468946 0.0576273013
v 0.00590355327 0.00919221607 0.0516763233
v 0.0118280391 -0.0130004422 0.063566097
v 0.0356580677 0.0117928909 0.0502762221
v 0.0279483349 0.0224488516 0.0527185438
v 0.0189102134 0.0215876755 0.0596287549
v 0.040518755 0.0116445419 0.0278770382
v 0.0342152672 0.0222262087 0.0235193571
v 0.00602530252 0.0107926878 0.0019577378
v 0.0285638319 0.0218805349 0.0139102779
v 0.0187412144 0.0108997766 0.00638509184
v 0.0121311422 0.0203429028 0.00776644434
v 0.0249809727 0.0312903269 0.0206103849
v 0.0294579433 0.0302550032 0.0320881356
v 0.0174015185 0.0291380927 0.0118166533
v 0.0171129706 -0.0105219486 0.0054104768
v 0.010999894 -0.0214982312 0.00811224783
v 0.0400009183 -0.0118919036 0.0282501782
v 0.0360600201 -0.0225112687 0.0332726149
v 0.0342079642 -0.0221257728 0.0440809942
v 0.0281388235 -0.0314765901 0.0382952277
v 0.0289409922 -0.0304289586 0.0268516015
v 0.0192876614 -0.037662254 0.0322477603
v 0.0131257025 0.037332125 0.0194173784
v -0.000191616155 0.0222890371 0.00678611056
v -0.00644031643 0.0107092029 0.00200216456
v -0.00163131786 -0.0200015147 0.00539828619
v 0.00301299269 -0.0302344058 0.00848545289
v 0.0176495967 0.0307150873 0.0529263646
v 0.0174234688 -0.0370951804 0.043726727
v 0.00784146424 -0.0421945856 0.0367707143
v -0.00993358912 -0.0297443694 0.00893355819
v 0.00508594951 -0.0389093763 0.0470935195
v -0.00499281616 -0.041862658 0.0402552678
v -0.00724719695 -0.0367365268 0.0508502618
v -0.0139237082 -0.0172534869 0.00670663795
v 0.0077991744 0.0294592695 0.0587652552
v 0.00623943241 0.0363652025 0.05065669
v -0.0168240895 -0.0373038889 0.0430938006
v -0.0129863377 0.0211766743 0.0086487023
v -0.0188237806 -0.030957109 0.0532325315
v -0.00448862945 0.0331681535 0.0553360659
v -0.0275038128 -0.030206145 0.0451186316
v -0.0282632962 -0.0217817813 0.0535454509
v -0.0360743313 -0.0197095486 0.0452193894
v -0.0352365119 -0.0107308599 0.0528299444
v -0.0409746184 -0.00609191605 0.0415455255
v -0.00613836424 0.038793108 0.0465628401
v -0.0164151245 0.0330959317 0.0508643022
v -0.0177880158 0.0377876332 0.0403500682
v -0.0219004664 -0.0238019453 0.00959242534
v -0.0159332569 0.0268188614 0.0581772831
v -0.0268332972 -0.0117795988 0.00718486736
v -0.0270473009 0.0302058307 0.0448289515
v -0.0267181322 0.032920677 0.0330433615
v -0.0328017898 -0.0176956488 0.0146836215
v -0.0346391933 -0.0051919908 0.0121415048
v -0.034945123 0.0240780246 0.0365094558
v -0.0333911416 0.0251229079 0.0253143465
v -0.0187350965 -0.033894373 0.0177494676
v -0.014816539 0.0391480419 0.0290234808
v -0.0347575398 0.0194761085 0.0465447782
v -0.0398626395 0.0150829303 0.0292908797
v -0.0260913373 -0.0114297011 0.0602231164
v -0.00638617568 0.0319152501 0.0114260747
v -0.00832230015 -0.0286572716 0.0588303314
v -0.0337542344 -0.0263668867 0.0350463555
v -0.0306749921 0.000543488482 0.0581567839
v -0.0202573539 -0.000835258357 0.0637101985
v 0.00482452422 0.0413197199 0.0404277263
v 0.014623027 -0.0320176881 0.0535472557
v -0.0400398363 -0.00799084758 0.0209346369
v -0.018313479 0.00920714503 0.00565112218
v -0.025018466 0.0187368947 0.00967376893
v -0.0356235541 0.0151154798 0.0167182524
v -0.0015832238 -0.0420493478 0.0274488876
v 0.0153905939 -0.0305724661 0.0121287733
v -0.0304982285 0.00668079916 0.00833979297
v -0.0116733881 -0.000655211862 0.00174685808
v -0.0144716799 -0.0130436882 0.0627137941
v 0.0064186461 -0.0377403301 0.0173699283
v -0.0249107033 0.0108020794 0.0610275683
v -0.0133339433 0.0102703982 0.0636614654
v 0.0253444925 0.0312653606 0.0439918041
v -0.00371693157 0.0157166195 0.0633115063
v -0.0409659099 0.00454574452 0.0235921107
v -0.0425586826 0.00483279078 0.0346138409
v 0.0361820179 -0.0118098647 0.0493576649
v 0.0220856608 -0.0209711101 0.00866915957
v 0.027491159 -0.0257686763 0.0159435855
v 0.0364771959 -0.0113447843 0.0171746005
v 0.0186903312 -0.0357461584 0.0216131419
v 0.0194898293 0.00846520891 0.0625739088
v -0.0357347881 -0.0215535549 0.0242875952
v -0.040469832 -0.0140623129 0.0325993021
v -0.0398643995 0.00644986092 0.0453412072
v -0.0280530439 -0.0313458427 0.0261642683
v 0.0283717685 0.0107556919 0.0093398564
v 0.0344004405 0.0213782569 0.043330499
v 0.0188817257 0.0375734064 0.0362956831
v 0.0060166564 0.0330720369 0.012033503
v -0.000749261412 0.039712993 0.0203684187
v -0.0130504025 0.0361584623 0.0184577976
v -0.00278884952 0.0416669987 0.0313448857
v 0.00908470375 0.04031227 0.0294257945
v -0.0235347853 0.0330025275 0.0224022803
v -0.0185528992 0.0293274732 0.0134805935
v -0.00517484186 -0.03738001 0.0164613015
v 0.0249428951 -0.0293563725 0.0488261752
v 0.0216104831 -0.0213969257 0.0578114659
v 0.00922391406 -0.0249021757 0.0604859419
v 0.00328625137 -0.0343461042 0.0546456597
v -0.000944147244 -0.0214470936 0.0609660573
v -0.00396820881 0.0258281402 0.0609813011
v 0.0104549916 -0.0405360333 0.0268764861
v -0.0263250945 0.0246483153 0.0530136438
v -0.0140934284 -0.040688797 0.0327339775
v -0.0207583206 -0.0222698199 0.0591708102
v -0.0131774245 0.0001475906 0.0600746052
v 0.0372099954 0.0201230118 0.0333068664
v 0.035509109 -0.021338183 0.0240923187
v -0.0244578503 -0.0350699512 0.0347079087
v -0.00635163968 -0.00907876707 0.00156521175
v -0.0329512952 0.011511273 0.0548124497
v -0.0207499791 -0.000433769899 0.0058056947
v -0.0119959408 -0.0396939964 0.0232780119
v -0.0286082719 0.0253312964 0.0168938388
v 0.0302234145 -0.0205212011 0.0520392889
v -0.0394424769 0.0142206006 0.0385737599
v 0.015316318 0.036720174 0.0454496795
v -0.0278135104 -0.0265824443 0.0174748256
v 0.0194857327 0.036669131 0.0270308429
v 0.00860959404 0.0213040522 0.0620523664
v -0.0373277365 0.00426477543 0.0147309355
v 0.0218118168 0.0188037382 0.00857019075
v -0.0373678296 -0.000267705241 0.0519145378
v 0.0212865857 -0.00911219209 0.0627141413
v -0.0424910472 -0.00436568075 0.0300128445
v -0.0291555913 -0.00203042874 0.00761943506
v -0.00806638999 0.0410517595 0.0388374295
v -0.0168965518 -0.00861181009 0.00478149003
v -0.020004873 -0.0372149742 0.0267597058
v -0.01687869 0.0179347052 0.06238098
v -0.0234698723 0.0188439252 0.0588438758
f 39 127 48
f 64 86 154
f 66 158 68
f 80 142 134
f 97 159 143
f 64 154 65
f 115 160 140
f 134 142 162
f 71 157 143
f 66 68 67
f 24 151 111
f 68 158 79
f 71 143 159
f 5 116 13
f 38 127 39
f 63 64 65
f 86 142 154
f 28 153 33
f 74 90 75
f 27 30 29
f 102 118 148
f 114 154 142
f 38 146 127
f 103 151 132
f 70 162 161
f 61 85 140
f 135 140 160
f 71 75 157
f 19 146 106
f 70 134 162
f 78 144 160
f 80 114 142
f 80 147 114
f 61 62 63
f 135 160 144
f 17 108 107
f 29 30 153
f 4 116 5
f 49 52 94
f 70 161 132
f 65 105 156
f 12 98 131
f 30 33 153
f 48 127 89
f 75 96 157
f 65 154 114
f 60 66 67
f 81 105 147
f 16 106 38
f 71 74 75
f 67 134 70
f 76 81 147
f 34 107 35
f 103 132 161
f 13 116 28
f 38 106 146
f 28 116 153
f 95 110 99
f 43 44 58
f 66 88 158
f 94 135 144
f 48 51 49
f 29 153 116
f 2 18 141
f 88 148 118
f 62 64 63
f 77 124 145
f 52 135 94
f 54 71 159
f 5 13 6
f 62 82 64
f 57 140 135
f 79 121 124
f 58 125 83
f 14 23 24
f 23 102 47
f 105 114 147
f 67 72 134
f 59 136 62
f 60 67 70
f 85 115 140
f 7 16 36
f 49 51 52
f 56 88 66
f 121 125 124
f 60 70 132
f 6 25 7
f 16 38 37
f 65 114 105
f 95 107 108
f 35 107 95
f 18 35 45
f 2 141 97
f 18 34 35
f 67 68 72
f 97 141 159
f 79 158 122
f 108 109 139
f 124 125 145
f 9 19 106
f 16 37 36
f 17 109 108
f 73 79 124
f 100 162 142
f 84 98 136
f 74 112 90
f 84 131 98
f 54 69 71
f 79 120 121
f 94 99 133
f 59 62 61
f 82 87 86
f 22 117 23
f 20 111 151
f 62 136 82
f 65 156 113
f 73 124 77
f 56 66 60
f 61 63 85
f 76 147 80
f 76 77 81
f 32 102 117
f 82 98 87
f 57 61 140
f 48 89 51
f 10 11 155
f 2 3 18
f 112 149 115
f 20 151 103
f 28 33 31
f 82 136 98
f 101 137 103
f 127 146 128
f 27 43 30
f 1 20 137
f 2 27 3
f 27 44 43
f 89 127 128
f 104 156 105
f 79 122 120
f 77 145 93
f 23 47 24
f 84 130 129
f 10 111 11
f 32 118 102
f 14 24 111
f 14 22 23
f 88 122 158
f 5 109 17
f 32 117 138
f 4 5 17
f 3 27 29
f 75 152 96
f 49 94 133
f 55 132 151
f 88 118 123
f 6 13 25
f 51 53 52
f 26 28 31
f 23 117 102
f 101 103 161
f 41 48 49
f 44 97 91
f 8 9 106
f 74 149 112
f 94 144 126
f 78 160 115
f 68 79 73
f 4 29 116
f 83 121 120
f 13 28 26
f 90 156 104
f 33 119 42
f 51 130 53
f 8 106 16
f 15 138 117
f 86 100 142
f 2 97 44
f 1 21 11
f 90 113 156
f 56 148 88
f 40 110 108
f 50 69 54
f 17 107 34
f 7 25 15
f 42 120 123
f 58 92 125
f 75 90 152
f 84 129 131
f 40 41 110
f 47 102 148
f 99 110 133
f 63 65 113
f 78 126 144
f 69 74 71
f 46 95 99
f 91 97 143
f 55 60 132
f 89 129 130
f 6 7 36
f 52 57 135
f 12 137 98
f 96 143 157
f 1 137 12
f 118 150 123
f 39 41 40
f 72 80 134
f 11 111 20
f 51 89 130
f 42 119 120
f 92 96 93
f 81 104 105
f 45 46 50
f 15 117 22
f 88 123 122
f 2 44 27
f 37 38 39
f 43 58 83
f 18 45 141
f 10 155 19
f 85 112 115
f 86 87 100
f 59 84 136
f 100 161 162
f 53 130 84
f 90 112 113
f 31 33 42
f 42 123 150
f 36 37 139
f 54 159 141
f 94 126 99
f 120 122 123
f 5 6 109
f 41 49 133
f 8 22 9
f 44 91 58
f 77 93 81
f 7 8 16
f 9 10 19
f 87 101 100
f 20 103 137
f 1 12 21
f 68 73 72
f 78 115 149
f 63 113 85
f 90 104 152
f 30 119 33
f 72 76 80
f 15 25 138
f 24 55 151
f 50 126 78
f 41 133 110
f 12 131 21
f 45 50 54
f 73 77 76
f 3 29 4
f 100 101 161
f 21 131 129
f 55 56 60
f 89 128 129
f 1 11 20
f 83 120 119
f 57 59 61
f 19 128 146
f 11 21 155
f 3 34 18
f 40 108 139
f 26 31 32
f 69 149 74
f 13 26 25
f 9 22 14
f 26 32 138
f 8 15 22
f 45 54 141
f 6 36 109
f 24 47 55
f 30 43 119
f 87 98 137
f 50 78 69
f 4 17 34
f 91 143 96
f 93 96 152
f 85 113 112
f 7 15 8
f 72 73 76
f 32 150 118
f 52 53 57
f 10 14 111
f 37 39 40
f 9 14 10
f 31 42 150
f 3 4 34
f 43 83 119
f 46 99 126
f 81 93 104
f 58 91 92
f 47 148 56
f 46 126 50
f 25 26 138
f 69 78 149
f 53 59 57
f 53 84 59
f 91 96 92
f 47 56 55
f 31 150 32
f 37 40 139
f 87 137 101
f 93 152 104
f 19 155 128
f 21 128 155
f 21 129 128
f 39 48 41
f 64 82 86
f 95 108 110
f 35 95 46
f 83 125 121
f 36 139 109
f 92 145 125
f 35 46 45
f 92 93 145
