v 0.000934323695 -8.87810864e-05 0.0633202997
v 6.26043621e-15 1.28150103e-14 -1.15713555e-11
v 0.0123606798 -1.99660547e-14 0.00195773934
v 0.0235114101 -2.70867841e-15 0.00763932022
v 0.032360684 1.03089003e-09 0.0164885849
v 0.0404128223 -0.000266100332 0.0256160989
v 0.0429913374 -0.000220001527 0.0366672495
v 0.040929641 -0.000112300223 0.0483870377
v 0.0349915841 -0.0002523946 0.0583965071
v 0.0255318382 -0.000345864386 0.064896312
v 0.0137678994 -0.000483858124 0.0643604144
v 0.00202371836 -0.0130354298 0.0637969708
v 0.0356804227 0.0112157972 0.0203463928
v 0.028824572 0.0114828724 0.0618944199
v 0.0409160944 0.0112213012 0.0421917442
v 0.0414569005 -0.0116510471 0.0428406129
v 0.0272352542 -0.0107926908 0.0127647457
v 0.00602530216 -0.0107926891 0.00195773933
v 0.0292904027 -0.0117160359 0.0605962863
v 0.00741141602 0.010320152 0.0640432174
v 0.0129109886 -0.0125513343 0.0650539795
v 0.0368096012 0.0119104935 0.0536340921
v 0.0293134808 0.0226551492 0.0561002563
v 0.0205527067 0.0218979444 0.0629287182
v 0.0406594656 0.0115619512 0.0310077664
v 0.0338901187 0.0219705557 0.0268406463
v 0.00602530218 0.0107926878 0.00195773987
v 0.0267201716 0.0204054689 0.0183285956
v 0.0187412114 0.0108997761 0.00638509252
v 0.0121311407 0.0203429005 0.00776644642
v 0.0246236279 0.0308272269 0.0240257206
v 0.0298990654 0.0302625426 0.0355143653
v 0.0164011498 0.0273257043 0.0158275256
v 0.0171129699 -0.0105219477 0.00541048023
v 0.0109998916 -0.0214982281 0.00811224832
v 0.0401938969 -0.0114925327 0.0313449344
v 0.0368087854 -0.0222537547 0.0363332606
v 0.0354581582 -0.0221791751 0.047211381
v 0.0291659249 -0.0314065138 0.0413599069
v 0.0295432839 -0.0300918242 0.0299141667
v 0.0200860172 -0.0373351576 0.0353983894
v 0.0130953939 0.0366677271 0.023536208
v -0.000191616144 0.0222890354 0.00678611168
v -0.0064403175 0.0107092016 0.00200216699
v -0.00163131819 -0.0200015102 0.00539828923
v 0.00288954285 -0.029088876 0.0126963687
v 0.0190886641 0.0311214557 0.0563116616
v 0.0186618829 -0.037166052 0.0469817483
v 0.00882116248 -0.0418370224 0.0401559124
v -0.00952381914 -0.0277001738 0.0127603683
v 0.00642031456 -0.0390227268 0.0507445462
v -0.00388755396 -0.0417829864 0.0440654148
v -0.00595165037 -0.0368608329 0.054724954
v -0.0139237052 -0.0172534826 0.00670664075
v 0.0093753955 0.0297585629 0.0621236855
v 0.00751624653 0.0368467378 0.0542199945
v -0.0156984804 -0.0372995373 0.0472738745
v -0.012986335 0.0211766706 0.0086487047
v -0.0175307772 -0.0309983912 0.057399402
v -0.00310659807 0.0334719586 0.0587510979
v -0.0263306891 -0.0300874909 0.0493889515
v -0.0270351562 -0.0218158591 0.0577481217
v -0.0348183176 -0.0194851036 0.0495954913
v -0.0340278476 -0.0107876546 0.0574451013
v -0.0399390575 -0.00607454674 0.0463071254
v -0.00494960102 0.03887326 0.0501627743
v -0.015341349 0.0333993903 0.0548716971
v -0.0169369527 0.0379984534 0.0444411491
v -0.0209276786 -0.0227956415 0.014654558
v -0.0144935551 0.0270129922 0.061938657
v -0.0247164376 -0.0114235488 0.0106981138
v -0.0259992289 0.0302178628 0.0490102925
v -0.0259419312 0.0329473072 0.0371997583
v -0.0317376172 -0.0173620167 0.0189406108
v -0.0322762394 -0.00503003747 0.0169144317
v -0.0341211361 0.0241047261 0.041021851
v -0.0325518306 0.0251078114 0.0298932493
v -0.0178195118 -0.0333536035 0.0220529596
v -0.014338237 0.038869625 0.0330186132
v -0.033712879 0.0195289271 0.0509869483
v -0.0388306519 0.0149772548 0.0339707892
v -0.0248204666 -0.0113256816 0.0642484447
v -0.00614986239 0.0303028665 0.0146245057
v -0.00692323362 -0.0288427782 0.0627244053
v -0.0325780222 -0.0260437947 0.0393743925
v -0.0291024317 0.000759747141 0.0622619607
v -0.0178899434 -0.00078079831 0.0670453107
v 0.00563703397 0.0413600649 0.0438918691
v 0.0162073408 -0.0324025918 0.0571222232
v -0.0387792999 -0.00799645403 0.0257992987
v -0.0183134764 0.00920714338 0.00565112678
v -0.0235549728 0.0178407598 0.0130394605
v -0.0348501389 0.0149281892 0.0217188183
v -0.000824483382 -0.0412189859 0.0310199791
v 0.0148619782 -0.0285856924 0.0162938763
v -0.0287293094 0.00619501087 0.0128660913
v -0.0116733889 -0.000655211788 0.00174686039
v -0.012785096 -0.0126320457 0.0650021734
v 0.00674084942 -0.0367888157 0.0210837979
v -0.0234107911 0.0108758171 0.0649135733
v -0.0107358061 0.00960282226 0.0648714761
v 0.0266207617 0.0316836956 0.0474558252
v -0.00159044903 0.0152370773 0.0643895051
v -0.0398429713 0.0043855664 0.0281664427
v -0.0416219295 0.00487175425 0.0392562501
v 0.0376265753 -0.0118066403 0.0525285128
v 0.0206217816 -0.0195561166 0.0118521623
v 0.0276638339 -0.0247673437 0.0192560859
v 0.0359459801 -0.0106089242 0.0202554067
v 0.0190658077 -0.0349092436 0.0247756887
v 0.0202812718 0.00893049324 0.0662286209
v -0.03473112 -0.0214347306 0.0286516173
v -0.0394246216 -0.0139331025 0.0372142545
v -0.038722418 0.00643869661 0.0498767655
v -0.0268746196 -0.0310242927 0.0305256889
v 0.0265675981 0.00999667805 0.0118179225
v 0.0354276432 0.0215165485 0.0466577654
v 0.0196148953 0.0378840167 0.0400213203
v 0.00567124794 0.0312457617 0.0156784107
v -0.000450121815 0.0394403549 0.0244424986
v -0.0124137482 0.0355712614 0.0223294301
v -0.00222108978 0.0417249378 0.0351264075
v 0.00965044702 0.0406047698 0.0331236644
v -0.0227065844 0.0324969475 0.0263144966
v -0.0175257117 0.027848467 0.0172554915
v -0.00490012933 -0.0364498434 0.0201761744
v 0.0264886979 -0.0298776646 0.0521791071
v 0.0234103389 -0.0215251048 0.0608025413
v 0.0109747204 -0.0253325351 0.0637444561
v 0.00469243916 -0.0346522466 0.0583605539
v 0.000774983747 -0.0216040383 0.0642508332
v -0.00200369011 0.0256615366 0.0634009612
v 0.0111810149 -0.0400045428 0.030279707
v -0.0251395322 0.0247416721 0.0572365781
v -0.0129981217 -0.0402380847 0.0368595548
v -0.0194581221 -0.0222549554 0.0631805535
v -0.0102422051 -0.00032306719 0.0624346803
v 0.0375253712 0.0200195587 0.0364886719
v 0.0359470664 -0.0208029477 0.0271550506
v -0.0233393775 -0.0348175602 0.0390357238
v -0.00635163874 -0.00907876651 0.00156521517
v -0.0318351255 0.0116352846 0.0591559182
v -0.020749975 -0.000433768598 0.00580569642
v -0.0111223333 -0.0389587465 0.0273844731
v -0.027766317 0.0245577634 0.0211714854
v 0.0318574094 -0.0207554556 0.0551464026
v -0.0384474668 0.0142211733 0.0432144475
v 0.0163740156 0.0371950659 0.0490162289
v -0.0269837809 -0.0262484918 0.022108664
v 0.0199230127 0.0364983081 0.0308233031
v 0.0104345308 0.021319735 0.0651166935
v -0.0358359029 0.0040375545 0.0193021358
v 0.0206521284 0.0182482066 0.011008747
v -0.0361901744 -0.000267728003 0.0563774239
v 0.0227359405 -0.00899104714 0.0656253648
v -0.0416203302 -0.00426428038 0.0348251231
v -0.0274374239 -0.00212750025 0.0109713675
v -0.00718417818 0.0410486394 0.0425462831
v -0.0168965499 -0.00861180908 0.00478149131
v -0.0189318979 -0.0366951102 0.0310330666
v -0.0152131637 0.0180365851 0.0657695195
v -0.0220732734 0.0188758816 0.0627397242
f 39 127 48
f 64 86 154
f 66 158 68
f 80 142 134
f 97 159 143
f 64 154 65
f 115 160 140
f 134 142 162
f 71 157 143
f 66 68 67
f 24 151 111
f 68 158 79
f 71 143 159
f 5 116 13
f 38 127 39
f 63 64 65
f 86 142 154
f 28 153 33
f 74 90 75
f 27 30 29
f 102 118 148
f 114 154 142
f 38 146 127
f 103 151 132
f 70 162 161
f 61 85 140
f 135 140 160
f 71 75 157
f 19 146 106
f 70 134 162
f 78 144 160
f 80 114 142
f 80 147 114
f 61 62 63
f 135 160 144
f 17 108 107
f 29 30 153
f 4 116 5
f 49 52 94
f 70 161 132
f 65 105 156
f 12 98 131
f 30 33 153
f 48 127 89
f 75 96 157
f 65 154 114
f 60 66 67
f 81 105 147
f 16 106 38
f 71 74 75
f 67 134 70
f 76 81 147
f 34 107 35
f 103 132 161
f 13 116 28
f 38 106 146
f 28 116 153
f 95 110 99
f 43 44 58
f 66 88 158
f 94 135 144
f 48 51 49
f 29 153 116
f 2 18 141
f 88 148 118
f 62 64 63
f 77 124 145
f 52 135 94
f 54 71 159
f 5 13 6
f 62 82 64
f 57 140 135
f 79 121 124
f 58 125 83
f 14 23 24
f 23 102 47
f 105 114 147
f 67 72 134
f 59 136 62
f 60 67 70
f 85 115 140
f 7 16 36
f 49 51 52
f 56 88 66
f 121 125 124
f 60 70 132
f 6 25 7
f 16 38 37
f 65 114 105
f 95 107 108
f 35 107 95
f 18 35 45
f 2 141 97
f 18 34 35
f 67 68 72
f 97 141 159
f 79 158 122
f 108 109 139
f 124 125 145
f 9 19 106
f 16 37 36
f 17 109 108
f 73 79 124
f 100 162 142
f 84 98 136
f 74 112 90
f 84 131 98
f 54 69 71
f 79 120 121
f 94 99 133
f 59 62 61
f 82 87 86
f 22 117 23
f 20 111 151
f 62 136 82
f 65 156 113
f 73 124 77
f 56 66 60
f 61 63 85
f 76 147 80
f 76 77 81
f 32 102 117
f 82 98 87
f 57 61 140
f 48 89 51
f 10 11 155
f 2 3 18
f 112 149 115
f 20 151 103
f 28 33 31
f 82 136 98
f 101 137 103
f 127 146 128
f 27 43 30
f 1 20 137
f 2 27 3
f 27 44 43
f 89 127 128
f 104 156 105
f 79 122 120
f 77 145 93
f 23 47 24
f 84 130 129
f 10 111 11
f 32 118 102
f 14 24 111
f 14 22 23
f 88 122 158
f 5 109 17
f 32 117 138
f 4 5 17
f 3 27 29
f 75 152 96
f 49 94 133
f 55 132 151
f 88 118 123
f 6 13 25
f 51 53 52
f 26 28 31
f 23 117 102
f 101 103 161
f 41 48 49
f 44 97 91
f 8 9 106
f 74 149 112
f 94 144 126
f 78 160 115
f 68 79 73
f 4 29 116
f 83 121 120
f 13 28 26
f 90 156 104
f 33 119 42
f 51 130 53
f 8 106 16
f 15 138 117
f 86 100 142
f 2 97 44
f 1 21 11
f 90 113 156
f 56 148 88
f 40 110 108
f 50 69 54
f 17 107 34
f 7 25 15
f 42 120 123
f 58 92 125
f 75 90 152
f 84 129 131
f 40 41 110
f 47 102 148
f 99 110 133
f 63 65 113
f 78 126 144
f 69 74 71
f 46 95 99
f 91 97 143
f 55 60 132
f 89 129 130
f 6 7 36
f 52 57 135
f 12 137 98
f 96 143 157
f 1 137 12
f 118 150 123
f 39 41 40
f 72 80 134
f 11 111 20
f 51 89 130
f 42 119 120
f 92 96 93
f 81 104 105
f 45 46 50
f 15 117 22
f 88 123 122
f 2 44 27
f 37 38 39
f 43 58 83
f 18 45 141
f 10 155 19
f 85 112 115
f 86 87 100
f 59 84 136
f 100 161 162
f 53 130 84
f 90 112 113
f 31 33 42
f 42 123 150
f 36 37 139
f 54 159 141
f 94 126 99
f 120 122 123
f 5 6 109
f 41 49 133
f 8 22 9
f 44 91 58
f 77 93 81
f 7 8 16
f 9 10 19
f 87 101 100
f 20 103 137
f 1 12 21
f 68 73 72
f 78 115 149
f 63 113 85
f 90 104 152
f 30 119 33
f 72 76 80
f 15 25 138
f 24 55 151
f 50 126 78
f 41 133 110
f 12 131 21
f 45 50 54
f 73 77 76
f 3 29 4
f 100 101 161
f 21 131 129
f 55 56 60
f 89 128 129
f 1 11 20
f 83 120 119
f 57 59 61
f 19 128 146
f 11 21 155
f 3 34 18
f 40 108 139
f 26 31 32
f 69 149 74
f 13 26 25
f 9 22 14
f 26 32 138
f 8 15 22
f 45 54 141
f 6 36 109
f 24 47 55
f 30 43 119
f 87 98 137
f 50 78 69
f 4 17 34
f 91 143 96
f 93 96 152
f 85 113 112
f 7 15 8
f 72 73 76
f 32 150 118
f 52 53 57
f 10 14 111
f 37 39 40
f 9 14 10
f 31 42 150
f 3 4 34
f 43 83 119
f 46 99 126
f 81 93 104
f 58 91 92
f 47 148 56
f 46 126 50
f 25 26 138
f 69 78 149
f 53 59 57
f 53 84 59
f 91 96 92
f 47 56 55
f 31 150 32
f 37 40 139
f 87 137 101
f 93 152 104
f 19 155 128
f 21 128 155
f 21 129 128
f 39 48 41
f 64 82 86
f 95 108 110
f 35 95 46
f 83 125 121
f 36 139 109
f 92 145 125
f 35 46 45
f 92 93 145
