v -0.000639659084 -0.000544055603 0.0743798562
v 1.76320868e-10 3.47150187e-11 -8.01121662e-10
v 0.0123606802 1.16269217e-10 0.00195773843
v 0.0235114107 -1.67627321e-11 0.00763931862
v 0.0330538028 -0.000200687086 0.015315603
v 0.0386532437 -0.000301873023 0.0260663326
v 0.0403374135 -0.000408075506 0.0380932823
v 0.0380596636 -0.00054842783 0.0502200627
v 0.0320483503 -0.00066013164 0.061056549
v 0.0231602051 -0.000710961548 0.0695484697
v 0.0119890924 -0.00067173304 0.0746804201
v -1.35532932e-05 -0.0135387189 0.0743758768
v 0.0345822569 0.0109922167 0.02043073
v 0.0255917902 0.0105714845 0.0656980212
v 0.0382094676 0.0104980428 0.0440140949
v 0.0381900202 -0.0114487504 0.0439520565
v 0.0278655739 -0.011162636 0.0116127233
v 0.00602530247 -0.0107926892 0.00195773858
v 0.0267598159 -0.0115711733 0.0644764971
v 0.00541380626 0.0105035142 0.0747428049
v 0.0112582265 -0.0129632342 0.0730401469
v 0.0336516493 0.0108325598 0.0559570319
v 0.026475976 0.0210395437 0.0584432461
v 0.0176606983 0.0203176241 0.0663831666
v 0.0384397158 0.0108765334 0.0322131683
v 0.0326498984 0.0211175469 0.0275034646
v 0.00602530235 0.0107926888 0.00195773872
v 0.0272690233 0.0207833615 0.0170509629
v 0.0187412134 0.010899777 0.00638509425
v 0.012131142 0.0203429002 0.0077664469
v 0.0237436787 0.0297037929 0.0245242975
v 0.0279954055 0.0287903886 0.0366019409
v 0.0167397655 0.0278720722 0.0146663695
v 0.0171129702 -0.010521948 0.00541047897
v 0.0109998932 -0.0214982303 0.00811225023
v 0.0383860687 -0.0113155123 0.0319778102
v 0.0343765112 -0.0215204186 0.0374312778
v 0.0324802373 -0.0212950385 0.0487071242
v 0.0267914819 -0.0301227683 0.0427351335
v 0.0276312598 -0.0290790795 0.0309147614
v 0.018548479 -0.0362755224 0.0361277704
v 0.0124634878 0.0355415883 0.0232632004
v -0.000191616098 0.0222890358 0.00678611298
v -0.00644031714 0.010709202 0.0020021661
v -0.00163131778 -0.0200015133 0.00539828876
v 0.00286121784 -0.0296297775 0.0110346284
v 0.016671561 0.0291025945 0.0587937362
v 0.0166551459 -0.0355935959 0.0480712947
v 0.00737386026 -0.040234402 0.0409260368
v -0.00977448387 -0.0285863533 0.0111842584
v 0.00504820296 -0.0374300408 0.0524286144
v -0.00461552029 -0.0400549311 0.04502393
v -0.00683737421 -0.0353622274 0.0563148055
v -0.0139237073 -0.0172534853 0.00670664047
v 0.00703844353 0.0275456525 0.0651679819
v 0.00564074188 0.0346422371 0.0563477401
v -0.0161962875 -0.036034433 0.0481011628
v -0.0129863368 0.021176673 0.00864870452
v -0.0179129564 -0.0297219976 0.0587019288
v -0.00462431085 0.0313240148 0.0616170714
v -0.0264689577 -0.0288876208 0.0497479156
v -0.0269985975 -0.020989153 0.059321523
v -0.034397804 -0.0189205389 0.0496549701
v -0.033535626 -0.0104249492 0.0579767916
v -0.0394889614 -0.00596301915 0.0463046508
v -0.00589317788 0.0371074997 0.051687399
v -0.0159042983 0.0314690422 0.0565405422
v -0.0168118005 0.0359065051 0.0452273338
v -0.0214101208 -0.0232572704 0.0126003217
v -0.015278588 0.0251120994 0.0644818242
v -0.0255857614 -0.0115658225 0.00934876436
v -0.0258978007 0.0287486717 0.0495213707
v -0.0255184751 0.0315405958 0.037454197
v -0.0315053852 -0.0170222341 0.0180354937
v -0.0332181441 -0.00513847783 0.0150336403
v -0.0334670581 0.0228896745 0.0411421063
v -0.0318605401 0.0241845388 0.0297112353
v -0.0179620046 -0.0328671369 0.0211479547
v -0.0145006848 0.0375277652 0.033042793
v -0.0333064264 0.0183526776 0.0516489357
v -0.038189813 0.0142821998 0.0335284796
v -0.0246240261 -0.0114427418 0.0670194978
v -0.00622831998 0.0308708701 0.0135527916
v -0.0079174536 -0.0274473058 0.0657544256
v -0.03231404 -0.0255120804 0.0391034225
v -0.029539969 -2.50322749e-05 0.0647544596
v -0.0197220328 -0.00124366208 0.0720391825
v 0.00457968422 0.0392884046 0.0450063282
v 0.0138544181 -0.0310058376 0.0590912682
v -0.0382726111 -0.00781699697 0.0247950083
v -0.0183134774 0.00920714395 0.00565112513
v -0.0241446994 0.0181630668 0.0118243265
v -0.0342221911 0.01452796 0.0208600097
v -0.00155039105 -0.0405455941 0.0310220726
v 0.0149879748 -0.0293746336 0.0147612342
v -0.0294783867 0.00636682203 0.0111953137
v -0.0116733887 -0.000655211801 0.00174685946
v -0.0135014745 -0.0123641016 0.072623579
v 0.00645517568 -0.03640644 0.0206335363
v -0.0234760227 0.0100339601 0.0681567057
v -0.0121957957 0.00884638709 0.0738537446
v 0.0240020377 0.0297265879 0.0491748829
v -0.00371633984 0.0142123137 0.0737629508
v -0.0394297407 0.00420465633 0.0275397167
v -0.0407157359 0.0046171723 0.0390771525
v 0.0344321894 -0.0115024765 0.0545314233
v 0.0211651517 -0.0201084117 0.0107780886
v 0.0263522889 -0.0245877532 0.0192628828
v 0.034819097 -0.01080714 0.0203699218
v 0.0180990238 -0.0342420689 0.0250405362
v 0.0172351519 0.00801965734 0.0718732338
v -0.0342462283 -0.0208390597 0.0282454688
v -0.0388520449 -0.0134877796 0.0367991875
v -0.0382129609 0.00601949561 0.0504273346
v -0.0268189164 -0.0303344856 0.0299066037
v 0.0271289665 0.0102174332 0.0111102593
v 0.0327296979 0.0202354231 0.0484201994
v 0.0179830296 0.0357616318 0.0408993529
v 0.00579281486 0.0318364267 0.0145644712
v -0.000726816358 0.0380526123 0.0242962533
v -0.0124664254 0.0348051827 0.021634734
v -0.00274644379 0.0401110011 0.0355176088
v 0.00876311166 0.0389443404 0.0335965536
v -0.0225556307 0.0316182036 0.0259926739
v -0.0179209869 0.0283427707 0.0159509562
v -0.00500084246 -0.0361139243 0.0195002137
v 0.0236498628 -0.0281823395 0.0539760632
v 0.0205352293 -0.0209931607 0.0645012755
v 0.00868498045 -0.0242268478 0.0679277345
v 0.00303158168 -0.0329009157 0.060663359
v -0.00104814152 -0.0209244442 0.0711371339
v -0.00405647998 0.0239855834 0.0686800825
v 0.0101290455 -0.0389927288 0.0306267075
v -0.0254094568 0.0233642429 0.0582462507
v -0.0133284565 -0.0390092324 0.0372371492
v -0.0193842728 -0.021292862 0.0656377178
v -0.0126658091 -0.000842621007 0.0746205271
v 0.0353790958 0.0190814684 0.0378019926
v 0.0337633775 -0.0203261341 0.027973838
v -0.0233261494 -0.0338904987 0.0390899065
v -0.00635163904 -0.00907876672 0.00156521391
v -0.0313102615 0.0105988194 0.0606268988
v -0.0207499772 -0.000433769806 0.00580569624
v -0.0114503081 -0.038147098 0.0270815028
v -0.0274467525 0.0242954866 0.0203153737
v 0.0286355134 -0.0197312661 0.0575218076
v -0.0380015853 0.0135806884 0.0433442447
v 0.0143225649 0.034891146 0.0507862879
v -0.0269383427 -0.0257968042 0.0209482575
v 0.0186326573 0.0350485605 0.0312306959
v 0.00793922183 0.0195800527 0.0706192398
v -0.0357516336 0.00399206918 0.0184202284
v 0.0210228352 0.0184077477 0.0103161509
v -0.035588802 -0.000519983575 0.0571765283
v 0.0201863946 -0.00898243923 0.0703253915
v -0.0407268522 -0.00410107078 0.0342102419
v -0.0281620597 -0.0021021852 0.00968973838
v -0.00782694279 0.0391721518 0.0431511693
v -0.0168965515 -0.00861180974 0.00478149117
v -0.0191161911 -0.0358894125 0.0307518277
v -0.0160117811 0.0164181936 0.0698725311
v -0.0223848372 0.017885646 0.0653531123
f 39 127 48
f 64 86 154
f 66 158 68
f 80 142 134
f 97 159 143
f 64 154 65
f 115 160 140
f 134 142 162
f 71 157 143
f 66 68 67
f 24 151 111
f 68 158 79
f 71 143 159
f 5 116 13
f 38 127 39
f 63 64 65
f 86 142 154
f 28 153 33
f 74 90 75
f 27 30 29
f 102 118 148
f 114 154 142
f 38 146 127
f 103 151 132
f 70 162 161
f 61 85 140
f 135 140 160
f 71 75 157
f 19 146 106
f 70 134 162
f 78 144 160
f 80 114 142
f 80 147 114
f 61 62 63
f 135 160 144
f 17 108 107
f 29 30 153
f 4 116 5
f 49 52 94
f 70 161 132
f 65 105 156
f 12 98 131
f 30 33 153
f 48 127 89
f 75 96 157
f 65 154 114
f 60 66 67
f 81 105 147
f 16 106 38
f 71 74 75
f 67 134 70
f 76 81 147
f 34 107 35
f 103 132 161
f 13 116 28
f 38 106 146
f 28 116 153
f 95 110 99
f 43 44 58
f 66 88 158
f 94 135 144
f 48 51 49
f 29 153 116
f 2 18 141
f 88 148 118
f 62 64 63
f 77 124 145
f 52 135 94
f 54 71 159
f 5 13 6
f 62 82 64
f 57 140 135
f 79 121 124
f 58 125 83
f 14 23 24
f 23 102 47
f 105 114 147
f 67 72 134
f 59 136 62
f 60 67 70
f 85 115 140
f 7 16 36
f 49 51 52
f 56 88 66
f 121 125 124
f 60 70 132
f 6 25 7
f 16 38 37
f 65 114 105
f 95 107 108
f 35 107 95
f 18 35 45
f 2 141 97
f 18 34 35
f 67 68 72
f 97 141 159
f 79 158 122
f 108 109 139
f 124 125 145
f 9 19 106
f 16 37 36
f 17 109 108
f 73 79 124
f 100 162 142
f 84 98 136
f 74 112 90
f 84 131 98
f 54 69 71
f 79 120 121
f 94 99 133
f 59 62 61
f 82 87 86
f 22 117 23
f 20 111 151
f 62 136 82
f 65 156 113
f 73 124 77
f 56 66 60
f 61 63 85
f 76 147 80
f 76 77 81
f 32 102 117
f 82 98 87
f 57 61 140
f 48 89 51
f 10 11 155
f 2 3 18
f 112 149 115
f 20 151 103
f 28 33 31
f 82 136 98
f 101 137 103
f 127 146 128
f 27 43 30
f 1 20 137
f 2 27 3
f 27 44 43
f 89 127 128
f 104 156 105
f 79 122 120
f 77 145 93
f 23 47 24
f 84 130 129
f 10 111 11
f 32 118 102
f 14 24 111
f 14 22 23
f 88 122 158
f 5 109 17
f 32 117 138
f 4 5 17
f 3 27 29
f 75 152 96
f 49 94 133
f 55 132 151
f 88 118 123
f 6 13 25
f 51 53 52
f 26 28 31
f 23 117 102
f 101 103 161
f 41 48 49
f 44 97 91
f 8 9 106
f 74 149 112
f 94 144 126
f 78 160 115
f 68 79 73
f 4 29 116
f 83 121 120
f 13 28 26
f 90 156 104
f 33 119 42
f 51 130 53
f 8 106 16
f 15 138 117
f 86 100 142
f 2 97 44
f 1 21 11
f 90 113 156
f 56 148 88
f 40 110 108
f 50 69 54
f 17 107 34
f 7 25 15
f 42 120 123
f 58 92 125
f 75 90 152
f 84 129 131
f 40 41 110
f 47 102 148
f 99 110 133
f 63 65 113
f 78 126 144
f 69 74 71
f 46 95 99
f 91 97 143
f 55 60 132
f 89 129 130
f 6 7 36
f 52 57 135
f 12 137 98
f 96 143 157
f 1 137 12
f 118 150 123
f 39 41 40
f 72 80 134
f 11 111 20
f 51 89 130
f 42 119 120
f 92 96 93
f 81 104 105
f 45 46 50
f 15 117 22
f 88 123 122
f 2 44 27
f 37 38 39
f 43 58 83
f 18 45 141
f 10 155 19
f 85 112 115
f 86 87 100
f 59 84 136
f 100 161 162
f 53 130 84
f 90 112 113
f 31 33 42
f 42 123 150
f 36 37 139
f 54 159 141
f 94 126 99
f 120 122 123
f 5 6 109
f 41 49 133
f 8 22 9
f 44 91 58
f 77 93 81
f 7 8 16
f 9 10 19
f 87 101 100
f 20 103 137
f 1 12 21
f 68 73 72
f 78 115 149
f 63 113 85
f 90 104 152
f 30 119 33
f 72 76 80
f 15 25 138
f 24 55 151
f 50 126 78
f 41 133 110
f 12 131 21
f 45 50 54
f 73 77 76
f 3 29 4
f 100 101 161
f 21 131 129
f 55 56 60
f 89 128 129
f 1 11 20
f 83 120 119
f 57 59 61
f 19 128 146
f 11 21 155
f 3 34 18
f 40 108 139
f 26 31 32
f 69 149 74
f 13 26 25
f 9 22 14
f 26 32 138
f 8 15 22
f 45 54 141
f 6 36 109
f 24 47 55
f 30 43 119
f 87 98 137
f 50 78 69
f 4 17 34
f 91 143 96
f 93 96 152
f 85 113 112
f 7 15 8
f 72 73 76
f 32 150 118
f 52 53 57
f 10 14 111
f 37 39 40
f 9 14 10
f 31 42 150
f 3 4 34
f 43 83 119
f 46 99 126
f 81 93 104
f 58 91 92
f 47 148 56
f 46 126 50
f 25 26 138
f 69 78 149
f 53 59 57
f 53 84 59
f 91 96 92
f 47 56 55
f 31 150 32
f 37 40 139
f 87 137 101
f 93 152 104
f 19 155 128
f 21 128 155
f 21 129 128
f 39 48 41
f 64 82 86
f 95 108 110
f 35 95 46
f 83 125 121
f 36 139 109
f 92 145 125
f 35 46 45
f 92 93 145
