v -0.00102293391 -0.000588554941 0.0542539083
v 3.99850572e-10 4.64635709e-11 -1.54422229e-09
v 0.0123606807 2.19936385e-10 0.00195773767
v 0.0235114113 -1.43855628e-10 0.00763931698
v 0.0339723674 -0.000346427072 0.013816297
v 0.0398587813 -0.000374990228 0.023965463
v 0.0416464549 -0.000337754967 0.0354025492
v 0.0392322548 -0.000288520023 0.0471868096
v 0.0330308038 -0.000290238351 0.0574340746
v 0.0243686489 -0.000396965134 0.0649071259
v 0.0127882858 -0.000828326595 0.0667914637
v 9.325696e-05 -0.0135515601 0.0680955579
v 0.0357311637 0.011231974 0.018340954
v 0.0271527714 0.0115285527 0.0611081785
v 0.0394605136 0.0109549656 0.0409578693
v 0.0394825575 -0.0116054095 0.0414808557
v 0.0285080612 -0.0115400612 0.0103624183
v 0.00602530277 -0.0107926894 0.00195773814
v 0.0274832743 -0.0115290304 0.0604840064
v 0.00582878067 0.00925541101 0.0601026557
v 0.0120399089 -0.0130509178 0.0680573917
v 0.0348920264 0.0115663396 0.0524059835
v 0.0274732427 0.0221690643 0.0547316227
v 0.0185406382 0.0215647805 0.0620046527
v 0.0397263963 0.0113267236 0.0295629514
v 0.0336659063 0.0217827766 0.0250044326
v 0.00602530247 0.0107926882 0.0019577382
v 0.0281313396 0.0214305061 0.0150906113
v 0.018741214 0.0108997768 0.00638509295
v 0.0121311422 0.0203429016 0.00776644542
v 0.0245703382 0.0306669432 0.0220190949
v 0.0289489063 0.029743075 0.033682804
v 0.0172128751 0.028667812 0.0128581251
v 0.0171129705 -0.0105219484 0.00541047786
v 0.0109998936 -0.0214982309 0.00811224907
v 0.0393611089 -0.0116609225 0.0298162068
v 0.0353731399 -0.0220744608 0.0350902289
v 0.033524434 -0.0216881509 0.0461001405
v 0.0275828112 -0.030836802 0.0403194609
v 0.0283810041 -0.0298593189 0.0286871422
v 0.0189555949 -0.0370077646 0.0341282762
v 0.012923619 0.0366660771 0.0207481287
v -0.000191616156 0.0222890365 0.00678611155
v -0.00644031677 0.0107092025 0.00200216527
v -0.00163131785 -0.0200015141 0.00539828751
v 0.0029367225 -0.0300074105 0.00969447964
v 0.0173496863 0.0304256417 0.0549251132
v 0.0171020096 -0.0363153247 0.0458218336
v 0.0076455671 -0.0412561316 0.0388274914
v -0.00985911959 -0.0292596443 0.0100227274
v 0.00509786358 -0.0381072997 0.049694506
v -0.00479829173 -0.0409602349 0.0425964715
v -0.00698698954 -0.0358927776 0.0535203496
v -0.0139237077 -0.0172534863 0.00670663923
v 0.00750048032 0.0294648751 0.060850436
v 0.00602657843 0.0361037169 0.0524686692
v -0.0164745294 -0.0365911495 0.0455439069
v -0.0129863374 0.0211766736 0.00864870319
v -0.0183013123 -0.0301752561 0.0558630543
v -0.00462056839 0.0329746082 0.0574037709
v -0.026976126 -0.0294781556 0.0473793994
v -0.0275742776 -0.0211907696 0.0562050395
v -0.0352664661 -0.0192305619 0.0472908348
v -0.0344130756 -0.0104164392 0.0551050801
v -0.0402955118 -0.00595031526 0.0436134851
v -0.00604853839 0.0384276018 0.0481913149
v -0.016259152 0.0327440494 0.052747803
v -0.017418981 0.0372237195 0.041966482
v -0.0216901402 -0.0236120441 0.0110031924
v -0.0158368997 0.0266254841 0.0603383021
v -0.0263211523 -0.0117353872 0.00815264709
v -0.0266358469 0.0298238182 0.0464096326
v -0.0262494683 0.0324494867 0.0345692707
v -0.0322347951 -0.0174677218 0.0162376955
v -0.0340645515 -0.00523696083 0.0134028615
v -0.0343534965 0.023671461 0.0381939357
v -0.0328018399 0.0247602372 0.0269371081
v -0.0183763608 -0.0334609213 0.0194033928
v -0.0146963502 0.0385984792 0.0303573327
v -0.0341871679 0.0191889932 0.0484268723
v -0.0391921971 0.0147693727 0.0309240482
v -0.0252679497 -0.0111533795 0.0632058276
v -0.00631923798 0.0315565371 0.0121601449
v -0.00803991967 -0.0278229286 0.0622050335
v -0.0330610846 -0.0259228825 0.0370030659
v -0.0302404599 0.000538407688 0.0608056088
v -0.0203298422 -0.000631220101 0.0671214946
v 0.0047700973 0.0407374406 0.041865819
v 0.0143094744 -0.031382083 0.0561828995
v -0.0392739436 -0.00795988212 0.0226589731
v -0.0183134783 0.00920714452 0.00565112353
v -0.0247197066 0.0184777996 0.0104864673
v -0.035098831 0.0148324899 0.0183353038
v -0.00155300505 -0.0413454168 0.0292351029
v 0.0152031957 -0.0301019413 0.0133803958
v -0.0301433855 0.00649795485 0.00949657939
v -0.0116733884 -0.000655211857 0.00174685871
v -0.0139540518 -0.0125238192 0.0674184198
v 0.00642874019 -0.0371634413 0.0189678412
v -0.0243897935 0.0108441963 0.0637230003
v -0.012982389 0.0103436278 0.0674768251
v 0.0248913253 0.0308610971 0.0457664425
v -0.00394575982 0.0160034844 0.0671886562
v -0.040352947 0.00436924375 0.025219661
v -0.0417920707 0.00478156999 0.0364336825
v 0.0354696749 -0.0115426236 0.0514997069
v 0.0217123234 -0.0206674397 0.00959673409
v 0.0269981991 -0.0253244441 0.0174294584
v 0.0357978816 -0.0111791945 0.0185289424
v 0.0184053734 -0.0350976352 0.0232735247
v 0.0191953751 0.00868517253 0.0658925504
v -0.0350454719 -0.0212433828 0.0261517405
v -0.0397274475 -0.0137953204 0.034515706
v -0.0391934432 0.00641475954 0.0473608489
v -0.0274717264 -0.0308760247 0.0280022248
v 0.0279161658 0.0105105637 0.0100395999
v 0.0338070346 0.021065009 0.0451649143
v 0.0186225124 0.0370253793 0.0378135922
v 0.0059698987 0.032642306 0.0129053241
v -0.00070647935 0.03912094 0.0217135854
v -0.0128191939 0.035671605 0.0195443724
v -0.00274805184 0.0411869321 0.0326922314
v 0.00902613035 0.0398948138 0.0307921383
v -0.023175923 0.0324875497 0.0236552571
v -0.0183319601 0.0289731705 0.0143606079
v -0.00509356003 -0.036834482 0.0179578035
v 0.0244232743 -0.0287108952 0.051152048
v 0.0211316066 -0.021038315 0.0607185404
v 0.00904194545 -0.0243380507 0.0640334619
v 0.00322407412 -0.033464881 0.0575612057
v -0.000936910681 -0.0209549009 0.0662239826
v -0.00421695763 0.025866259 0.0636729977
v 0.0103049531 -0.0398322688 0.0287230396
v -0.0260117647 0.0244155151 0.0548058744
v -0.0137320442 -0.0398754841 0.0349532139
v -0.0200020164 -0.0215548042 0.0621466722
v -0.0130921132 8.64901184e-05 0.0660180032
v 0.0365491986 0.0197563143 0.0349642992
v 0.0347841193 -0.0209408519 0.0257838206
v -0.0239013346 -0.034449863 0.0368734923
v -0.00635163938 -0.00907876692 0.00156521281
v -0.0323054974 0.0113658809 0.0570278881
v -0.0207499783 -0.000433769917 0.00580569542
v -0.0117387029 -0.0389994218 0.0251541764
v -0.0281744609 0.0249046925 0.0181530253
v 0.0295442224 -0.020014986 0.0543996607
v -0.0388645106 0.0140475679 0.0404007826
v 0.0150026588 0.0362710222 0.0472175162
v -0.0274117069 -0.0262795027 0.0191373415
v 0.0192223366 0.0360913068 0.0284512423
v 0.00834403513 0.0216703184 0.0650202124
v -0.0367217309 0.00408548144 0.0162570904
v 0.0215570443 0.018651476 0.00922881367
v -0.0366295667 -0.000186818592 0.0540674452
v 0.0210827108 -0.00891963349 0.0658917678
v -0.0417471391 -0.00425804578 0.0318376995
v -0.0287800562 -0.00211253883 0.00849535856
v -0.00799160504 0.040520906 0.0401914539
v -0.0168965517 -0.00861181004 0.00478149061
v -0.0195848869 -0.0365975709 0.0287277486
v -0.0167238593 0.0179156083 0.0651033872
v -0.023155464 0.0188557021 0.061186832
f 39 127 48
f 64 86 154
f 66 158 68
f 80 142 134
f 97 159 143
f 64 154 65
f 115 160 140
f 134 142 162
f 71 157 143
f 66 68 67
f 24 151 111
f 68 158 79
f 71 143 159
f 5 116 13
f 38 127 39
f 63 64 65
f 86 142 154
f 28 153 33
f 74 90 75
f 27 30 29
f 102 118 148
f 114 154 142
f 38 146 127
f 103 151 132
f 70 162 161
f 61 85 140
f 135 140 160
f 71 75 157
f 19 146 106
f 70 134 162
f 78 144 160
f 80 114 142
f 80 147 114
f 61 62 63
f 135 160 144
f 17 108 107
f 29 30 153
f 4 116 5
f 49 52 94
f 70 161 132
f 65 105 156
f 12 98 131
f 30 33 153
f 48 127 89
f 75 96 157
f 65 154 114
f 60 66 67
f 81 105 147
f 16 106 38
f 71 74 75
f 67 134 70
f 76 81 147
f 34 107 35
f 103 132 161
f 13 116 28
f 38 106 146
f 28 116 153
f 95 110 99
f 43 44 58
f 66 88 158
f 94 135 144
f 48 51 49
f 29 153 116
f 2 18 141
f 88 148 118
f 62 64 63
f 77 124 145
f 52 135 94
f 54 71 159
f 5 13 6
f 62 82 64
f 57 140 135
f 79 121 124
f 58 125 83
f 14 23 24
f 23 102 47
f 105 114 147
f 67 72 134
f 59 136 62
f 60 67 70
f 85 115 140
f 7 16 36
f 49 51 52
f 56 88 66
f 121 125 124
f 60 70 132
f 6 25 7
f 16 38 37
f 65 114 105
f 95 107 108
f 35 107 95
f 18 35 45
f 2 141 97
f 18 34 35
f 67 68 72
f 97 141 159
f 79 158 122
f 108 109 139
f 124 125 145
f 9 19 106
f 16 37 36
f 17 109 108
f 73 79 124
f 100 162 142
f 84 98 136
f 74 112 90
f 84 131 98
f 54 69 71
f 79 120 121
f 94 99 133
f 59 62 61
f 82 87 86
f 22 117 23
f 20 111 151
f 62 136 82
f 65 156 113
f 73 124 77
f 56 66 60
f 61 63 85
f 76 147 80
f 76 77 81
f 32 102 117
f 82 98 87
f 57 61 140
f 48 89 51
f 10 11 155
f 2 3 18
f 112 149 115
f 20 151 103
f 28 33 31
f 82 136 98
f 101 137 103
f 127 146 128
f 27 43 30
f 1 20 137
f 2 27 3
f 27 44 43
f 89 127 128
f 104 156 105
f 79 122 120
f 77 145 93
f 23 47 24
f 84 130 129
f 10 111 11
f 32 118 102
f 14 24 111
f 14 22 23
f 88 122 158
f 5 109 17
f 32 117 138
f 4 5 17
f 3 27 29
f 75 152 96
f 49 94 133
f 55 132 151
f 88 118 123
f 6 13 25
f 51 53 52
f 26 28 31
f 23 117 102
f 101 103 161
f 41 48 49
f 44 97 91
f 8 9 106
f 74 149 112
f 94 144 126
f 78 160 115
f 68 79 73
f 4 29 116
f 83 121 120
f 13 28 26
f 90 156 104
f 33 119 42
f 51 130 53
f 8 106 16
f 15 138 117
f 86 100 142
f 2 97 44
f 1 21 11
f 90 113 156
f 56 148 88
f 40 110 108
f 50 69 54
f 17 107 34
f 7 25 15
f 42 120 123
f 58 92 125
f 75 90 152
f 84 129 131
f 40 41 110
f 47 102 148
f 99 110 133
f 63 65 113
f 78 126 144
f 69 74 71
f 46 95 99
f 91 97 143
f 55 60 132
f 89 129 130
f 6 7 36
f 52 57 135
f 12 137 98
f 96 143 157
f 1 137 12
f 118 150 123
f 39 41 40
f 72 80 134
f 11 111 20
f 51 89 130
f 42 119 120
f 92 96 93
f 81 104 105
f 45 46 50
f 15 117 22
f 88 123 122
f 2 44 27
f 37 38 39
f 43 58 83
f 18 45 141
f 10 155 19
f 85 112 115
f 86 87 100
f 59 84 136
f 100 161 162
f 53 130 84
f 90 112 113
f 31 33 42
f 42 123 150
f 36 37 139
f 54 159 141
f 94 126 99
f 120 122 123
f 5 6 109
f 41 49 133
f 8 22 9
f 44 91 58
f 77 93 81
f 7 8 16
f 9 10 19
f 87 101 100
f 20 103 137
f 1 12 21
f 68 73 72
f 78 115 149
f 63 113 85
f 90 104 152
f 30 119 33
f 72 76 80
f 15 25 138
f 24 55 151
f 50 126 78
f 41 133 110
f 12 131 21
f 45 50 54
f 73 77 76
f 3 29 4
f 100 101 161
f 21 131 129
f 55 56 60
f 89 128 129
f 1 11 20
f 83 120 119
f 57 59 61
f 19 128 146
f 11 21 155
f 3 34 18
f 40 108 139
f 26 31 32
f 69 149 74
f 13 26 25
f 9 22 14
f 26 32 138
f 8 15 22
f 45 54 141
f 6 36 109
f 24 47 55
f 30 43 119
f 87 98 137
f 50 78 69
f 4 17 34
f 91 143 96
f 93 96 152
f 85 113 112
f 7 15 8
f 72 73 76
f 32 150 118
f 52 53 57
f 10 14 111
f 37 39 40
f 9 14 10
f 31 42 150
f 3 4 34
f 43 83 119
f 46 99 126
f 81 93 104
f 58 91 92
f 47 148 56
f 46 126 50
f 25 26 138
f 69 78 149
f 53 59 57
f 53 84 59
f 91 96 92
f 47 56 55
f 31 150 32
f 37 40 139
f 87 137 101
f 93 152 104
f 19 155 128
f 21 128 155
f 21 129 128
f 39 48 41
f 64 82 86
f 95 108 110
f 35 95 46
f 83 125 121
f 36 139 109
f 92 145 125
f 35 46 45
f 92 93 145
