v -0.000711354216 -0.000567586104 0.0698098444
v 2.31256615e-10 5.2546657e-11 -9.20385515e-10
v 0.0123606803 1.34828806e-10 0.00195773831
v 0.0235114108 -2.68693259e-11 0.00763931843
v 0.0331625813 -0.000273090494 0.0151404392
v 0.0387674444 -0.000427471161 0.0258252366
v 0.0404369587 -0.000580006115 0.0377661729
v 0.038116611 -0.000768497885 0.0498214079
v 0.0320471272 -0.000941336655 0.0605308821
v 0.0233075102 -0.00101265748 0.0688781289
v 0.012209687 -0.000980168979 0.0736087282
v -0.000210505916 -0.0141452284 0.0733990817
v 0.0346966456 0.0109356561 0.0202241484
v 0.0255879015 0.0103553564 0.0651114629
v 0.0382685687 0.0103416728 0.0436858181
v 0.0382776063 -0.0116960898 0.0435870395
v 0.0279514905 -0.011241337 0.0114313665
v 0.00602530252 -0.0107926893 0.00195773848
v 0.0267348688 -0.0119245097 0.0638585045
v 0.00537166222 0.0104837664 0.0734486261
v 0.0114301618 -0.0135582653 0.0722018119
v 0.0336602226 0.0106400451 0.0555520217
v 0.0264480419 0.0208962697 0.0580310135
v 0.0175853763 0.0201498668 0.0658308194
v 0.0385480917 0.0107932275 0.0319381309
v 0.0327224925 0.0210808908 0.0272877785
v 0.00602530238 0.0107926888 0.00195773865
v 0.0273539614 0.0208058332 0.0168814459
v 0.0187412134 0.010899777 0.00638509408
v 0.0121311421 0.0203429004 0.00776644679
v 0.0238010095 0.0297262038 0.0243230994
v 0.0280388021 0.028749564 0.036357818
v 0.0167797119 0.0279241902 0.0145158339
v 0.0171129703 -0.0105219481 0.00541047877
v 0.0109998933 -0.0214982304 0.00811224997
v 0.0384574701 -0.0115176681 0.0316701745
v 0.0344473211 -0.0217988376 0.0370366734
v 0.0325296667 -0.0216214096 0.0482643668
v 0.026812411 -0.0304637733 0.0422670474
v 0.0276821697 -0.0293621922 0.0304902085
v 0.0185257628 -0.0365855046 0.035678093
v 0.0124849116 0.0355994463 0.023063356
v -0.000191616101 0.0222890359 0.00678611282
v -0.00644031706 0.0107092021 0.00200216598
v -0.00163131777 -0.0200015134 0.00539828848
v 0.00285988662 -0.0297286581 0.0107282812
v 0.0165983514 0.0289879873 0.0583721409
v 0.0166009308 -0.035970462 0.0475706095
v 0.00730937925 -0.0406188896 0.0404026192
v -0.00981364775 -0.0287526773 0.0108962215
v 0.00491143664 -0.0378503484 0.0518041856
v -0.00477344629 -0.0404487333 0.0444217924
v -0.00702361134 -0.0357708998 0.0556665045
v -0.0139237074 -0.0172534855 0.00670664017
v 0.00691068073 0.0274947127 0.0646401943
v 0.00553307385 0.034562223 0.0559246204
v -0.0163788094 -0.0363809146 0.0474768631
v -0.0129863369 0.0211766731 0.00864870434
v -0.0181488347 -0.0301166804 0.0580555501
v -0.0047932285 0.0312158819 0.061119536
v -0.0266912436 -0.0292423171 0.0491639813
v -0.0272526326 -0.0213351204 0.0586589938
v -0.034677432 -0.0192289376 0.0491038808
v -0.033847657 -0.0107268915 0.0573801601
v -0.0397511725 -0.00619125127 0.0457490433
v -0.0060561619 0.037027971 0.0513185407
v -0.0161030209 0.0313540164 0.0560785975
v -0.0170111675 0.035868117 0.0448621195
v -0.0214867884 -0.0233624755 0.0122258639
v -0.0155342856 0.0249777766 0.063933382
v -0.0257418157 -0.0116164604 0.00909960067
v -0.0261319624 0.0286581463 0.0491192123
v -0.0257143155 0.0314967682 0.0370985442
v -0.0316747098 -0.0171677897 0.017635074
v -0.033400855 -0.00520574684 0.0147022222
v -0.0337012637 0.0228135565 0.0407147805
v -0.0320701298 0.0241395389 0.0293241411
v -0.0180910996 -0.033066237 0.020695194
v -0.0146101843 0.0375308326 0.0327661361
v -0.0335777026 0.0182210328 0.0511524917
v -0.0384317396 0.0142075163 0.03310035
v -0.0249006578 -0.0117794064 0.0663011835
v -0.0062585932 0.0309326966 0.0134248801
v -0.00812879517 -0.0279221469 0.0650373357
v -0.0325419986 -0.0257737514 0.0385747262
v -0.029907362 -0.000298967428 0.0640245761
v -0.0202735748 -0.00157936333 0.0711859071
v 0.00448484005 0.0392690604 0.0447181107
v 0.0137745827 -0.0314194674 0.0584925907
v -0.0384977858 -0.00795053067 0.0243491344
v -0.0183134776 0.00920714406 0.00565112485
v -0.0242431004 0.0181873184 0.01164056
v -0.0344092356 0.0144976136 0.020460479
v -0.00163419214 -0.0408403975 0.0305413695
v 0.0150014089 -0.0295541477 0.014474822
v -0.0296104156 0.00636513593 0.0109076404
v -0.0116733886 -0.000655211795 0.00174685931
v -0.013772408 -0.0128225056 0.0717775969
v 0.00640249281 -0.0366314239 0.0202237968
v -0.0238308722 0.00978839698 0.0674490843
v -0.0126372382 0.00866680024 0.0729266701
v 0.0239911105 0.0296367158 0.0488500776
v -0.00396721593 0.0140122283 0.0728396506
v -0.0396447689 0.00411369191 0.027104662
v -0.0409858747 0.00445862091 0.0385837789
v 0.0344506593 -0.011799611 0.0540652807
v 0.0212556829 -0.0202284561 0.0105788985
v 0.026426936 -0.0247875627 0.0189322146
v 0.0349225078 -0.0109433649 0.0201140118
v 0.0180958712 -0.0345057701 0.0246467121
v 0.0172690781 0.00777715384 0.071066214
v -0.0344562798 -0.0210405874 0.027751364
v -0.0390918508 -0.0137128326 0.0362860428
v -0.0385091253 0.00583596307 0.0498736367
v -0.0270103041 -0.0305704107 0.0294049046
v 0.0272208033 0.0102306375 0.0110043686
v 0.03274943 0.0201041955 0.0480979001
v 0.0179656091 0.0357408991 0.0406393842
v 0.00579677336 0.0318999811 0.014435509
v -0.000778073597 0.0381030479 0.02407024
v -0.0125635147 0.0348449548 0.0214264068
v -0.00283664012 0.0400939141 0.0352641461
v 0.00871703995 0.0389165999 0.0333627012
v -0.0227055736 0.0316360115 0.025718669
v -0.0180087645 0.0283840027 0.0157696106
v -0.0050616629 -0.0363255878 0.0190951205
v 0.0236324664 -0.0285591685 0.0534394346
v 0.0204944248 -0.0214208428 0.0638388324
v 0.00855501236 -0.0246964817 0.0672067952
v 0.00289426614 -0.0333702586 0.0599974086
v -0.00123960985 -0.0214339276 0.0703076013
v -0.004272005 0.0238523304 0.0680272135
v 0.0100830378 -0.0392869572 0.0301593639
v -0.0256561 0.0232136084 0.0577657054
v -0.0134989133 -0.0393454571 0.0366526249
v -0.019653929 -0.0217047942 0.0649317311
v -0.0132944938 -0.00108376922 0.0733818934
v 0.0354481416 0.0189913401 0.037540062
v 0.0338653606 -0.0205539518 0.0276143024
v -0.0235311006 -0.0341847175 0.0385177312
v -0.0063516391 -0.00907876675 0.00156521369
v -0.0316324175 0.0103991573 0.0600353278
v -0.0207499774 -0.000433769815 0.00580569606
v -0.0115718785 -0.0384230862 0.0265736466
v -0.0276056293 0.0243164073 0.0200255754
v 0.0286203485 -0.0200828262 0.0569955459
v -0.0382509088 0.0134482711 0.0428560378
v 0.0142758376 0.0348280939 0.0504387421
v -0.027071705 -0.0259687945 0.0204971647
v 0.0186434306 0.0350502787 0.0310117203
v 0.00777962347 0.0195235435 0.0698325022
v -0.0359540238 0.00393987295 0.0180273348
v 0.0210795877 0.0184153313 0.0102179488
v -0.0359282103 -0.000761535971 0.0565755693
v 0.0202413875 -0.00936413943 0.069633007
v -0.0409765674 -0.00428172608 0.0337200101
v -0.028286938 -0.00212222179 0.0094665221
v -0.00796313519 0.0391461374 0.0428629378
v -0.0168965515 -0.00861180976 0.00478149103
v -0.0192790188 -0.0361611765 0.0302173337
v -0.0163102365 0.0162432182 0.0691791595
v -0.022678053 0.0176777885 0.0647417475
f 39 127 48
f 64 86 154
f 66 158 68
f 80 142 134
f 97 159 143
f 64 154 65
f 115 160 140
f 134 142 162
f 71 157 143
f 66 68 67
f 24 151 111
f 68 158 79
f 71 143 159
f 5 116 13
f 38 127 39
f 63 64 65
f 86 142 154
f 28 153 33
f 74 90 75
f 27 30 29
f 102 118 148
f 114 154 142
f 38 146 127
f 103 151 132
f 70 162 161
f 61 85 140
f 135 140 160
f 71 75 157
f 19 146 106
f 70 134 162
f 78 144 160
f 80 114 142
f 80 147 114
f 61 62 63
f 135 160 144
f 17 108 107
f 29 30 153
f 4 116 5
f 49 52 94
f 70 161 132
f 65 105 156
f 12 98 131
f 30 33 153
f 48 127 89
f 75 96 157
f 65 154 114
f 60 66 67
f 81 105 147
f 16 106 38
f 71 74 75
f 67 134 70
f 76 81 147
f 34 107 35
f 103 132 161
f 13 116 28
f 38 106 146
f 28 116 153
f 95 110 99
f 43 44 58
f 66 88 158
f 94 135 144
f 48 51 49
f 29 153 116
f 2 18 141
f 88 148 118
f 62 64 63
f 77 124 145
f 52 135 94
f 54 71 159
f 5 13 6
f 62 82 64
f 57 140 135
f 79 121 124
f 58 125 83
f 14 23 24
f 23 102 47
f 105 114 147
f 67 72 134
f 59 136 62
f 60 67 70
f 85 115 140
f 7 16 36
f 49 51 52
f 56 88 66
f 121 125 124
f 60 70 132
f 6 25 7
f 16 38 37
f 65 114 105
f 95 107 108
f 35 107 95
f 18 35 45
f 2 141 97
f 18 34 35
f 67 68 72
f 97 141 159
f 79 158 122
f 108 109 139
f 124 125 145
f 9 19 106
f 16 37 36
f 17 109 108
f 73 79 124
f 100 162 142
f 84 98 136
f 74 112 90
f 84 131 98
f 54 69 71
f 79 120 121
f 94 99 133
f 59 62 61
f 82 87 86
f 22 117 23
f 20 111 151
f 62 136 82
f 65 156 113
f 73 124 77
f 56 66 60
f 61 63 85
f 76 147 80
f 76 77 81
f 32 102 117
f 82 98 87
f 57 61 140
f 48 89 51
f 10 11 155
f 2 3 18
f 112 149 115
f 20 151 103
f 28 33 31
f 82 136 98
f 101 137 103
f 127 146 128
f 27 43 30
f 1 20 137
f 2 27 3
f 27 44 43
f 89 127 128
f 104 156 105
f 79 122 120
f 77 145 93
f 23 47 24
f 84 130 129
f 10 111 11
f 32 118 102
f 14 24 111
f 14 22 23
f 88 122 158
f 5 109 17
f 32 117 138
f 4 5 17
f 3 27 29
f 75 152 96
f 49 94 133
f 55 132 151
f 88 118 123
f 6 13 25
f 51 53 52
f 26 28 31
f 23 117 102
f 101 103 161
f 41 48 49
f 44 97 91
f 8 9 106
f 74 149 112
f 94 144 126
f 78 160 115
f 68 79 73
f 4 29 116
f 83 121 120
f 13 28 26
f 90 156 104
f 33 119 42
f 51 130 53
f 8 106 16
f 15 138 117
f 86 100 142
f 2 97 44
f 1 21 11
f 90 113 156
f 56 148 88
f 40 110 108
f 50 69 54
f 17 107 34
f 7 25 15
f 42 120 123
f 58 92 125
f 75 90 152
f 84 129 131
f 40 41 110
f 47 102 148
f 99 110 133
f 63 65 113
f 78 126 144
f 69 74 71
f 46 95 99
f 91 97 143
f 55 60 132
f 89 129 130
f 6 7 36
f 52 57 135
f 12 137 98
f 96 143 157
f 1 137 12
f 118 150 123
f 39 41 40
f 72 80 134
f 11 111 20
f 51 89 130
f 42 119 120
f 92 96 93
f 81 104 105
f 45 46 50
f 15 117 22
f 88 123 122
f 2 44 27
f 37 38 39
f 43 58 83
f 18 45 141
f 10 155 19
f 85 112 115
f 86 87 100
f 59 84 136
f 100 161 162
f 53 130 84
f 90 112 113
f 31 33 42
f 42 123 150
f 36 37 139
f 54 159 141
f 94 126 99
f 120 122 123
f 5 6 109
f 41 49 133
f 8 22 9
f 44 91 58
f 77 93 81
f 7 8 16
f 9 10 19
f 87 101 100
f 20 103 137
f 1 12 21
f 68 73 72
f 78 115 149
f 63 113 85
f 90 104 152
f 30 119 33
f 72 76 80
f 15 25 138
f 24 55 151
f 50 126 78
f 41 133 110
f 12 131 21
f 45 50 54
f 73 77 76
f 3 29 4
f 100 101 161
f 21 131 129
f 55 56 60
f 89 128 129
f 1 11 20
f 83 120 119
f 57 59 61
f 19 128 146
f 11 21 155
f 3 34 18
f 40 108 139
f 26 31 32
f 69 149 74
f 13 26 25
f 9 22 14
f 26 32 138
f 8 15 22
f 45 54 141
f 6 36 109
f 24 47 55
f 30 43 119
f 87 98 137
f 50 78 69
f 4 17 34
f 91 143 96
f 93 96 152
f 85 113 112
f 7 15 8
f 72 73 76
f 32 150 118
f 52 53 57
f 10 14 111
f 37 39 40
f 9 14 10
f 31 42 150
f 3 4 34
f 43 83 119
f 46 99 126
f 81 93 104
f 58 91 92
f 47 148 56
f 46 126 50
f 25 26 138
f 69 78 149
f 53 59 57
f 53 84 59
f 91 96 92
f 47 56 55
f 31 150 32
f 37 40 139
f 87 137 101
f 93 152 104
f 19 155 128
f 21 128 155
f 21 129 128
f 39 48 41
f 64 82 86
f 95 108 110
f 35 95 46
f 83 125 121
f 36 139 109
f 92 145 125
f 35 46 45
f 92 93 145
