v -0.000565909966 -0.00070714935 0.0617061182
v 3.53942661e-10 8.61049493e-11 -1.47841995e-09
v 0.0123606806 2.22436046e-10 0.00195773774
v 0.0235114113 -1.20635235e-10 0.00763931728
v 0.033573526 -0.000380178259 0.0145401404
v 0.0393099369 -0.000562322795 0.0249811596
v 0.0410094516 -0.00070364802 0.0366943808
v 0.0386159323 -0.000876225118 0.0486157044
v 0.0324621724 -0.00108265618 0.0591035871
v 0.0237581607 -0.00115334386 0.0670974603
v 0.0125143185 -0.00119092565 0.0712700649
v -3.38351571e-05 -0.0145009216 0.0709125004
v 0.0351923975 0.0109472927 0.0194139332
v 0.0262575653 0.0104660521 0.063257319
v 0.0388018752 0.0103391363 0.0424837674
v 0.0388642455 -0.0119410322 0.0425473326
v 0.0282526335 -0.0114136387 0.0108973747
v 0.00602530275 -0.0107926893 0.0019577381
v 0.0271004204 -0.0121515834 0.0623018891
v 0.00567531962 0.00973795772 0.0680626934
v 0.0118554012 -0.0138270225 0.0703047397
v 0.0341531076 0.0106824004 0.0541337188
v 0.0268767944 0.0211184686 0.0564887246
v 0.017973642 0.0204363088 0.0638859371
v 0.0391066909 0.0108355158 0.0309037873
v 0.0331698485 0.021226259 0.0263390293
v 0.00602530249 0.0107926884 0.00195773827
v 0.0277373449 0.0209977533 0.0161492267
v 0.0187412139 0.0108997768 0.00638509319
v 0.0121311422 0.0203429013 0.00776644575
v 0.0241674042 0.030000633 0.0233805813
v 0.0284481274 0.028985523 0.0352337891
v 0.0169888593 0.0281867444 0.0138566429
v 0.0171129705 -0.0105219483 0.00541047796
v 0.0109998936 -0.0214982309 0.00811224912
v 0.0389172531 -0.0117824593 0.0307544708
v 0.0349337112 -0.0221768235 0.0360148222
v 0.0330413394 -0.0219793957 0.0471519157
v 0.0272232886 -0.0309176726 0.0412006171
v 0.0280832913 -0.0298078645 0.0294874888
v 0.018806658 -0.037051993 0.0347317624
v 0.0126968111 0.0359544317 0.0221223149
v -0.000191616163 0.0222890364 0.00678611179
v -0.00644031678 0.0107092025 0.00200216543
v -0.00163131782 -0.0200015141 0.00539828751
v 0.00295213745 -0.0299383013 0.0100787852
v 0.0168641421 0.0293326329 0.0566984843
v 0.0168922451 -0.0364626954 0.04653184
v 0.00755485327 -0.04125585 0.0393735011
v -0.00979741373 -0.0290985695 0.0103210859
v 0.00506291255 -0.0383891802 0.0505438597
v -0.0047037261 -0.0411009659 0.04323106
v -0.00695431291 -0.0363246825 0.054351456
v -0.0139237077 -0.0172534863 0.0067066392
v 0.0070575276 0.0280945608 0.0626942848
v 0.00565362583 0.0349761294 0.0542385395
v -0.0163720904 -0.0369551055 0.0462260911
v -0.0129863373 0.0211766735 0.00864870334
v -0.0182042382 -0.0307115707 0.0567017774
v -0.00486830783 0.0316792883 0.0592779111
v -0.0268208563 -0.0298700013 0.0479921902
v -0.0274462488 -0.0218568431 0.0571763643
v -0.0349915453 -0.0197371017 0.0479470287
v -0.0341977415 -0.011154449 0.0560345014
v -0.0400756432 -0.00655130129 0.0445047263
v -0.00619646718 0.0373545823 0.0498500732
v -0.016324057 0.0315855395 0.0544705028
v -0.0173284131 0.0361697811 0.0435380752
v -0.0215531468 -0.0236104907 0.0114740709
v -0.0158694777 0.0253010594 0.0621218606
v -0.0260358771 -0.0117412268 0.00858404787
v -0.0265052717 0.0288043265 0.0478243155
v -0.0260659196 0.0316335679 0.0359444046
v -0.0319255799 -0.0175163472 0.0168022213
v -0.033740086 -0.00537677418 0.0139917977
v -0.03410994 0.0228500914 0.0394975026
v -0.032495964 0.0241719173 0.0282117205
v -0.0181660651 -0.0334899111 0.019821337
v -0.0147455196 0.0377996234 0.0317184065
v -0.0339876145 0.0182191703 0.0497695729
v -0.0388742978 0.0141537883 0.0320103378
v -0.0251631734 -0.0121334252 0.0645450024
v -0.00630490239 0.0311769632 0.0129251558
v -0.00805934444 -0.0284389991 0.0634443057
v -0.0327711824 -0.0262634312 0.0375276947
v -0.0302047578 -0.000503371081 0.0622210234
v -0.0205228346 -0.00179055694 0.0689294663
v 0.00452128861 0.0397099267 0.0434237102
v 0.014058601 -0.0317953043 0.0572064861
v -0.0388932457 -0.00823959728 0.023374742
v -0.0183134782 0.00920714447 0.00565112371
v -0.0244844864 0.018252537 0.0111341403
v -0.0348016968 0.0144669448 0.0194404782
v -0.00150545551 -0.0413774262 0.0296169067
v 0.0151616601 -0.0299091361 0.0138241836
v -0.0298975621 0.00634629745 0.0102239914
v -0.0116733884 -0.000655211828 0.00174685874
v -0.013942475 -0.0133671115 0.0694513812
v 0.00649511594 -0.0370616217 0.0193906448
v -0.0242830834 0.00971333859 0.0654565821
v -0.0129834236 0.00887501387 0.0699270393
v 0.0243699612 0.0299243339 0.0474677601
v -0.00415201618 0.0144412867 0.0697680269
v -0.0400300755 0.00394806156 0.0260990271
v -0.0414453488 0.00420877333 0.0374117129
v 0.0349607539 -0.0120642827 0.0528163977
v 0.0215160756 -0.0204760003 0.0100634736
v 0.0267671097 -0.0251569462 0.0181092402
v 0.035376563 -0.0111657207 0.0193298792
v 0.0183276965 -0.0349800811 0.0237931757
v 0.0180678342 0.00777084998 0.0685284347
v -0.0347297319 -0.0214686521 0.0267380963
v -0.0394146901 -0.0141565054 0.0351980917
v -0.038947729 0.00563336993 0.0485063016
v -0.0271838988 -0.0310551975 0.0284498404
v 0.0275460016 0.0103207814 0.010599375
v 0.03320296 0.0202369317 0.0468028286
v 0.0182472017 0.0361282932 0.0393895494
v 0.00587624523 0.0321887136 0.0138367558
v -0.000784218837 0.0384536418 0.0230920153
v -0.0127444151 0.0351097315 0.020639308
v -0.00287769058 0.0403832628 0.0341517287
v 0.00882055623 0.0391780233 0.0322483035
v -0.0230005245 0.0318357092 0.0248153286
v -0.0182008047 0.0285711723 0.0151750488
v -0.00499470811 -0.0367531849 0.0183012906
v 0.0240291738 -0.0289582024 0.0522273425
v 0.0207970805 -0.0216529821 0.0623040045
v 0.00880021223 -0.0249853378 0.0655783629
v 0.00309877462 -0.0338809576 0.0586058212
v -0.00109225895 -0.0217777593 0.0682992797
v -0.00443702927 0.0243873699 0.0657567541
v 0.0102798354 -0.0397986711 0.0292167357
v -0.0259692673 0.0232937483 0.0562744166
v -0.0135323361 -0.039963504 0.0355101075
v -0.0198533162 -0.0222656512 0.0633034941
v -0.0133316005 -0.00121396399 0.069543926
v 0.0359520237 0.0191015661 0.0364373752
v 0.0343597939 -0.020911631 0.0266548044
v -0.0236552445 -0.0347119811 0.0374150965
v -0.00635163933 -0.00907876691 0.00156521287
v -0.0320790892 0.0103071669 0.0584297211
v -0.0207499782 -0.000433769919 0.00580569545
v -0.0115739447 -0.0389829254 0.0255914915
v -0.027941876 0.0244406443 0.019186857
v 0.0290456765 -0.0203928365 0.0556997564
v -0.0386419494 0.0133213568 0.0415920481
v 0.014552775 0.035239254 0.0489284313
v -0.0271848989 -0.026358229 0.0196173569
v 0.0189068733 0.0353477897 0.0299299832
v 0.00793169214 0.0201526831 0.0670794251
v -0.0363675191 0.00382393977 0.0171118546
v 0.0213019176 0.0184895566 0.00983023365
v -0.036378771 -0.00103357468 0.0551441207
v 0.0206254778 -0.00952185998 0.0678996311
v -0.0413885246 -0.00464291617 0.0326339114
v -0.0285330515 -0.00218951318 0.00897678515
v -0.00810075549 0.0395058206 0.0416651993
v -0.0168965517 -0.00861180997 0.00478149057
v -0.019357438 -0.0366991428 0.0291937953
v -0.016701036 0.0165257094 0.067034015
v -0.0230775244 0.0177032776 0.0628920606
f 39 127 48
f 64 86 154
f 66 158 68
f 80 142 134
f 97 159 143
f 64 154 65
f 115 160 140
f 134 142 162
f 71 157 143
f 66 68 67
f 24 151 111
f 68 158 79
f 71 143 159
f 5 116 13
f 38 127 39
f 63 64 65
f 86 142 154
f 28 153 33
f 74 90 75
f 27 30 29
f 102 118 148
f 114 154 142
f 38 146 127
f 103 151 132
f 70 162 161
f 61 85 140
f 135 140 160
f 71 75 157
f 19 146 106
f 70 134 162
f 78 144 160
f 80 114 142
f 80 147 114
f 61 62 63
f 135 160 144
f 17 108 107
f 29 30 153
f 4 116 5
f 49 52 94
f 70 161 132
f 65 105 156
f 12 98 131
f 30 33 153
f 48 127 89
f 75 96 157
f 65 154 114
f 60 66 67
f 81 105 147
f 16 106 38
f 71 74 75
f 67 134 70
f 76 81 147
f 34 107 35
f 103 132 161
f 13 116 28
f 38 106 146
f 28 116 153
f 95 110 99
f 43 44 58
f 66 88 158
f 94 135 144
f 48 51 49
f 29 153 116
f 2 18 141
f 88 148 118
f 62 64 63
f 77 124 145
f 52 135 94
f 54 71 159
f 5 13 6
f 62 82 64
f 57 140 135
f 79 121 124
f 58 125 83
f 14 23 24
f 23 102 47
f 105 114 147
f 67 72 134
f 59 136 62
f 60 67 70
f 85 115 140
f 7 16 36
f 49 51 52
f 56 88 66
f 121 125 124
f 60 70 132
f 6 25 7
f 16 38 37
f 65 114 105
f 95 107 108
f 35 107 95
f 18 35 45
f 2 141 97
f 18 34 35
f 67 68 72
f 97 141 159
f 79 158 122
f 108 109 139
f 124 125 145
f 9 19 106
f 16 37 36
f 17 109 108
f 73 79 124
f 100 162 142
f 84 98 136
f 74 112 90
f 84 131 98
f 54 69 71
f 79 120 121
f 94 99 133
f 59 62 61
f 82 87 86
f 22 117 23
f 20 111 151
f 62 136 82
f 65 156 113
f 73 124 77
f 56 66 60
f 61 63 85
f 76 147 80
f 76 77 81
f 32 102 117
f 82 98 87
f 57 61 140
f 48 89 51
f 10 11 155
f 2 3 18
f 112 149 115
f 20 151 103
f 28 33 31
f 82 136 98
f 101 137 103
f 127 146 128
f 27 43 30
f 1 20 137
f 2 27 3
f 27 44 43
f 89 127 128
f 104 156 105
f 79 122 120
f 77 145 93
f 23 47 24
f 84 130 129
f 10 111 11
f 32 118 102
f 14 24 111
f 14 22 23
f 88 122 158
f 5 109 17
f 32 117 138
f 4 5 17
f 3 27 29
f 75 152 96
f 49 94 133
f 55 132 151
f 88 118 123
f 6 13 25
f 51 53 52
f 26 28 31
f 23 117 102
f 101 103 161
f 41 48 49
f 44 97 91
f 8 9 106
f 74 149 112
f 94 144 126
f 78 160 115
f 68 79 73
f 4 29 116
f 83 121 120
f 13 28 26
f 90 156 104
f 33 119 42
f 51 130 53
f 8 106 16
f 15 138 117
f 86 100 142
f 2 97 44
f 1 21 11
f 90 113 156
f 56 148 88
f 40 110 108
f 50 69 54
f 17 107 34
f 7 25 15
f 42 120 123
f 58 92 125
f 75 90 152
f 84 129 131
f 40 41 110
f 47 102 148
f 99 110 133
f 63 65 113
f 78 126 144
f 69 74 71
f 46 95 99
f 91 97 143
f 55 60 132
f 89 129 130
f 6 7 36
f 52 57 135
f 12 137 98
f 96 143 157
f 1 137 12
f 118 150 123
f 39 41 40
f 72 80 134
f 11 111 20
f 51 89 130
f 42 119 120
f 92 96 93
f 81 104 105
f 45 46 50
f 15 117 22
f 88 123 122
f 2 44 27
f 37 38 39
f 43 58 83
f 18 45 141
f 10 155 19
f 85 112 115
f 86 87 100
f 59 84 136
f 100 161 162
f 53 130 84
f 90 112 113
f 31 33 42
f 42 123 150
f 36 37 139
f 54 159 141
f 94 126 99
f 120 122 123
f 5 6 109
f 41 49 133
f 8 22 9
f 44 91 58
f 77 93 81
f 7 8 16
f 9 10 19
f 87 101 100
f 20 103 137
f 1 12 21
f 68 73 72
f 78 115 149
f 63 113 85
f 90 104 152
f 30 119 33
f 72 76 80
f 15 25 138
f 24 55 151
f 50 126 78
f 41 133 110
f 12 131 21
f 45 50 54
f 73 77 76
f 3 29 4
f 100 101 161
f 21 131 129
f 55 56 60
f 89 128 129
f 1 11 20
f 83 120 119
f 57 59 61
f 19 128 146
f 11 21 155
f 3 34 18
f 40 108 139
f 26 31 32
f 69 149 74
f 13 26 25
f 9 22 14
f 26 32 138
f 8 15 22
f 45 54 141
f 6 36 109
f 24 47 55
f 30 43 119
f 87 98 137
f 50 78 69
f 4 17 34
f 91 143 96
f 93 96 152
f 85 113 112
f 7 15 8
f 72 73 76
f 32 150 118
f 52 53 57
f 10 14 111
f 37 39 40
f 9 14 10
f 31 42 150
f 3 4 34
f 43 83 119
f 46 99 126
f 81 93 104
f 58 91 92
f 47 148 56
f 46 126 50
f 25 26 138
f 69 78 149
f 53 59 57
f 53 84 59
f 91 96 92
f 47 56 55
f 31 150 32
f 37 40 139
f 87 137 101
f 93 152 104
f 19 155 128
f 21 128 155
f 21 129 128
f 39 48 41
f 64 82 86
f 95 108 110
f 35 95 46
f 83 125 121
f 36 139 109
f 92 145 125
f 35 46 45
f 92 93 145
